<?xml version="1.0" encoding="UTF-8" standalone="no"?>
<svg
   version="1.1"
   id="Layer_1"
   x="0px"
   y="0px"
   width="200.15903"
   viewBox="0 0 200.15903 196.94502"
   enable-background="new 0 0 300 300"
   xml:space="preserve"
   sodipodi:docname="3d.svg"
   height="196.94502"
   inkscape:version="1.1 (c68e22c387, 2021-05-23)"
   xmlns:inkscape="http://www.inkscape.org/namespaces/inkscape"
   xmlns:sodipodi="http://sodipodi.sourceforge.net/DTD/sodipodi-0.dtd"
   xmlns="http://www.w3.org/2000/svg"
   xmlns:svg="http://www.w3.org/2000/svg"><defs
   id="defs111" /><sodipodi:namedview
   id="namedview109"
   pagecolor="#ffffff"
   bordercolor="#666666"
   borderopacity="1.0"
   inkscape:pageshadow="2"
   inkscape:pageopacity="0.0"
   inkscape:pagecheckerboard="0"
   showgrid="false"
   inkscape:zoom="1.7066667"
   inkscape:cx="96.386719"
   inkscape:cy="99.902344"
   inkscape:window-width="1366"
   inkscape:window-height="697"
   inkscape:window-x="-8"
   inkscape:window-y="-8"
   inkscape:window-maximized="1"
   inkscape:current-layer="Layer_1" />





















































<g
   id="g4645"
   transform="translate(-54.930595,-30.833632)"><path
     fill="#434343"
     opacity="1"
     stroke="none"
     d="m 210.06964,173.25134 c 0.0301,13.22393 0.0718,26.44782 0.0856,39.67176 0.008,7.488 -1.36908,8.82371 -9.00251,8.90139 -0.9896,0.0101 -1.97857,0.0843 -3.87321,0.16805 -4.71603,0.0336 -8.52666,0.028 -12.3373,0.0224 -28.54745,-0.0649 -57.09489,-0.13368 -85.64236,-0.19128 -5.809654,-0.0117 -11.619385,0.0188 -18.355179,0.11215 -4.881111,0.0658 -8.836136,0.0491 -12.791153,0.0325 -13.008747,0.27424 -13.23431,-2.45125 -13.202064,-13.92862 0.123417,-43.92861 0.04776,-87.85777 0.05182,-131.786716 7.06e-4,-7.618149 1.792553,-9.424378 9.333405,-9.431122 22.629738,-0.02026 45.259471,-0.03378 68.330661,-0.05193 0.44145,-0.002 0.43044,0.241181 0.70403,0.547287 0.91658,0.430741 1.55945,0.663742 2.20256,0.66433 22.38872,0.02049 44.77748,0.03122 67.1661,-0.01642 1.07758,-0.0023 2.154,-0.546348 3.54143,-0.842277 1.15514,0.837601 1.9998,1.679382 2.87751,2.78833 0.25958,0.535843 0.48611,0.80452 0.84979,1.393135 0.10075,0.776344 0.0644,1.232765 -0.25408,1.931206 -0.0926,2.085281 0.0969,3.928551 0.35662,6.235557 0.0346,16.410485 -0.001,32.35724 -0.0372,48.78685 -0.002,15.31975 -0.003,30.15663 -0.004,44.9935 M 74.717163,106.8428 c -0.215019,2.18714 -0.430038,4.37427 -0.641624,7.64 0.01945,1.07961 0.03891,2.15921 0.36232,3.98289 0.790512,4.8763 -2.655037,5.32871 -6.006676,5.59763 0,28.36707 0,56.51793 0,84.95356 10.093468,0 19.86924,0 30.494743,-0.0585 1.984264,0.0226 3.968524,0.0453 6.743984,0.084 1.84733,-0.84305 4.09882,-1.26788 5.47536,-2.59813 7.98477,-7.71611 15.65338,-15.76134 23.70179,-23.40805 1.67886,-1.59509 4.46184,-2.65251 6.80882,-2.80014 6.43987,-0.40506 12.91849,-0.19441 20.29009,-0.2565 1.8248,-0.0247 3.64961,-0.0494 6.35171,0.0516 9.71441,0 19.42879,0 29.61864,0 0,-21.28766 0,-41.86949 0.0189,-63.426 -0.004,-0.96928 -0.007,-1.93856 -0.1678,-3.68856 0.0512,-2.10543 0.10236,-4.21084 0.16647,-7.291 -0.002,-0.97142 -0.004,-1.94283 -0.18917,-3.79975 0,-7.411008 0,-14.822027 0,-22.444005 -21.42167,0 -42.1458,0 -63.62795,-0.169823 -1.04225,0.05984 -2.0845,0.119675 -4.05128,0.03243 -20.57839,0 -41.15678,0 -61.692035,0 0,6.179382 0,11.613273 0,17.38282 5.44506,-0.892235 6.220596,2.651985 6.654373,7.273018 -0.02476,0.75731 -0.04951,1.51462 -0.310715,2.94246 M 188.4545,209.03372 c 2.94558,0 5.89117,0 8.9877,0 0,-7.81424 0,-15.01951 0,-22.26344 -18.92377,0 -37.47678,0 -56.05328,0 0,7.49171 0,14.5936 0,22.26347 15.5368,0 30.80838,0 47.06558,-3e-5 z"
     id="path4"
     style="fill:#000000;fill-opacity:1;stroke:#000000;stroke-width:0.0377953;stroke-miterlimit:4;stroke-dasharray:none;stroke-opacity:1" /><path
     fill="#F2801E"
     opacity="1"
     stroke="none"
     d="m 133.13138,66.648239 c 6.23042,-18.83926 18.65266,-30.871929 38.16638,-34.818247 29.86241,-6.039165 58.06248,16.666365 58.65764,47.106753 0.18757,9.59391 0.0293,19.194595 0.0293,29.301365 5.27497,0 10.04871,0 15.32607,0.43699 0.42296,14.38698 0.34233,28.33697 -0.18005,42.29551 -8.59133,8.9e-4 -16.74089,-0.007 -24.96274,-0.47491 -0.0441,-13.80434 -0.0159,-27.1482 0.14749,-40.58509 0.32945,-0.42313 0.23952,-0.67231 -0.17267,-1.04165 -0.0381,-0.20112 0.0325,-0.60437 0.46973,-0.60511 2.22641,-7.4e-4 4.01561,-7.4e-4 5.87663,-7.4e-4 0,-11.274775 0.95029,-22.150218 -0.18503,-32.803393 C 223.35167,47.75568 198.94311,30.10252 171.52704,34.99622 c -16.11572,2.876613 -31.57991,17.042842 -34.90297,31.671657 -1.43543,0.151352 -2.48088,0.247254 -3.52632,0.34314 0,0 0.011,-0.243179 0.0336,-0.362778 z"
     id="path6"
     style="fill:#000000;fill-opacity:1;stroke:#000000;stroke-width:0.0377953;stroke-miterlimit:4;stroke-dasharray:none;stroke-opacity:1" /><path
     fill="#D77118"
     opacity="1"
     stroke="none"
     d="m 220.24022,150.95615 c 8.14957,0.008 16.29913,0.0153 24.99556,0.47561 0.52299,14.1406 0.49913,27.8286 0.47528,41.5166 -8.20957,-0.01 -16.41914,-0.0192 -25.13886,-0.48458 -0.45077,-14.13973 -0.39138,-27.82369 -0.33198,-41.50763 z"
     id="path8"
     style="fill:#000000;fill-opacity:1;stroke:#000000;stroke-width:0.0377953;stroke-miterlimit:4;stroke-dasharray:none;stroke-opacity:1" /><path
     fill="#434343"
     opacity="1"
     stroke="none"
     d="m 220.16794,150.4957 c 0.0129,14.14439 -0.0465,27.82835 -0.054,41.96977 -0.0229,1.27203 0.17385,2.27212 -0.22941,2.86223 -0.82029,1.20042 -1.96447,2.17952 -2.97521,3.24978 -1.04147,-1.21313 -2.92972,-2.3899 -2.98364,-3.64546 -0.29593,-6.89044 -0.14247,-13.80015 -0.0609,-21.63789 0.0849,-15.76935 0.0875,-30.60407 0.0244,-45.89389 -0.0731,-7.2514 -0.23098,-14.0538 0.0453,-20.83853 0.0521,-1.28031 1.83208,-2.49027 2.81475,-3.7327 1.06392,1.15693 2.20883,2.25293 3.14912,3.50286 0.34287,0.45576 0.19885,1.27779 0.27696,1.93272 0,0 -0.0707,0.40325 -0.0855,0.83724 -0.0148,0.43399 0.0904,0.90179 0.0904,0.90179 -0.0282,13.34388 -0.0563,26.68774 -0.0122,40.49208 z"
     id="path10"
     style="fill:#000000;fill-opacity:1;stroke:#000000;stroke-width:0.0377953;stroke-miterlimit:4;stroke-dasharray:none;stroke-opacity:1" /><path
     fill="#424344"
     opacity="1"
     stroke="none"
     d="m 245.78583,193.34526 c -0.0509,-14.0849 -0.0271,-27.7729 -0.10831,-41.92206 -0.0245,-14.41113 0.0562,-28.36112 0.082,-42.75349 -0.008,-1.10195 -0.20277,-1.94737 0.13315,-2.38573 0.95386,-1.24469 2.12469,-2.3231 3.21011,-3.46698 0.96028,1.26724 2.6973,2.50265 2.75075,3.80705 0.27933,6.81676 0.1313,13.65103 0.15382,21.41603 0.0225,15.65053 0.0232,30.36425 0.0238,45.07795 -0.0153,6.7931 -0.0572,13.58632 -0.0314,20.37925 0.009,2.42243 0.0388,5.23148 -3.17642,4.83768 -1.15768,-0.14177 -1.98474,-2.98332 -3.03744,-4.9897 z"
     id="path12"
     style="fill:#000000;fill-opacity:1;stroke:#000000;stroke-width:0.0377953;stroke-miterlimit:4;stroke-dasharray:none;stroke-opacity:1" /><path
     fill="#292929"
     opacity="1"
     stroke="none"
     d="m 213.95479,127.85535 c -0.003,14.83471 -0.005,29.66943 -0.0253,44.99551 -1.04431,0.40862 -2.07097,0.32587 -3.47875,0.32179 -0.3798,-14.75818 -0.37851,-29.59506 -9.7e-4,-44.77275 1.41919,-0.40873 2.46209,-0.47664 3.50502,-0.54455 z"
     id="path14"
     style="fill:#000000;fill-opacity:1;stroke:#000000;stroke-width:0.0377953;stroke-miterlimit:4;stroke-dasharray:none;stroke-opacity:1" /><path
     fill="#262626"
     opacity="1"
     stroke="none"
     d="m 252.44418,173.07407 c -0.41371,-14.66974 -0.41432,-29.38346 -0.43496,-44.56244 2.14167,-0.46927 3.09191,0.25264 3.06076,2.76379 -0.15686,12.63986 -0.0107,25.28346 -0.16578,37.92339 -0.0158,1.28527 -1.33341,2.55458 -2.46002,3.87526 z"
     id="path20"
     style="fill:#000000;fill-opacity:1;stroke:#000000;stroke-width:0.0377953;stroke-miterlimit:4;stroke-dasharray:none;stroke-opacity:1" /><path
     fill="#242424"
     opacity="1"
     stroke="none"
     d="m 68.191628,222.4048 c 3.916877,-0.41994 7.871902,-0.40329 12.284004,-0.40324 0.457084,1.77838 0.457084,3.57336 0.457084,5.68049 -4.198936,0 -8.199539,0 -12.702949,0 0,-1.67303 0,-3.25685 -0.03814,-5.27725 z"
     id="path32"
     style="fill:#000000;fill-opacity:1;stroke:#000000;stroke-width:0.0377953;stroke-miterlimit:4;stroke-dasharray:none;stroke-opacity:1" /><path
     fill="#262626"
     opacity="1"
     stroke="none"
     d="m 184.94431,222.46469 c 3.80851,-0.44415 7.61914,-0.43851 11.9132,-0.40558 0.48343,1.8393 0.48343,3.65132 0.48343,5.70064 -4.14201,0 -8.04228,0 -12.39451,0 0,-1.66817 0,-3.25671 -0.002,-5.29506 z"
     id="path34"
     style="fill:#000000;fill-opacity:1;stroke:#000000;stroke-width:0.0377953;stroke-miterlimit:4;stroke-dasharray:none;stroke-opacity:1" /><path
     fill="#242424"
     opacity="1"
     stroke="none"
     d="m 104.77029,173.96446 c -0.0116,11.37676 -0.0233,22.75351 0.0368,34.59607 -1.9126,0.44316 -3.89686,0.42052 -6.30599,0.42711 -0.375152,-11.33958 -0.325439,-22.7084 0.109063,-34.51874 2.309907,-0.46249 4.235037,-0.48347 6.160167,-0.50444 z"
     id="path58"
     style="fill:#000000;fill-opacity:1;stroke:#000000;stroke-width:0.0377953;stroke-miterlimit:4;stroke-dasharray:none;stroke-opacity:1" /><path
     fill="#282828"
     opacity="1"
     stroke="none"
     d="m 149.00276,113.98805 c 16.00607,-0.0206 32.01216,-0.0411 48.46999,-0.17618 0.45535,0.85479 0.45894,1.82407 0.45305,3.28068 -14.15433,0.34695 -28.29918,0.20443 -42.44408,0.0688 -1.83247,-0.0176 -3.66527,3.2e-4 -5.97803,-0.38688 -0.48703,-1.1879 -0.49397,-1.98715 -0.50093,-2.78641 z"
     id="path60"
     style="fill:#000000;fill-opacity:1;stroke:#000000;stroke-width:0.0377953;stroke-miterlimit:4;stroke-dasharray:none;stroke-opacity:1" /><path
     fill="#262626"
     opacity="1"
     stroke="none"
     d="m 197.92747,106.11302 c -15.98223,0.35712 -31.95802,0.22687 -48.41801,-0.29429 -0.49466,-1.19099 -0.50511,-1.99105 -0.51556,-2.79111 16.01158,-0.0217 32.02316,-0.0434 48.48443,-0.19066 0.45168,0.84587 0.45365,1.81728 0.44914,3.27606 z"
     id="path62"
     style="fill:#000000;fill-opacity:1;stroke:#000000;stroke-width:0.0377953;stroke-miterlimit:4;stroke-dasharray:none;stroke-opacity:1" /><path
     fill="#282828"
     opacity="1"
     stroke="none"
     d="m 74.073822,113.9435 c 5.569687,-0.32399 11.13974,0.018 16.712799,0.077 8.412644,0.0892 16.827389,-0.0191 25.701679,0.3167 0.43805,1.24161 0.41565,2.12307 0.39326,3.00453 -13.96229,0.009 -27.924582,0.017 -42.317267,0.20271 -0.449844,-0.90246 -0.469299,-1.98206 -0.490471,-3.60097 z"
     id="path64"
     style="fill:#000000;fill-opacity:1;stroke:#000000;stroke-width:0.0377953;stroke-miterlimit:4;stroke-dasharray:none;stroke-opacity:1" /><path
     fill="#262626"
     opacity="1"
     stroke="none"
     d="m 116.87334,106.37965 c -13.65865,-0.0615 -27.317294,-0.12308 -41.447833,-0.196 -0.447144,-0.76869 -0.422387,-1.526 -0.39827,-2.66209 13.670303,-0.41714 27.341253,-0.45548 41.462523,-0.14397 0.42807,1.23392 0.40582,2.11799 0.38358,3.00206 z"
     id="path66"
     style="fill:#000000;fill-opacity:1;stroke:#000000;stroke-width:0.0377953;stroke-miterlimit:4;stroke-dasharray:none;stroke-opacity:1" /><path
     fill="#323D46"
     opacity="1"
     stroke="none"
     d="m 136.62407,66.667877 c 23.07649,0.02306 45.763,0.101563 68.89821,0.319557 -0.62828,0.431252 -1.7047,0.975312 -2.78228,0.9776 -22.38862,0.04764 -44.77738,0.03691 -67.1661,0.01642 -0.64311,-5.88e-4 -1.28598,-0.233589 -2.20256,-0.66433 0.77185,-0.401992 1.8173,-0.497894 3.25273,-0.649247 z"
     id="path68"
     style="fill:#000000;fill-opacity:1;stroke:#000000;stroke-width:0.0377953;stroke-miterlimit:4;stroke-dasharray:none;stroke-opacity:1" /><path
     fill="#EB9447"
     opacity="1"
     stroke="none"
     d="m 130.98441,96.578629 c 0.0133,-5.437111 0.0267,-10.87423 0.0228,-16.749192 1.02509,-0.49768 2.06734,-0.557518 3.48859,-0.53244 0.3584,5.528587 0.3378,10.972275 -0.0187,16.955231 -1.38814,0.468315 -2.44046,0.397362 -3.49276,0.326401 z"
     id="path70"
     style="fill:#000000;fill-opacity:1;stroke:#000000;stroke-width:0.0377953;stroke-miterlimit:4;stroke-dasharray:none;stroke-opacity:1" /><path
     fill="#242424"
     opacity="1"
     stroke="none"
     d="m 161.49181,179.99414 c -0.43235,-1.70608 -0.41053,-3.42668 0.0431,-5.56543 2.23857,-0.38347 4.04539,-0.34878 5.85222,-0.31409 0.008,1.65441 0.0164,3.30881 0.029,5.37706 -1.82047,0.43854 -3.64528,0.46325 -5.92424,0.50246 z"
     id="path72"
     style="fill:#000000;fill-opacity:1;stroke:#000000;stroke-width:0.0377953;stroke-miterlimit:4;stroke-dasharray:none;stroke-opacity:1" /><path
     fill="#464545"
     opacity="1"
     stroke="none"
     d="m 209.75467,73.235428 c 0.35229,1.482139 0.42255,3.206299 0.38956,5.351135 -0.29268,-1.422584 -0.48215,-3.265854 -0.38956,-5.351135 z"
     id="path74"
     style="fill:#000000;fill-opacity:1;stroke:#000000;stroke-width:0.0377953;stroke-miterlimit:4;stroke-dasharray:none;stroke-opacity:1" /><path
     fill="#464545"
     opacity="1"
     stroke="none"
     d="m 209.15894,69.911087 c 0.22247,-0.0075 0.47799,0.252098 0.72308,0.792465 -0.23697,0.01206 -0.4635,-0.256622 -0.72308,-0.792465 z"
     id="path76"
     style="fill:#000000;fill-opacity:1;stroke:#000000;stroke-width:0.0377953;stroke-miterlimit:4;stroke-dasharray:none;stroke-opacity:1" /><path
     fill="#D77118"
     opacity="1"
     stroke="none"
     d="m 220.31543,109.91061 c -0.13525,0.093 -0.24045,-0.37479 -0.1875,-0.60766 0.42702,-0.0647 0.51695,0.18453 0.1875,0.60766 z"
     id="path78"
     style="fill:#000000;fill-opacity:1;stroke:#000000;stroke-width:0.0377953;stroke-miterlimit:4;stroke-dasharray:none;stroke-opacity:1" /><path
     fill="#434343"
     opacity="1"
     stroke="none"
     d="m 130.52151,96.642242 c 1.5152,0.0073 2.56752,0.0783 4.00101,0.05032 3.2092,-0.05155 6.05123,0.194481 8.86191,-0.0038 4.11807,-0.290459 5.93751,1.409897 5.57458,5.921788 0.0453,1.2171 0.0558,2.01716 0.0861,3.21693 -0.03,2.6987 -0.0798,4.9977 -0.086,7.7286 0.0506,1.23119 0.0576,2.03044 0.0795,3.22911 -0.42857,7.04609 -0.42857,7.04609 -10.74004,6.50418 -4.14608,-0.23639 -7.7238,-0.04 -11.3015,0.15633 -1.45777,0.10356 -2.91953,0.16828 -4.37253,0.31805 -4.19456,0.43232 -6.17818,-1.36885 -5.76125,-6.02717 0.0407,-1.27632 0.0631,-2.15778 0.0842,-3.48045 -0.0231,-2.64623 -0.0449,-4.85125 -0.0704,-7.46639 0.0186,-1.2942 0.0408,-2.17827 0.0707,-3.5049 -0.64999,-4.849603 0.97074,-7.027032 5.68972,-6.589624 2.45299,0.227379 4.94618,0.02103 7.88412,-0.05301 z"
     id="path82"
     style="fill:#000000;fill-opacity:1;stroke:#000000;stroke-width:0.0377953;stroke-miterlimit:4;stroke-dasharray:none;stroke-opacity:1" /><path
     fill="#F2801E"
     opacity="1"
     stroke="none"
     d="m 137.1683,123.95035 c -1.23828,2.07443 -2.47656,4.14886 -4.15976,6.96864 -1.62789,-2.50986 -2.83863,-4.37654 -3.6947,-6.65467 2.8546,-0.37895 5.35452,-0.34646 7.85446,-0.31397 z"
     id="path86"
     style="fill:#000000;fill-opacity:1;stroke:#000000;stroke-width:0.0377953;stroke-miterlimit:4;stroke-dasharray:none;stroke-opacity:1" /><path
     fill="#464545"
     opacity="1"
     stroke="none"
     d="m 137.39017,123.88473 c -2.72181,0.0331 -5.22173,6.4e-4 -8.18955,0.0367 -0.86027,-0.0319 -1.25267,-0.13228 -1.92431,-0.35419 3.29844,-0.31785 6.87616,-0.51421 10.58584,-0.35986 0.13197,0.3507 -0.25012,0.61174 -0.47198,0.67736 z"
     id="path94"
     style="fill:#000000;fill-opacity:1;stroke:#000000;stroke-width:0.0377953;stroke-miterlimit:4;stroke-dasharray:none;stroke-opacity:1" /><rect
     style="fill:#000000;fill-opacity:1;stroke:#000000;stroke-width:0.0377953;stroke-miterlimit:4;stroke-dasharray:none;stroke-opacity:1;stop-color:#000000"
     id="rect1510"
     width="81.449501"
     height="6.4051199"
     x="92.144737"
     y="167.19319" /><text
     xml:space="preserve"
     style="font-size:25.0631px;line-height:1.25;font-family:Arial;-inkscape-font-specification:Arial;text-align:justify;letter-spacing:0px;word-spacing:0px;fill:#000000;fill-opacity:1;stroke:#000000;stroke-width:0.0377953;stroke-miterlimit:4;stroke-dasharray:none;stroke-opacity:1"
     x="153.9614"
     y="206.1449"
     id="text2396"><tspan
       sodipodi:role="line"
       id="tspan2394"
       x="153.9614"
       y="206.1449"
       style="fill:#000000;fill-opacity:1;stroke:#000000;stroke-width:0.0377953;stroke-miterlimit:4;stroke-dasharray:none;stroke-opacity:1">3D</tspan></text><g
     id="g2638"
     transform="matrix(0.70217497,0,0,0.70217497,-206.44676,-146.40961)"><path
       fill="#000000"
       opacity="1"
       stroke="none"
       d="m 537.88611,417.02362 c -6.45801,1.9531 -12.59015,0.32559 -18.71655,0.35403 -3.12226,0.0145 -6.29981,-0.53195 -9.31763,0.42331 -0.90741,1.65143 0.15899,2.82563 0.94934,3.70035 6.22955,6.89475 4.41595,15.28488 4.48492,23.32059 0.0137,1.59228 -0.43774,3.11758 -2.40844,3.15137 -1.89539,0.0325 -2.63544,-1.53235 -2.77121,-2.99936 -0.29078,-3.14099 -0.4773,-6.32669 -0.28928,-9.46909 0.31662,-5.29254 -2.24103,-9.09225 -5.73236,-12.84885 -2.30145,10.79853 -2.30154,10.77448 -13.79453,10.82395 -6.16262,0.0265 -12.32983,0.34387 -18.48593,0.1831 -7.02115,-0.18338 -7.98669,-1.3374 -8.17022,-8.28811 -0.026,-0.98468 -0.004,-1.97061 -0.004,-3.45636 -5.64969,5.25592 -6.99662,11.34283 -6.70609,18.26105 0.11478,2.73312 1.57001,7.67367 -2.94058,7.52835 -4.03525,-0.12995 -1.86563,-4.81729 -2.32663,-7.48697 -1.40817,-8.1554 1.46521,-15.26132 6.99151,-22.46329 -6.16012,-0.60376 -11.05487,-0.50241 -15.97589,-0.13922 -3.14941,0.23242 -6.3186,0.42819 -9.47067,0.34122 -5.24109,-0.14454 -6.53113,-2.4635 -4.84317,-7.54569 0.89645,-2.69922 3.53299,-3.89923 4.77951,-6.25525 -1.15799,-3.10119 -3.91937,-1.96664 -6.00296,-2.41315 -1.5545,-0.33312 -3.08307,-0.6351 -2.92935,-2.64837 0.13248,-1.7349 1.62427,-2.04175 2.95148,-2.06021 5.82818,-0.0812 11.65817,-0.0895 17.48681,-0.0394 1.62372,0.014 3.02668,0.6517 2.94776,2.61972 -0.0721,1.79974 -1.60135,1.9089 -2.89603,2.12649 -1.14633,0.19263 -2.34448,0.11905 -3.47162,0.375 -2.29107,0.52024 -3.35733,1.57859 -1.35486,3.74573 2.77549,3.00373 5.62159,5.23627 10.27851,4.79221 6.28454,-0.59924 12.64578,-0.4682 18.97479,-0.49634 3.23657,-0.0144 5.24795,-0.80209 5.81775,-4.54837 0.68631,-4.51224 3.41214,-7.66589 8.35541,-7.78281 4.79708,-0.11349 7.61361,3.11081 8.36694,7.19059 0.8999,4.8735 3.59412,5.68408 7.72464,5.56399 5.82687,-0.1694 11.67194,-0.2637 17.49036,0.01 4.24713,0.19971 7.35669,-1.36246 9.96051,-4.51416 0.74383,-0.90039 1.84283,-1.57517 1.36279,-2.94153 -0.46063,-1.31113 -1.67804,-1.51505 -2.85932,-1.59939 -1.16113,-0.0829 -2.33197,-0.0226 -3.49511,-0.0874 -1.31073,-0.0729 -2.26966,-0.62201 -2.24433,-2.10727 0.02,-1.17218 0.78333,-1.94647 1.83228,-2.04882 6.47443,-0.63184 12.96271,-0.6196 19.43866,-0.0341 1.22461,0.11071 2.1875,0.86853 2.01965,2.36059 -0.13342,1.18613 -0.94696,1.69818 -2.01648,1.85257 -0.6557,0.0946 -1.34356,-0.008 -1.99041,0.11655 -1.72467,0.33188 -4.04053,-0.5791 -5.02069,1.35742 -1.18427,2.33966 1.50628,2.93863 2.59179,4.21051 2.46307,2.8862 3.50067,5.97452 1.42847,9.86496 m -55.27997,0.32498 c -2.51999,0.43906 -6.05222,-1.3764 -6.98199,2.71015 -0.85175,3.74356 3.05499,8.26178 7.13897,8.6134 4.28833,0.36926 7.90622,-2.61453 8.08969,-6.82861 0.25363,-5.82505 -4.19339,-4.14698 -8.24667,-4.49494 m 2.85394,-14.15353 c -1.25729,-2.10245 -2.80041,-2.21057 -4.26391,-0.35462 -1.12824,1.43085 -0.74759,2.98102 0.9534,3.58548 2.14669,0.76291 3.49588,-0.14065 3.31051,-3.23086 z"
       id="path8-5" /><path
       fill="#000000"
       opacity="1"
       stroke="none"
       d="m 482.32541,420.72732 c 2.78229,-0.32446 4.26456,0.611 3.76178,3.21708 -0.32428,1.68094 -1.80521,2.60589 -3.32584,1.92978 -2.49768,-1.11063 -2.75592,-2.98215 -0.43594,-5.14686 z"
       id="path42" /></g></g></svg>
