<?xml version="1.0" encoding="UTF-8" standalone="no"?>
<svg
   version="1.1"
   id="Layer_1"
   x="0px"
   y="0px"
   width="371.30582"
   viewBox="0 0 371.30582 365.18924"
   enable-background="new 0 0 464 400"
   xml:space="preserve"
   sodipodi:docname="ap.svg"
   height="365.18924"
   inkscape:version="1.1 (c68e22c387, 2021-05-23)"
   xmlns:inkscape="http://www.inkscape.org/namespaces/inkscape"
   xmlns:sodipodi="http://sodipodi.sourceforge.net/DTD/sodipodi-0.dtd"
   xmlns="http://www.w3.org/2000/svg"
   xmlns:svg="http://www.w3.org/2000/svg"><defs
   id="defs71"><clipPath
     clipPathUnits="userSpaceOnUse"
     id="clipPath1445"><rect
       style="fill:none;stroke:#000000;stroke-width:3.77953;stroke-miterlimit:4;stroke-dasharray:none;stop-color:#000000"
       id="rect1447"
       width="165.75571"
       height="71.239685"
       x="447.18774"
       y="146.71143" /></clipPath><clipPath
     clipPathUnits="userSpaceOnUse"
     id="clipPath1445-8"><rect
       style="fill:none;stroke:#000000;stroke-width:3.77953;stroke-miterlimit:4;stroke-dasharray:none;stop-color:#000000"
       id="rect1447-3"
       width="165.75571"
       height="71.239685"
       x="447.18774"
       y="146.71143" /></clipPath><clipPath
     clipPathUnits="userSpaceOnUse"
     id="clipPath1445-5"><rect
       style="fill:none;stroke:#000000;stroke-width:3.77953;stroke-miterlimit:4;stroke-dasharray:none;stop-color:#000000"
       id="rect1447-7"
       width="165.75571"
       height="71.239685"
       x="447.18774"
       y="146.71143" /></clipPath></defs><sodipodi:namedview
   id="namedview69"
   pagecolor="#ffffff"
   bordercolor="#666666"
   borderopacity="1.0"
   inkscape:pageshadow="2"
   inkscape:pageopacity="0.0"
   inkscape:pagecheckerboard="0"
   showgrid="false"
   inkscape:zoom="1.4177491"
   inkscape:cx="185.15265"
   inkscape:cy="227.47325"
   inkscape:window-width="1920"
   inkscape:window-height="991"
   inkscape:window-x="-9"
   inkscape:window-y="-9"
   inkscape:window-maximized="1"
   inkscape:current-layer="Layer_1" />
































<path
   fill="#000000"
   opacity="1"
   stroke="none"
   d="m 219.05688,122.27391 c -0.19423,2.61336 -0.25732,4.78644 -0.61035,6.91138 -1.12844,6.79304 -5.41726,10.46605 -12.38152,10.50128 -11.16592,0.0565 -22.33261,0.0306 -33.49861,-0.029 -6.65858,-0.0355 -11.4225,-4.05037 -12.33043,-10.67167 -0.67927,-4.95366 -0.71376,-9.99475 0.0445,-14.94805 1.1484,-7.50224 5.25709,-10.81061 12.96205,-11.13717 2.37812,-0.1008 5.68249,1.28793 6.92726,-1.27866 1.51204,-3.117713 0.75201,-6.868313 0.27659,-10.314543 -0.22925,-1.6618 -1.90963,-1.66805 -3.2416,-1.62717 -4.89438,0.15022 -9.19908,-0.93673 -13.76616,-3.26254 -9.67878,-4.92897 -21.18687,2.75231 -21.34524,13.592353 -0.10225,6.99827 0.015,13.99953 -0.0531,20.9986 -0.0176,1.81168 -0.1729,3.66623 -0.59827,5.42025 -0.80558,3.32176 -3.05412,5.23115 -6.506,4.97699 -3.41603,-0.25155 -5.81778,-2.4814 -5.88982,-5.77758 -0.24013,-10.98787 -0.45119,-22.00433 0.11837,-32.968703 0.24009,-4.62224 4.72515,-7.88366 7.09718,-12.86553 -5.66912,-0.59703 -10.53626,-2.52477 -16.20221,-0.90145 -6.26299,1.79435 -12.87923,0.95239 -19.33637,0.37931 -1.852465,-0.16441 -3.339025,-1.39582 -4.542285,-2.87547 -4.83003,-5.93946 -2.81235,-17.950805 3.7083,-21.972938 3.066945,-1.891777 3.075775,-1.934455 1.783715,-9.895332 -8.566735,3.919792 -16.831035,0.528 -25.228155,-0.869255 -3.66544,-0.609924 -5.587,-2.658401 -5.73772,-6.388023 -0.15173,-3.75465 2.11496,-5.502983 5.36383,-6.079243 8.72604,-1.54776 17.0421,-3.649467 26.472755,-1.420914 5.56251,1.314476 12.73736,1.848244 19.171,-0.517154 8.60356,-3.163197 16.64771,1.070232 24.78064,2.963928 2.44724,0.56982 2.93389,3.423694 2.74739,5.899917 -0.21612,2.869782 -1.8733,4.750344 -4.62094,5.134385 -8.41743,1.176513 -16.60519,5.52565 -25.49392,1.491523 -1.40352,3.25428 -2.14908,6.855362 0.0476,8.667687 2.94536,2.429954 5.93997,5.504165 10.99451,4.374588 11.54287,-2.579582 23.08142,-5.154152 34.14392,-9.345841 17.88931,-6.778434 35.50715,-5.762443 53.10649,0.944008 10.29706,3.923828 21.01308,6.332802 31.80288,8.385781 8.01917,1.52581 13.33997,-4.815209 10.49121,-13.129158 -8.19857,4.0391 -16.09835,0.04905 -24.18548,-1.076325 -3.496,-0.486496 -5.88355,-2.094528 -5.89716,-6.117638 -0.0134,-3.940246 2.20133,-5.743335 5.71347,-6.343143 8.5654,-1.462826 16.7024,-3.678459 25.95746,-1.249104 5.26166,1.381131 12.27558,1.824856 18.29071,-0.336387 8.86219,-3.184189 16.99973,0.652695 25.30237,2.510135 2.72391,0.609372 3.67142,3.263173 3.31552,6.018055 -0.38388,2.971619 -2.14224,4.950356 -5.11273,5.369469 -8.5787,1.210373 -16.97446,5.255615 -26.03052,1.029816 -0.88437,4.787109 -2.12625,8.464599 3.2829,10.931541 4.77497,2.177719 6.24692,10.234757 4.03128,17.684122 -1.54794,5.20435 -5.51669,6.79568 -10.45309,6.56152 -6.08759,-0.28876 -12.11319,0.42448 -18.28238,-1.45581 -3.69055,-1.12483 -8.31085,0.80089 -12.81922,1.39579 0.418,1.31474 0.43442,2.09474 0.832,2.50839 6.79206,7.06646 6.86591,15.82479 6.48743,24.784533 -0.21783,5.15709 0.01,10.33167 -0.0379,15.49767 -0.0529,5.71757 -2.38803,9.01373 -6.36017,9.14021 -4.25983,0.13561 -6.79047,-3.07823 -6.89465,-9.16749 -0.12543,-7.33113 0.002,-14.66628 -0.0796,-21.99855 -0.13623,-12.163463 -12.58377,-19.090613 -23.18314,-12.877493 -3.17108,1.85882 -6.55496,2.46992 -10.08643,2.13747 -4.17228,-0.39279 -5.78753,1.30576 -5.37287,5.42688 0.22946,2.28048 0.0411,4.603 0.0411,7.190943 6.46057,1.41558 13.69363,-0.79631 18.14938,5.65459 2.97904,4.31288 2.49249,9.17316 2.73425,14.4142 M 203.25098,63.195844 c 8.92666,0.252472 14.14822,3.786713 14.99902,10.152163 1.02539,7.6717 1.02539,7.67264 9.05081,7.68184 1.4993,0.002 3.00021,-0.0537 4.49753,-0.001 2.39328,0.0839 4.40182,-0.66126 5.18494,-3.03665 1.03836,-3.14953 3.37597,-3.76536 6.23397,-3.84363 2.32337,-0.0636 4.67142,-0.12614 6.95621,-0.50472 4.15625,-0.68867 2.4252,-4.007874 2.56223,-6.391449 0.12594,-2.191498 0.15277,-4.238579 -3.0506,-4.640068 -14.45105,-1.811165 -28.17276,-6.525078 -41.94736,-10.959473 -10.88753,-3.504982 -21.75914,-4.373489 -32.87572,-1.060066 -15.28927,4.557144 -30.2909,10.236878 -46.27313,12.16584 -1.92792,0.232689 -2.22616,1.575386 -2.40935,3.202767 -0.76265,6.774759 0.21181,8.006739 7.00422,8.084079 3.90445,0.0445 7.72651,-0.2248 9.12802,4.78032 0.48584,1.73509 2.42097,2.14724 4.17085,2.16301 3.49808,0.0316 7.00168,-0.0921 10.49326,0.0648 2.95161,0.1327 3.53279,-1.24032 3.60269,-3.9297 0.25439,-9.788083 4.41955,-13.823308 14.2339,-13.925481 9.16153,-0.09538 18.32498,-0.0093 28.43851,-0.0025 m 0.84433,71.811794 c 7.11282,-0.38366 9.62628,-2.85849 9.73645,-9.72355 0.0533,-3.32227 0.12262,-6.65752 -0.0998,-9.96778 -0.31195,-4.64335 -2.91934,-7.51922 -7.6072,-7.59709 -10.96556,-0.1821 -21.93882,-0.21046 -32.90345,-0.006 -5.29025,0.0987 -7.82814,2.93927 -8.04182,8.19078 -0.12828,3.15269 -0.0711,6.31506 -0.0286,9.47215 0.0957,7.0999 2.50022,9.55577 9.64513,9.61237 9.47135,0.075 18.94373,0.0202 29.29923,0.019 M 176.78166,85.020687 c 9.48322,-0.03 18.97272,0.13682 28.44728,-0.16499 5.52588,-0.17603 8.4787,-3.55572 8.38678,-8.53216 -0.0916,-4.959251 -2.64529,-7.703354 -8.33032,-7.807709 -10.97324,-0.201416 -21.95393,0.02103 -32.93153,0.02474 -3.31739,0.0011 -5.21247,1.892906 -6.41803,4.664059 -2.7813,6.39316 1.4064,11.34691 10.84582,11.81606 m 83.79375,-25.879793 c -3.81564,3.522377 -3.65308,7.9301 -2.40503,12.340737 1.23642,4.369456 5.11133,3.427136 8.33545,3.513206 2.65845,0.071 5.32208,0.0477 7.98102,-0.0235 3.38125,-0.0905 5.2489,-1.82888 5.31854,-5.268278 0.0437,-2.158791 0.11099,-4.332428 -0.082,-6.476921 -0.25922,-2.880356 -1.85657,-4.548683 -4.89877,-4.517357 -4.4874,0.0462 -8.97467,0.104858 -14.24921,0.432083 M 99.167595,67.687411 c 0.27617,6.333776 1.185605,7.254936 7.277005,7.320416 1.99202,0.0214 3.98446,0.009 5.9767,0.003 7.71746,-0.0224 8.58245,-0.89636 8.51838,-8.592992 -0.0566,-6.80336 -0.9344,-7.670403 -7.85075,-7.717934 -1.99213,-0.01369 -3.98453,-0.0082 -5.97668,0.0054 -7.123385,0.04855 -7.873705,0.81781 -7.944655,8.981758 m 37.810285,47.125631 c 0.0839,-10.05406 -1.55454,-20.362173 6.26178,-30.115783 -5.66326,1.6649 -9.83017,7.54866 -9.88601,12.21098 -0.0976,8.152343 -0.065,16.306903 -0.004,24.459913 0.0128,1.69487 -0.50369,3.83048 2.33373,4.41782 2.39345,-3.07287 0.76686,-6.69784 1.29407,-10.97293 M 77.783775,36.027688 c -1.3149,0.650738 -2.93051,1.907688 -0.35649,2.371556 7.02282,1.265602 13.88623,5.088523 21.33957,1.807472 1.373125,-0.604477 3.171565,-0.720566 3.383585,-2.482704 0.27092,-2.251965 -1.88494,-2.363224 -3.306415,-3.075726 -7.02272,-3.52005 -13.62535,0.302059 -21.06025,1.379402 m 209.451245,5.588681 c 5.09747,-1.76194 10.87336,-1.218674 16.65045,-4.289414 -5.31702,-2.496159 -10.06366,-2.549091 -14.47083,-3.836742 -3.88076,-1.133839 -7.18274,0.390804 -10.63884,1.432605 -1.14396,0.344838 -2.1373,1.055348 -2.19682,2.420731 -0.0653,1.498199 1.164,1.964416 2.24167,2.300934 2.52505,0.78849 5.09863,1.421623 8.41437,1.971886 m -44.52185,-1.601143 c 5.16519,1.099815 10.31018,2.413398 15.50674,0.01063 1.10342,-0.510193 2.19263,-0.878288 2.39832,-2.202225 0.25329,-1.630138 -0.861,-2.343223 -2.13291,-2.94009 -8.33704,-3.912426 -15.79047,-0.128807 -24.1106,2.060726 2.55768,2.675789 5.31739,2.051934 8.33845,3.070954 M 137.81085,34.956838 c -5.68819,-0.99466 -11.34496,-2.912159 -17.11837,-0.283619 -1.29252,0.588478 -2.4705,1.093746 -2.39411,2.743206 0.0645,1.392334 1.12371,1.923119 2.23017,2.393974 8.18405,3.48272 15.64814,-0.06261 23.7298,-1.712433 -1.63409,-2.770538 -3.95124,-2.175594 -6.44749,-3.141128 m 107.25531,73.893782 c -0.0316,-4.4842 0.14844,-8.982633 -0.15222,-13.448713 -0.32535,-4.83313 -3.10135,-8.17734 -7.84878,-10.3924 9.31656,12.55542 2.86267,27.227113 6.53301,40.553483 2.00284,-5.12761 1.23285,-10.47557 1.46799,-16.71237 M 191.07974,89.845637 c -2.11749,-0.13966 -4.63652,-0.81176 -4.87349,2.45898 -0.20244,2.79432 -0.0939,5.61748 -0.007,8.424323 0.0649,2.10565 1.69603,2.10767 3.22889,2.14876 1.57085,0.0421 3.31185,-0.0622 3.2798,-2.07019 -0.0566,-3.545093 1.22234,-7.237723 -1.62776,-10.961873 m 75.10939,-40.972845 c 0.28836,2.075951 -0.89014,5.184433 2.88896,5.018525 3.70609,-0.162705 2.25108,-3.27108 2.60462,-5.306481 0.0277,-0.15966 0.006,-0.328735 4.6e-4,-0.493217 -0.0639,-1.985276 0.15588,-4.218712 -2.77582,-4.264359 -3.05368,-0.04755 -2.63007,2.281044 -2.71823,5.045532 M 107.5682,52.843671 c 1.80814,1.637405 4.04421,1.870186 4.69535,-0.552658 0.70739,-2.632156 1.85652,-6.072395 -1.02001,-8.163033 -1.50088,-1.090843 -3.70622,-0.532699 -3.92564,2.035706 -0.16748,1.96019 0.005,3.949448 0.2503,6.679985 M 270.59718,35.152555 c -1.99076,-0.865711 -3.68921,-0.766934 -4.16178,1.729385 -0.27893,1.473549 0.82614,2.050552 2.1554,2.079445 2.32918,0.05061 3.60394,-0.743324 2.00637,-3.80883 m -158.00922,1.78923 c -0.58143,-2.491573 -2.23587,-2.749302 -4.15185,-1.738827 -1.15641,0.609879 -1.60277,2.144848 -0.605,2.96806 1.50069,1.238106 3.33969,1.449798 4.75685,-1.229233 z"
   id="path2" /><path
   fill="#000000"
   opacity="1"
   stroke="none"
   d="m 94.750435,157.91054 c 3.4472,10.11918 2.83892,19.36627 -3.41478,27.87156 -0.96086,1.30683 -1.23333,2.66462 -0.78586,4.22983 1.12506,3.93553 2.20389,7.88428 3.4604,12.39966 2.10195,-4.36591 3.87604,-8.24977 5.83563,-12.03769 0.989975,-1.91359 0.414765,-3.37329 -0.46791,-5.11667 -3.72975,-7.36662 -2.46934,-15.87213 3.025845,-22.26281 12.84009,-14.9325 36.46813,-14.31621 51.55084,-3.82166 2.35703,1.64003 2.70519,3.66367 -0.108,4.93259 -5.54521,2.50125 -8.45392,7.3321 -11.55211,12.07885 -2.54617,3.90105 -4.93393,7.91744 -8.44796,11.09732 -7.35009,6.6512 -15.65551,9.42327 -25.27397,5.87348 -3.00156,-1.10776 -4.51005,-0.60874 -5.78274,2.3378 -2.05178,4.75032 -4.038195,9.48973 -5.073905,14.58694 -0.35235,1.73418 -0.80026,3.63819 1.64603,3.83464 13.663675,1.0974 24.317205,8.50853 34.680845,16.45648 3.78776,2.90488 7.78993,4.80393 12.55549,5.5326 8.51261,1.3016 15.72608,5.28943 21.51335,11.70016 3.38063,3.74481 7.04372,7.08954 11.67494,9.23041 1.45093,0.67075 2.83721,1.48944 1.87226,3.35916 -0.87253,1.69074 -2.37897,1.39258 -3.92009,0.87912 -4.243,-1.41373 -7.69451,-4.01501 -10.55403,-7.3226 -11.65578,-13.48212 -26.2959,-17.26825 -42.86354,-12.05899 -14.68644,4.61774 -29.567125,6.22909 -44.798335,5.99414 -1.33234,-0.0206 -2.67028,-0.0387 -3.99781,0.0541 -5.28546,0.36889 -8.31308,2.74801 -8.55353,6.66031 -0.24631,4.00744 3.39599,7.91961 8.15731,8.62689 1.47443,0.21902 2.9915,0.18747 4.48976,0.20401 14.65927,0.16183 29.323115,0.67285 43.966025,-0.52771 1.72359,-0.1413 3.66416,-0.22568 3.99999,1.92102 0.40945,2.61746 -1.83684,2.82052 -3.63271,3.00143 -15.78567,1.58994 -31.622625,1.27295 -47.426335,0.69568 -8.9934,-0.32846 -13.48349,-5.00055 -14.773,-13.92004 -0.29878,-2.06665 -1.35486,-3.29685 -2.7975,-4.46964 -10.85794,-8.82696 -21.671354,-17.70944 -32.588445,-26.46257 -4.811508,-3.85777 -9.726067,-3.8123 -13.025643,-0.22114 -3.19934,3.48204 -2.910659,7.53274 1.323212,12.47043 12.999199,15.16015 28.50457,27.49743 44.642156,39.07467 6.22297,4.46442 12.73953,8.5174 19.0258,12.89646 7.3959,5.15203 15.56486,6.53176 24.287655,5.23263 11.17379,-1.66421 22.39369,-3.12485 33.47102,-5.29846 9.4339,-1.85114 16.27241,3.26785 23.58408,7.42441 1.04902,0.59634 1.68025,1.72885 0.96995,2.99313 -0.78809,1.40274 -2.03079,1.57147 -3.43559,0.93948 -0.30388,-0.13675 -0.65676,-0.21301 -0.90555,-0.41668 -11.11983,-9.10199 -23.42798,-5.77155 -35.69495,-3.54261 -7.36093,1.33747 -14.75616,2.69404 -22.196755,3.3237 -6.69435,0.56644 -13.34978,-0.64913 -19.18597,-4.2875 -25.10069,-15.64813 -48.988794,-32.82755 -68.626055,-55.2641 -5.066662,-5.78888 -5.909546,-11.96431 -2.519028,-17.40535 3.153428,-5.06056 9.249253,-6.87502 16.396553,-4.92891 1.104989,0.30089 2.469201,0.89671 3.36525,0.52242 7.756737,-3.24024 13.789261,0.2185 18.94785,5.27748 5.20008,5.0997 9.73234,5.56575 15.94514,1.39817 7.46979,-5.01075 15.89751,-8.4095 24.9846,-9.60354 2.41052,-0.31673 3.19578,-1.63164 2.73252,-3.77383 -1.3625,-6.3006 -2.37391,-12.70836 -5.2153,-18.88215 -10.88595,4.20386 -21.0319,3.23806 -30.13816,-4.10614 -9.23507,-7.44809 -12.097928,-17.90376 -13.474317,-29.07742 -1.188224,-9.64613 -0.739502,-19.64261 -7.103172,-28.13225 -2.454018,-3.27385 0.795838,-4.27788 3.411614,-4.57644 9.611835,-1.09711 18.980745,0.11521 27.919175,3.78132 13.38396,5.48941 23.2421,14.69135 28.89776,28.62447 m -34.17967,72.58166 c -2.32788,1.28592 -4.78924,2.37452 -6.61585,4.40866 -0.76952,0.857 -2.08707,2.03684 -1.1151,2.96039 3.12364,2.96799 6.4351,5.76718 9.8796,8.35837 2.26001,1.70007 3.45055,-1.16119 5.18072,-1.79715 1.88542,-0.69302 3.74569,-1.35168 5.78745,-1.42014 8.98832,-0.3013 17.97667,-0.60772 26.962785,-0.96756 10.53338,-0.42184 19.88624,-5.49072 31.18168,-6.89593 -9.70565,-7.88719 -18.73133,-14.00296 -29.89333,-16.07802 -1.71342,-0.31851 -3.912105,-1.18324 -4.559105,1.42088 -0.59285,2.38628 0.15217,4.17061 3.047645,4.65453 2.10979,0.35259 4.18172,1.10439 6.17897,1.90625 1.79282,0.7198 3.44527,1.99648 2.35823,4.17833 -1.06453,2.13669 -2.80162,0.92084 -4.32275,0.28104 -6.303555,-2.65143 -12.649705,-2.60089 -18.947845,-0.0566 -1.75967,0.71087 -3.60347,1.91415 -4.57538,-0.59436 -0.8665,-2.23651 1.09832,-3.41039 2.76886,-4.05167 2.59017,-0.99431 5.3355,-1.5843 7.90241,-2.31372 0.022,-5.8712 -0.47637,-6.18932 -5.52411,-5.2843 -9.24048,1.65674 -16.93421,6.77043 -25.69488,11.29098 m 10.30793,-41.48788 c 3.01869,0.21596 5.95844,-0.0461 8.8651,-1.01882 3.2028,-1.07182 4.07542,-2.8289 2.70315,-6.04092 -5.54055,-12.96863 -12.37108,-25.11215 -22.56233,-35.03848 -4.7031,-4.58084 -9.6775,-8.92429 -16.349919,-11.73381 1.445279,8.06619 2.083179,15.66382 3.047889,23.20903 1.86133,14.5579 7.35234,26.74589 24.29611,30.623 m 16.75621,-34.75476 c -8.8874,-14.71428 -22.06357,-22.17252 -39.1192,-23.22429 18.90007,11.9311 30.41968,29.6422 39.15837,50.11081 2.61768,-2.63124 3.60384,-5.19284 3.93618,-7.99042 0.76695,-6.45628 -0.51737,-12.54239 -3.97535,-18.8961 m 22.568005,29.75407 c -2.32352,2.3756 -1.82429,3.93785 1.29149,4.98397 2.74507,0.92166 5.39836,1.25082 8.29816,0.53112 13.05261,-3.23951 16.77452,-15.27713 24.65757,-24.89052 -14.5542,2.18103 -25.1674,8.7768 -34.24722,19.37543 m 28.50447,-23.21606 c 1.24628,-0.42797 2.49254,-0.85593 4.1582,-1.42791 -6.69067,-3.35104 -13.27485,-3.65017 -19.61764,-2.43315 -8.16322,1.56627 -15.49931,5.21177 -19.54861,13.15987 -2.10318,4.12816 -2.51903,8.37743 0.48374,13.2346 9.12798,-11.447 19.88643,-19.37654 34.52431,-22.53341 m -97.823159,63.10896 c -2.37146,-1.47296 -4.495575,-3.73666 -8.019836,-2.82594 5.000626,7.22029 13.32233,12.27525 16.57983,9.80748 -2.7127,-2.22184 -5.35017,-4.38202 -8.559994,-6.98154 z"
   id="path4" /><path
   fill="#000000"
   opacity="1"
   stroke="none"
   d="m 224.31973,273.15923 c -12.2995,-5.47764 -23.49907,-11.91794 -32.61933,-21.53037 -3.15507,-3.32532 -5.48402,-7.1445 -6.97278,-11.4227 -2.2402,-6.43756 0.8283,-12.10727 7.36249,-14.06277 7.32842,-2.19321 14.50452,-0.72455 21.66865,0.87829 2.07957,0.46526 4.05713,1.46021 6.85438,1.05776 -1.401,-5.8013 -3.90461,-11.2435 -4.3848,-17.18161 -0.48797,-6.03371 -0.3435,-12.01319 4.93784,-15.85886 5.27969,-3.84447 11.18484,-2.48877 16.60553,0.19421 6.49536,3.21489 11.57437,8.36376 16.88717,13.16094 0.70752,0.63885 1.46375,1.22377 2.33652,1.94928 2.10391,-2.9567 1.73316,-6.28311 2.581,-9.24979 1.57064,-5.49557 3.5866,-10.74327 6.98516,-15.3676 6.34293,-8.63073 15.45234,-8.823 22.09238,-0.32242 5.27808,6.75695 7.38293,14.79926 8.61673,23.11586 0.11646,0.7851 0.18286,1.57763 0.37799,3.29505 5.52744,-5.25675 10.06534,-10.59799 16.19977,-13.97403 0.58017,-0.31929 1.06967,-0.80074 1.64294,-1.13561 5.82041,-3.39981 12.13269,-6.07406 18.2428,-1.79518 6.02133,4.21672 5.96271,10.94918 4.97278,17.69345 -0.77353,5.26984 -2.90741,10.15364 -4.19391,15.83857 6.74124,-1.23781 12.94742,-3.00895 19.36524,-3.60114 2.19692,-0.20273 2.4306,-2.444 2.77453,-4.25539 0.89835,-4.73111 1.77298,-9.46685 2.70401,-14.19152 0.28995,-1.47161 0.60501,-3.2401 2.62174,-2.98926 2.19122,0.27254 2.38836,2.10988 2.09417,3.83621 -0.78103,4.58366 -1.73565,9.13767 -2.52426,13.72015 -0.35431,2.05901 -0.98993,3.93099 1.88767,5.35242 8.66946,4.28234 10.08496,10.52236 4.69656,18.68627 -4.1705,6.31866 -9.04724,12.01828 -15.52405,16.02823 -4.80539,2.97512 -8.5524,6.61874 -10.90066,11.85995 -0.8313,1.85538 -1.70124,5.08661 -4.75312,4.08029 -2.92758,-0.96533 -0.39321,-3.76135 -0.97937,-5.90375 -9.38781,3.69733 -18.73495,7.1207 -28.81823,7.61023 -2.03708,0.0989 -2.79547,1.57117 -3.6565,2.98459 -2.43362,3.99487 -5.85647,6.96195 -10.23452,8.37473 -4.75824,1.53546 -6.3028,5.04239 -6.94593,9.37252 -1.34671,9.06733 -1.80157,18.19639 -1.71463,27.35413 0.0175,1.84299 0.47052,4.12604 -2.16827,4.16208 -2.3783,0.0325 -2.6127,-2.16028 -2.68942,-4.0531 -0.43879,-10.82578 0.51477,-21.54935 2.70675,-32.34802 -3.39032,-1.56272 -6.52179,-0.87506 -10.23483,-0.47702 1.51224,7.6607 2.14276,14.90094 2.55423,22.15423 0.20712,3.65103 0.13016,7.32532 0.0184,10.98407 -0.0497,1.62665 -0.18908,3.79474 -2.37561,3.76126 -2.38794,-0.0365 -2.56427,-2.17773 -2.6048,-4.09344 -0.17224,-8.14493 0.11115,-16.28397 -1.03451,-24.42005 -0.84329,-5.98837 -2.39252,-10.8432 -8.85044,-13.00735 -3.31549,-1.11108 -6.12878,-3.57654 -7.92465,-6.63577 -1.81643,-3.09418 -4.09076,-4.15586 -7.67349,-4.22281 -6.90948,-0.12912 -13.31042,-2.72241 -20.00931,-5.40521 m 44.21723,-81.6681 c -4.08347,7.98821 -5.72699,16.51891 -6.28522,25.43461 -0.74271,11.86157 2.39654,23.0599 4.96628,34.39108 0.32464,1.43152 0.70596,2.62076 2.39557,2.64041 1.85354,0.0216 3.78515,-0.11783 5.10498,-1.55847 2.38101,-2.59909 0.63372,-14.84836 -2.38675,-16.66593 -4.35831,-2.62259 -5.66272,-6.53146 -4.42606,-11.13533 1.1734,-4.36834 4.55197,-6.3331 8.99628,-6.54982 4.74029,-0.23114 8.22384,1.96253 9.83337,6.20517 1.62256,4.27704 0.54596,8.39084 -3.53659,10.90808 -2.35653,1.45301 -3.07504,3.20343 -2.96725,5.74711 0.11969,2.8258 0.14578,5.66604 0.004,8.4895 -0.14752,2.93347 1.20105,4.22125 4.00363,4.56976 2.89328,0.3598 3.82346,-1.31274 4.33524,-3.65454 1.24145,-5.68076 2.73904,-11.31708 3.70923,-17.04321 2.41485,-14.25254 1.58215,-28.24778 -5.19971,-41.28324 -5.37744,-10.33607 -11.2757,-10.54057 -18.54678,-0.49518 m -44.60684,44.28803 c -6.20975,-2.94302 -12.76368,-4.76297 -19.54862,-5.64801 -5.29358,-0.69049 -11.49428,-1.73056 -14.43465,3.71768 -2.85421,5.28864 1.3431,9.80905 4.85231,13.61222 11.00641,11.92837 24.89218,19.32525 40.08432,24.27835 5.32303,1.7355 10.97168,3.75329 17.61506,1.31405 -2.75919,-2.77756 -0.6952,-6.65683 -3.72181,-9.22934 -9.42923,-8.01458 -17.38617,-17.35739 -24.84661,-28.04495 m 111.28219,-1.70432 c -3.3316,0.97083 -5.67911,2.93845 -7.57361,5.97452 -4.78897,7.67459 -10.815,14.48276 -17.9844,19.88733 -4.84986,3.65598 -5.99961,8.17438 -6.72687,13.88803 9.2757,-0.19348 17.76703,-2.06869 25.94403,-5.49167 13.52753,-5.66278 25.95279,-12.84423 34.4924,-25.30069 5.13556,-7.49105 3.06467,-12.32278 -6.02222,-13.0798 -7.37707,-0.61456 -14.48877,1.35318 -22.12933,4.12228 m -96.43906,12.96711 c 4.53479,4.94882 9.129,9.83038 14.81067,14.21536 1.07129,-5.25302 -1.09585,-9.08566 -5.3519,-10.76297 -5.51232,-2.17243 -7.93127,-6.6853 -6.35266,-11.85184 1.48862,-4.87204 6.55368,-7.53094 12.01709,-6.41962 1.37903,0.28049 2.50681,1.76975 3.47821,1.27891 2.47272,-11.25687 -1.93362,-19.30785 -10.48391,-25.65848 -4.93024,-3.66188 -9.32529,-8.11273 -15.51743,-9.74785 -5.43008,-1.43387 -9.30005,0.98863 -10.11008,6.49512 -0.26382,1.79316 -0.30236,3.66423 -0.13009,5.46971 1.35452,14.19655 8.47479,25.69647 17.6401,36.98166 m 59.53077,-24.71094 c 0.62399,3.35577 -1.874,6.6795 -0.24103,10.39236 1.3038,-0.43649 2.36713,-0.85067 3.462,-1.14914 5.20478,-1.41873 10.71851,1.12897 12.39603,5.69776 1.84567,5.02664 -0.1727,9.99222 -5.66635,12.15106 -5.10364,2.00558 -5.5784,6.57928 -7.26892,10.61899 6.91696,-4.28641 12.46771,-10.00748 17.6073,-16.06214 8.34353,-9.8291 13.68612,-21.19909 15.78525,-33.95581 1.28576,-7.81385 -3.62589,-14.1555 -9.56897,-11.94577 -11.68799,4.34581 -20.98862,11.84882 -26.50531,24.25269 m 0.17547,44.40793 c -1.4963,-2.7374 -2.49454,-0.75486 -3.66116,0.34598 -1.38574,1.30755 -2.80393,3.63006 -4.92297,1.70806 -2.12482,-1.92718 0.18038,-3.51776 1.20898,-5.08941 0.44568,-0.68094 1.07486,-1.30414 0.57312,-2.41135 -2.28748,-1.48053 -4.98398,-2.21875 -7.78671,-2.55633 -1.74762,-0.21051 -3.38602,-0.0382 -3.61716,2.311 -0.177,1.79916 -0.16443,4.24011 -2.57278,4.1062 -2.73108,-0.15185 -2.07181,-2.8959 -2.45771,-4.73984 -0.0967,-0.46219 -0.34814,-0.89196 -0.60321,-1.52102 -4.02307,-0.53516 -7.72976,0.0211 -11.29645,2.66424 0.89112,1.32837 1.60263,2.42029 2.34647,3.48975 0.89993,1.29395 1.73639,2.68017 0.12796,3.92355 -1.52869,1.18176 -2.7518,0.16718 -3.91357,-0.90756 -1.30155,-1.20401 -1.98975,-3.10339 -4.16068,-3.65948 -3.69711,2.87182 -1.98553,5.27005 0.72522,7.50027 8.30451,6.83234 28.89337,7.04324 37.29087,0.4057 1.59277,-1.25897 3.04769,-2.62817 2.71978,-5.56976 m -35.29774,18.98294 c 14.5668,5.98611 32.92386,2.09118 35.72216,-8.49796 -14.47027,6.32117 -28.72772,6.01407 -43.82177,-0.12597 1.71655,4.97238 4.66476,6.53631 8.09961,8.62393 m 16.36651,-54.16474 c 2.40366,-1.59579 4.24542,-3.48155 2.0676,-6.42616 -1.46372,-1.979 -3.5791,-3.0802 -6.05335,-2.01456 -2.07965,0.8957 -3.67474,2.56246 -3.12136,5.01563 0.75851,3.3625 3.25836,4.24733 7.10711,3.42509 m -26.01874,5.74723 c -3.53927,-1.29761 -5.7724,0.29367 -6.96319,3.46371 -0.84763,2.25647 0.52225,3.87302 2.47299,4.73129 2.49377,1.09717 4.87994,0.73514 6.6048,-1.5751 1.95718,-2.62149 0.71875,-4.58096 -2.1146,-6.6199 m 46.76835,0.93753 c -1.80207,2.69421 -0.79056,4.76971 1.66632,6.1806 2.21853,1.27408 4.47625,0.92877 6.29583,-0.9805 1.37513,-1.44296 1.93341,-3.18603 0.67234,-4.91812 -1.63651,-2.2478 -3.89911,-2.90817 -6.53223,-1.84903 -0.5946,0.23917 -1.10455,0.68884 -2.10226,1.56705 m -1.88453,10.13113 c -1.17758,-0.7955 -1.72659,-2.4367 -3.686,-2.62845 -0.32076,1.07688 -0.96738,2.17096 -0.89423,3.2146 0.18068,2.577 -3.61905,6.63217 0.90616,7.36499 3.01765,0.48868 4.20975,-3.82684 4.3714,-7.08563 0.007,-0.13809 -0.15579,-0.28461 -0.69733,-0.86551 m -36.06784,2.35242 c -0.72174,-1.24683 -0.367,-2.97882 -1.94433,-4.095 -1.69504,1.95544 -5.02542,3.08551 -2.69544,6.72537 0.78488,1.22613 1.31244,2.97177 3.17463,2.55197 2.62802,-0.59247 1.56805,-2.80017 1.46514,-5.18234 z"
   id="path6" /><path
   fill="#000000"
   opacity="1"
   stroke="none"
   d="m 311.16241,192.95332 c -7.05865,0.9587 -11.38943,-1.50309 -12.80633,-6.93712 -1.09088,-4.18356 1.54075,-8.90446 6.01275,-10.78648 4.65285,-1.95813 9.92673,-0.27254 12.61445,4.03172 3.16971,5.07613 0.99136,10.51372 -5.82087,13.69188 m -7.69049,-10.57313 c -0.87555,3.23958 0.69467,5.22362 3.56409,6.11395 2.6088,0.80949 4.42548,-0.84473 5.85626,-2.80244 1.22278,-1.67319 0.52512,-3.25396 -0.74847,-4.46726 -2.41467,-2.30032 -5.02981,-2.24127 -7.62848,-0.21643 -0.25876,0.20162 -0.45761,0.48009 -1.0434,1.37218 z"
   id="path12" /><path
   fill="#000000"
   opacity="1"
   stroke="none"
   d="m 286.82141,152.74507 c 6.82935,-1.18512 11.89441,1.68437 13.0929,7.06392 0.96289,4.32202 -2.39987,9.66547 -6.77948,10.77271 -6.10816,1.54423 -11.05698,-0.8816 -12.82825,-6.28815 -1.51068,-4.61124 0.63831,-8.61138 6.51483,-11.54848 m 3.46607,4.22479 c -3.30527,0.41292 -6.03559,1.79001 -5.24183,5.57818 0.70387,3.35946 3.57441,4.06356 6.65369,3.25306 1.8624,-0.49019 3.33677,-1.74817 3.38147,-3.79541 0.059,-2.69955 -1.75806,-4.09018 -4.79333,-5.03583 z"
   id="path14" /><path
   fill="#000000"
   opacity="1"
   stroke="none"
   d="m 327.53681,156.98219 c 2.68511,-6.16613 6.26294,-8.27022 11.66192,-7.24635 4.55463,0.86371 7.61755,3.26025 8.06099,8.10277 0.52544,5.73784 -3.62638,10.42241 -9.38749,10.66954 -5.11674,0.21951 -11.90961,-4.62667 -10.33542,-11.52596 m 5.31286,-0.26643 c -1.25186,2.7581 -0.45538,4.9023 2.21881,6.0984 2.31196,1.03409 4.53806,0.50099 6.28913,-1.41009 1.22614,-1.33817 1.65634,-2.86165 0.51645,-4.47533 -1.79174,-2.53647 -4.28604,-2.82196 -7.01998,-1.97334 -0.58243,0.18082 -1.03953,0.76533 -2.00441,1.76036 z"
   id="path16" /><path
   fill="#000000"
   opacity="1"
   stroke="none"
   d="m 248.82829,172.95735 c 6.99511,1.59847 9.6546,4.50209 9.46652,9.879 -0.15601,4.46002 -2.99827,7.75717 -7.4491,8.64117 -6.09835,1.21123 -11.44833,-1.91795 -12.22037,-7.14763 -0.98917,-6.70045 2.30814,-10.53616 10.20295,-11.37254 m 4.7135,9.02503 c -0.34076,-0.7347 -0.51142,-1.64188 -1.05142,-2.17461 -2.49064,-2.45712 -5.2392,-2.90709 -7.86982,-0.29724 -2.0231,2.00711 -1.85312,4.26839 0.33683,6.02899 2.85571,2.29582 5.55145,1.65599 7.81463,-1.04732 0.40079,-0.4787 0.51242,-1.19946 0.76978,-2.50982 z"
   id="path18" /><path
   fill="#000000"
   opacity="1"
   stroke="none"
   d="m 26.568647,87.007917 c 2.21009,-3.33411 4.207267,-6.3708 6.276466,-9.35759 0.805573,-1.1628 1.995544,-1.9585 3.398155,-1.22977 1.729698,0.89868 1.48362,2.57941 0.700035,3.87364 -3.334434,5.50741 -6.781273,10.94784 -10.259262,16.36638 -0.736854,1.14798 -1.816818,2.03575 -3.325783,1.06388 -1.370849,-0.88291 -1.463928,-2.16359 -0.787513,-3.4674 1.214111,-2.34024 2.53659,-4.62426 3.997902,-7.24914 z"
   id="path20" /><path
   fill="#000000"
   opacity="1"
   stroke="none"
   d="m 50.169045,307.23997 c -5.98236,-4.60623 -10.164912,-10.39874 -14.340328,-16.18426 -0.77478,-1.07355 -1.372612,-2.49841 0.04855,-3.56116 1.45475,-1.08789 2.904953,-0.59381 3.973488,0.67493 4.06974,4.83224 8.14864,9.66034 12.0715,14.6109 1.50213,1.89563 1.40068,3.74127 -1.75321,4.45959 z"
   id="path22" /><path
   fill="#000000"
   opacity="1"
   stroke="none"
   d="m 64.246225,46.151105 c 1.46473,2.150376 0.19446,3.379151 -0.97543,4.564362 -3.96715,4.019096 -7.9557,8.017402 -11.96918,11.990196 -1.33485,1.321312 -2.87153,2.732338 -4.63594,0.77668 -1.52156,-1.686493 -0.16883,-3.118294 0.9882,-4.30088 3.94876,-4.035988 7.93209,-8.039666 11.97431,-11.981751 1.15664,-1.127998 2.4268,-2.452248 4.61804,-1.048607 z"
   id="path24" /><path
   fill="#000000"
   opacity="1"
   stroke="none"
   d="m 315.49522,63.81532 c -2.3812,-2.575081 -4.55225,-4.865265 -6.64661,-7.223587 -0.92294,-1.039261 -1.55133,-2.335144 -0.48425,-3.586136 1.29022,-1.512581 2.7778,-0.873672 3.92923,0.196877 4.74887,4.415291 9.17267,9.137413 12.90747,14.459144 0.80814,1.151558 1.1962,2.506546 -0.0688,3.595795 -1.52493,1.313024 -2.82394,0.371712 -3.86786,-0.775406 -1.89822,-2.085876 -3.69104,-4.267692 -5.76913,-6.666687 z"
   id="path26" /><path
   fill="#000000"
   opacity="1"
   stroke="none"
   d="m 17.154012,259.95952 c -0.860207,-2.03473 -1.66185,-3.68665 -2.216797,-5.41767 -0.360725,-1.12515 -0.263512,-2.35635 1.004326,-3.02709 1.278976,-0.67664 2.454224,-0.1233 3.008522,0.92398 3.178589,6.00561 6.28756,12.05032 9.28009,18.15045 0.641281,1.30722 0.07369,2.70013 -1.413498,3.26504 -1.575859,0.5986 -2.589714,-0.49707 -3.228576,-1.65768 -2.160088,-3.9242 -4.190727,-7.91962 -6.434067,-12.23703 z"
   id="path28" /><path
   fill="#000000"
   opacity="1"
   stroke="none"
   d="m 77.619415,325.68865 c 2.01096,1.51519 3.77247,2.76504 5.44341,4.12609 0.99362,0.80936 1.33408,1.90644 0.58151,3.09507 -0.7633,1.2055 -1.90519,1.32873 -3.04229,0.72406 -6.20046,-3.29728 -11.56666,-7.72501 -16.60306,-12.55729 -0.85291,-0.81829 -1.09887,-2.13379 -0.0772,-3.14547 1.34402,-1.33084 2.73955,-0.82251 4.0127,0.16412 3.14736,2.43909 6.26678,4.91418 9.68496,7.59342 z"
   id="path30" /><path
   fill="#000000"
   opacity="1"
   stroke="none"
   d="m 116.03384,17.431554 c -2.4644,1.081703 -4.54664,2.102345 -6.70256,2.93145 -1.44301,0.554943 -3.01684,0.706989 -3.88665,-1.005867 -0.92421,-1.819973 0.20253,-2.794197 1.72354,-3.41264 5.65846,-2.300762 11.30407,-4.638553 17.01886,-6.79166 1.48436,-0.559246 3.5132,-0.960381 4.19444,1.218819 0.67383,2.15538 -1.15165,2.814651 -2.71986,3.417606 -3.08483,1.18607 -6.18383,2.335293 -9.62777,3.642292 z"
   id="path32" /><path
   fill="#000000"
   opacity="1"
   stroke="none"
   d="m 15.046727,112.44507 c 3.232125,0.64149 2.764054,2.81232 2.178208,4.70077 -1.719925,5.5441 -3.594811,11.04123 -5.483116,16.53125 -0.48124,1.39916 -1.099587,3.03757 -3.058541,2.60756 -1.841259,-0.40414 -2.288829,-2.06892 -1.824463,-3.54587 2.168671,-6.89756 3.452698,-14.15351 8.187912,-20.29371 z"
   id="path34" /><path
   fill="#000000"
   opacity="1"
   stroke="none"
   d="m 274.3314,340.80516 c -4.2814,2.25296 -8.20428,4.4032 -12.22531,6.35083 -1.47873,0.71622 -3.46662,1.20407 -4.38226,-0.72565 -1.1456,-2.41449 1.08474,-3.0422 2.65298,-3.89157 4.51556,-2.44571 9.03714,-4.88052 13.54239,-7.34512 1.71963,-0.94064 3.65094,-2.64908 5.23148,-0.38577 1.72262,2.46685 -0.90375,3.35699 -2.3942,4.49572 -0.65512,0.50062 -1.40088,0.88263 -2.42508,1.50156 z"
   id="path36" /><path
   fill="#000000"
   opacity="1"
   stroke="none"
   d="m 304.64852,319.16183 c -3.5838,3.25 -6.84604,6.3111 -10.25389,9.20047 -1.25324,1.06256 -3.05654,2.031 -4.42471,0.3908 -1.71186,-2.05226 0.29133,-3.21664 1.598,-4.43046 3.76245,-3.49511 7.53347,-6.98114 11.28123,-10.49196 1.43051,-1.33998 2.87443,-3.4763 4.96973,-1.67896 2.28367,1.95898 -0.0375,3.47631 -1.19666,4.95093 -0.50948,0.64825 -1.13633,1.20426 -1.9737,2.05918 z"
   id="path36-2" /><path
   fill="#000000"
   opacity="1"
   stroke="none"
   d="m 328.2293,293.68599 c -3.02584,3.77497 -5.764,7.31263 -8.67304,10.70371 -1.0698,1.24705 -2.69761,2.488 -4.30755,1.08433 -2.01433,-1.75631 -0.22008,-3.2223 0.87863,-4.62716 3.16358,-4.04518 6.33704,-8.08278 9.48363,-12.14117 1.20107,-1.54898 2.28967,-3.88643 4.6424,-2.44238 2.56428,1.57394 0.51171,3.43865 -0.40016,5.07775 -0.40077,0.72055 -0.93199,1.36854 -1.62391,2.34492 z"
   id="path36-0" /><path
   fill="#000000"
   opacity="1"
   stroke="none"
   d="m 107.61646,343.62364 c 3.68745,1.61237 7.03012,3.06781 10.37218,4.5246 1.4556,0.63449 2.8387,1.5451 2.31142,3.31058 -0.58406,1.95559 -2.45244,1.60125 -3.7876,1.12372 -5.76727,-2.06284 -11.53249,-4.1648 -16.827685,-7.32142 -1.5278,-0.91079 -2.89353,-2.13699 -1.69779,-3.98901 1.1592,-1.7955 2.850105,-1.09949 4.407055,-0.26294 1.60319,0.86142 3.24978,1.64206 5.22242,2.61447 z"
   id="path38" /><path
   fill="#000000"
   opacity="1"
   stroke="none"
   d="m 345.21118,106.48804 c -4.90688,-5.62494 -7.52868,-12.306643 -11.1734,-18.383863 -0.70346,-1.17297 -0.57016,-2.68927 0.8802,-3.46574 1.54495,-0.82712 2.5548,0.2715 3.29473,1.38003 3.59909,5.39192 6.77218,11.03244 9.34839,16.983763 0.78071,1.80353 0.37228,3.29684 -2.34992,3.48581 z"
   id="path40" /><path
   fill="#000000"
   opacity="1"
   stroke="none"
   d="m 167.07275,4.798612 c -6.30287,1.028904 -12.2075,1.959251 -18.13226,2.736198 -1.55612,0.204071 -3.70671,0.710964 -4.24919,-1.441074 -0.64856,-2.572805 1.64865,-2.963682 3.39749,-3.266508 5.56122,-0.962973 11.12723,-1.994986 16.73601,-2.54711 2.94468,-0.289875 5.73671,0.51169 2.24795,4.518494 z"
   id="path42" /><path
   fill="#000000"
   opacity="1"
   stroke="none"
   d="m 241.45535,351.84019 c 1.10996,1.96235 0.6099,3.30875 -1.03622,3.94767 -6.20853,2.40988 -12.68207,3.92144 -19.16974,5.34234 -1.46341,0.32047 -2.65769,-0.42389 -3.02255,-1.93017 -0.3403,-1.40479 0.70968,-2.4025 1.79055,-2.60764 7.12769,-1.35269 13.75071,-4.81827 21.43796,-4.7522 z"
   id="path44" /><path
   fill="#000000"
   opacity="1"
   stroke="none"
   d="m 232.84979,6.343705 c 5.24586,1.775513 10.1352,3.38448 14.96943,5.144791 1.36734,0.497883 3.00598,1.298946 2.25475,3.239506 -0.77328,1.997658 -2.41909,1.881256 -4.17886,1.273983 -4.863,-1.678196 -9.76202,-3.252747 -14.61739,-4.952271 -2.03965,-0.713936 -5.48341,-0.692833 -4.48674,-3.982711 0.88245,-2.912858 3.72206,-0.675545 6.05881,-0.723298 z"
   id="path46" /><path
   fill="#000000"
   opacity="1"
   stroke="none"
   d="m 0.545034,168.90656 c 0.490528,-4.73108 0.820884,-9.04297 1.465141,-13.30745 0.227703,-1.50721 0.713112,-3.66813 3.017212,-3.14579 2.019874,0.45792 2.050453,2.30413 1.847084,4.06279 -0.627502,5.42639 -1.888825,10.78084 -1.653435,16.30783 0.08434,1.9804 0.0016,4.51995 -2.849975,4.22564 -2.65482,-0.27404 -2.448025,-2.71219 -2.287316,-4.74157 0.07863,-0.99286 0.279328,-1.97602 0.461289,-3.40145 z"
   id="path48" /><path
   fill="#000000"
   opacity="1"
   stroke="none"
   d="m 356.23896,141.93349 c -1.52731,-5.33866 -2.96975,-10.27645 -4.26977,-15.25145 -0.44068,-1.68648 -1.39304,-3.96761 0.90417,-4.80373 2.32071,-0.84471 3.06992,1.31047 3.59589,3.10686 1.53885,5.25567 3.11294,10.50371 4.49127,15.80209 0.43384,1.66777 1.05695,3.96352 -1.43182,4.58489 -2.14731,0.53616 -2.69019,-1.40413 -3.28974,-3.43866 z"
   id="path50" /><path
   fill="#000000"
   opacity="1"
   stroke="none"
   d="m 160.56741,361.28392 c -0.45067,1.39163 -1.28734,2.09537 -2.30317,2.00018 -6.73967,-0.63168 -13.39563,-1.77371 -19.88112,-3.75354 -1.36826,-0.41769 -2.3197,-1.3627 -1.91268,-2.97274 0.28887,-1.14258 1.30524,-1.62021 2.30439,-1.42798 6.93711,1.33413 13.8612,2.73895 20.76823,4.22021 0.44115,0.0946 0.70445,1.0185 1.02435,1.93387 z"
   id="path52" /><path
   fill="#000000"
   opacity="1"
   stroke="none"
   d="m 7.522252,213.64305 c 0.517327,2.14771 0.57943,4.00852 -1.475929,4.51248 -2.241276,0.54953 -2.856186,-1.53685 -3.089329,-3.08929 -0.886192,-5.90091 -1.60802,-11.82915 -2.248592,-17.76257 -0.174774,-1.61895 -0.154938,-3.66633 2.258224,-3.62568 1.906651,0.0321 2.134091,1.70592 2.329918,3.26503 0.682724,5.43567 1.421017,10.86437 2.225708,16.70003 z"
   id="path54" /><path
   fill="#000000"
   opacity="1"
   stroke="none"
   d="m 180.51501,360.22118 c 6.06543,-0.12961 11.68786,-0.2092 17.30915,-0.33716 1.68379,-0.0383 3.70327,-0.29657 3.93905,1.88986 0.27097,2.51285 -1.91018,2.75467 -3.75381,2.83731 -5.61244,0.25156 -11.22775,0.47516 -16.84433,0.57532 -1.62546,0.029 -3.58728,-0.13968 -3.93065,-2.21747 -0.31917,-1.93137 1.32782,-2.38541 3.28059,-2.74786 z"
   id="path56" /><path
   fill="#000000"
   opacity="1"
   stroke="none"
   d="m 185.7655,2.150724 c 0.23038,-1.557207 1.04865,-2.076674 2.13314,-2.078881 6.31279,-0.01285 12.64878,-0.450294 18.88777,0.99754 1.6932,0.392931 3.50171,0.840553 3.171,3.032486 -0.30982,2.053181 -2.19941,1.692535 -3.6341,1.608467 -5.80172,-0.339947 -11.59889,-0.758389 -17.39734,-1.153812 -1.40579,-0.09586 -2.60989,-0.527234 -3.16047,-2.4058 z"
   id="path58" /><path
   fill="#000000"
   opacity="1"
   stroke="none"
   d="m 360.6277,170.74782 c -0.16551,-2.26404 -0.43616,-4.07385 -0.44129,-5.8844 -0.003,-1.18071 0.49835,-2.29811 1.89157,-2.55591 1.42478,-0.26363 2.32303,0.57602 2.53906,1.78987 1.25596,7.05679 0.74765,14.16635 0.37735,21.25759 -0.0581,1.11224 -1.21427,1.56518 -2.2842,1.3524 -1.33741,-0.26599 -1.85416,-1.37291 -1.88468,-2.59182 -0.1078,-4.30349 -0.13345,-8.60903 -0.19781,-13.36773 z"
   id="path60" /><path
   fill="#000000"
   opacity="1"
   stroke="none"
   d="m 244.56915,223.50502 c -4.81457,7.80179 -13.49435,9.0011 -17.76526,2.76692 -2.66146,-3.88498 -2.61734,-7.80719 0.26929,-11.54713 2.73057,-3.53772 7.80728,-4.552 12.23563,-2.59325 4.40961,1.95046 6.17532,5.54112 5.26034,11.37346 m -13.8454,-4.84741 c -1.32726,2.77832 -0.50243,4.94549 2.20664,6.08864 2.07361,0.87501 4.28193,0.59828 5.94507,-1.17954 1.3797,-1.47481 1.77395,-3.20756 0.49689,-4.94861 -1.87655,-2.5583 -4.38663,-2.63821 -7.08069,-1.54146 -0.431,0.1755 -0.7464,0.63495 -1.56791,1.58097 z"
   id="path64" /><path
   fill="#000000"
   opacity="1"
   stroke="none"
   d="m 316.5182,228.52373 c -4.69788,-1.65749 -7.54563,-4.50948 -7.44199,-9.27019 0.0864,-3.97174 2.17584,-7.0347 5.94589,-8.44878 3.94977,-1.4815 7.82068,-1.25669 11.16831,1.76978 2.89056,2.61327 3.8584,5.92268 2.71783,9.49863 -1.19134,3.73507 -3.98105,6.0673 -8.00042,6.55218 -1.30643,0.15756 -2.65183,-0.008 -4.38962,-0.10162 m 7.00339,-6.91616 c 2.25415,-3.90469 -0.47086,-5.62687 -3.36261,-6.60047 -2.79242,-0.94013 -4.80216,0.82717 -5.67414,3.47537 -0.63165,1.91823 0.10651,3.63501 1.8678,4.69415 2.48257,1.49292 4.73715,0.98215 7.16895,-1.56905 z"
   id="path66" />
<g
   id="g1863"
   transform="translate(-332.93623,-15.631148)"><circle
     style="fill:none;stroke:#000000;stroke-width:4.39816;stroke-miterlimit:4;stroke-dasharray:none;stop-color:#000000"
     id="path1219"
     cx="519.35126"
     cy="134.93907"
     r="24.926453"
     clip-path="url(#clipPath1445)"
     transform="matrix(0.85934263,0,0,0.85934263,76.332117,31.341386)" /><circle
     style="fill:none;stroke:#000000;stroke-width:2.58819;stroke-miterlimit:4;stroke-dasharray:none;stop-color:#000000"
     id="path1219-5"
     cx="519.35126"
     cy="134.93907"
     r="24.926453"
     clip-path="url(#clipPath1445-8)"
     transform="matrix(1.4603002,0,0,1.4603002,-235.77595,-44.266077)" /><circle
     style="fill:none;stroke:#000000;stroke-width:1.85365;stroke-miterlimit:4;stroke-dasharray:none;stop-color:#000000"
     id="path1219-4"
     cx="519.35126"
     cy="134.93907"
     r="24.926453"
     clip-path="url(#clipPath1445-5)"
     transform="matrix(2.0389633,0,0,2.0389633,-536.30536,-116.45607)" /></g><ellipse
   style="fill:none;stroke:#000000;stroke-width:3.59018;stroke-miterlimit:4;stroke-dasharray:none;stop-color:#000000"
   id="path1778"
   cx="188.99953"
   cy="121.9919"
   rx="5.7049079"
   ry="5.7049088" /></svg>
