<?xml version="1.0" encoding="UTF-8" standalone="no"?>
<svg
   version="1.1"
   id="Layer_1"
   x="0px"
   y="0px"
   width="734.91553"
   viewBox="0 0 734.91553 580.33069"
   enable-background="new 0 0 216 233"
   xml:space="preserve"
   sodipodi:docname="c.svg"
   height="580.33069"
   inkscape:version="1.1 (c68e22c387, 2021-05-23)"
   xmlns:inkscape="http://www.inkscape.org/namespaces/inkscape"
   xmlns:sodipodi="http://sodipodi.sourceforge.net/DTD/sodipodi-0.dtd"
   xmlns="http://www.w3.org/2000/svg"
   xmlns:svg="http://www.w3.org/2000/svg"><defs
   id="defs23" /><sodipodi:namedview
   id="namedview21"
   pagecolor="#ffffff"
   bordercolor="#666666"
   borderopacity="1.0"
   inkscape:pageshadow="2"
   inkscape:pageopacity="0.0"
   inkscape:pagecheckerboard="0"
   showgrid="false"
   inkscape:zoom="0.54935622"
   inkscape:cx="354.05078"
   inkscape:cy="304.90234"
   inkscape:window-width="1366"
   inkscape:window-height="697"
   inkscape:window-x="-8"
   inkscape:window-y="-8"
   inkscape:window-maximized="1"
   inkscape:current-layer="Layer_1" />








<path
   fill="none"
   opacity="1"
   stroke="#000000"
   stroke-linecap="round"
   stroke-linejoin="round"
   stroke-width="15.5684"
   d="m 452.39524,412.89744 c 5.6095,5.684 12.79201,3.83455 19.4606,3.84128 78.49089,0.079 156.98575,-0.36002 235.46932,0.39991 15.56876,0.15063 19.88223,-4.25365 19.8049,-19.81135 -0.61278,-123.2471 -0.61278,-246.50007 7e-5,-369.7472 0.0775,-15.557653 -4.25077,-19.8347962 -19.8024,-19.7955552 -199.7938,0.504479 -399.58974,0.504464 -599.38352,0 -15.55165,-0.03927 -19.93658,4.2313712 -19.80862,19.7967112 0.71985,87.566604 0.32176,175.142204 0.39783,262.714644 0.006,6.66851 -1.84248,13.8511 3.8415,19.4606"
   id="path2" /><path
   fill="none"
   opacity="1"
   stroke="#000000"
   stroke-linecap="round"
   stroke-linejoin="round"
   stroke-width="15.5684"
   d="m 269.46599,412.89744 c 6.69943,10.00078 2.21183,20.59647 2.29227,31.13421 0.27233,35.67497 -2.56162,71.40055 1.49749,107.04739 1.79577,15.77013 -3.24941,21.2496 -19.35853,21.31635 -51.24523,0.21251 -102.49232,0.1876 -153.73783,0.008 -14.14611,-0.0498 -20.92379,-7.68225 -19.34844,-21.32286 0.60851,-5.26898 2.48235,-10.39194 3.77973,-15.5814"
   id="path4" /><path
   fill="none"
   opacity="1"
   stroke="#000000"
   stroke-linecap="round"
   stroke-linejoin="round"
   stroke-width="11.6763"
   d="m 277.25022,430.41194 c 12.30045,5.49033 18.63651,17.52342 24.68322,27.61364 13.89893,23.19344 44.49536,33.08462 72.35634,12.89044 25.50727,-18.48827 48.20708,-40.45983 75.58333,-57.02454 11.34185,-6.86268 20.50941,-22.97229 16.02032,-39.88219 -5.69762,-21.46247 -33.60445,-32.15172 -52.2797,-19.29079 -23.71245,16.32994 -46.41047,34.13289 -71.79467,52.96939 -15.41914,-18.84078 -30.11722,-37.10202 -45.15449,-55.07953 -12.09669,-14.46208 -24.36739,-28.79423 -36.99923,-42.78836 -11.31878,-12.53953 -25.61275,-18.08357 -42.74588,-17.72129 -25.93582,0.54844 -51.89801,0.49434 -77.83727,0.035 -21.54838,-0.38221 -38.11873,8.21107 -50.59826,25.40829 -24.00527,33.08011 -48.2273,66.00605 -71.92707,99.30361 -15.94661003,22.40459 -14.21565,46.74068 5.96047,63.92902 20.3402,17.32807 42.7122,32.15172 62.32075,50.56931 9.60188,9.01861 31.11863,5.57638 38.35827,-5.77593 6.94785,-10.89472 7.91249,-22.77119 -3.50647,-32.96043 -14.71607,-13.13144 -28.92566,-26.83031 -43.4213,-40.34812 3.80725,-20.04749 23.01414,-29.693 29.72873,-47.14627"
   id="path6" /><path
   fill="none"
   opacity="1"
   stroke="#000000"
   stroke-linecap="round"
   stroke-linejoin="round"
   stroke-width="11.6763"
   d="m 530.23747,218.29186 c -21.40661,40.86717 -42.74504,81.77038 -64.3094,122.55415 -2.58502,4.88896 -6.39727,9.12898 -9.64072,13.66975"
   id="path10" /><path
   fill="none"
   opacity="1"
   stroke="#000000"
   stroke-linecap="round"
   stroke-linejoin="round"
   stroke-width="11.6763"
   d="m 197.46193,134.61146 c -41.25766,8.23584 -62.81945,31.81909 -62.27377,68.11195 0.44141,29.35731 24.01244,57.97927 54.48956,66.16586 23.69875,6.36586 61.49103,-11.11957 73.46941,-37.19583 9.04176,-19.68329 10.47098,-53.03471 -12.81146,-76.01002 -14.74063,-14.54619 -30.83689,-21.55907 -50.92768,-21.07196"
   id="path18" />
<path
   id="rect2920-4"
   style="fill:#000000;fill-opacity:1;stroke:#000000;stroke-width:1.70756;stroke-opacity:1;stop-color:#000000"
   d="m 555.97876,129.60451 c -5.46698,0 -9.86806,4.40197 -9.86806,9.86896 v 39.67301 c 0,5.46699 4.40108,9.86806 9.86806,9.86806 h 109.97506 c 5.46698,0 9.86805,-4.40107 9.86805,-9.86806 v -39.67301 c 0,-5.46698 -4.40107,-9.86896 -9.86805,-9.86896 z m 84.99101,10.02705 c 2.89747,0.0144 5.78291,0.48604 8.64239,1.55639 2.79459,1.04608 5.14965,2.77446 6.83885,5.5078 2.72262,6.38522 1.48047,12.09401 -2.57763,17.52735 -6.0612,6.60293 -13.52156,9.98757 -22.28466,10.45137 -5.15326,0.27274 -6.40498,-1.16745 -5.69225,-6.20104 0.19405,-1.37047 0.49494,-2.72583 0.75594,-4.28303 1.10578,-5.76227 2.20237,-11.32945 3.29904,-16.89681 -0.16403,-0.0299 -0.32751,-0.06 -0.49154,-0.09 0.0603,-0.0463 0.11618,-0.12434 0.18172,-0.13356 1.47569,-0.2074 2.95186,-0.40752 4.42841,-0.60874 -0.0284,1.35294 0.12192,2.73821 -0.1163,4.05316 -1.00657,5.55646 -2.15164,11.08766 -3.19911,16.63695 -0.62876,3.33108 0.12793,4.18516 3.56527,4.21398 8.71877,0.0731 15.88355,-4.56432 18.16699,-11.7579 2.85923,-9.00745 -2.03668,-16.30844 -11.44261,-17.01582 -7.34567,-0.55246 -13.29873,2.1682 -17.98802,7.78287 -0.34387,0.41171 -0.68328,0.82713 -1.03396,1.23294 -0.0415,0.0481 -0.14155,0.0462 -0.21442,0.0672 -1.03451,-2.38913 -0.51153,-4.25688 1.62271,-6.36004 2.47711,-2.44098 5.56487,-3.64444 8.82593,-4.49564 2.90707,-0.75879 5.81579,-1.20192 8.71325,-1.18751 z m -58.22252,0.30619 c 2.09759,0.0554 4.23676,0.45543 6.2928,0.87315 1.64346,0.33389 2.75964,1.67503 2.44044,3.83873 -0.5172,0.84079 -1.03921,1.49414 -1.64362,2.25146 -0.29577,-0.25654 -0.58134,-0.39881 -0.70687,-0.62874 -3.16644,-5.79981 -10.01943,-5.5784 -14.301,-1.15116 -4.82862,4.99291 -6.55544,11.14576 -5.54232,17.91895 0.88085,5.88888 6.19132,8.81434 12.34756,6.59445 3.16681,-1.14194 5.94793,-3.35428 8.93404,-5.10075 -0.0562,-0.17819 0.0528,0.1666 0.2335,0.63873 -0.63855,1.27966 -1.12265,2.69348 -2.0979,3.54163 -4.78654,4.16279 -10.38779,5.76095 -16.60424,4.30211 -4.147,-0.97319 -6.78277,-3.72151 -7.8383,-8.08451 -0.70906,-5.84485 0.14305,-11.24262 3.44896,-16.26716 3.36291,-4.49526 7.31349,-8.07657 12.95812,-8.65511 0.68555,-0.0703 1.37963,-0.0902 2.07883,-0.0718 z m 41.86268,0.0518 c -0.70259,1.65077 -2.12737,2.98187 -4.28122,3.06373 -3.62248,0.13765 -7.2541,0.0381 -11.07464,0.0381 -0.90534,4.52902 -1.74604,8.73141 -2.68394,13.42332 4.00194,-0.24456 7.6527,-0.46761 11.43445,-0.6987 -0.63662,2.66526 -2.77344,3.04097 -5.05169,3.10279 -2.23283,0.0606 -4.46926,0.0136 -6.84795,0.0136 -0.29367,1.54181 -0.53541,2.81277 -0.76956,4.28031 -0.99749,5.00342 -2.00283,9.81095 -3.0083,14.61809 0.13731,0.0282 0.27427,0.0563 0.41159,0.0845 -0.0939,0.11347 -0.17225,0.30713 -0.28348,0.32799 -1.40078,0.26266 -2.80608,0.50097 -4.21035,0.74504 0.0275,-1.33299 -0.0955,-2.69088 0.11267,-3.99502 0.48048,-3.01021 1.12073,-5.9939 1.69813,-9.1639 0.45252,-2.25746 0.90364,-4.33996 1.42919,-6.76617 -1.59401,0.22318 -2.84277,0.39734 -4.32664,0.60511 0.72519,-1.79649 1.53987,-3.13451 3.64612,-3.31722 0.51117,-0.0443 1.25826,-0.78948 1.38194,-1.33015 0.85806,-3.75092 1.57992,-7.53297 2.48405,-11.98686 -2.27823,0.56335 -4.21154,1.03085 -6.13835,1.52369 -0.62255,0.15925 -1.22792,0.38511 -1.92254,0.42975 1.40429,-3.33632 3.95916,-4.4146 7.39127,-4.43658 6.87651,-0.044 13.75116,-0.3588 20.60925,-0.5615 z" /><g
   id="g916"
   transform="matrix(0.50540587,0,0,0.50540587,312.32886,175.15174)"><path
     fill="#020202"
     opacity="1"
     stroke="none"
     d="m 78.802002,36.720612 c 13.220444,-8.056605 27.546778,-8.198927 41.852848,-7.13469 6.85307,0.5098 13.82687,2.070778 20.29719,4.401562 8.89037,3.202553 13.74393,9.651577 13.28005,19.868076 -0.50557,11.134644 -0.0991,22.310013 -0.11882,33.467568 -0.0251,14.205412 -6.98961,22.210462 -21.252,22.936602 -12.95602,0.65963 -25.96818,0.16566 -38.953708,0.3296 -3.637756,0.0459 -7.395195,0.1352 -10.878883,1.04374 -9.750839,2.543 -15.638992,11.17381 -15.86554,22.75874 -0.129303,6.61199 -0.0234,13.22858 -0.0234,20.00669 -5.606945,0 -10.762558,0.37948 -15.840923,-0.0852 -8.504444,-0.77823 -14.068531,-6.25491 -17.042778,-13.62309 -6.98114,-17.29459 -7.527048,-35.05306 -0.597126,-52.471863 4.119609,-10.354904 12.238296,-15.58876 23.827575,-15.405357 16.981934,0.268746 33.971283,0.06958 50.957473,0.06981 1.62461,1.5e-5 3.24923,0 5.14477,0 0.0959,-2.038139 0.17142,-3.64341 0.26836,-5.70388 -13.60859,0 -27.016377,0 -40.88461,0 0,-7.687981 -0.511002,-14.995793 0.252899,-22.167813 0.303223,-2.846855 3.434059,-5.39254 5.576622,-8.290454 m 6.717857,18.292186 c 3.154305,2.613037 6.746826,2.899063 9.40181,-0.02612 1.63002,-1.795906 2.880394,-5.23072 2.294022,-7.382656 -0.595269,-2.184635 -3.47004,-4.816799 -5.692017,-5.188705 -2.218094,-0.371266 -5.506271,1.221588 -7.172699,3.020881 -2.503761,2.703392 -1.89949,6.1665 1.168884,9.576603 z"
     id="path4-1" /><path
     fill="#010101"
     opacity="1"
     stroke="none"
     d="m 124.45996,196.67883 c -11.79334,0.74929 -23.19878,0.99474 -34.038955,-2.78657 -4.855812,-1.69382 -9.675194,-4.56793 -13.383835,-8.09256 -2.432418,-2.31171 -3.854942,-6.71079 -3.982765,-10.23833 -0.458053,-12.64067 -0.232025,-25.3087 -0.150192,-37.96564 0.08442,-13.05707 8.328987,-21.4674 21.555107,-21.69284 12.82034,-0.21851 25.64704,-0.0592 38.47093,-0.0757 18.33849,-0.0236 26.92139,-8.56951 26.93135,-26.805019 0.003,-5.620881 4.8e-4,-11.241753 4.8e-4,-17.078721 5.86793,0 11.36987,-0.489418 16.74713,0.12056 7.15494,0.811623 12.02189,5.476318 15.21841,11.652924 6.10318,11.793113 7.12944,24.570736 5.53134,37.408826 -0.84428,6.78233 -2.72287,13.73808 -5.6638,19.8837 -4.02512,8.41122 -11.48163,12.41875 -21.13191,12.31447 -17.31868,-0.18712 -34.64078,-0.0603 -51.96144,-0.0646 -1.628,-4e-4 -3.25601,-6e-5 -5.16817,-6e-5 -0.11041,2.04409 -0.19679,3.64323 -0.31187,5.77365 13.58059,0 26.97485,0 40.88966,0 0,7.76204 0.93352,15.19119 -0.37984,22.19928 -0.69363,3.70132 -4.68236,8.04237 -8.27951,9.66572 -6.37239,2.87577 -13.58089,3.89884 -20.89212,5.7809 m 8.53966,-26.34651 c -2.88103,2.15085 -4.65038,4.77858 -3.44934,8.54672 1.30426,4.09204 5.58336,6.29018 9.53337,4.97016 3.44694,-1.15192 5.6656,-5.20652 4.82445,-8.81668 -0.99932,-4.28899 -4.93584,-6.21837 -10.90848,-4.7002 z"
     id="path6-7" /><path
     fill="#f5f5f5"
     opacity="1"
     stroke="none"
     d="m 85.23317,54.747372 c -2.781685,-3.144677 -3.385956,-6.607785 -0.882195,-9.311177 1.666428,-1.799293 4.954605,-3.392147 7.172699,-3.020881 2.221977,0.371906 5.096748,3.00407 5.692017,5.188705 0.586372,2.151936 -0.664002,5.58675 -2.294022,7.382656 -2.654984,2.925186 -6.247505,2.63916 -9.688499,-0.239303 z"
     id="path8-0" /><path
     fill="#f6f6f6"
     opacity="1"
     stroke="none"
     d="m 133.34412,170.17801 c 5.62814,-1.36386 9.56466,0.56552 10.56398,4.85451 0.84115,3.61016 -1.37751,7.66476 -4.82445,8.81668 -3.95001,1.32002 -8.22911,-0.87812 -9.53337,-4.97016 -1.20104,-3.76814 0.56831,-6.39587 3.79384,-8.70103 z"
     id="path10-8" /></g><g
   id="g2748"
   transform="matrix(3.7795276,0,0,3.7795276,-239.07102,-352.59445)"><path
     fill="#0d0d0d"
     opacity="1"
     stroke="none"
     d="m 176.40788,126.75333 c 1.63608,0.41801 3.19224,0.82325 4.82973,0.46396 1.68885,-0.37057 2.39758,-1.66443 1.56727,-3.16021 -0.54172,-0.9759 -1.26032,-1.86621 -1.98386,-2.72385 -0.4343,-0.51479 -0.52791,-0.89013 -0.18148,-1.51111 1.6744,-3.00144 3.29228,-6.03439 4.93314,-9.05457 0.79435,-1.46209 0.62763,-2.50629 -0.68401,-3.54451 -0.72464,-0.57358 -1.54212,-1.02988 -2.4896,-1.65185 -0.0587,1.41579 -1.14018,1.76798 -2.01054,2.30988 -3.35711,2.0902 -6.72558,4.16214 -10.21301,6.317 1.42436,1.15414 2.79449,2.26434 4.16463,3.37454 -0.0455,0.0721 -0.091,0.14422 -0.13652,0.21634 -0.40052,-0.16655 -0.80253,-0.32964 -1.20132,-0.50023 -2.00368,-0.85718 -4.00008,-1.73182 -6.01276,-2.5673 -0.83236,-0.34552 -1.74927,-0.30886 -2.34248,0.36126 -0.9214,1.04084 -2.1495,1.2365 -3.35532,1.49799 -6.80923,1.4766 -13.61749,2.96023 -20.44563,4.34511 -1.5601,0.31642 -3.21235,0.34467 -4.79329,-0.98954 0.16831,0.71791 0.18937,1.20753 0.39308,1.60308 0.65923,1.27999 1.30572,2.57937 2.10932,3.76842 0.74564,1.10332 1.97457,1.41264 3.25294,1.32376 2.44295,-0.16985 4.88153,-0.40196 7.32255,-0.60052 3.75719,-0.30563 7.51511,-0.60226 11.27231,-0.90782 1.66993,-0.13581 3.34172,-0.25698 5.00761,-0.43272 2.95938,-0.31219 5.84189,-0.19025 8.575,1.18155 0.73925,0.37103 1.56392,0.5719 2.42224,0.88134 z"
     id="path4-7"
     style="fill:#000000;stroke-width:0.193539" /><path
     fill="#222222"
     opacity="1"
     stroke="none"
     d="m 165.18956,112.56275 c 0.71294,0.0591 1.34943,0.12983 2.24227,0.22906 -1.3936,-1.06435 -2.67742,-1.32281 -4.04568,-0.7211 -1.43992,0.63321 -2.19655,1.79535 -2.33762,3.42475 0.67031,0.17345 1.26359,0.13306 1.4873,-0.5908 0.40475,-1.30968 1.32994,-1.98346 2.65373,-2.34191 z"
     id="path8-0-4"
     style="fill:#000000;stroke-width:0.193539" /></g><g
   id="g2638"
   transform="matrix(0.79591235,0,0,0.79591235,226.09999,-41.052915)"><path
     fill="#000000"
     opacity="1"
     stroke="none"
     d="m 537.88611,417.02362 c -6.45801,1.9531 -12.59015,0.32559 -18.71655,0.35403 -3.12226,0.0145 -6.29981,-0.53195 -9.31763,0.42331 -0.90741,1.65143 0.15899,2.82563 0.94934,3.70035 6.22955,6.89475 4.41595,15.28488 4.48492,23.32059 0.0137,1.59228 -0.43774,3.11758 -2.40844,3.15137 -1.89539,0.0325 -2.63544,-1.53235 -2.77121,-2.99936 -0.29078,-3.14099 -0.4773,-6.32669 -0.28928,-9.46909 0.31662,-5.29254 -2.24103,-9.09225 -5.73236,-12.84885 -2.30145,10.79853 -2.30154,10.77448 -13.79453,10.82395 -6.16262,0.0265 -12.32983,0.34387 -18.48593,0.1831 -7.02115,-0.18338 -7.98669,-1.3374 -8.17022,-8.28811 -0.026,-0.98468 -0.004,-1.97061 -0.004,-3.45636 -5.64969,5.25592 -6.99662,11.34283 -6.70609,18.26105 0.11478,2.73312 1.57001,7.67367 -2.94058,7.52835 -4.03525,-0.12995 -1.86563,-4.81729 -2.32663,-7.48697 -1.40817,-8.1554 1.46521,-15.26132 6.99151,-22.46329 -6.16012,-0.60376 -11.05487,-0.50241 -15.97589,-0.13922 -3.14941,0.23242 -6.3186,0.42819 -9.47067,0.34122 -5.24109,-0.14454 -6.53113,-2.4635 -4.84317,-7.54569 0.89645,-2.69922 3.53299,-3.89923 4.77951,-6.25525 -1.15799,-3.10119 -3.91937,-1.96664 -6.00296,-2.41315 -1.5545,-0.33312 -3.08307,-0.6351 -2.92935,-2.64837 0.13248,-1.7349 1.62427,-2.04175 2.95148,-2.06021 5.82818,-0.0812 11.65817,-0.0895 17.48681,-0.0394 1.62372,0.014 3.02668,0.6517 2.94776,2.61972 -0.0721,1.79974 -1.60135,1.9089 -2.89603,2.12649 -1.14633,0.19263 -2.34448,0.11905 -3.47162,0.375 -2.29107,0.52024 -3.35733,1.57859 -1.35486,3.74573 2.77549,3.00373 5.62159,5.23627 10.27851,4.79221 6.28454,-0.59924 12.64578,-0.4682 18.97479,-0.49634 3.23657,-0.0144 5.24795,-0.80209 5.81775,-4.54837 0.68631,-4.51224 3.41214,-7.66589 8.35541,-7.78281 4.79708,-0.11349 7.61361,3.11081 8.36694,7.19059 0.8999,4.8735 3.59412,5.68408 7.72464,5.56399 5.82687,-0.1694 11.67194,-0.2637 17.49036,0.01 4.24713,0.19971 7.35669,-1.36246 9.96051,-4.51416 0.74383,-0.90039 1.84283,-1.57517 1.36279,-2.94153 -0.46063,-1.31113 -1.67804,-1.51505 -2.85932,-1.59939 -1.16113,-0.0829 -2.33197,-0.0226 -3.49511,-0.0874 -1.31073,-0.0729 -2.26966,-0.62201 -2.24433,-2.10727 0.02,-1.17218 0.78333,-1.94647 1.83228,-2.04882 6.47443,-0.63184 12.96271,-0.6196 19.43866,-0.0341 1.22461,0.11071 2.1875,0.86853 2.01965,2.36059 -0.13342,1.18613 -0.94696,1.69818 -2.01648,1.85257 -0.6557,0.0946 -1.34356,-0.008 -1.99041,0.11655 -1.72467,0.33188 -4.04053,-0.5791 -5.02069,1.35742 -1.18427,2.33966 1.50628,2.93863 2.59179,4.21051 2.46307,2.8862 3.50067,5.97452 1.42847,9.86496 m -55.27997,0.32498 c -2.51999,0.43906 -6.05222,-1.3764 -6.98199,2.71015 -0.85175,3.74356 3.05499,8.26178 7.13897,8.6134 4.28833,0.36926 7.90622,-2.61453 8.08969,-6.82861 0.25363,-5.82505 -4.19339,-4.14698 -8.24667,-4.49494 m 2.85394,-14.15353 c -1.25729,-2.10245 -2.80041,-2.21057 -4.26391,-0.35462 -1.12824,1.43085 -0.74759,2.98102 0.9534,3.58548 2.14669,0.76291 3.49588,-0.14065 3.31051,-3.23086 z"
     id="path8-5" /><path
     fill="#000000"
     opacity="1"
     stroke="none"
     d="m 482.32541,420.72732 c 2.78229,-0.32446 4.26456,0.611 3.76178,3.21708 -0.32428,1.68094 -1.80521,2.60589 -3.32584,1.92978 -2.49768,-1.11063 -2.75592,-2.98215 -0.43594,-5.14686 z"
     id="path42" /></g></svg>
