<?xml version="1.0" encoding="UTF-8" standalone="no"?>
<svg
   version="1.1"
   id="Layer_1"
   x="0px"
   y="0px"
   width="189.12158"
   viewBox="0 0 189.12158 278.9227"
   enable-background="new 0 0 321 380"
   xml:space="preserve"
   sodipodi:docname="da.svg"
   height="278.9227"
   inkscape:version="1.1 (c68e22c387, 2021-05-23)"
   xmlns:inkscape="http://www.inkscape.org/namespaces/inkscape"
   xmlns:sodipodi="http://sodipodi.sourceforge.net/DTD/sodipodi-0.dtd"
   xmlns="http://www.w3.org/2000/svg"
   xmlns:svg="http://www.w3.org/2000/svg"><defs
   id="defs71" /><sodipodi:namedview
   id="namedview69"
   pagecolor="#ffffff"
   bordercolor="#666666"
   borderopacity="1.0"
   inkscape:pageshadow="2"
   inkscape:pageopacity="0.0"
   inkscape:pagecheckerboard="0"
   showgrid="false"
   inkscape:zoom="0.76208665"
   inkscape:cx="-235.53752"
   inkscape:cy="400.87305"
   inkscape:window-width="1920"
   inkscape:window-height="991"
   inkscape:window-x="127"
   inkscape:window-y="-9"
   inkscape:window-maximized="1"
   inkscape:current-layer="Layer_1" />

































<g
   id="g1242"
   transform="translate(-330.66942)"><g
     id="g928"
     transform="matrix(0.2952181,0,0,0.2952181,374.45527,-6.7796076)"><path
       fill="#020202"
       opacity="1"
       stroke="none"
       d="M 98.486771,340.72208 C 86.579842,334.9621 81.259537,325.4946 81.22818,312.90066 c -0.05891,-23.66165 0.112534,-47.32443 -0.05692,-70.98501 -0.139206,-19.43694 15.179237,-31.10402 30.03719,-30.08112 8.60571,0.59249 17.2856,0.10768 26.2514,0.10768 0,-6.66688 0,-13.06182 0,-19.5624 -0.48327,-0.14573 -0.93193,-0.3888 -1.38762,-0.40279 -14.54418,-0.44682 -14.54851,-0.44203 -19.19493,-14.16104 -2.553,-7.53795 -5.08689,-15.0824 -7.63983,-22.62036 -0.10501,-0.31002 -0.31688,-0.58383 -0.6251,-1.13661 -8.33664,0 -16.820245,-0.0997 -25.295518,0.12088 -1.111908,0.0289 -2.91211,1.53645 -3.155182,2.63351 -2.059509,9.29538 -7.606735,15.63239 -15.835869,20.03532 -1.096764,0.5868 -2.147537,2.31678 -2.218819,3.57409 -0.263668,4.65084 0.0012,9.3287 -0.136905,13.99037 -0.174019,5.87596 -3.809304,9.5786 -9.202271,9.63699 -5.344654,0.0579 -9.339187,-3.61444 -9.6506,-9.32066 -0.253884,-4.65207 0.164989,-9.34586 -0.191532,-13.98447 -0.118096,-1.53651 -1.368698,-3.60487 -2.700711,-4.33116 -10.505525,-5.72832 -15.697456,-14.49742 -15.717336,-26.36942 -0.03599,-21.4955 -0.02123,-42.99111 -0.0096,-64.48666 0.0052,-9.61541 2.943464,-12.548538 12.495169,-12.559951 1.817058,-0.0022 3.634124,-3.13e-4 5.753307,-3.13e-4 0,-10.254544 0,-20.330445 0,-31.050824 -6.107193,0 -12.367455,0.05177 -18.625881,-0.03268 -1.79361,-0.0242 -3.666357,-0.181877 -5.356453,-0.729813 -4.661765,-1.511356 -7.233939,-5.447784 -6.706805,-9.82613 0.559737,-4.649145 4.148799,-8.25884 9.126288,-8.290044 20.994694,-0.131615 41.99147,-0.149153 62.985725,0.01589 5.427224,0.04266 8.92714,4.150903 8.881859,9.401193 -0.04561,5.286579 -3.811058,9.215214 -9.577476,9.399506 -6.966927,0.22266 -13.946411,0.05276 -21.19466,0.05276 0,10.325169 0,20.403355 0,31.061024 2.691616,0 5.46017,-0.05873 8.225429,0.01183 6.384033,0.162933 10.215935,3.873703 10.412148,10.260162 0.143188,4.660561 0.02802,9.329071 0.02802,13.920563 8.950623,0 17.882523,0.579834 26.665833,-0.308914 3.14981,-0.318718 7.02874,-3.561516 8.71555,-6.527291 9.34678,-16.433662 23.71557,-25.029228 41.77563,-28.436019 1.46559,-0.276467 2.89659,-0.7365 4.68017,-1.198384 0,-3.152046 -6e-5,-6.296055 2e-5,-9.440063 2.9e-4,-11.453961 2.42345,-15.649155 9.08911,-15.736058 6.82468,-0.08898 9.34696,4.224137 9.34717,15.983738 6e-5,2.987935 1e-5,5.975865 1e-5,8.585785 7.23552,2.362412 14.30582,4.170903 20.96584,6.959317 10.73375,4.494011 19.15314,11.913597 24.67252,22.30664 2.93956,5.535233 7.59379,8.330445 13.65469,8.528481 7.30414,0.238655 14.62202,0.05648 22.54236,0.05648 0,-4.585144 -0.0294,-9.013031 0.007,-13.440399 0.0638,-7.856934 3.74618,-11.477104 11.67605,-11.524559 2.29212,-0.01372 4.58432,-0.0021 7.05997,-0.0021 0,-10.464161 0,-20.541165 0,-31.050522 -6.61456,0 -13.06402,0.0319 -19.51303,-0.0085 -7.18976,-0.04505 -11.38777,-3.666282 -11.33377,-9.690327 0.0526,-5.866535 4.04184,-9.232986 11.11148,-9.242063 19.49594,-0.02503 38.99194,-0.0225 58.48792,-0.0013 7.16949,0.0078 11.58834,3.750784 11.44021,9.58542 -0.14209,5.598481 -4.58258,9.294529 -11.34946,9.345799 -6.3265,0.04793 -12.65365,0.01025 -19.33615,0.01025 0,10.168522 0,20.246723 0,31.051891 2.44715,0 5.19669,-0.05677 7.94312,0.01146 6.3111,0.156761 10.16791,3.608291 10.19562,9.793815 0.10373,23.16075 0.28299,46.3271 -0.11902,69.48176 -0.21121,12.16439 -7.07855,20.35352 -18.37592,25.43425 0,4.96648 0.0429,10.11481 -0.0106,15.26215 -0.0712,6.85364 -3.6709,11.02446 -9.457,11.06978 -5.96826,0.0467 -9.41998,-3.89164 -9.47439,-10.88988 -0.0389,-4.99538 -0.008,-9.99132 -0.008,-15.31541 -10.22424,-4.40983 -16.86569,-11.90548 -18.56689,-23.46932 -9.47036,0 -18.72545,0 -28.45286,0 -2.9252,8.82074 -5.96754,17.91145 -8.95303,27.02083 -2.89352,8.82878 -5.17577,10.535 -14.35385,10.5491 -1.63966,0.003 -3.27934,3.5e-4 -5.18488,3.5e-4 0,6.73635 0,13.13373 0,19.99576 9.16169,0 18.11502,-0.025 27.06816,0.005 16.7616,0.0569 28.93428,11.49022 29.14254,28.2122 0.30914,24.82425 0.31564,49.65833 -0.006,74.4823 -0.21503,16.60636 -12.54056,28.31046 -29.18552,28.33743 -40.99142,0.0664 -81.98324,0.0792 -122.97423,-0.0712 -3.89753,-0.0143 -7.79031,-1.32883 -12.044458,-2.18695 M 243.98675,314.91684 c 0.005,-24.16309 0.0214,-48.32617 0.008,-72.48924 -0.005,-8.35962 -3.46766,-11.91539 -11.73283,-11.92083 -40.1607,-0.0264 -80.32149,-0.0258 -120.4822,-6.2e-4 -8.29243,0.005 -11.7684,3.54788 -11.77469,11.87884 -0.01761,23.32988 -0.018,46.65978 1.4e-4,69.98967 0.007,8.41257 3.3186,11.67731 11.79441,11.67881 40.16074,0.007 80.32149,0.007 120.48222,3e-5 7.41046,-10e-4 9.16429,-1.26462 11.705,-9.13666 M 168.5,173.0018 c 13.45245,0 26.90492,0 40.51938,0 3.091,-9.3979 6.07898,-18.52489 9.09575,-27.64236 2.74827,-8.30605 4.90579,-9.84346 13.75062,-9.8499 10.28977,-0.008 20.57955,-0.002 30.94992,-0.002 0,-6.40599 0,-12.3204 0,-18.56636 -7.02902,0 -13.8274,0.18119 -20.61287,-0.0379 -13.94966,-0.45035 -24.60327,-6.25203 -32.09382,-18.5343 -3.0616,-5.020066 -7.80689,-9.709557 -12.88277,-12.668099 -12.78546,-7.452148 -26.73181,-8.342079 -40.94165,-4.170272 -8.85344,2.599243 -17.05653,6.727844 -21.50847,15.03614 -8.05089,15.024781 -20.64448,20.805551 -36.968709,20.397481 -5.582222,-0.13953 -11.170876,-0.0221 -16.702614,-0.0221 0,6.48188 0,12.27928 0,18.56542 10.277565,0 20.400603,-0.002 30.523653,7e-4 9.52238,0.003 11.46987,1.43167 14.38595,10.3259 2.97754,9.08165 6.01317,18.14422 9.00753,27.16743 11.16926,0 21.82368,0 33.4781,0 M 55.802895,159.95679 c 4.689827,-2.12345 6.389648,-5.87009 6.233787,-10.86293 -0.166096,-5.32062 -0.03733,-10.65044 -0.03732,-15.97623 1.2e-5,-13.60007 4e-6,-27.20014 4e-6,-40.920746 -6.486015,0 -12.540901,0 -18.915363,0 0,19.851796 -0.16972,39.456036 0.09822,59.054316 0.086,6.29049 4.882737,9.46674 12.620675,8.70559 m 242.788742,-2.91953 c 0.784,-2.8155 2.11048,-5.60544 2.2446,-8.45157 0.32874,-6.9759 0.10745,-13.97772 0.10745,-20.9691 0,-11.76801 0,-23.53602 0,-35.41757 -6.52798,0 -12.58428,0 -18.93078,0 0,19.86273 -0.21692,39.47812 0.24209,59.07768 0.0662,2.82578 2.80716,6.41472 5.33857,8.1534 3.36206,2.30919 7.35922,1.19447 10.99807,-2.39284 m -142.31453,35.81755 c 0,6.25543 0,12.51085 0,18.81035 10.72391,0 20.93003,0 31.22466,0 0,-6.67299 0,-13.05392 0,-19.53262 -10.39987,0 -20.50586,0 -31.22466,0.72227 z"
       id="path4-78" /><path
       fill="#040404"
       opacity="1"
       stroke="none"
       d="m 215.80945,300.80399 c -10.71414,10.51104 -23.02605,13.83569 -36.81128,8.74026 -13.96011,-5.16006 -21.37834,-15.85986 -22.63494,-30.58676 -1.52781,-17.90564 13.60883,-34.64984 32.11323,-35.88423 18.54109,-1.23682 35.31909,13.23829 36.46688,31.3535 0.63144,9.96567 -2.1952,18.68384 -9.13389,26.37723 m -37.83963,-14.43583 c 1.02856,1.07364 1.95775,2.26947 3.10241,3.20035 5.74933,4.67545 13.95104,4.54676 19.68403,-0.23071 5.4757,-4.56305 7.15062,-12.58234 3.95265,-18.92465 -3.8655,-7.6662 -13.13089,-10.7428 -20.79579,-7.0759 -6.46419,3.09244 -12.31691,12.64603 -5.9433,23.03091 z"
       id="path16" /><path
       fill="#060606"
       opacity="1"
       stroke="none"
       d="m 123.56955,243.12833 c 7.96553,3.23428 10.25548,10.52819 5.12776,15.64526 -2.70263,2.69702 -5.90589,4.06628 -9.87749,2.32696 -3.89067,-1.70388 -6.02504,-4.40835 -6.03381,-8.72766 -0.009,-4.32556 2.07268,-7.21505 6.04832,-8.65924 1.34972,-0.49031 2.8921,-0.45027 4.73522,-0.58532 z"
       id="path18" /><path
       fill="#010101"
       opacity="1"
       stroke="none"
       d="m 147.09071,137.8992 c 2.47026,-0.96857 4.62105,-2.25331 6.79204,-2.28847 12.14746,-0.19668 24.29987,-0.1168 36.45039,-0.0761 4.44635,0.0149 7.75792,2.06627 9.17124,6.31199 1.31508,3.95059 0.56361,7.78572 -3.03438,10.19927 -1.79103,1.2014 -4.26727,1.88563 -6.44713,1.9191 -11.81502,0.18135 -23.63566,-0.0157 -35.4514,0.14102 -4.21988,0.056 -7.64966,-1.09655 -9.5532,-4.92348 -1.96346,-3.94742 -1.36663,-7.75421 2.07244,-11.28331 z"
       id="path20" /></g><g
     id="g840"
     transform="translate(-175.0157,174.12538)"><g
       id="g1227"
       transform="matrix(0.58908534,0,0,0.58908534,493.02673,-113.43539)"><path
         fill="#000000"
         opacity="1"
         stroke="none"
         d="m 256.56262,216.45828 c 4.82413,-0.9646 9.1915,-2.14705 13.63379,-2.6083 3.82388,-0.39705 4.60965,-2.36211 4.53528,-5.66427 -0.12753,-5.66195 -0.10547,-11.33073 0.006,-16.99365 0.10914,-5.56036 2.97919,-9.0625 7.22062,-9.10693 4.31433,-0.0452 7.17694,3.37451 7.31283,8.98617 0.11292,4.66271 0.0724,9.33037 0.0294,13.99518 -0.0261,2.82918 0.88538,4.03552 3.93137,3.02426 8.38424,-2.78352 16.79638,-5.48973 24.23224,-10.43676 2.07034,-1.3774 4.13601,-2.85176 5.8919,-4.59571 6.33261,-6.28952 6.17011,-13.15625 -0.49203,-19.06418 -6.70691,-5.94761 -14.74482,-9.60649 -22.995,-12.8392 -2.63345,-1.03187 -5.40494,-1.80562 -7.87466,-3.13931 -3.7348,-2.01689 -4.14771,-5.59439 -2.81433,-9.11353 1.26861,-3.34819 4.28604,-4.95788 7.72055,-3.85933 14.04745,4.49326 27.57016,10.06592 38.05569,21.02129 5.05112,5.27744 7.4704,11.51521 7.44925,18.96838 -0.12045,42.48726 -0.34299,84.9782 0.12286,127.46068 0.13416,12.23474 -4.97238,20.72483 -14.26748,27.42252 -15.02857,10.82913 -32.37461,16.20416 -50.10196,20.32178 -41.66263,9.67718 -83.912,11.76086 -126.49913,9.24514 -27.47057,-1.62277 -54.569451,-5.45855 -80.984467,-13.3056 -12.641861,-3.75546 -24.872349,-8.6228 -35.537228,-16.67026 -8.859896,-6.68545 -13.761908,-14.96368 -13.647965,-26.74756 0.410798,-42.48364 0.23934,-84.97392 0.09126,-127.46101 -0.02734,-7.84547 2.524975,-14.32446 7.962645,-19.75725 10.95182,-10.94195 24.788643,-16.58006 39.24728,-20.92253 3.878723,-1.16492 6.930122,0.57848 8.272545,4.48161 1.357788,3.94783 -0.448143,7.50791 -4.767929,9.13384 -7.013985,2.64 -14.078728,5.12656 -20.707627,8.68429 -3.686168,1.9784 -7.216419,4.20208 -10.284553,7.03348 -6.962837,6.4256 -6.88002,13.31365 0.118927,19.73938 3.096084,2.84252 6.690552,4.96457 10.411865,6.83895 5.957386,3.00062 12.189926,5.32139 18.52037,7.43481 3.138749,1.04787 4.397866,0.33638 4.348931,-2.9487 -0.0521,-3.49794 -0.09406,-7.00163 0.04433,-10.49548 0.20401,-5.15125 3.189712,-8.60047 7.240928,-8.60135 4.091568,-9e-4 7.088188,3.38547 7.257881,8.57823 0.16317,4.99345 0.113968,9.99666 0.04062,14.99387 -0.03822,2.60325 0.943795,3.73706 3.642968,4.28398 20.396629,4.13286 40.976169,6.63177 61.736629,8.07802 19.82995,1.3814 39.63646,1.11798 59.3974,-0.32551 14.07076,-1.02781 28.05262,-3.27258 42.49837,-5.06944 m -156.51296,13.16675 c -22.032075,-3.7708 -43.533182,-9.19342 -62.852693,-20.68555 -1.496521,1.40839 -1.209766,2.82491 -1.210255,4.09311 -0.01302,33.8304 0.04055,67.66089 -0.01334,101.49118 -0.0072,4.51285 1.683129,7.98355 4.906037,11.00498 6.465816,6.06161 14.40567,9.46859 22.370559,12.92178 3.542199,1.53574 5.994027,0.96295 8.784806,-1.8718 12.623832,-12.82272 25.425277,-25.47335 38.302946,-38.04238 9.00441,-8.78861 18.68492,-8.77561 27.80249,-0.18817 8.00557,7.5401 16.02649,15.0682 23.85585,22.78903 3.41031,3.363 6.00757,3.09674 9.21157,-0.28769 11.45494,-12.10001 23.1111,-24.00919 34.63188,-36.04727 10.54555,-11.01908 19.88516,-11.3414 31.21238,-1.2851 19.68654,17.47769 39.48324,34.83133 59.25661,52.21103 1.6796,1.47629 3.08325,3.353 6.03372,2.05273 6.72764,-2.9649 13.30432,-6.0841 19.13636,-10.67388 4.69012,-3.69117 6.65561,-8.21702 6.62545,-14.25806 -0.16363,-32.82977 -0.0471,-65.66092 -0.0728,-98.49155 -0.001,-1.72774 0.55966,-3.66263 -0.91861,-5.09531 -1.59701,-0.19491 -2.65613,0.75271 -3.75665,1.41512 -12.86774,7.7453 -27.03012,12.2675 -41.50608,15.38132 -37.8686,8.14564 -76.15599,12.03171 -114.98286,10.44366 -22.15468,-0.90613 -44.11809,-3.12494 -66.81742,-6.87718 m 86.71436,95.65256 c -1.57274,1.71982 -3.12297,3.4609 -4.72191,5.156 -9.92427,10.52109 -19.83943,10.77878 -30.26922,0.81241 -7.46366,-7.13208 -14.9113,-14.28122 -22.41666,-21.3692 -4.7122,-4.45016 -5.71304,-4.43222 -10.23485,0.0586 -10.51525,10.44324 -21.008008,20.90921 -31.473584,31.40219 -1.004265,1.00687 -2.477776,1.75702 -2.569092,4.51194 65.980696,13.88888 131.811846,14.04196 198.604986,-1.28693 -1.47486,-1.68167 -2.03644,-2.48221 -2.74924,-3.11139 -18.34955,-16.19613 -36.74744,-32.33774 -55.04712,-48.58993 -3.25423,-2.89011 -5.7054,-2.3375 -8.49254,0.58969 -9.98834,10.49035 -20.08615,20.87649 -30.63077,31.82663 z"
         id="path2-9" /><path
         fill="#000000"
         opacity="1"
         stroke="none"
         d="m 214.72537,137.9998 c -0.001,-11.15178 -0.0505,-21.80388 0.0102,-32.45537 0.0606,-10.636738 5.39434,-15.880879 16.02399,-15.8932 5.99162,-0.0069 11.98572,-0.09693 17.97432,0.04114 8.0356,0.185272 13.51787,5.583328 13.56615,13.5658 0.10766,17.80789 0.1105,35.61726 0.007,53.42515 -0.0465,7.96835 -5.54333,13.43692 -13.52675,13.63211 -6.32088,0.15452 -12.64862,0.0902 -18.97266,0.0402 -9.34172,-0.074 -14.80848,-5.43375 -15.05058,-14.88012 -0.14493,-5.65512 -0.0296,-11.31691 -0.0312,-17.47566 m 14.58104,10.36635 c 0.0242,7.56755 0.0242,7.56877 7.67418,7.60107 1.83202,0.008 3.67744,-0.13704 5.49338,0.0349 4.08104,0.38625 5.62845,-1.27223 5.55749,-5.43205 -0.19026,-11.15541 0.059,-22.31773 -0.0747,-33.47481 -0.17948,-14.97987 2.55732,-12.75393 -13.30185,-13.17421 -4.15728,-0.11017 -5.50277,1.38702 -5.43364,5.50969 0.21214,12.65421 0.0827,25.31415 0.0851,38.93546 z"
         id="path4-0" /><path
         fill="#000000"
         opacity="1"
         stroke="none"
         d="m 194.36,103.85664 c -7.09795,0.0678 -13.7569,0.18223 -20.41185,0.067 -3.39148,-0.0587 -4.62559,1.22812 -4.7189,4.69148 -0.3799,14.10203 -0.47832,14.08065 13.63638,14.11399 3.14484,0.007 6.2842,-0.21438 9.40566,0.73841 6.07559,1.85448 9.90728,6.41683 10.02798,12.72289 0.13055,6.82173 0.1384,13.64978 0.01,20.47148 -0.15104,8.01381 -5.52136,13.44383 -13.53184,13.65157 -6.32076,0.16391 -12.6493,0.0962 -18.97357,0.0405 -8.91291,-0.0784 -14.7484,-5.07036 -14.92568,-13.94667 -0.35222,-17.63561 -0.32068,-35.28667 -0.022,-52.92413 0.146,-8.621647 5.94887,-13.751454 14.50009,-13.817082 7.98882,-0.06132 15.97873,0.02541 23.96775,-0.02209 4.41089,-0.02621 8.04145,1.118637 8.90471,6.059357 0.73049,4.180877 -1.85714,6.861465 -7.86855,8.153205 m -25.06531,37.09044 c 0.007,3.81397 0.0444,7.62819 0.01,11.44177 -0.0199,2.20144 0.92165,3.20403 3.17677,3.55086 13.66193,2.10115 17.30471,-1.46438 15.51535,-15.22391 -0.27986,-2.15196 -1.03988,-3.40123 -3.35077,-3.3897 -3.97947,0.0198 -7.95918,-3.4e-4 -11.93876,-0.0131 -1.88744,-0.006 -3.2508,0.60876 -3.41248,3.63412 z"
         id="path6" /><path
         fill="#000000"
         opacity="1"
         stroke="none"
         d="m 122.71829,137.3382 c -4.79538,-0.0156 -9.13157,0.11645 -13.45233,-0.084 -4.79499,-0.22242 -7.63259,-3.19294 -7.57777,-7.52248 0.0506,-3.99897 2.8413,-6.78431 7.52868,-6.99864 4.81945,-0.22038 9.6583,-0.16946 14.48384,-0.0473 2.91633,0.0739 4.29831,-0.96239 4.27695,-4.01202 -0.12316,-17.59005 2.17403,-14.26952 -13.23431,-14.70937 -2.48584,-0.071 -5.00365,-0.15139 -7.43917,-0.59668 -3.84224,-0.70248 -5.67736,-3.32893 -5.55613,-7.139132 0.11807,-3.710404 2.4514,-6.186699 5.8868,-6.327149 7.97141,-0.325889 16.0085,-0.523445 23.94088,0.148583 6.17715,0.52333 10.70622,6.218185 10.65907,12.612178 -0.0648,8.79336 -0.22142,17.60817 -0.43478,26.39083 -0.20754,8.54284 0.47276,17.22899 0.50914,25.85558 0.0429,10.18297 -5.17122,15.38023 -15.29064,15.44586 -5.82786,0.0378 -11.65802,0.0895 -17.48378,-0.0294 -4.89517,-0.0999 -7.60673,-2.50578 -7.81527,-6.59778 -0.20676,-4.05702 2.22656,-6.95042 7.06089,-7.40778 4.7895,-0.4531 9.6425,-0.38368 14.46363,-0.30307 3.38855,0.0567 4.90303,-1.26589 4.75973,-4.70762 -0.13147,-3.1577 -0.10187,-6.33077 0.0393,-9.48889 0.15784,-3.53124 -1.52838,-4.84255 -5.32472,-4.48181 z"
         id="path8" /><path
         fill="#000000"
         opacity="1"
         stroke="none"
         d="m 297.69351,49.727898 c 10.21225,2.308685 16.75449,8.574215 17.61948,16.483101 1.10644,10.116523 -2.84403,18.106147 -10.9383,22.122123 -7.28338,3.613678 -16.32528,2.419823 -22.42044,-2.960243 -6.34613,-5.601601 -8.66735,-14.814423 -5.73306,-22.7542 2.75452,-7.453365 10.31381,-12.738598 18.53684,-12.948772 0.83184,-0.02127 1.66525,0.01859 2.93548,0.05799 m -7.3605,17.108848 c -1.59335,4.875656 -0.23715,8.191658 3.71826,8.847733 3.13174,0.519447 5.45053,-0.613884 6.8457,-3.600304 1.26789,-2.713928 0.47626,-4.97586 -1.68167,-6.574959 -2.87353,-2.129421 -5.84109,-2.007015 -8.88229,1.32753 z"
         id="path10" /><path
         fill="#000000"
         opacity="1"
         stroke="none"
         d="m 142.19253,264.80457 c 3.7027,-9.87562 10.42042,-15.05068 19.26809,-15.14292 9.05157,-0.0943 16.2053,4.43894 19.47508,12.81613 3.13193,8.02414 1.55336,15.39441 -4.26096,21.69351 -5.46727,5.9231 -14.71957,7.97413 -22.03206,4.89152 -7.87051,-3.31785 -12.42713,-9.23057 -12.9371,-17.90662 -0.11577,-1.9697 0.22444,-3.96616 0.48695,-6.35162 m 25.35155,7.08645 c 0.6965,-3.3197 -0.028,-6.09411 -3.46855,-7.31436 -3.03598,-1.07675 -5.76117,-0.19278 -7.20357,2.76163 -1.37588,2.81814 -1.03506,5.74582 1.86014,7.45718 3.36763,1.99069 6.39661,1.27008 8.81198,-2.90445 z"
         id="path12" /></g></g></g></svg>
