<?xml version="1.0" encoding="UTF-8" standalone="no"?>
<!-- Created with Inkscape (http://www.inkscape.org/) -->

<svg
   width="110.53033mm"
   height="77.042969mm"
   viewBox="0 0 110.53033 77.042969"
   version="1.1"
   id="svg4716"
   inkscape:version="1.1 (c68e22c387, 2021-05-23)"
   sodipodi:docname="dd.svg"
   xmlns:inkscape="http://www.inkscape.org/namespaces/inkscape"
   xmlns:sodipodi="http://sodipodi.sourceforge.net/DTD/sodipodi-0.dtd"
   xmlns="http://www.w3.org/2000/svg"
   xmlns:svg="http://www.w3.org/2000/svg">
  <sodipodi:namedview
     id="namedview4718"
     pagecolor="#ffffff"
     bordercolor="#666666"
     borderopacity="1.0"
     inkscape:pageshadow="2"
     inkscape:pageopacity="0.0"
     inkscape:pagecheckerboard="0"
     inkscape:document-units="mm"
     showgrid="false"
     inkscape:zoom="0.91223345"
     inkscape:cx="115.65022"
     inkscape:cy="223.07886"
     inkscape:window-width="1366"
     inkscape:window-height="697"
     inkscape:window-x="-8"
     inkscape:window-y="-8"
     inkscape:window-maximized="1"
     inkscape:current-layer="layer1" />
  <defs
     id="defs4713" />
  <g
     inkscape:label="Capa 1"
     inkscape:groupmode="layer"
     id="layer1"
     transform="translate(-75.522496,-102.21348)">
    <g
       id="g5197">
      <g
         id="g2638"
         transform="matrix(0.21058514,0,0,0.21058514,28.958453,58.443396)">
        <path
           fill="#000000"
           opacity="1"
           stroke="none"
           d="m 537.88611,417.02362 c -6.45801,1.9531 -12.59015,0.32559 -18.71655,0.35403 -3.12226,0.0145 -6.29981,-0.53195 -9.31763,0.42331 -0.90741,1.65143 0.15899,2.82563 0.94934,3.70035 6.22955,6.89475 4.41595,15.28488 4.48492,23.32059 0.0137,1.59228 -0.43774,3.11758 -2.40844,3.15137 -1.89539,0.0325 -2.63544,-1.53235 -2.77121,-2.99936 -0.29078,-3.14099 -0.4773,-6.32669 -0.28928,-9.46909 0.31662,-5.29254 -2.24103,-9.09225 -5.73236,-12.84885 -2.30145,10.79853 -2.30154,10.77448 -13.79453,10.82395 -6.16262,0.0265 -12.32983,0.34387 -18.48593,0.1831 -7.02115,-0.18338 -7.98669,-1.3374 -8.17022,-8.28811 -0.026,-0.98468 -0.004,-1.97061 -0.004,-3.45636 -5.64969,5.25592 -6.99662,11.34283 -6.70609,18.26105 0.11478,2.73312 1.57001,7.67367 -2.94058,7.52835 -4.03525,-0.12995 -1.86563,-4.81729 -2.32663,-7.48697 -1.40817,-8.1554 1.46521,-15.26132 6.99151,-22.46329 -6.16012,-0.60376 -11.05487,-0.50241 -15.97589,-0.13922 -3.14941,0.23242 -6.3186,0.42819 -9.47067,0.34122 -5.24109,-0.14454 -6.53113,-2.4635 -4.84317,-7.54569 0.89645,-2.69922 3.53299,-3.89923 4.77951,-6.25525 -1.15799,-3.10119 -3.91937,-1.96664 -6.00296,-2.41315 -1.5545,-0.33312 -3.08307,-0.6351 -2.92935,-2.64837 0.13248,-1.7349 1.62427,-2.04175 2.95148,-2.06021 5.82818,-0.0812 11.65817,-0.0895 17.48681,-0.0394 1.62372,0.014 3.02668,0.6517 2.94776,2.61972 -0.0721,1.79974 -1.60135,1.9089 -2.89603,2.12649 -1.14633,0.19263 -2.34448,0.11905 -3.47162,0.375 -2.29107,0.52024 -3.35733,1.57859 -1.35486,3.74573 2.77549,3.00373 5.62159,5.23627 10.27851,4.79221 6.28454,-0.59924 12.64578,-0.4682 18.97479,-0.49634 3.23657,-0.0144 5.24795,-0.80209 5.81775,-4.54837 0.68631,-4.51224 3.41214,-7.66589 8.35541,-7.78281 4.79708,-0.11349 7.61361,3.11081 8.36694,7.19059 0.8999,4.8735 3.59412,5.68408 7.72464,5.56399 5.82687,-0.1694 11.67194,-0.2637 17.49036,0.01 4.24713,0.19971 7.35669,-1.36246 9.96051,-4.51416 0.74383,-0.90039 1.84283,-1.57517 1.36279,-2.94153 -0.46063,-1.31113 -1.67804,-1.51505 -2.85932,-1.59939 -1.16113,-0.0829 -2.33197,-0.0226 -3.49511,-0.0874 -1.31073,-0.0729 -2.26966,-0.62201 -2.24433,-2.10727 0.02,-1.17218 0.78333,-1.94647 1.83228,-2.04882 6.47443,-0.63184 12.96271,-0.6196 19.43866,-0.0341 1.22461,0.11071 2.1875,0.86853 2.01965,2.36059 -0.13342,1.18613 -0.94696,1.69818 -2.01648,1.85257 -0.6557,0.0946 -1.34356,-0.008 -1.99041,0.11655 -1.72467,0.33188 -4.04053,-0.5791 -5.02069,1.35742 -1.18427,2.33966 1.50628,2.93863 2.59179,4.21051 2.46307,2.8862 3.50067,5.97452 1.42847,9.86496 m -55.27997,0.32498 c -2.51999,0.43906 -6.05222,-1.3764 -6.98199,2.71015 -0.85175,3.74356 3.05499,8.26178 7.13897,8.6134 4.28833,0.36926 7.90622,-2.61453 8.08969,-6.82861 0.25363,-5.82505 -4.19339,-4.14698 -8.24667,-4.49494 m 2.85394,-14.15353 c -1.25729,-2.10245 -2.80041,-2.21057 -4.26391,-0.35462 -1.12824,1.43085 -0.74759,2.98102 0.9534,3.58548 2.14669,0.76291 3.49588,-0.14065 3.31051,-3.23086 z"
           id="path8-5" />
        <path
           fill="#000000"
           opacity="1"
           stroke="none"
           d="m 482.32541,420.72732 c 2.78229,-0.32446 4.26456,0.611 3.76178,3.21708 -0.32428,1.68094 -1.80521,2.60589 -3.32584,1.92978 -2.49768,-1.11063 -2.75592,-2.98215 -0.43594,-5.14686 z"
           id="path42" />
      </g>
      <path
         fill="#0d0d0d"
         opacity="1"
         stroke="none"
         d="m 176.40788,126.75333 c 1.63608,0.41801 3.19224,0.82325 4.82973,0.46396 1.68885,-0.37057 2.39758,-1.66443 1.56727,-3.16021 -0.54172,-0.9759 -1.26032,-1.86621 -1.98386,-2.72385 -0.4343,-0.51479 -0.52791,-0.89013 -0.18148,-1.51111 1.6744,-3.00144 3.29228,-6.03439 4.93314,-9.05457 0.79435,-1.46209 0.62763,-2.50629 -0.68401,-3.54451 -0.72464,-0.57358 -1.54212,-1.02988 -2.4896,-1.65185 -0.0587,1.41579 -1.14018,1.76798 -2.01054,2.30988 -3.35711,2.0902 -6.72558,4.16214 -10.21301,6.317 1.42436,1.15414 2.79449,2.26434 4.16463,3.37454 -0.0455,0.0721 -0.091,0.14422 -0.13652,0.21634 -0.40052,-0.16655 -0.80253,-0.32964 -1.20132,-0.50023 -2.00368,-0.85718 -4.00008,-1.73182 -6.01276,-2.5673 -0.83236,-0.34552 -1.74927,-0.30886 -2.34248,0.36126 -0.9214,1.04084 -2.1495,1.2365 -3.35532,1.49799 -6.80923,1.4766 -13.61749,2.96023 -20.44563,4.34511 -1.5601,0.31642 -3.21235,0.34467 -4.79329,-0.98954 0.16831,0.71791 0.18937,1.20753 0.39308,1.60308 0.65923,1.27999 1.30572,2.57937 2.10932,3.76842 0.74564,1.10332 1.97457,1.41264 3.25294,1.32376 2.44295,-0.16985 4.88153,-0.40196 7.32255,-0.60052 3.75719,-0.30563 7.51511,-0.60226 11.27231,-0.90782 1.66993,-0.13581 3.34172,-0.25698 5.00761,-0.43272 2.95938,-0.31219 5.84189,-0.19025 8.575,1.18155 0.73925,0.37103 1.56392,0.5719 2.42224,0.88134 z"
         id="path4-7"
         style="fill:#000000;stroke-width:0.193539" />
      <path
         fill="#222222"
         opacity="1"
         stroke="none"
         d="m 165.18956,112.56275 c 0.71294,0.0591 1.34943,0.12983 2.24227,0.22906 -1.3936,-1.06435 -2.67742,-1.32281 -4.04568,-0.7211 -1.43992,0.63321 -2.19655,1.79535 -2.33762,3.42475 0.67031,0.17345 1.26359,0.13306 1.4873,-0.5908 0.40475,-1.30968 1.32994,-1.98346 2.65373,-2.34191 z"
         id="path8-0"
         style="fill:#000000;stroke-width:0.193539" />
      <g
         id="g2170"
         transform="matrix(0.05249669,0,0,0.05249669,-81.878569,65.374398)">
        <path
           id="path1487"
           style="fill:#000000;stroke:#000000;stroke-width:3.77953;stop-color:#000000"
           d="m 3647.7422,1229.6699 c -2.4752,0.057 -4.9711,0.6048 -7.4375,1.375 -2.4665,0.7702 -4.9028,1.7645 -7.2559,2.7168 -0.8373,0.339 -1.7366,1.2486 -2.3965,2.2793 -0.6599,1.0307 -1.0819,2.1826 -0.9668,3 0.1026,0.7288 0.8921,1.5871 1.8868,2.2813 0.9946,0.6942 2.1954,1.2239 3.125,1.2949 4.7526,0.3622 9.5743,-0.1704 15.1777,-0.2285 4.4542,-1.1062 8.9082,-2.2136 14.1484,-3.4766 5.6665,-1.9984 11.3334,-3.9976 17,-5.9961 -0.089,-0.7221 -0.1788,-1.4439 -0.2675,-2.166 -5.5032,-0.2155 -11.0078,-0.5472 -16.5118,-0.7949 -5.5039,-0.2478 -11.0066,-0.4117 -16.5019,-0.2852 z" />
        <path
           id="path1485"
           style="fill:#000000;stroke:#000000;stroke-width:3.77953;stop-color:#000000"
           d="m 3280.1191,996.80469 c -22.1783,2.5057 -44.3645,4.77791 -66.5761,6.68751 -22.2116,1.9096 -44.4474,3.4575 -66.7266,4.5137 -11.1396,0.528 -22.2902,0.9327 -33.4531,1.1992 -11.163,0.2665 -22.3387,0.3944 -33.5293,0.3672 -11.1906,-0.027 -22.3966,-0.2094 -33.6192,-0.5625 -11.2225,-0.3532 -22.4619,-0.8767 -33.7207,-1.5879 4.2299,2.6125 8.3067,5.3224 12.3907,7.9082 4.084,2.5858 8.1756,5.0474 12.4394,7.164 2.9793,1.479 6.1682,2.6379 9.4375,3.5684 3.2693,0.9305 6.6201,1.6315 9.9258,2.1973 3.2574,0.5575 6.5768,0.8584 9.9121,1.0039 3.3353,0.1455 6.6852,0.1368 10.0059,0.072 19.1393,-0.3721 38.2725,-1.0851 57.4082,-1.6523 1.6018,-0.047 3.2064,-0.01 5.3691,-0.01 -0.8,1.2472 -0.9404,1.6893 -1.1113,1.7012 -10.9359,0.7595 -21.8742,1.4837 -32.8067,2.2109 -0.3239,2.2264 -0.4722,4.3619 -0.4472,6.3985 0.025,2.0366 0.2224,3.9747 0.584,5.8047 0.3615,1.8299 0.8882,3.5518 1.5742,5.1582 0.686,1.6063 1.5311,3.0971 2.5293,4.4629 0.9982,1.3657 2.1491,2.6066 3.4472,3.7148 1.2982,1.1082 2.7443,2.0842 4.3301,2.918 1.5859,0.8337 3.3125,1.526 5.1738,2.0683 1.8614,0.5423 3.856,0.9341 5.9805,1.168 1.7576,0.073 3.1882,0.054 4.3477,-0.098 1.1594,-0.1518 2.0475,-0.4364 2.7187,-0.8906 0.6712,-0.4542 1.1272,-1.0783 1.4199,-1.9121 0.2928,-0.8338 0.4231,-1.8773 0.4473,-3.168 0.8685,-0.5493 1.7368,-1.0988 3.2227,-1.5293 -0.4414,1.3389 -0.8829,2.6788 -1.3242,4.0176 0.2687,0.2771 0.538,0.553 0.8066,0.8301 2.2519,-2.1964 4.5034,-4.3913 7.3301,-7.1484 -2.4281,0 -3.7236,0 -4.666,-0.5332 0,0 0,0 0,0 0,0 0,0 0,0 0.7325,-0.7617 1.4644,-1.5232 2.8457,-2.2461 1.4365,-0.6896 2.8738,-1.3801 4.5742,-2.7305 1.6003,-4.7712 3.2018,-9.5408 5.5879,-14.3457 0.8866,0.01 1.6253,-0.082 2.2187,-0.2793 0.5934,-0.1973 1.0413,-0.5007 1.3438,-0.9121 0.3024,-0.4114 0.4588,-0.9305 0.4726,-1.5625 0.014,-0.632 -0.116,-1.3771 -0.3886,-2.2363 -0.1921,-0.6053 -0.2723,-1.2462 -0.2247,-1.9258 0.048,-0.6796 0.2244,-1.3983 0.5469,-2.1602 40.167,-8.4998 80.333,-16.9982 120.5,-25.49803 -0.099,-0.7151 -0.1982,-1.43138 -0.2969,-2.14648 z" />
        <path
           id="path1483"
           style="fill:#000000;stroke:#000000;stroke-width:3.77953;stop-color:#000000"
           d="m 3280.1191,996.80469 c 0.099,0.7151 0.1979,1.43138 0.2969,2.14648 -40.167,8.49983 -80.333,16.99823 -120.5,25.49803 -0.3225,0.7619 -0.4993,1.4806 -0.5469,2.1602 -0.048,0.6796 0.033,1.3205 0.2247,1.9258 0.2726,0.8592 0.4024,1.6043 0.3886,2.2363 -0.014,0.632 -0.1702,1.1511 -0.4726,1.5625 -0.3025,0.4114 -0.7504,0.7148 -1.3438,0.9121 -0.5934,0.1973 -1.3321,0.2895 -2.2187,0.2793 -2.3861,4.8049 -3.9876,9.5745 -5.5879,14.3457 -1.7004,1.3504 -3.1377,2.0409 -4.5742,2.7305 -1.3813,0.7229 -2.1132,1.4844 -2.8457,2.2461 0.9424,0.5318 2.2379,0.5332 4.666,0.5332 -2.8267,2.7571 -5.0782,4.952 -7.3301,7.1484 -0.2686,-0.2771 -0.5379,-0.553 -0.8066,-0.8301 0.4413,-1.3388 0.8828,-2.6787 1.3242,-4.0176 -1.4859,0.4305 -2.3542,0.98 -3.2227,1.5293 -0.024,1.2907 -0.1545,2.3342 -0.4473,3.168 -0.2927,0.8338 -0.7487,1.4579 -1.4199,1.9121 -0.6712,0.4542 -1.5593,0.7388 -2.7187,0.8906 -1.1595,0.1519 -2.5901,0.171 -4.3477,0.098 -2.1245,-0.2339 -4.1191,-0.6257 -5.9805,-1.168 -1.8613,-0.5423 -3.5879,-1.2346 -5.1738,-2.0683 -1.5858,-0.8338 -3.0319,-1.8098 -4.3301,-2.918 -1.2981,-1.1082 -2.449,-2.3491 -3.4472,-3.7148 -0.9982,-1.3658 -1.8433,-2.8566 -2.5293,-4.4629 -0.686,-1.6064 -1.2127,-3.3283 -1.5742,-5.1582 -0.3616,-1.83 -0.5591,-3.7681 -0.584,-5.8047 -0.025,-2.0366 0.1233,-4.1721 0.4472,-6.3985 10.9325,-0.7272 21.8708,-1.4514 32.8067,-2.2109 0.1709,-0.012 0.3113,-0.454 1.1113,-1.7012 -2.1627,0 -3.7673,-0.037 -5.3691,0.01 -19.1357,0.5672 -38.2689,1.2802 -57.4082,1.6523 -3.3207,0.065 -6.6706,0.073 -10.0059,-0.072 -3.3353,-0.1455 -6.6547,-0.4464 -9.9121,-1.0039 -3.3057,-0.5658 -6.6565,-1.2668 -9.9258,-2.1973 -3.2693,-0.9305 -6.4582,-2.0894 -9.4375,-3.5684 -4.2638,-2.1166 -8.3554,-4.5782 -12.4394,-7.164 -4.084,-2.5858 -8.1608,-5.2957 -12.3907,-7.9082 11.2588,0.7112 22.4982,1.2347 33.7207,1.5879 11.2226,0.3531 22.4286,0.5352 33.6192,0.5625 11.1906,0.027 22.3663,-0.1007 33.5293,-0.3672 11.1629,-0.2665 22.3135,-0.6712 33.4531,-1.1992 22.2792,-1.0562 44.515,-2.6041 66.7266,-4.5137 22.2116,-1.9096 44.3978,-4.18181 66.5761,-6.68751 z" />
        <path
           id="path1481"
           style="fill:#000000;stroke:#000000;stroke-width:3.77953;stop-color:#000000"
           d="m 3340.4844,990.9707 c -3.1523,0.5282 -6.3694,1.06787 -9.6289,1.71875 -3.2595,0.65089 -6.5609,1.41393 -9.8789,2.38867 -0.1166,2.27071 -0.2331,4.54031 -0.3184,6.20308 -1.8218,0.6923 -3.5147,1.2285 -5.082,1.7891 -1.5674,0.5606 -3.0087,1.1464 -4.3282,1.9356 -0.9062,0.542 -1.6425,1.367 -2.332,2.2714 -0.6894,0.9045 -1.3323,1.8882 -2.0508,2.7442 0.8371,0.6031 1.6327,1.3414 2.4532,2 0.8204,0.6585 1.6657,1.2366 2.5996,1.5156 5.6609,1.6915 11.4598,2.9219 17.5429,4.4141 v 12.4668 h 4.7032 v -12.6973 c 5.2056,-1.1884 9.9703,-2.0074 14.5468,-3.4316 1.1921,-0.371 2.3025,-1.0078 3.3887,-1.7188 1.0862,-0.7109 2.149,-1.4946 3.25,-2.1582 -0.9696,-0.9213 -1.8693,-2.1025 -2.8105,-3.1289 -0.9413,-1.0263 -1.9248,-1.8978 -3.0606,-2.2051 -1.7036,-0.4608 -3.1321,-1.0605 -4.3008,-1.8027 -1.1687,-0.7423 -2.077,-1.6275 -2.7402,-2.6641 -0.6632,-1.03657 -1.0805,-2.22444 -1.2676,-3.56833 -0.187,-1.34389 -0.1444,-2.84369 0.1153,-4.50781 0.039,-0.2492 -0.2688,-0.55266 -0.8008,-1.56446 z" />
        <path
           id="path1479"
           style="fill:#000000;stroke:#000000;stroke-width:3.77953;stop-color:#000000"
           d="m 3340.4844,990.9707 c 0.532,1.0118 0.8398,1.31526 0.8008,1.56446 -0.2597,1.66412 -0.3023,3.16392 -0.1153,4.50781 0.1871,1.34389 0.6044,2.53176 1.2676,3.56833 0.6632,1.0366 1.5715,1.9218 2.7402,2.6641 1.1687,0.7422 2.5972,1.3419 4.3008,1.8027 1.1358,0.3073 2.1193,1.1788 3.0606,2.2051 0.9412,1.0264 1.8409,2.2076 2.8105,3.1289 -1.101,0.6636 -2.1638,1.4473 -3.25,2.1582 -1.0862,0.711 -2.1966,1.3478 -3.3887,1.7188 -4.5765,1.4242 -9.3412,2.2432 -14.5468,3.4316 v 12.6973 h -4.7032 v -12.4668 c -6.0831,-1.4922 -11.882,-2.7226 -17.5429,-4.4141 -0.9339,-0.279 -1.7792,-0.8571 -2.5996,-1.5156 -0.8205,-0.6586 -1.6161,-1.3969 -2.4532,-2 0.7185,-0.856 1.3614,-1.8397 2.0508,-2.7442 0.6895,-0.9044 1.4258,-1.7294 2.332,-2.2714 1.3195,-0.7892 2.7608,-1.375 4.3282,-1.9356 1.5673,-0.5606 3.2602,-1.0968 5.082,-1.7891 0.085,-1.66277 0.2018,-3.93237 0.3184,-6.20308 3.318,-0.97474 6.6194,-1.73778 9.8789,-2.38867 3.2595,-0.65088 6.4766,-1.19055 9.6289,-1.71875 z" />
        <path
           id="path1477"
           style="fill:#000000;stroke:#000000;stroke-width:3.77953;stop-color:#000000"
           d="m 3778.0137,965.40234 c -1.2545,-0.111 -2.2182,0.0631 -2.9825,0.56836 -0.7642,0.50524 -1.3298,1.34204 -1.789,2.55469 -4.0614,10.7237 -8.3079,21.37647 -12.8418,32.74221 -0.758,2.0783 -1.5172,4.1571 -2.3047,6.3164 h 24.9512 c 0.5456,-14.21604 1.0779,-28.0958 1.6172,-42.1465 -2.6768,0 -4.6773,0.13944 -6.6504,-0.0352 z" />
        <path
           id="path1475"
           style="fill:#000000;stroke:#000000;stroke-width:3.77953;stop-color:#000000"
           d="m 3778.0137,965.40234 c 1.9731,0.1746 3.9736,0.0352 6.6504,0.0352 -0.5393,14.0507 -1.0716,27.93046 -1.6172,42.14646 h -24.9512 c 0.7875,-2.1593 1.5467,-4.2381 2.3047,-6.3164 4.5339,-11.3657 8.7804,-22.01847 12.8418,-32.74217 0.4592,-1.21265 1.0248,-2.04945 1.789,-2.55469 0.7643,-0.50523 1.728,-0.67936 2.9825,-0.56836 z" />
        <path
           id="path1473"
           style="fill:#000000;stroke:#000000;stroke-width:3.77953;stop-color:#000000"
           d="m 3794.7715,965.08789 c -0.637,-0.0718 -1.3974,-0.0311 -2.3145,0.12695 h -5.3808 c -1.0209,25.8938 -2.0139,51.06046 -3.0157,76.46876 6.8004,0 12.9429,0.137 19.0723,-0.072 1.1346,-0.039 2.5916,-0.1083 3.8516,-0.3359 1.2599,-0.2277 2.3221,-0.6117 2.6679,-1.2774 1.0808,-2.0802 2.7087,-3.9597 3.8477,-6.0585 0.5695,-1.0495 1.0173,-2.1528 1.2129,-3.3653 0.1956,-1.2124 0.1384,-2.5326 -0.2988,-4.0137 -5.6851,-19.2577 -11.0399,-38.61552 -16.3672,-57.97652 -0.3777,-1.3727 -0.8587,-2.37301 -1.7031,-2.95117 -0.4223,-0.28908 -0.9354,-0.47316 -1.5723,-0.54492 z" />
        <path
           id="path1471"
           style="fill:#000000;stroke:#000000;stroke-width:3.77953;stop-color:#000000"
           d="m 3794.7715,965.08789 c 0.6369,0.0718 1.15,0.25584 1.5723,0.54492 0.8444,0.57816 1.3254,1.57847 1.7031,2.95117 5.3273,19.361 10.6821,38.71882 16.3672,57.97652 0.4372,1.4811 0.4944,2.8013 0.2988,4.0137 -0.1956,1.2125 -0.6434,2.3158 -1.2129,3.3653 -1.139,2.0988 -2.7669,3.9783 -3.8477,6.0585 -0.3458,0.6657 -1.408,1.0497 -2.6679,1.2774 -1.26,0.2276 -2.717,0.2974 -3.8516,0.3359 -6.1294,0.2093 -12.2719,0.072 -19.0723,0.072 1.0018,-25.4083 1.9948,-50.57496 3.0157,-76.46876 h 5.3808 c 0.9171,-0.15802 1.6775,-0.19871 2.3145,-0.12695 z" />
        <path
           id="path1469"
           style="fill:#000000;stroke:#000000;stroke-width:3.77953;stop-color:#000000"
           d="m 3489.3359,953.50391 c -0.733,0.054 -1.4649,0.10827 -3.0839,0.043 -5.7368,0.74099 -11.4743,1.48036 -18.002,2.13476 -4.5383,1.53575 -9.153,2.90489 -13.7168,4.38477 -4.5638,1.47987 -9.0768,3.07133 -13.4102,5.05468 -1.5746,0.7207 -2.7649,1.47752 -3.6035,2.29688 -0.8386,0.81936 -1.3247,1.70154 -1.4922,2.67187 -0.1674,0.97033 -0.015,2.02951 0.4239,3.20313 0.4388,1.17362 1.1642,2.4614 2.1445,3.89062 9.6034,14.0014 19.0089,28.15078 28.9883,41.88088 47.7667,65.7191 95.6865,131.3266 143.5859,196.9492 5.0412,6.9063 10.3029,13.6516 15.0078,19.8711 2.3091,-1.7959 4.6431,-3.2724 6.9981,-4.4766 2.3549,-1.2042 4.7314,-2.1366 7.1269,-2.8437 2.3955,-0.7072 4.8096,-1.1897 7.2403,-1.4942 2.4306,-0.3045 4.8774,-0.4312 7.3379,-0.4277 4.9208,0.01 9.8965,0.5369 14.9043,1.209 5.0077,0.672 10.048,1.4874 15.0996,2.0683 -4.7942,-9.1312 -9.2922,-17.6394 -13.7383,-26.1738 -10.5646,-20.2797 -21.3097,-40.4719 -31.9297,-60.7246 -10.62,-20.2528 -21.115,-40.5661 -31.1738,-61.0938 -6.6486,-13.5681 -12.8906,-27.3603 -18.8067,-41.2949 -5.916,-13.9345 -11.5064,-28.0121 -16.8457,-42.1523 -1.4464,-3.8306 -3.1436,-7.29843 -5.0976,-10.44727 -1.9541,-3.14884 -4.1637,-5.97869 -6.6348,-8.52929 -2.4711,-2.55061 -5.2037,-4.82348 -8.2012,-6.85938 -2.9975,-2.0359 -6.2596,-3.83473 -9.7929,-5.43945 -2.7252,-1.2376 -5.3382,-2.72783 -8.0801,-3.92383 -5.3466,-2.3321 -10.7353,-4.5244 -16.3613,-6.25 -2.8131,-0.8628 -5.6863,-1.60928 -8.6426,-2.19727 -2.9564,-0.58798 -5.9959,-1.01699 -9.1446,-1.24804 -3.4573,0.026 -6.9152,0.052 -11.0996,-0.082 z" />
        <path
           id="path1467"
           style="fill:#000000;stroke:#000000;stroke-width:3.77953;stop-color:#000000"
           d="m 3489.3359,953.50391 c 4.1844,0.134 7.6423,0.10803 11.0996,0.082 3.1487,0.23105 6.1882,0.66006 9.1446,1.24804 2.9563,0.58799 5.8295,1.33447 8.6426,2.19727 5.626,1.7256 11.0147,3.9179 16.3613,6.25 2.7419,1.196 5.3549,2.68623 8.0801,3.92383 3.5333,1.60472 6.7954,3.40355 9.7929,5.43945 2.9975,2.0359 5.7301,4.30877 8.2012,6.85938 2.4711,2.5506 4.6807,5.38045 6.6348,8.52929 1.954,3.14884 3.6512,6.61667 5.0976,10.44727 5.3393,14.14026 10.9297,28.21786 16.8457,42.15236 5.9161,13.9346 12.1581,27.7268 18.8067,41.2949 10.0588,20.5277 20.5538,40.841 31.1738,61.0938 10.62,20.2527 21.3651,40.4449 31.9297,60.7246 4.4461,8.5344 8.9441,17.0426 13.7383,26.1738 -5.0516,-0.5809 -10.0919,-1.3963 -15.0996,-2.0683 -5.0078,-0.6721 -9.9835,-1.202 -14.9043,-1.209 -2.4605,0 -4.9073,0.1232 -7.3379,0.4277 -2.4307,0.3045 -4.8448,0.787 -7.2403,1.4942 -2.3955,0.7071 -4.772,1.6395 -7.1269,2.8437 -2.355,1.2042 -4.689,2.6807 -6.9981,4.4766 -4.7049,-6.2195 -9.9666,-12.9648 -15.0078,-19.8711 -47.8994,-65.6226 -95.8192,-131.2301 -143.5859,-196.9492 -9.9794,-13.7301 -19.3849,-27.87954 -28.9883,-41.88094 -0.9803,-1.42922 -1.7057,-2.717 -2.1445,-3.89062 -0.4389,-1.17362 -0.5913,-2.2328 -0.4239,-3.20313 0.1675,-0.97033 0.6536,-1.85251 1.4922,-2.67187 0.8386,-0.81936 2.0289,-1.57618 3.6035,-2.29688 4.3334,-1.98335 8.8464,-3.57481 13.4102,-5.05468 4.5638,-1.47988 9.1785,-2.84902 13.7168,-4.38477 6.5277,-0.6544 12.2652,-1.39377 18.002,-2.13476 1.619,0.0653 2.3509,0.011 3.0839,-0.043 z m 158.4063,276.16599 c 5.4953,-0.1265 10.998,0.037 16.5019,0.2852 5.504,0.2477 11.0086,0.5794 16.5118,0.7949 0.089,0.7221 0.1785,1.4439 0.2675,2.166 -5.6666,1.9985 -11.3335,3.9977 -17,5.9961 -5.2402,1.263 -9.6942,2.3704 -14.1484,3.4766 -5.6034,0.058 -10.4251,0.5907 -15.1777,0.2285 -0.9296,-0.071 -2.1304,-0.6007 -3.125,-1.2949 -0.9947,-0.6942 -1.7842,-1.5525 -1.8868,-2.2813 -0.1151,-0.8174 0.3069,-1.9693 0.9668,-3 0.6599,-1.0307 1.5592,-1.9403 2.3965,-2.2793 2.3531,-0.9523 4.7894,-1.9466 7.2559,-2.7168 2.4664,-0.7702 4.9623,-1.318 7.4375,-1.375 z"
           sodipodi:nodetypes="ccsssssssssssscsssssccssssssscccssccccsssssss" />
        <path
           id="path1465"
           style="fill:#000000;stroke:#000000;stroke-width:3.77953;stop-color:#000000"
           d="m 3865.8164,938.29102 c -23.6573,4.97525 -46.6583,9.8137 -69.8613,14.69336 2.8582,10.0999 5.5111,19.51658 8.1894,28.92578 9.6442,33.88074 19.2974,67.75884 28.8457,102.24214 0.4044,1.1219 0.8085,2.2439 1.3887,4.2051 6.0141,21.3639 12.0277,42.7275 18.1953,64.6367 24.9141,-0.616 49.2956,-1.2198 74.5293,-1.8437 -20.6888,-71.8568 -40.9716,-142.2992 -61.2871,-212.85938 z" />
        <path
           id="path1463"
           style="fill:#000000;stroke:#000000;stroke-width:3.77953;stop-color:#000000"
           d="m 3865.8164,938.29102 c 20.3155,70.56018 40.5983,141.00258 61.2871,212.85938 -25.2337,0.6239 -49.6152,1.2277 -74.5293,1.8437 -6.1676,-21.9092 -12.1812,-43.2728 -18.1953,-64.6367 -0.5802,-1.9612 -0.9843,-3.0832 -1.3887,-4.2051 -9.5483,-34.4833 -19.2015,-68.3614 -28.8457,-102.24214 -2.6783,-9.4092 -5.3312,-18.82588 -8.1894,-28.92578 23.203,-4.87966 46.204,-9.71811 69.8613,-14.69336 z" />
        <path
           id="path1461"
           style="fill:#000000;stroke:#000000;stroke-width:3.77953;stop-color:#000000"
           d="m 3920.5859,922.875 c -1.5264,-0.0167 -2.9188,0.19022 -4.1523,0.61523 -1.2336,0.42502 -2.308,1.06948 -3.1953,1.92774 -0.8873,0.85826 -1.5885,1.92983 -2.0762,3.21289 -0.4877,1.28306 -0.7621,2.77714 -0.7969,4.47656 2.9543,18.78329 5.9089,37.56631 8.8633,56.34961 0.4527,-0.055 0.9047,-0.10956 1.3574,-0.16406 z" />
        <path
           id="path1459"
           style="fill:#000000;stroke:#000000;stroke-width:3.77953;stop-color:#000000"
           d="m 3920.5859,922.875 v 66.41797 c -0.4527,0.0545 -0.9047,0.10906 -1.3574,0.16406 -2.9544,-18.7833 -5.909,-37.56632 -8.8633,-56.34961 0.035,-1.69942 0.3092,-3.1935 0.7969,-4.47656 0.4877,-1.28306 1.1889,-2.35463 2.0762,-3.21289 0.8873,-0.85826 1.9617,-1.50272 3.1953,-1.92774 1.2335,-0.42501 2.6259,-0.6319 4.1523,-0.61523 z" />
        <path
           id="path1457"
           style="fill:#000000;stroke:#000000;stroke-width:3.77953;stop-color:#000000"
           d="m 3361.0449,888.04297 c -1.5162,0.11289 -2.7321,0.20312 -4.2539,0.31641 0,7.4125 -3e-4,14.5056 0.4981,22.26171 h 3.7558 z" />
        <path
           id="path1453"
           style="fill:#000000;stroke:#000000;stroke-width:3.77953;stop-color:#000000"
           d="m 3396.6172,703.63477 c -2.5732,0.025 -5.1472,0.27459 -7.7227,0.81054 -2.5754,0.53596 -5.1535,1.35934 -7.7383,2.53125 1.6656,12.93377 3.157,25.64338 4.9668,38.3086 2.9661,20.75806 6.1396,41.48778 9.1153,63.04296 0.7471,3.40809 1.4943,6.8158 2.3164,10.25 0,0 -0.082,0.003 -0.4453,0.99219 1.3379,8.35147 2.5017,16.7367 4.0508,25.04883 3.2507,17.44257 6.6604,34.85599 10.1328,52.25586 0.1998,1.00112 0.2571,2.25845 0.6933,3.27344 0.2181,0.50749 0.5306,0.95371 1.0039,1.27734 0.4733,0.32364 1.1076,0.52418 1.9668,0.53906 -0.2882,0.48666 -0.5774,0.97468 -1.7871,1.62891 -16.3979,0.52362 -32.7956,1.04642 -49.2011,1.57031 -0.1811,3.13934 -0.3209,5.56338 -0.459,7.95703 h -9.293 v -7.18945 c -6.1505,0 -11.7937,0.0988 -17.4297,-0.0527 -1.0462,-0.0281 -2.1386,-0.0957 -3.2012,-0.26563 -1.0625,-0.16993 -2.0947,-0.44075 -3.0214,-0.875 -7.1994,-3.37351 -14.4972,-6.32829 -21.8907,-8.86133 -7.3934,-2.53304 -14.8826,-4.64435 -22.4609,-6.33593 -7.5783,-1.69159 -15.2461,-2.96335 -23,-3.8125 -7.7539,-0.84916 -15.5935,-1.27551 -23.5137,-1.28125 -11.649,-0.008 -23.3142,0.1272 -34.9687,0.49023 -11.6546,0.36303 -23.299,0.95186 -34.9082,1.8457 -4.8907,0.37657 -9.6485,1.21518 -14.2989,2.41211 -4.6503,1.19694 -9.1923,2.75296 -13.6464,4.56446 -4.4542,1.81149 -8.8209,3.87937 -13.1231,6.09961 -4.3022,2.22023 -8.54,4.59245 -12.7344,7.01562 -4.9966,2.88665 -9.9035,5.88448 -14.7304,8.98438 -4.827,3.09989 -9.5732,6.30233 -14.2461,9.5957 -9.3458,6.58674 -18.3993,13.5411 -27.2227,20.7832 -8.8234,7.2421 -17.4177,14.77234 -25.8437,22.51172 -8.426,7.73938 -16.6844,15.68705 -24.8379,23.76562 -2.2022,2.18201 -4.8883,3.87632 -7.6192,6.00782 1.9028,1.2825 3.9094,2.40043 6.0176,3.36133 2.1082,0.9608 4.3177,1.7643 6.625,2.414 2.3073,0.6497 4.7127,1.1471 7.2129,1.4961 2.5002,0.349 5.0965,0.5486 7.7832,0.6074 16.9174,0.3703 33.827,0.5678 50.7285,0.543 16.9015,-0.025 33.7943,-0.2703 50.6797,-0.7851 16.8854,-0.5149 33.7636,-1.2985 50.6328,-2.3985 16.8692,-1.0999 33.7292,-2.5167 50.582,-4.29683 29.8061,-3.14845 59.6435,-6.00847 89.4883,-8.78906 29.8449,-2.78059 59.6978,-5.4821 89.5371,-8.3164 8.6921,-0.82561 17.3749,-1.75115 26.2774,-2.65235 -1.2906,-2.2646 -2.2105,-4.20635 -2.7246,-5.91992 -0.5142,-1.71357 -0.623,-3.19913 -0.2969,-4.55078 0.3261,-1.35166 1.0883,-2.56919 2.3184,-3.74805 1.23,-1.17886 2.9271,-2.3185 5.125,-3.51367 2.5247,-1.37305 5.1691,-2.64082 7.8808,-3.71484 2.7117,-1.07403 5.4905,-1.95398 8.2871,-2.54883 5.1891,-1.1037 10.4302,-1.96499 15.7754,-2.72656 5.3452,-0.76158 10.7953,-1.42356 16.4024,-2.13086 0.739,-0.0768 1.4783,-0.15382 3.0175,-0.041 2.37,0.0381 4.7402,0.0753 7.8809,0.39062 0.8123,0.0185 1.6242,0.0374 3.2129,0.32032 5.393,0.7955 10.6151,1.9904 15.6933,3.52148 5.0783,1.53108 10.0125,3.39863 14.8301,5.54297 4.8177,2.14434 9.5177,4.56589 14.1289,7.20117 4.6113,2.63528 9.1328,5.48438 13.5918,8.48828 0.7889,0.53145 1.9123,0.96586 3.0313,1.17578 1.119,0.20993 2.2354,0.19523 3.0078,-0.16992 3.7709,-1.78255 7.5946,-3.26063 11.4687,-4.48047 3.8742,-1.21983 7.7986,-2.18163 11.7657,-2.93359 3.9671,-0.75196 7.9775,-1.29294 12.0273,-1.67187 4.0498,-0.37894 8.1395,-0.59457 12.2617,-0.69532 51.6258,-1.2617 103.2438,-2.81974 154.8672,-4.18164 8.4088,-0.2219 16.8274,-0.0312 25.7207,-0.0312 -1.2701,-4.6917 -2.2109,-8.17027 -3.2793,-12.11718 24.9134,-5.22889 49.5574,-10.4004 74.3203,-15.59766 1.2955,4.28912 2.4835,8.22034 4.0645,13.45508 7.7721,-2.89279 15.2561,-5.39994 22.4883,-8.4961 0.8328,-0.35653 1.547,-0.79546 2.1426,-1.32226 0.5955,-0.52681 1.0723,-1.14148 1.4335,-1.84571 0.3613,-0.70422 0.6065,-1.49791 0.7364,-2.38671 0.1298,-0.88881 0.1453,-1.87258 0.047,-2.95313 -0.4299,-4.71785 -0.6142,-9.45824 -0.6347,-14.20898 -0.021,-4.75075 0.1221,-9.51175 0.3457,-14.27149 0.3629,-0.004 0.7249,-0.008 1.1133,0.0996 0.3884,0.10748 0.8027,0.32741 1.2675,0.76953 v 24.78711 c 0.679,0.34311 1.3582,0.68619 2.0372,1.0293 3.2344,-2.27322 6.5038,-4.50006 9.6953,-6.83203 1.3813,-1.00934 2.6048,-1.77126 3.7285,-2.28516 1.1236,-0.5139 2.1475,-0.7786 3.1308,-0.79297 0.9834,-0.0144 1.9263,0.22168 2.8868,0.71094 0.9604,0.48926 1.9392,1.23153 2.9941,2.22852 6.7101,-2.22101 13.5328,-4.35075 20.2402,-6.80079 0.7244,-0.26462 1.595,-0.80638 2.291,-1.43164 0.6961,-0.62525 1.2176,-1.33477 1.2442,-1.93554 0.3272,-7.40972 0.1641,-14.84018 0.1641,-22.52735 -8.3941,-0.57664 -16.5725,-0.91284 -24.7422,-0.80859 -4.0849,0.0521 -8.1677,0.21462 -12.2735,0.51172 -4.1058,0.29709 -8.234,0.72842 -12.4121,1.32031 -0.6861,-0.0123 -1.3724,-0.0243 -2.0742,-0.15234 -0.7018,-0.12802 -1.419,-0.37255 -2.168,-0.84766 0.036,-6.33966 0.071,-12.67883 0.7207,-19.1582 -0.174,-0.97507 -0.3485,-1.95062 -0.6347,-3.66211 -0.9187,-0.95263 -1.9025,-1.77142 -2.9395,-2.45117 -1.037,-0.67976 -2.1274,-1.21944 -3.2578,-1.61133 -1.1304,-0.3919 -2.3012,-0.63753 -3.5,-0.72656 -1.1988,-0.089 -2.4257,-0.0218 -3.668,0.20703 -8.7632,1.61407 -17.3964,3.94208 -26.0488,6.11523 -0.8502,0.21356 -1.4501,1.42846 -2.7148,2.22656 -0.6525,0.60941 -1.3044,1.21783 -2.7637,1.69922 -11.2517,-1.41526 -22.4965,-2.52931 -33.7383,-3.26172 -11.2418,-0.73241 -22.4806,-1.0828 -33.7207,-0.96875 -5.62,0.057 -11.2402,0.22998 -16.8613,0.5293 -5.6212,0.29932 -11.2439,0.72504 -16.8672,1.28711 -5.6233,0.56207 -11.2486,1.2602 -16.875,2.10547 -5.6264,0.84526 -11.2542,1.83741 -16.8848,2.98633 v 18.17968 c -1.0175,0.1242 -1.6582,0.25415 -2.3027,0.27344 -25.1517,0.75299 -50.3042,1.46521 -75.4551,2.24805 -23.4792,0.7308 -46.9569,1.53433 -71.334,2.14648 -3.397,0.27643 -6.794,0.55395 -10.9218,0.61914 -0.7552,0.0338 -1.51,0.0667 -2.9258,-0.16406 -5.1506,0.23605 -10.3016,0.47162 -16.3262,0.5332 -28.3268,0.84769 -56.6541,1.69635 -84.9707,1.94336 0,-0.59912 0,-1.19884 0.8867,-2.11132 22.6805,-0.47851 45.36,-0.95613 68.8242,-1.45118 -1.2218,-2.07733 -1.7777,-3.087 -2.3925,-4.05859 -8.8921,-14.05287 -17.4413,-28.2872 -25.6817,-42.68359 -8.2404,-14.3964 -16.1715,-28.95569 -23.8281,-43.65821 -7.6567,-14.70251 -15.0389,-29.5483 -22.1797,-44.51953 -7.1408,-14.97123 -14.0396,-30.06699 -20.7324,-45.26953 -0.755,-1.71505 -1.5767,-3.23634 -2.4903,-4.57812 -0.9135,-1.34179 -1.92,-2.50368 -3.0468,-3.50391 -1.1269,-1.00023 -2.3728,-1.8389 -3.7676,-2.5293 -1.3948,-0.69039 -2.9388,-1.23225 -4.6563,-1.64453 -2.5896,-0.62165 -5.1701,-1.14503 -7.748,-1.50586 -2.5779,-0.36083 -5.1514,-0.56019 -7.7246,-0.53515 z" />
      </g>
      <g
         id="g1441"
         transform="matrix(0.03605674,0,0,0.03605674,121.51595,161.91272)">
        <path
           fill="#262626"
           opacity="1"
           stroke="none"
           d="m 365.41663,252.59222 c 2.78225,3.75785 5.50643,7.13794 7.83645,10.77082 14.90982,23.24676 29.70209,46.56887 44.59079,69.82922 38.03144,59.41602 1.00724,138.36426 -68.97629,146.96423 -4.28506,0.52655 -8.62875,0.80469 -12.94558,0.80915 -52.65738,0.054 -105.3149,0.0569 -157.97234,0.0292 -56.1486,-0.0296 -99.515013,-45.39447 -96.808211,-101.45443 0.801208,-16.59351 5.87365,-31.97529 14.82959,-46.02225 14.936541,-23.42731 29.804841,-46.89856 44.835491,-70.26535 16.20339,-25.18994 39.3904,-37.93729 69.3396,-38.23256 12.79206,-0.12613 25.58638,-0.0211 38.8528,-0.0211 0,-7.79111 0,-15.23732 0,-22.68355 0,-15.66393 -0.075,-31.32852 0.0663,-46.99118 0.0267,-2.96355 -0.58504,-4.67136 -3.46181,-6.19751 -10.11292,-5.36501 -14.63387,-16.22759 -11.75196,-27.06144 2.80356,-10.53927 12.29952,-17.90965 23.10512,-17.93325 10.789,-0.0236 20.35419,7.34369 23.17337,17.84849 2.90488,10.82383 -1.66232,21.63501 -11.6242,27.17369 -2.11567,1.17627 -3.62583,2.06516 -3.60205,5.08577 0.17956,22.82795 0.0989,45.65792 0.10467,68.48726 1.5e-4,0.62505 0.0594,1.25011 0.11108,2.27182 13.24561,0 26.19803,-0.0482 39.14997,0.0104 24.32532,0.11011 44.63428,9.23132 61.14725,27.58253 m -12.13504,70.47443 c -41.25946,-9.57059 -79.75977,19.5191 -80.2789,60.65634 -0.42557,33.72565 24.2514,61.64945 57.94906,64.99076 17.23581,1.70898 32.75021,-3.15592 46.68042,-14.3111 -1.83115,-1.3783 -3.26163,-2.48563 -4.72327,-3.55011 -9.00982,-6.56159 -18.09268,-13.02527 -27.01751,-19.70032 -5.73834,-4.29181 -7.8591,-10.69479 -5.88724,-17.24502 2.02728,-6.73426 6.76315,-11.07093 13.65271,-11.28 3.98288,-0.12085 8.5979,1.40878 11.96216,3.64758 10.47259,6.9693 20.4841,14.63144 31.08581,22.32333 1.09388,-3.82953 2.20285,-6.97262 2.85785,-10.20767 0.69074,-3.41168 1.22452,-6.90103 1.35154,-10.37381 1.10949,-30.32733 -16.83848,-55.08246 -47.63263,-64.94998 m -152.47924,2.56326 c -31.18284,-11.80792 -64.64876,0.32474 -80.15663,29.05979 -15.27337,28.30053 -7.10058,63.5473 19.09531,82.35238 26.1226,18.75257 62.00956,15.14743 84.11596,-8.44409 22.01331,-23.49219 20.75492,-57.6503 7.32656,-76.32406 -1.08249,1.49371 -1.90343,2.99292 -3.05867,4.16162 -7.96694,8.05975 -15.84914,16.21298 -24.05915,24.02008 -9.08969,8.64352 -23.4037,4.48925 -26.54315,-7.55359 -1.61787,-6.20618 0.36431,-11.444 4.84203,-15.89295 8.94768,-8.89026 17.85788,-17.8182 27.2521,-27.19845 -3.11618,-1.49716 -5.608,-2.69434 -8.81436,-4.18073 m 41.69782,-68.63043 c -5.32427,6e-5 -10.64865,-0.0212 -15.9728,0.005 -10.21788,0.05 -17.40423,6.53098 -17.52328,15.77149 -0.12195,9.46731 7.13089,16.20227 17.57114,16.21646 20.29882,0.0276 40.59777,0.028 60.8966,-3.1e-4 10.21359,-0.0143 17.40317,-6.52493 17.52408,-15.7641 0.12393,-9.46865 -7.12595,-16.19766 -17.57046,-16.22015 -14.64173,-0.0315 -29.28357,-0.008 -44.92528,-0.008 z"
           id="path4"
           style="fill:#000000;fill-opacity:1" />
        <path
           fill="#A2C158"
           opacity="1"
           stroke="none"
           d="m 428.19531,35.822197 c 9.60309,-2.185211 16.35889,1.052822 20.12653,9.833458 13.8522,32.282913 19.06286,65.925135 15.95874,100.941695 -2.04816,23.1046 -7.96588,45.12849 -17.35608,66.26219 -3.22357,7.25496 -9.43292,10.86635 -16.71509,10.10102 -6.67847,-0.70189 -12.68445,-5.75148 -13.66961,-12.63533 -0.48899,-3.41672 0.0305,-7.43198 1.42141,-10.59212 11.76407,-26.72829 16.63288,-54.66025 14.88535,-83.71039 -1.19742,-19.905494 -5.85355,-39.073394 -13.64948,-57.47388 -4.28262,-10.108128 -1.22476,-17.860142 8.99823,-22.726643 z"
           id="path6"
           style="fill:#000000;fill-opacity:1" />
        <path
           fill="#A2C158"
           opacity="1"
           stroke="none"
           d="m 81.865692,113.85146 c -2.493728,29.75704 2.592613,57.7705 14.233421,84.67675 4.180257,9.66214 1.501061,18.61057 -6.764091,22.6761 -8.570198,4.21557 -17.897759,0.55219 -22.150139,-8.95335 C 59.261009,194.53838 53.879158,176.04008 51.199268,156.83395 46.102146,120.3041 50.480633,84.857353 64.016808,50.545879 c 0.671234,-1.701454 1.353279,-3.402179 2.119728,-5.061939 4.15155,-8.990211 12.985786,-12.679073 21.391853,-8.960884 8.152435,3.60601 11.025162,12.378834 8.076874,21.46209 -4.40107,13.559082 -8.297196,27.293106 -11.990189,41.064788 -1.234283,4.602856 -1.187805,9.549166 -1.749382,14.801526 z"
           id="path8"
           style="fill:#000000;fill-opacity:1" />
        <path
           fill="#A2C159"
           opacity="1"
           stroke="none"
           d="m 155.03293,73.127769 c -0.31186,3.943863 0.0877,7.809235 -1.18436,11.010376 -11.83349,29.779665 -11.61749,59.322245 0.89617,88.821405 4.13481,9.74719 0.87464,18.96942 -7.78301,22.60519 -8.77809,3.68634 -17.41609,-0.2008 -21.66203,-10.19854 -15.93521,-37.52193 -16.24429,-75.24868 -1.01651,-113.06271 2.97238,-7.381111 8.68754,-11.540345 15.52832,-11.182698 7.58372,0.396481 12.73816,4.31194 15.22142,12.006977 z"
           id="path10"
           style="fill:#000000;fill-opacity:1" />
        <path
           fill="#A2C158"
           opacity="1"
           stroke="none"
           d="m 398.31683,156.28418 c -3.30581,10.35818 -6.02926,20.49054 -9.82782,30.20241 -3.62677,9.27281 -12.94873,12.89366 -21.18771,9.2617 -8.60498,-3.79327 -11.85266,-12.83119 -7.8317,-22.26539 12.69959,-29.79629 13.07016,-59.67572 0.87064,-89.714643 -3.59692,-8.85672 -0.15652,-17.892593 7.97257,-21.432804 8.46987,-3.688637 17.49719,-0.04998 21.34262,9.004002 11.57656,27.256782 14.35168,55.474195 8.6614,84.944725 z"
           id="path12"
           style="fill:#000000;fill-opacity:1" />
        <path
           fill="#A2C159"
           opacity="1"
           stroke="none"
           d="m 300.20947,101.39938 c 2.51987,-9.428562 7.64026,-14.131703 15.28019,-14.395291 7.74176,-0.267112 13.32705,3.958985 16.50601,12.602272 7.72122,20.993619 6.91504,41.715039 -2.34037,62.037099 -3.07962,6.76195 -9.67904,10.19667 -16.68197,9.29991 -6.83313,-0.87501 -12.58792,-6.17056 -13.48432,-13.41633 -0.38513,-3.11299 0.29291,-6.68057 1.5152,-9.6135 5.31912,-12.76347 5.48013,-25.45906 0.7406,-38.37992 -0.89569,-2.44182 -1.07342,-5.14701 -1.53534,-8.13424 z"
           id="path14"
           style="fill:#000000;fill-opacity:1" />
        <path
           fill="#A2C159"
           opacity="1"
           stroke="none"
           d="m 213.76166,161.36853 c -3.4235,6.51045 -8.52768,9.91425 -15.49913,9.44046 -6.89499,-0.46858 -11.54662,-4.35368 -14.28293,-10.78249 -8.83486,-20.75691 -9.09712,-41.60264 -0.76634,-62.513385 2.71386,-6.811997 8.79773,-10.686791 15.48521,-10.454102 6.44742,0.224327 12.58798,4.202446 14.2733,10.541886 0.96213,3.619151 1.0656,8.107831 -0.19817,11.563601 -4.80891,13.14981 -4.55508,25.82189 0.56023,38.85787 1.49762,3.81654 0.45801,8.62872 0.42783,13.34616 z"
           id="path16"
           style="fill:#000000;fill-opacity:1" />
      </g>
    </g>
  </g>
</svg>
