<?xml version="1.0" encoding="UTF-8" standalone="no"?>
<svg
   version="1.1"
   id="Layer_1"
   x="0px"
   y="0px"
   width="276.68729"
   viewBox="0 0 276.68728 278.9227"
   enable-background="new 0 0 321 380"
   xml:space="preserve"
   sodipodi:docname="di.svg"
   height="278.9227"
   inkscape:version="1.1 (c68e22c387, 2021-05-23)"
   xmlns:inkscape="http://www.inkscape.org/namespaces/inkscape"
   xmlns:sodipodi="http://sodipodi.sourceforge.net/DTD/sodipodi-0.dtd"
   xmlns="http://www.w3.org/2000/svg"
   xmlns:svg="http://www.w3.org/2000/svg"><defs
   id="defs71" /><sodipodi:namedview
   id="namedview69"
   pagecolor="#ffffff"
   bordercolor="#666666"
   borderopacity="1.0"
   inkscape:pageshadow="2"
   inkscape:pageopacity="0.0"
   inkscape:pagecheckerboard="0"
   showgrid="false"
   inkscape:zoom="0.76208665"
   inkscape:cx="95.133539"
   inkscape:cy="190.92317"
   inkscape:window-width="1920"
   inkscape:window-height="991"
   inkscape:window-x="127"
   inkscape:window-y="-9"
   inkscape:window-maximized="1"
   inkscape:current-layer="Layer_1" />

































<g
   id="g1115"
   transform="translate(-18.051921,-16)"><g
     id="g1003"
     transform="translate(0,16)"><path
       fill="#0d0d0d"
       opacity="1"
       stroke="none"
       d="M 77.05733,109.44633 C 68.60385,111.60612 60.56334,113.7 52.10257,111.84353 43.37641,109.92885 39.71445,103.24361 44.0046,95.51502 46.80363,90.47264 50.51657,85.872457 54.25504,81.441106 56.499,78.781263 56.98269,76.841871 55.19275,73.633352 46.54123,58.125181 38.18178,42.454187 29.7036,26.849168 25.59925,19.29465 26.46071,13.89938 33.23781,8.53498 36.98197,5.57131 41.20585,3.21369 46.10138,0 c 0.30352,7.31528 5.89122,9.13498 10.38831,11.93496 17.34586,10.7999 34.75049,21.505399 52.76974,32.63939 -7.35955,5.963326 -14.43892,11.699635 -21.5183,17.43594 0.23514,0.372612 0.47028,0.745216 0.70542,1.117821 2.06945,-0.860543 4.14656,-1.703187 6.20707,-2.584656 10.35286,-4.428932 20.66812,-8.948166 31.06742,-13.265007 4.30075,-1.785282 9.03835,-1.595818 12.10343,1.866607 4.76077,5.377961 11.10627,6.388909 17.33665,7.739983 35.18269,7.629478 70.36041,15.295273 105.64081,22.450821 8.06091,1.634903 16.59796,1.780876 24.76651,-5.112885 -0.86963,3.709412 -0.97842,6.239235 -2.03101,8.28299 -3.40616,6.613606 -6.74655,13.327366 -10.89865,19.471096 -3.85269,5.70078 -10.20245,7.29898 -16.80765,6.83975 -12.62254,-0.87758 -25.22245,-2.07686 -37.835,-3.10282 -19.41309,-1.57917 -38.82996,-3.1118 -58.24307,-4.69063 -8.62842,-0.70174 -17.26639,-1.32779 -25.87391,-2.23582 -15.29085,-1.61304 -30.18454,-0.98301 -44.30631,6.10494 -3.81963,1.91713 -8.0806,2.95499 -12.51551,4.55385 z"
       id="path4-7"
       style="fill:#000000" /><path
       fill="#0fabec"
       opacity="1"
       stroke="none"
       d="m 92.14914,146.2504 c -5.32513,-1.93559 -10.27039,-3.7733 -15.29845,-5.64177 5.79139,-7.49029 8.45962,-8.27159 16.72204,-5.20433 7.60417,2.82291 15.22712,5.59517 23.20288,8.52223 -0.58678,3.41541 -1.13857,6.62711 -1.83025,10.65316 -7.66127,-2.81327 -15.0388,-5.52234 -22.79622,-8.32929 z"
       id="path6-7"
       style="fill:#000000" /><path
       fill="#222222"
       opacity="1"
       stroke="none"
       d="m 135.02144,36.124784 c -3.68368,0.305367 -6.97236,0.670849 -11.58562,1.18354 7.20061,-5.499404 13.83404,-6.834827 20.90371,-3.725883 7.43994,3.271778 11.34939,9.276459 12.07828,17.695404 -3.46346,0.896225 -6.52884,0.687546 -7.68473,-3.052589 -2.09132,-6.767018 -6.8717,-10.248364 -13.71164,-12.100472 z"
       id="path8-0"
       style="fill:#000000" /><path
       fill="#14acec"
       opacity="1"
       stroke="none"
       d="m 156.87549,135.29529 c 6.51868,-3.6659 9.09009,1.76734 13.69885,5.06182 -7.7136,3.08052 -14.62165,5.83932 -22.00337,8.7873 -1.44221,-2.98339 -2.76042,-5.71023 -4.28763,-8.86944 4.33719,-1.72354 8.27727,-3.28929 12.59215,-4.97968 z"
       id="path10-6"
       style="fill:#000000" /><path
       fill="#19adec"
       opacity="1"
       stroke="none"
       d="m 99.01752,122.32943 c 1.99361,-0.16095 3.806,-0.45885 5.38509,0.0172 3.46816,1.0455 6.80889,2.50827 10.21877,3.75378 5.60364,2.04685 5.76328,2.42261 2.92544,8.83213 -7.42896,-2.69022 -14.90867,-5.39881 -23.40162,-8.47431 1.99405,-1.70242 3.28966,-2.80856 4.87232,-4.12878 z"
       id="path12-0"
       style="fill:#000000" /><path
       fill="#1daeec"
       opacity="1"
       stroke="none"
       d="m 148.30133,128.64704 c -2.79144,1.0585 -5.24264,1.97084 -8.0901,3.03065 -0.99129,-2.07426 -1.8855,-3.9454 -2.7465,-5.74705 7.06684,-5.21947 9.03288,-5.14427 14.98266,0.70866 -1.37924,0.67467 -2.59253,1.26813 -4.14606,2.00774 z"
       id="path14-0"
       style="fill:#000000" /><path
       fill="#20aeed"
       opacity="1"
       stroke="none"
       d="m 117.54555,114.0521 c 4.41736,1.0406 4.06957,3.53979 2.49197,6.84093 -3.86828,-1.42514 -7.69458,-2.83484 -11.76389,-4.33407 2.06404,-4.86346 5.29934,-4.38975 9.27192,-2.50686 z"
       id="path16-1"
       style="fill:#000000" /><path
       fill="#2ab0ed"
       opacity="1"
       stroke="none"
       d="m 138.95069,116.65807 c -7.2847,4.95013 -5.67275,-3.33322 -8.67021,-4.73376 0.39466,-0.55717 0.78932,-1.11434 1.18397,-1.67152 2.56386,2.04993 5.12772,4.09985 7.48624,6.40528 z"
       id="path18-0"
       style="fill:#000000" /></g><g
     id="g1094"
     transform="translate(0.73495551)"><path
       fill="#010101"
       opacity="1"
       stroke="none"
       d="m 47.464855,294.90926 c -9.3138,-7e-5 -18.446112,0.003 -27.57842,-0.003 -2.24792,-10e-4 -2.54396,-0.28347 -2.54504,-2.48094 -0.005,-11.97483 0.012,-23.94969 -0.0244,-35.92439 -0.004,-1.27997 0.39304,-2.12372 1.45973,-2.8665 6.786144,-4.72541 13.517089,-9.53016 20.312359,-14.24224 0.73342,-0.50858 1.750579,-0.77137 2.657371,-0.83237 1.866386,-0.1256 3.748667,0.009 5.621533,-0.0515 1.623982,-0.0527 2.303367,0.64779 2.275138,2.26643 -0.05149,2.95274 -0.01463,5.90704 -0.01463,9.17639 1.361056,-0.94329 2.527823,-1.74285 3.685202,-2.55577 3.704585,-2.60198 7.368173,-5.26524 11.134714,-7.77403 0.931836,-0.62067 2.173712,-0.93667 3.308177,-1.05443 1.675354,-0.17389 3.385471,0.0213 5.074629,-0.0635 1.709418,-0.0857 2.342973,0.57087 2.334095,2.32212 -0.05639,11.12784 -0.02864,22.25609 -0.0286,33.3842 2e-6,0.777 2e-6,1.554 2e-6,2.45472 1.28127,0 2.452215,0 3.936322,0 0.934091,-5.83969 1.984024,-11.70174 2.79137,-17.59702 1.683695,-12.29443 2.294231,-24.66269 2.246678,-37.06718 -0.0084,-2.1926 0.467237,-2.66177 2.656694,-2.66307 11.611944,-0.007 23.223891,-0.007 34.835831,-3.7e-4 2.17351,10e-4 2.69791,0.58497 2.78067,2.79728 0.34334,9.17946 0.42816,18.37986 1.13535,27.53181 1.07521,13.91464 3.64854,27.60198 7.41882,41.05176 0.17863,0.6372 0.40968,1.27362 0.47792,1.9249 0.1336,1.27539 -0.46998,2.07565 -1.76659,2.24227 -0.53595,0.0688 -1.08712,0.0228 -1.63137,0.0228 -27.45735,7.3e-4 -54.914703,7.3e-4 -82.553545,7.3e-4 M 36.902198,262.79638 c -0.02715,-0.52668 -0.05429,-1.05336 -0.08351,-1.62022 -3.944514,0 -7.777098,0 -11.625438,0 0,2.07316 0,4.03071 0,5.92831 3.973762,0 7.806303,0 11.708954,0 0,-1.42262 0,-2.6904 -4e-6,-4.30809 m 18.844018,3.16233 c 0.249839,0.43222 0.491172,1.23485 0.750811,1.24082 3.596361,0.0825 7.195244,0.0559 10.787789,0.0559 0,-2.19233 0,-4.14962 0,-6.07937 -3.895032,0 -7.668699,0 -11.538654,0 0,1.55017 0,2.99076 5.4e-5,4.7827 z"
       id="path4"
       style="stroke-width:0.362973" /><g
       id="g830"
       transform="matrix(0.23674833,0,0,0.23674833,216.51983,215.13075)"><path
         fill="#020202"
         opacity="1"
         stroke="none"
         d="m 89.211205,337.00232 c -9.289437,-0.0593 -11.080803,-1.97336 -10.16417,-10.79187 3.578118,-34.42328 7.24572,-68.83728 10.807259,-103.26224 2.08918,-20.19345 4.044723,-40.40073 6.04602,-60.60321 0.129143,-1.30363 0.134789,-2.61952 0.24482,-4.90439 -2.258606,1.02033 -3.992775,1.63469 -5.560844,2.53757 -21.880967,12.59871 -43.741509,25.23288 -65.60002,37.87053 -2.630953,1.52112 -5.784332,3.68501 -8.039024,0.71815 -1.629904,-2.14473 -2.755707,-6.16725 -1.842086,-8.44355 1.990281,-4.95881 4.812877,-9.88996 8.382895,-13.85262 12.235987,-13.58179 26.68891,-24.51173 42.855101,-33.02992 4.32785,-2.28041 9.234818,-3.46176 14.361702,-5.32413 0,-2.52908 -0.261856,-5.80156 0.04897,-9.01871 0.942253,-9.75239 5.798958,-17.27532 14.075829,-22.33019 2.532661,-1.54676 3.245124,-3.11781 3.235466,-5.87337 -0.08826,-25.161792 -0.05035,-50.324028 -0.05341,-75.486133 -3.66e-4,-2.998793 -0.490417,-7.029297 3.178397,-7.414585 2.9591,-0.310755 7.77666,0.928184 8.98502,3.058878 3.94989,6.964714 7.82008,14.389322 9.51819,22.120859 2.66336,12.126274 4.17819,24.608345 4.92116,37.015083 0.46574,7.777321 -1.37287,15.692635 -2.26203,24.370248 7.95419,3.62814 14.57236,10.41471 17.15394,20.64077 0.12169,0.48197 0.48717,1.00129 0.39141,1.42454 -1.6164,7.14389 3.6756,9.2039 8.44223,11.93402 20.60931,11.80411 41.1409,23.74395 61.69256,35.64857 2.97631,1.724 6.98703,3.06778 5.81404,7.55748 -1.22177,4.67645 -5.36631,6.80123 -9.66395,6.24532 -9.15436,-1.1841 -18.68759,-1.95684 -27.17212,-5.22069 -13.23074,-5.08965 -25.87047,-11.82362 -38.43257,-18.47998 -3.93253,-2.08376 -6.80812,-6.16222 -10.2712,-9.42531 -5.62242,1.51561 -5.69039,6.01044 -5.14598,11.07045 3.29306,30.60701 6.51841,61.22144 9.69703,91.84059 2.37127,22.84223 4.66737,45.69245 6.93649,68.54511 0.8975,9.03894 -0.86579,10.86023 -10.11737,10.86203 -13.99735,0.003 -27.9947,7e-4 -42.463754,7e-4 z"
         id="path4-9" /><path
         fill="#020202"
         opacity="1"
         stroke="none"
         d="m 206.16186,204.1523 c 7.72056,-4.40923 15.1345,-8.63335 23.14475,-13.19721 -1.20479,-8.31862 2.20393,-15.94587 10.37309,-21.64473 1.25815,-0.8777 2.10184,-3.20984 2.11601,-4.878 0.15006,-17.65639 -0.005,-35.31578 0.21621,-52.97067 0.0281,-2.23838 1.73106,-4.45574 2.65806,-6.68284 2.38825,1.17669 5.8133,1.73667 6.95445,3.65516 2.58147,4.33987 4.59765,9.20794 5.83959,14.1153 3.23862,12.79673 4.93466,25.81278 3.03442,39.04206 -0.27755,1.93243 -1.01025,3.79951 -1.61734,6.00557 8.42789,3.98221 13.07428,10.69812 14.0459,20.12465 0.13748,1.33386 2.00836,2.81514 3.42035,3.64137 15.1915,8.88947 30.50571,17.57056 45.63568,26.56224 2.27561,1.35237 5.50583,4.20883 5.29306,6.01619 -0.50476,4.28751 -4.93274,5.3913 -8.56219,4.89859 -6.20719,-0.84264 -12.62598,-1.78477 -18.35123,-4.14922 -9.75671,-4.02938 -19.12277,-9.04534 -28.47916,-13.97657 -2.55267,-1.34536 -4.48462,-3.86852 -6.86709,-5.99935 -2.60776,1.15067 -3.7973,2.9942 -3.37787,6.94237 3.69028,34.73633 7.0188,69.51103 10.4816,104.27168 0.49466,4.96595 1.16614,9.91404 1.6976,14.87665 0.44928,4.19495 -1.47534,6.22211 -5.71491,6.20905 -11.32745,-0.0349 -22.65553,-0.0699 -33.9824,0.0177 -4.45813,0.0344 -6.49846,-1.862 -6.04576,-6.37363 1.44505,-14.40195 2.82206,-28.81082 4.29211,-43.2102 1.46986,-14.39747 3.05582,-28.78305 4.52377,-43.18068 1.16407,-11.41709 2.23299,-22.84391 3.32267,-34.26845 0.0887,-0.93022 0.0117,-1.87625 0.0117,-3.46816 -2.50635,1.329 -4.54002,2.32885 -6.49884,3.45851 -14.67128,8.46119 -29.28407,17.02569 -44.04309,25.33048 -1.88925,1.06305 -4.51575,0.81587 -6.80071,1.17569 -0.32031,-2.62186 -1.80754,-5.94144 -0.73709,-7.73172 2.94077,-4.91829 6.61223,-9.53174 10.6417,-13.62943 3.94078,-4.00753 8.67974,-7.23014 13.37496,-10.9824 z"
         id="path6-75" /></g><g
       id="g834"
       transform="matrix(0.23556473,0,0,0.23556473,147.3012,216.63)"><path
         fill="#000000"
         opacity="1"
         stroke="none"
         d="m 176.31209,198.88974 c 3.90777,26.89175 7.80855,53.33925 11.67886,79.7912 1.15395,7.88672 2.41052,15.76626 3.23786,23.68902 0.33088,3.16861 1.40769,4.27869 4.56939,4.38813 7.35576,0.2546 8.5109,1.6376 8.53336,9.08743 0.0101,3.33243 0.0301,6.6658 -0.0326,9.99725 -0.0786,4.17661 -2.03673,6.52082 -6.43695,6.51889 -36.49109,-0.016 -72.98219,-0.0207 -109.473259,-0.003 -4.158165,0.002 -6.165184,-2.2937 -6.398942,-6.11902 -0.243492,-3.98443 -0.197654,-7.99728 -0.07003,-11.99105 0.176453,-5.52201 2.013466,-7.48343 7.705384,-7.44922 3.59819,0.0216 4.93428,-1.25412 5.416206,-4.75419 2.785774,-20.23226 5.749891,-40.44012 8.688111,-60.65119 3.0819,-21.19944 6.2223,-42.39036 9.30041,-63.59034 2.57681,-17.74728 5.09291,-35.50338 7.65399,-53.25297 0.56866,-3.94116 1.25268,-7.86577 1.81314,-11.80802 0.69398,-4.88134 3.62952,-7.52046 8.37651,-7.64027 8.15475,-0.20583 16.33466,-0.34405 24.47382,0.0753 5.82281,0.30002 7.95896,2.82964 8.8441,8.9509 4.06355,28.10196 8.07306,56.21173 12.12065,84.76123 m -46.23186,46.55585 c -3.03862,-2.22304 -6.07725,-4.44609 -10.09158,-7.38297 -3.07715,21.19772 -5.99658,41.3089 -8.916,61.42011 0.45504,0.15496 0.9101,0.30993 1.36515,0.4649 14.97458,-10.87387 29.94916,-21.74774 45.47551,-33.02231 -9.65737,-7.4472 -18.46542,-14.23947 -27.83308,-21.47973 m 26.22322,-32.51986 c -7.4676,5.08333 -15.54753,9.28289 -23.22182,15.33156 11.93218,9.09427 23.21354,17.69251 34.49488,26.29073 0.37294,-0.28517 0.74586,-0.57034 1.1188,-0.85552 -2.10794,-14.49433 -4.21588,-28.98867 -6.31399,-43.41543 -2.66727,-0.10787 -3.89189,1.4922 -6.07787,2.64866 m -19.67424,88.75292 c -2.9366,2.66977 0.0837,2.42883 1.35088,2.43234 11.45829,0.0318 22.91703,-0.049 34.37541,-0.13009 1.57822,-0.0112 3.36655,-0.41629 3.08472,-2.38251 -1.16399,-8.12085 -1.67159,-16.36429 -3.99747,-25.33484 -11.86255,8.6629 -23.08154,16.85584 -34.81354,25.4151 m -12.27974,-94.1884 c 0.41371,2.20219 -1.76332,4.33514 0.0457,7.33589 8.58542,-5.46854 16.97837,-10.8145 26.17079,-16.66968 -7.59467,-5.90171 -14.21823,-11.16925 -21.86045,-16.04129 -2.80434,8.43773 -2.60917,16.66002 -4.35603,25.37508 m 24.21561,-86.71221 c -11.27805,-1.6288 -11.84061,-1.35171 -13.09215,9.47684 -0.79968,6.91922 -2.66145,13.75275 -2.42247,21.65749 6.10262,-5.18155 11.52887,-9.80126 16.97194,-14.40105 1.25911,-1.06404 1.79584,-2.36478 1.48868,-3.9803 -0.77339,-4.06784 -1.56616,-8.13199 -2.946,-12.75298 m -6.94571,51.20377 c 5.42033,4.00272 10.84065,8.00543 17.15901,12.6713 -1.5534,-10.36969 -2.93367,-19.58358 -4.40579,-29.41069 -6.82939,3.49574 -11.12734,8.81832 -16.29401,12.79899 0.33437,2.09174 2.01129,2.49343 3.54079,3.9404 z"
         id="path2" /><path
         fill="#000000"
         opacity="1"
         stroke="none"
         d="M 99.578697,93.555862 C 90.682785,96.365761 82.972603,101.24918 73.635979,101.72974 51.004036,102.89458 33.362705,82.868919 39.880894,62.303844 45.473579,44.658752 63.890236,31.873434 83.296219,36.590923 c 11.79734,2.867863 21.961131,8.718846 31.027791,16.472443 12.38826,10.594131 22.40216,23.226658 30.47131,37.392139 1.16636,2.047554 2.57284,4.249321 0.62578,6.410134 -1.93396,2.14627 -4.03154,0.392456 -5.93157,-0.41713 -12.84231,-5.471992 -25.9902,-6.72277 -39.910833,-2.892647 z"
         id="path4-6" /><path
         fill="#000000"
         opacity="1"
         stroke="none"
         d="m 149.67477,70.027634 c -1.38165,2.146011 -2.7814,1.770828 -3.70971,0.257637 -7.93875,-12.940525 -14.09186,-26.476925 -11.1604,-42.194882 2.15629,-11.561542 12.54063,-18.362194 24.1053,-16.230598 6.3253,1.165879 10.57774,5.15645 12.06544,11.252048 1.88854,7.738011 0.47913,15.01067 -6.07763,20.276444 -6.63987,5.332508 -12.18409,11.293953 -14.00785,19.928001 -0.44427,2.103356 -0.71458,4.243469 -1.21515,6.71135 z"
         id="path6-6" /><path
         fill="#000000"
         opacity="1"
         stroke="none"
         d="m 199.02214,84.71489 c -5.73575,1.111473 -10.93204,0.909278 -15.96965,-1.476471 -8.23758,-3.901207 -16.65631,-4.062027 -25.18053,-0.89544 -1.84309,0.684678 -1.86773,0.618355 -4.84761,0.03925 0,-0.602982 -0.23631,-1.374084 0.0344,-1.86631 7.74246,-14.07737 17.57155,-26.08223 33.85922,-30.401993 12.47344,-3.308163 25.0311,7.227173 24.37278,19.960655 -0.39278,7.5971 -5.19892,11.881379 -12.26862,14.640313 z"
         id="path8-01" /></g></g></g></svg>
