<?xml version="1.0" encoding="UTF-8" standalone="no"?>
<svg
   version="1.1"
   id="Layer_1"
   x="0px"
   y="0px"
   width="552.10034"
   viewBox="0 0 552.10034 220.9968"
   enable-background="new 0 0 602 252"
   xml:space="preserve"
   sodipodi:docname="gs.svg"
   height="220.9968"
   inkscape:version="1.1 (c68e22c387, 2021-05-23)"
   xmlns:inkscape="http://www.inkscape.org/namespaces/inkscape"
   xmlns:sodipodi="http://sodipodi.sourceforge.net/DTD/sodipodi-0.dtd"
   xmlns="http://www.w3.org/2000/svg"
   xmlns:svg="http://www.w3.org/2000/svg"><defs
   id="defs141" /><sodipodi:namedview
   id="namedview139"
   pagecolor="#ffffff"
   bordercolor="#666666"
   borderopacity="1.0"
   inkscape:pageshadow="2"
   inkscape:pageopacity="0.0"
   inkscape:pagecheckerboard="0"
   showgrid="false"
   inkscape:zoom="0.66599592"
   inkscape:cx="122.37312"
   inkscape:cy="149.40031"
   inkscape:window-width="1366"
   inkscape:window-height="697"
   inkscape:window-x="-8"
   inkscape:window-y="-8"
   inkscape:window-maximized="1"
   inkscape:current-layer="Layer_1" />



























































<g
   id="g2103"
   transform="translate(-18.098939,-15.091537)"><path
     fill="#212120"
     opacity="1"
     stroke="none"
     d="m 508.34357,196.15604 c 4.79529,-0.77201 7.19775,0.79838 8.83484,5.22924 2.85681,7.73226 6.56775,15.14894 9.96484,22.7972 9.703,-9.8719 0.25494,-18.36313 -1.66583,-27.29823 7.05865,-1.17116 7.05865,-1.17116 12.07397,11.0464 4.16419,-3.74883 1.9212,-14.73773 12.8988,-10.95297 -1.37469,3.34857 -2.36694,6.90658 -4.19036,9.96986 -3.79572,6.37663 -2.03901,11.79182 2.33813,17.44492 3.13519,-7.10894 6.20905,-13.98848 9.20715,-20.90082 3.38556,-7.80564 3.35602,-7.81845 12.39417,-6.99042 -5.63757,12.50295 -11.18201,24.8531 -16.81653,37.162 -0.33789,0.7381 -1.35437,1.55988 -2.12549,1.63686 -3.28674,0.32812 -6.48327,0.69484 -7.93097,-3.69245 -1.22009,-3.69734 -3.28253,-7.11671 -5.41284,-11.58314 -2.27429,4.73755 -3.9043,8.82929 -6.18072,12.52261 -0.87482,1.41936 -3.22168,2.65043 -4.89869,2.65152 -1.63531,0.001 -4.10278,-1.27951 -4.77563,-2.68275 -5.23102,-10.90918 -10.13962,-21.97374 -15.07434,-33.02307 -0.52566,-1.17699 -2.6098,-3.15406 1.3595,-3.33676 z"
     id="path4"
     style="fill:#000000;fill-opacity:1" /><path
     fill="#1F1F1E"
     opacity="1"
     stroke="none"
     d="m 217.25598,216.99852 c -4e-5,-7.11614 -4e-5,-13.73282 -4e-5,-20.32834 4.0912,-1.08473 6.94822,-0.51405 9.66037,2.57974 5.96903,6.80907 12.34002,13.26577 19.44734,20.82373 0,-8.63647 0,-15.99585 0,-23.62846 3.08816,0 5.63698,0 8.44369,0 0,12.87172 0,25.61801 0,38.46368 -4.42235,1.51159 -7.69702,0.10373 -10.79127,-3.4429 -5.45986,-6.25807 -11.33809,-12.15115 -17.68933,-18.88412 0,7.89599 0,15.02931 0,22.48517 -3.23403,0 -5.94495,0 -9.07073,0 0,-6.00599 0,-11.78751 -3e-5,-18.0685 z"
     id="path6"
     style="fill:#000000;fill-opacity:1" /><path
     fill="#1F1F1E"
     opacity="1"
     stroke="none"
     d="m 396.05676,228.94734 c 0,2.28554 0,4.10404 0,6.18465 -2.84723,0 -5.42694,0 -8.27603,0 0,-12.91902 0,-25.65441 0,-38.86998 7.0842,0 14.06418,-0.5352 20.91922,0.16057 6.04831,0.61387 10.29865,4.46804 11.758,10.66885 1.30792,5.55742 -1.13102,9.62126 -5.5018,12.80428 -0.51032,0.37161 -0.96683,0.8171 -1.60224,1.35984 3.1102,4.50599 6.10764,8.84862 9.13129,13.22922 -6.74094,2.15517 -8.71619,1.54747 -12.44904,-3.71779 -0.57724,-0.81428 -1.33941,-1.53816 -1.74374,-2.42764 -2.3801,-5.23569 -6.40341,-6.64696 -12.23566,-5.04843 0,1.61891 0,3.40416 0,5.65643 m 3.54505,-13.86148 c 2.31182,-0.003 4.62448,0.0318 6.93533,-0.0172 3.35373,-0.071 5.26739,-1.91478 5.43347,-5.16361 0.17914,-3.50473 -1.76282,-5.67987 -5.24274,-5.93241 -3.40521,-0.24714 -6.8424,-0.0538 -10.67614,-0.0538 0,3.18726 -0.21277,5.97818 0.11963,8.70258 0.11084,0.90851 1.6174,1.64671 3.43045,2.46446 z"
     id="path8"
     style="fill:#000000;fill-opacity:1" /><path
     fill="#1F1F1E"
     opacity="1"
     stroke="none"
     d="m 437.06009,196.15884 c 2.81592,0 5.14621,-0.004 7.47653,6.7e-4 8.37622,0.0159 13.26865,3.05634 15.62906,9.709 2.03393,5.73261 0.39847,9.67225 -6.65204,15.44402 3.03909,4.41684 6.10776,8.87662 9.20007,13.3708 -7.90713,1.8286 -8.77865,1.66576 -13.14425,-4.82315 -3.17087,-4.71302 -6.15543,-9.19729 -13.37872,-6.40088 0,3.6559 0,7.57572 0,11.71293 -2.90571,0 -5.36249,0 -8.14133,0 0,-12.86196 0,-25.74946 0,-39.0134 2.92895,0 5.72702,0 9.01068,1e-5 m -0.92298,14.27945 c 0.0752,1.43344 0.15046,2.86689 0.24323,4.63469 3.72687,0 7.30655,0.58811 10.53955,-0.21667 1.99637,-0.49694 4.89499,-3.18517 4.81787,-4.76409 -0.10263,-2.10145 -2.36688,-5.30313 -4.311,-5.84362 -3.4469,-0.95832 -7.3519,-0.26886 -11.28965,-0.26886 0,2.25871 0,3.88815 0,6.45855 z"
     id="path10"
     style="fill:#000000;fill-opacity:1" /><path
     fill="#1E1E1D"
     opacity="1"
     stroke="none"
     d="m 138.98158,197.31088 c 8.13161,-0.24284 16.38799,-1.11685 24.13344,0.48288 9.52712,1.96776 14.09168,10.90901 12.82246,21.35718 -1.04339,8.5892 -7.99417,15.32574 -17.14061,15.91333 -6.43997,0.41371 -12.92794,0.08 -19.91711,0.08 0,-12.51874 0,-24.9431 0.10182,-37.83336 m 28.27591,19.09503 c 0.70375,-8.94549 -6.18471,-14.87501 -19.76245,-11.82278 0,7.72655 0,15.43614 0,23.11018 13.77054,1.05069 18.37473,-1.43895 19.76245,-11.2874 z"
     id="path12"
     style="fill:#000000;fill-opacity:1" /><path
     fill="#222221"
     opacity="1"
     stroke="none"
     d="m 28.81189,233.40735 c -10.030098,-6.7354 -13.309154,-17.12499 -8.594269,-26.52626 4.467882,-8.90877 15.780693,-13.44684 25.648407,-9.70059 3.501976,1.32951 6.428928,4.17363 10.194282,6.71501 -3.057037,2.27229 -5.034118,3.74185 -6.97715,5.18609 -6.187049,-5.44806 -11.30397,-6.67616 -16.185432,-3.98503 -4.545055,2.50566 -6.931072,8.19029 -5.787983,13.78969 0.955963,4.68274 5.288208,8.59024 10.069435,9.08221 5.641251,0.58045 9.637043,-1.39541 12.009346,-6.34658 -2.77018,0 -5.311001,0 -8.124245,0 0,-2.43871 0,-4.34458 0,-6.38242 5.117974,0 10.047986,0 15.174927,0 0.133122,0.95853 0.336052,1.75603 0.339989,2.55454 0.02782,5.63992 0.01479,11.28004 0.01479,17.32518 -3.023144,-0.30256 -6.495995,2.47381 -7.838211,-2.78032 -6.30856,4.31746 -12.878052,4.70021 -19.943882,1.06848 z"
     id="path14"
     style="fill:#000000;fill-opacity:1" /><path
     fill="#20201F"
     opacity="1"
     stroke="none"
     d="m 74.264008,197.03192 c 9.978996,-2.59778 18.915985,0.65384 23.878433,8.46439 4.496539,7.07722 4.019559,16.34507 -1.171089,22.75393 -5.537918,6.83771 -15.477738,9.46541 -23.881012,6.31325 -8.204415,-3.07759 -13.747578,-11.1445 -13.10339,-19.73035 0.665981,-8.8764 5.776394,-14.53566 14.277058,-17.80122 m 4.597709,30.98673 c 5.527687,0.65986 9.787262,-1.2975 12.294121,-6.33728 2.238426,-4.50013 1.972183,-8.99205 -1.001137,-13.12195 -3.015915,-4.18906 -8.358276,-5.83071 -13.288025,-4.25528 -4.755745,1.51982 -8.039741,6.05069 -8.188934,11.29811 -0.172211,6.05745 2.802551,9.98497 10.183975,12.4164 z"
     id="path16"
     style="fill:#000000;fill-opacity:1" /><path
     fill="#20201F"
     opacity="1"
     stroke="none"
     d="m 464.97961,215.99774 c 0.63398,-11.96266 9.70408,-20.20508 21.46714,-19.94282 10.83038,0.24145 19.62503,9.01281 19.73043,19.67816 0.11005,11.13687 -8.65463,19.91847 -20.20324,20.2422 -11.09714,0.31108 -20.25122,-8.21065 -20.99433,-19.97754 m 8.8743,2.10982 c 2.19614,8.00838 8.51898,11.89845 15.64536,9.62572 6.20865,-1.98006 9.70996,-9.79923 7.30075,-16.30416 -1.99552,-5.38797 -7.70914,-8.50313 -13.65271,-7.44375 -5.89337,1.05044 -9.24301,5.78875 -9.2934,14.12219 z"
     id="path18"
     style="fill:#000000;fill-opacity:1" /><path
     fill="#1D1D1C"
     opacity="1"
     stroke="none"
     d="m 206.78677,219.01428 c -5.76132,0.0313 -11.04202,0.0313 -16.52102,0.0313 0,3.07998 0,5.67891 0,8.80067 7.0628,0 14.12669,0 21.40344,0 0,2.61158 0,4.70781 0,7.17566 -9.84352,0 -19.70215,0 -29.86206,0 0,-12.75273 0,-25.4749 0,-38.52832 9.63194,0 19.17085,0 29.03317,0 0,2.24239 0,4.49411 0,7.18268 -6.62886,0 -13.3777,0 -20.45349,0 0,2.82297 0,5.23247 0,8.22763 5.67445,0 11.5569,0 18.16045,0 -0.5065,2.80157 -0.89318,4.94034 -1.76049,7.11038 z"
     id="path20"
     style="fill:#000000;fill-opacity:1" /><path
     fill="#20201F"
     opacity="1"
     stroke="none"
     d="m 277.91608,213.8909 c -3.59516,-9.26758 0.80783,-16.48572 10.60702,-17.72107 6.28543,-0.79237 12.17914,0.54948 17.98413,4.30029 -1.10928,2.20037 -2.17935,4.32296 -2.89416,5.74083 -4.93891,-0.87161 -9.22507,-1.98633 -13.55652,-2.20512 -1.59421,-0.0805 -3.29526,1.95454 -4.94757,3.0246 1.30584,1.29304 2.39111,3.1612 3.96185,3.76373 3.67871,1.41118 7.67273,1.98558 11.38825,3.31912 5.80685,2.08417 7.85656,5.21784 7.6441,10.77663 -0.18829,4.92497 -3.34345,8.74302 -8.63614,10.18078 -8.65195,2.35027 -16.66907,0.4654 -24.91623,-3.96624 1.24515,-2.45299 2.40363,-4.73523 3.04138,-5.99163 5.98334,1.05233 11.35263,2.24892 16.78699,2.77898 1.39703,0.13628 2.99887,-1.82739 4.50662,-2.82637 -1.18872,-1.22585 -2.16101,-3.00978 -3.60757,-3.57069 -4.00775,-1.5541 -8.27884,-2.42235 -12.31043,-3.92498 -1.78671,-0.66595 -3.24713,-2.20746 -5.05172,-3.67886 z"
     id="path22"
     style="fill:#000000;fill-opacity:1" /><path
     fill="#222221"
     opacity="1"
     stroke="none"
     d="m 340.05408,220.19415 c -6.05411,1.3627 -11.7912,2.51929 -18.10504,3.79215 0,3.14622 0,7.06334 0,11.1929 -3.04169,0 -5.64557,0 -8.5413,0 0,-12.89397 0,-25.62065 0,-38.74545 6.94196,0 13.90699,-0.50141 20.76014,0.15875 5.47781,0.52765 9.36459,4.17064 10.86898,9.68199 1.51255,5.54144 -0.24029,10.11839 -4.98278,13.91966 m -5.7612,-15.40828 c -4.0004,-0.39399 -8.00083,-0.78799 -12.13108,-1.19478 0,4.28087 0,7.68975 0,11.48713 2.83435,0 5.50718,0.33293 8.04752,-0.1041 2.07703,-0.3573 5.19577,-1.20247 5.69891,-2.60438 0.72284,-2.01383 -0.51092,-4.72989 -1.61535,-7.58387 z"
     id="path24"
     style="fill:#000000;fill-opacity:1" /><path
     fill="#1F1F1E"
     opacity="1"
     stroke="none"
     d="m 372.89838,229.85959 c -1.73297,-1.43985 -3.21805,-3.05103 -4.95789,-3.403 -2.55414,-0.51671 -5.30615,0.0472 -7.94473,-0.18294 -2.75327,-0.24014 -4.10105,0.79515 -5.17237,3.36351 -2.74746,6.58656 -2.89456,6.52521 -11.27593,5.12953 2.39794,-5.51462 4.73757,-10.91636 7.09478,-16.31044 2.7197,-6.22337 5.51624,-12.41417 8.15076,-18.67325 0.95029,-2.25764 1.80801,-3.77345 4.841,-3.77024 3.12522,0.003 4.29294,1.33 5.37607,3.89144 4.93427,11.66906 10.03967,23.26575 15.21524,35.19202 -5.04474,0.4847 -9.85092,1.74872 -11.32693,-5.23663 m -5.27781,-14.8396 c -1.19104,-2.46889 -2.38211,-4.93776 -3.87628,-8.03497 -1.9566,4.33375 -3.55252,7.8686 -5.31839,11.7799 3.84967,0 7.0564,0 10.5809,0 -0.42471,-1.20657 -0.74389,-2.11339 -1.38623,-3.74493 z"
     id="path26"
     style="fill:#000000;fill-opacity:1" /><path
     fill="#222221"
     opacity="1"
     stroke="none"
     d="m 106.34828,213.00247 c 2e-5,-5.77795 2e-5,-11.05653 2e-5,-16.59009 3.05784,0 5.61602,0 8.55085,0 0,10.38626 0,20.62246 0,31.29636 6.7406,0 13.13608,0 19.84996,0 0,2.6474 0,4.86867 0,7.40384 -9.29527,0 -18.64638,0 -28.40085,0 0,-7.38931 0,-14.50002 2e-5,-22.11011 z"
     id="path28"
     style="fill:#000000;fill-opacity:1" /><path
     fill="#FCD695"
     opacity="1"
     stroke="none"
     d="m 357.23917,44.880886 c 7.63775,7.753754 12.02957,17.309753 15.01004,27.566853 3.95791,13.620796 4.14868,27.336609 -0.154,41.208351 -1.43521,-0.13319 -2.29824,-0.41074 -3.16125,-0.68829 0.694,-4.89245 1.68597,-9.76413 2.02893,-14.681087 1.27448,-18.274521 -4.26657,-34.551854 -14.97723,-49.966381 0.40106,-1.636544 0.82727,-2.537995 1.25351,-3.439446 z"
     id="path30"
     style="fill:#000000;fill-opacity:1;stroke:#000000;stroke-opacity:1" /><path
     fill="#946E33"
     opacity="1"
     stroke="none"
     d="m 274.94586,95.870567 c 5.71842,-6.016334 11.56082,-11.922714 17.06485,-18.129203 1.31403,-1.481728 2.08579,-3.959496 2.10343,-5.987847 0.0825,-9.484444 4.46194,-16.436714 12.60858,-21.626915 1.37832,0.798474 2.11346,1.471504 2.8486,2.144535 -8.07169,5.122006 -12.14362,12.096577 -10.66846,21.955631 0.21018,1.404686 -0.91434,3.386384 -2.0086,4.547188 -6.66562,7.070786 -13.50122,13.981354 -20.61969,20.732918 -0.66928,-1.353744 -0.99903,-2.495033 -1.32871,-3.636307 z"
     id="path32"
     style="fill:#000000;fill-opacity:1;stroke:#000000;stroke-opacity:1" /><path
     style="color:#000000;fill:#000000;stroke:#000000;stroke-opacity:1;-inkscape-stroke:none"
     d="m 218.55235,80.972023 c -2.19526,16.787384 -0.0165,32.779657 8.38753,47.734917 0.58266,1.03686 -0.20154,2.84184 -1.18161,4.2701 -10.60983,-15.8299 -14.16612,-32.93264 -10.81241,-51.691991 1.60118,-0.310211 2.60384,-0.311615 3.60649,-0.313026 z"
     id="path34" /><path
     fill="#9C7535"
     opacity="1"
     stroke="none"
     d="m 326.98944,164.90201 c -6.74939,2.22705 -13.49881,4.4541 -21.29046,7.02507 -0.72648,-8.82765 -1.35554,-16.47162 -2.01288,-24.45938 3.01022,-0.88111 5.76345,-1.68698 8.91616,-2.1007 0.39283,1.40808 0.3862,2.42398 0.37955,3.4399 -3.87231,0.25154 -5.47665,1.98712 -4.66595,6.08414 0.69845,3.52948 0.75903,7.18516 1.18585,11.66984 5.86703,-1.92543 11.30694,-3.71071 17.12323,-5.13919 0.37243,1.39795 0.36847,2.43913 0.3645,3.48032 z"
     id="path36"
     style="fill:#000000;fill-opacity:1;stroke:#000000;stroke-opacity:1" /><path
     fill="#946E33"
     opacity="1"
     stroke="none"
     d="m 239.9944,35.623814 c 9.41312,-9.044665 20.72929,-14.538876 33.26128,-17.697733 3.26211,-0.822262 6.60519,-1.32353 10.328,-1.558808 0.40952,1.401684 0.4021,2.389935 0.39465,3.378188 -14.03998,1.907825 -26.50723,7.705953 -38.1689,15.473144 -0.501,0.333691 -0.79641,0.976101 -1.92311,1.562454 -1.78766,-0.327247 -2.8398,-0.742244 -3.89192,-1.157245 z"
     id="path38"
     style="fill:#000000;fill-opacity:1;stroke:#000000;stroke-opacity:1" /><path
     fill="#967035"
     opacity="1"
     stroke="none"
     d="m 309.26294,126.08645 c -4.81525,11.75538 -13.77493,19.15685 -25.18976,23.98005 -2.37918,1.00528 -4.75607,2.01585 -7.80505,2.88821 -1.20032,-1.03789 -1.72959,-1.94 -1.93909,-3.0094 13.42841,-5.04222 24.90002,-11.97508 31.88983,-24.95572 1.25455,0.39135 2.14933,0.7441 3.04407,1.09686 z"
     id="path40"
     style="fill:#000000;fill-opacity:1;stroke:#000000;stroke-opacity:1" /><path
     fill="#B28B40"
     opacity="1"
     stroke="none"
     d="m 251.00857,155.11746 c 1.22417,-1.41121 2.82885,-2.64903 3.57195,-4.27951 0.84465,-1.85333 0.91925,-4.05762 1.78203,-6.44037 1.45669,-0.0229 2.45996,0.28517 3.49524,0.99591 0.49243,2.89989 -3.68119,6.0945 1.16131,8.30988 0.003,1.38661 0.009,2.39509 0.0153,3.40356 -2.24063,0.7329 -3.31857,1.95714 -3.16891,4.62943 0.28747,5.13276 0.19082,10.29733 -0.005,15.43889 -0.0431,1.13148 -1.16373,2.22198 -1.78815,3.33136 -0.74004,-1.16336 -2.05739,-2.29721 -2.11868,-3.49529 -0.24576,-4.8042 0.0298,-9.63446 -0.19341,-14.44085 -0.0572,-1.23209 -1.23485,-2.41213 -2.33081,-4.03266 -0.42909,-1.41785 -0.42509,-2.4191 -0.4211,-3.42035 z"
     id="path42"
     style="fill:#000000;fill-opacity:1;stroke:#000000;stroke-opacity:1" /><path
     fill="#D1AA4E"
     opacity="1"
     stroke="none"
     d="m 341.92483,84.996124 c 3.97547,14.061592 4.7046,28.031206 -1.60507,41.760456 -1.31967,-0.6138 -2.2189,-1.17474 -3.11813,-1.73568 5.05136,-12.48193 4.108,-25.189159 1.69308,-38.511585 1.18766,-0.870986 2.10889,-1.192085 3.03012,-1.513191 z"
     id="path44"
     style="fill:#000000;fill-opacity:1;stroke:#000000;stroke-opacity:1" /><path
     fill="#967035"
     opacity="1"
     stroke="none"
     d="m 272.13937,113.64708 c 9.44825,-11.02932 21.25113,-18.456147 35.41571,-22.585671 0.0794,1.528091 -0.24371,2.756508 -0.93271,4.009834 -2.60098,1.045243 -5.0418,1.766625 -7.03497,3.138451 -7.96182,5.479946 -15.78442,11.162136 -24.05813,16.716706 -1.39634,-0.46162 -2.39313,-0.87047 -3.3899,-1.27932 z"
     id="path46"
     style="fill:#000000;fill-opacity:1;stroke:#000000;stroke-opacity:1" /><path
     fill="#A37D3C"
     opacity="1"
     stroke="none"
     d="m 306.98831,95.046326 c 0.32306,-1.228409 0.64612,-2.456826 0.94913,-4.077256 2.80453,-1.946884 2.88119,0.227311 3.29202,2.020623 2.52127,11.005977 2.88968,21.912517 -1.70724,32.854487 -1.15402,-0.11049 -2.0488,-0.46324 -3.2616,-1.24721 3.12045,-10.02672 3.90695,-19.71748 0.72769,-29.550644 z"
     id="path48"
     style="fill:#000000;fill-opacity:1;stroke:#000000;stroke-opacity:1" /><path
     fill="#CBA34A"
     opacity="1"
     stroke="none"
     d="m 341.95691,84.603149 c -0.95331,0.714081 -1.87454,1.03518 -3.14847,1.491501 -1.97317,-4.874206 -3.13354,-10.100479 -5.35992,-14.824333 -1.77631,-3.768944 -1.15467,-6.08921 1.89151,-8.414265 1.43844,-1.09795 2.65814,-2.482544 4.44915,-3.545803 1.29584,0.797348 2.11945,1.403237 2.94309,2.009125 -6.41712,6.185425 -6.55386,7.105034 -2.99252,15.911881 0.91387,2.259933 1.50811,4.649116 2.21716,7.371894 z"
     id="path50"
     style="fill:#000000;fill-opacity:1;stroke:#000000;stroke-opacity:1" /><path
     fill="#F6CE87"
     opacity="1"
     stroke="none"
     d="m 227.99391,160.02182 c -4.63003,0 -9.26008,0 -15.17586,0 3.71703,-4.04793 6.74292,-7.34318 10.30054,-10.56906 1.04975,0.94473 1.56778,1.82007 2.08579,2.6954 -0.81487,1.02596 -1.62973,2.05191 -2.82592,3.55794 1.93653,0.16846 3.47524,0.30229 5.35738,0.90379 0.31497,1.44908 0.28653,2.4305 0.25807,3.41193 z"
     id="path52"
     style="fill:#000000;fill-opacity:1;stroke:#000000;stroke-opacity:1" /><path
     style="color:#000000;fill:#000000;stroke:#000000;stroke-opacity:1;-inkscape-stroke:none"
     d="m 218.6853,80.561447 c -1.1356,0.411987 -2.13826,0.413391 -3.51861,0.394135 1.49615,-6.519921 3.36999,-13.019173 5.84546,-19.603562 1.52354,0.204792 2.44545,0.494717 3.36737,0.784638 -1.85376,6.004738 -3.70751,12.009468 -5.69422,18.424789 z"
     id="path54" /><path
     fill="#A9823B"
     opacity="1"
     stroke="none"
     d="m 259.82578,144.99084 c -1.00327,-0.30809 -2.00654,-0.61619 -3.32474,-0.96228 2.08535,-6.24212 4.48568,-12.44627 7.48004,-18.68927 1.11041,0.95939 1.6268,1.95762 2.10516,3.30675 -2.11218,5.68221 -4.18631,11.01351 -6.26046,16.3448 z"
     id="path56"
     style="fill:#000000;fill-opacity:1;stroke:#000000;stroke-opacity:1" /><path
     fill="#A9823B"
     opacity="1"
     stroke="none"
     d="m 239.71852,35.734428 c 1.328,0.304387 2.38014,0.719384 3.85014,1.196259 -3.00599,3.640011 -6.42987,7.218147 -10.57919,10.948864 -1.91545,0.115803 -3.10548,0.07903 -4.2955,0.04225 3.58288,-4.025589 7.16579,-8.051175 11.02455,-12.187375 z"
     id="path58"
     style="fill:#000000;fill-opacity:1;stroke:#000000;stroke-opacity:1" /><path
     fill="#BA9343"
     opacity="1"
     stroke="none"
     d="m 337.92526,154.97229 c 4.41922,-3.75887 8.83841,-7.51772 13.65836,-10.98885 1.03622,0.97918 1.67169,1.67061 2.30716,2.36205 -4.41175,3.82535 -8.82352,7.65069 -13.57205,11.19116 -1.02237,-1.04471 -1.70792,-1.80453 -2.39347,-2.56436 z"
     id="path60"
     style="fill:#000000;fill-opacity:1;stroke:#000000;stroke-opacity:1" /><path
     fill="#BA9343"
     opacity="1"
     stroke="none"
     d="m 228.42163,48.100636 c 1.46236,-0.14206 2.65239,-0.105282 4.28795,-0.04937 -2.32196,4.553593 -5.08946,9.088055 -8.09352,13.853958 -1.15846,-0.05848 -2.08037,-0.348408 -3.33566,-0.784428 2.06736,-4.377838 4.46813,-8.609581 7.14123,-13.020156 z"
     id="path62"
     style="fill:#000000;fill-opacity:1;stroke:#000000;stroke-opacity:1" /><path
     fill="#D1AA4E"
     opacity="1"
     stroke="none"
     d="m 354.15506,146.20665 c -0.89975,-0.5526 -1.53522,-1.24403 -2.27762,-2.41815 2.72962,-4.24428 5.56619,-8.00588 8.81769,-11.64727 1.17096,0.73774 1.92706,1.35528 2.68313,1.97281 -2.98632,3.98459 -5.97262,7.96918 -9.2232,12.09261 z"
     id="path64"
     style="fill:#000000;fill-opacity:1;stroke:#000000;stroke-opacity:1" /><path
     fill="#A17B38"
     opacity="1"
     stroke="none"
     d="m 266.1243,128.29515 c -0.51642,-0.99824 -1.03281,-1.99647 -1.86011,-3.15575 2.24658,-3.83137 4.80405,-7.50171 7.61835,-11.33218 1.2536,0.24871 2.25039,0.65756 3.52862,1.43244 -2.90799,4.59584 -6.09741,8.82567 -9.28686,13.05549 z"
     id="path66"
     style="fill:#000000;fill-opacity:1;stroke:#000000;stroke-opacity:1" /><path
     fill="#D3AC50"
     opacity="1"
     stroke="none"
     d="m 324.96515,21.178831 c 4.21844,2.072474 8.43692,4.144949 12.81531,6.858473 -0.20267,1.58069 -0.56528,2.520336 -0.92792,3.45998 -3.94791,-2.041796 -7.89581,-4.083588 -11.88678,-6.884201 -0.0289,-1.650631 -0.0147,-2.542441 -6.1e-4,-3.434252 z"
     id="path68"
     style="fill:#000000;fill-opacity:1;stroke:#000000;stroke-opacity:1" /><path
     fill="#A17B38"
     opacity="1"
     stroke="none"
     d="m 284.40845,19.807045 c -0.42267,-1.049837 -0.41525,-2.038088 -0.41129,-3.396957 4.35459,-0.656789 8.71265,-0.942959 13.52612,-0.768336 0.46369,1.441719 0.47196,2.422646 0.4802,3.40357 -4.38831,0.274437 -8.77664,0.548871 -13.59503,0.761723 z"
     id="path70"
     style="fill:#000000;fill-opacity:1;stroke:#000000;stroke-opacity:1" /><path
     fill="#BA9343"
     opacity="1"
     stroke="none"
     d="m 324.59143,21.09473 c 0.35959,0.975912 0.34543,1.867722 0.26758,3.210366 -4.42868,-0.76228 -8.79367,-1.975392 -13.51026,-3.704285 -0.35293,-1.516962 -0.3543,-2.518143 -0.35565,-3.519325 4.40821,1.309715 8.81641,2.619428 13.59833,4.013244 z"
     id="path72"
     style="fill:#000000;fill-opacity:1;stroke:#000000;stroke-opacity:1" /><path
     fill="#C69E45"
     opacity="1"
     stroke="none"
     d="m 337.02234,125.32111 c 1.07852,0.26073 1.97775,0.82167 3.0285,1.68664 -2.68536,4.19873 -5.52218,8.09343 -8.74292,11.6236 -0.74899,-1.27077 -1.1141,-2.177 -1.47921,-3.08324 2.3381,-3.30893 4.6762,-6.61786 7.19363,-10.227 z"
     id="path74"
     style="fill:#000000;fill-opacity:1;stroke:#000000;stroke-opacity:1" /><path
     fill="#A17B38"
     opacity="1"
     stroke="none"
     d="m 261.44482,157.11977 c -0.41677,-1.02131 -0.42309,-2.02979 -0.0335,-3.52544 4.46322,-1.48535 8.5306,-2.48354 12.59799,-3.48172 0.52926,0.9021 1.05853,1.80421 1.88696,2.8501 -4.48083,1.48582 -9.2609,2.82786 -14.45142,4.15706 z"
     id="path76"
     style="fill:#000000;fill-opacity:1;stroke:#000000;stroke-opacity:1" /><path
     fill="#A9823B"
     opacity="1"
     stroke="none"
     d="m 337.59174,155.07007 c 1.01907,0.66205 1.70462,1.42187 2.3927,2.53789 -4.09125,2.66328 -8.18506,4.97039 -12.63694,7.28578 -0.35409,-1.03292 -0.35013,-2.0741 -0.34835,-3.50577 3.41827,-2.33371 6.83868,-4.27692 10.59259,-6.3179 z"
     id="path78"
     style="fill:#000000;fill-opacity:1;stroke:#000000;stroke-opacity:1" /><path
     fill="#B28B40"
     opacity="1"
     stroke="none"
     d="m 310.68536,16.961468 c 0.30909,1.1212 0.31046,2.122381 0.30884,3.498884 -4.0831,-0.119274 -8.16327,-0.613871 -12.61706,-1.261747 -0.3819,-1.134207 -0.39017,-2.115134 -0.40644,-3.463459 4.13031,0.123835 8.26862,0.61507 12.71466,1.226322 z"
     id="path80"
     style="fill:#000000;fill-opacity:1;stroke:#000000;stroke-opacity:1" /><path
     fill="#A37D3C"
     opacity="1"
     stroke="none"
     d="m 309.91315,52.203873 c -1.07697,-0.605767 -1.81211,-1.278797 -2.86499,-2.157791 3.83615,-1.70345 7.99008,-3.200936 12.53241,-4.258194 0.3872,1.419914 0.38598,2.399593 0.38476,3.37928 -3.23678,0.989811 -6.47357,1.979622 -10.05218,3.036705 z"
     id="path82"
     style="fill:#000000;fill-opacity:1;stroke:#000000;stroke-opacity:1" /><path
     fill="#A17B38"
     opacity="1"
     stroke="none"
     d="m 274.63904,96.010963 c 0.6365,1.000878 0.96625,2.142167 1.32995,3.640038 -2.37716,2.932499 -4.78827,5.508419 -7.90234,8.192289 -1.7327,-0.31592 -2.76245,-0.7398 -3.79224,-1.16368 3.3526,-3.50941 6.7052,-7.018828 10.36463,-10.668647 z"
     id="path84"
     style="fill:#000000;fill-opacity:1;stroke:#000000;stroke-opacity:1" /><path
     fill="#C69E45"
     opacity="1"
     stroke="none"
     d="m 250.15929,126.58048 c -2.51363,2.7162 -5.02727,5.4324 -8.01989,7.96939 -1.31742,-0.74671 -2.15591,-1.31421 -2.9944,-1.88172 3.04258,-3.21055 6.08515,-6.42111 9.49544,-9.38856 0.75144,1.26238 1.13513,2.28164 1.51885,3.30089 z"
     id="path86"
     style="fill:#000000;fill-opacity:1;stroke:#000000;stroke-opacity:1" /><path
     fill="#A9823B"
     opacity="1"
     stroke="none"
     d="m 264.01007,106.83594 c 1.29413,0.26755 2.32388,0.69143 3.7659,1.17904 -2.35901,2.98822 -5.13025,5.91271 -8.52652,8.82891 -1.2363,-0.76352 -1.84753,-1.51875 -2.45877,-2.27397 2.31836,-2.52588 4.63669,-5.05176 7.21939,-7.73398 z"
     id="path88"
     style="fill:#000000;fill-opacity:1;stroke:#000000;stroke-opacity:1" /><path
     fill="#BA9343"
     opacity="1"
     stroke="none"
     d="m 320.27692,49.347015 c -0.31037,-1.159534 -0.30915,-2.139213 -0.32239,-3.485023 3.4556,0.744915 6.92563,1.855957 10.711,3.484897 -0.37302,1.242119 -1.06131,1.966343 -1.74961,2.690571 -2.77581,-0.836864 -5.5516,-1.673729 -8.639,-2.690445 z"
     id="path90"
     style="fill:#000000;fill-opacity:1;stroke:#000000;stroke-opacity:1" /><path
     fill="#D3AC50"
     opacity="1"
     stroke="none"
     d="m 228.45471,160.05194 c -0.43234,-1.01155 -0.4039,-1.99297 -0.33896,-3.33757 3.68695,-0.47488 7.33742,-0.58659 11.43778,-0.26317 0.45444,1.42427 0.45898,2.41344 0.46351,3.40259 -3.70051,0.0761 -7.40103,0.15219 -11.56233,0.19815 z"
     id="path92"
     style="fill:#000000;fill-opacity:1;stroke:#000000;stroke-opacity:1" /><path
     fill="#C69E45"
     opacity="1"
     stroke="none"
     d="m 240.44762,159.90271 c -0.43511,-1.03807 -0.43965,-2.02724 -0.43785,-3.38721 3.38284,-0.7456 6.75935,-1.1204 10.56732,-1.44662 0.42749,1.04983 0.42349,2.05108 0.42688,3.42775 -3.37033,0.73527 -6.74805,1.09514 -10.55635,1.40608 z"
     id="path94"
     style="fill:#000000;fill-opacity:1;stroke:#000000;stroke-opacity:1" /><path
     fill="#ECC476"
     opacity="1"
     stroke="none"
     d="m 368.7005,113.23207 c 1.09647,0.0133 1.9595,0.29083 3.14383,0.69869 -0.83273,3.64 -1.98676,7.14969 -3.73618,10.74546 -1.12976,-0.68393 -1.66415,-1.45393 -2.19848,-2.22393 0.85244,-2.98532 1.70489,-5.97064 2.79083,-9.22022 z"
     id="path96"
     style="fill:#000000;fill-opacity:1;stroke:#000000;stroke-opacity:1" /><path
     fill="#BA9343"
     opacity="1"
     stroke="none"
     d="m 329.51849,135.7112 c 0.67533,0.74315 1.04044,1.64938 1.44287,2.91917 -2.70022,2.39969 -5.43777,4.43585 -8.5512,6.14914 -0.78913,-1.18579 -1.20231,-2.04871 -1.61548,-2.91164 2.80453,-1.99786 5.60907,-3.99572 8.72381,-6.15667 z"
     id="path98"
     style="fill:#000000;fill-opacity:1;stroke:#000000;stroke-opacity:1" /><path
     fill="#D3AC50"
     opacity="1"
     stroke="none"
     d="m 343.00952,61.159805 c -1.10089,-0.446319 -1.9245,-1.052208 -2.91882,-2.005958 -0.32718,-0.953423 -0.48367,-1.558979 -0.86945,-2.637192 -0.22879,-1.474255 -0.2283,-2.475849 -0.22778,-3.477448 2.26202,0.892346 4.52408,1.784691 6.7861,2.677041 -0.83093,1.761329 -1.66189,3.522655 -2.77005,5.443557 z"
     id="path100"
     style="fill:#000000;fill-opacity:1;stroke:#000000;stroke-opacity:1" /><path
     fill="#C69E45"
     opacity="1"
     stroke="none"
     d="m 338.67304,52.895462 c 0.31991,1.145344 0.31942,2.146938 0.31231,3.523712 -3.22256,-1.027714 -6.43848,-2.430607 -9.86194,-4.107605 0.48081,-0.998337 1.1691,-1.722561 1.86133,-2.792297 2.45859,0.847137 4.91324,2.039791 7.6883,3.37619 z"
     id="path102"
     style="fill:#000000;fill-opacity:1;stroke:#000000;stroke-opacity:1" /><path
     fill="#B28B40"
     opacity="1"
     stroke="none"
     d="m 256.49292,114.7412 c 0.909,0.58394 1.52023,1.33917 2.46622,2.25431 -2.52866,3.14644 -5.39202,6.13295 -8.52762,9.35222 -0.65595,-0.7865 -1.03964,-1.80576 -1.48938,-3.2278 2.37364,-3.00432 4.81335,-5.60588 7.55078,-8.37873 z"
     id="path104"
     style="fill:#000000;fill-opacity:1;stroke:#000000;stroke-opacity:1" /><path
     fill="#E1B860"
     opacity="1"
     stroke="none"
     d="m 365.61725,122.6828 c 0.82675,0.53949 1.36114,1.30949 2.22424,2.23302 -1.09717,3.03435 -2.5231,5.9152 -4.20611,8.99714 -1.01319,-0.41645 -1.76929,-1.03399 -2.67725,-1.99774 1.35428,-3.23146 2.86047,-6.11669 4.65912,-9.23242 z"
     id="path106"
     style="fill:#000000;fill-opacity:1;stroke:#000000;stroke-opacity:1" /><path
     fill="#E1B860"
     opacity="1"
     stroke="none"
     d="m 337.05774,31.733948 c 0.15744,-1.176308 0.52005,-2.115954 0.92648,-3.42799 2.24491,1.11321 4.44602,2.598812 6.83866,4.788212 0.16684,1.889953 0.14218,3.076114 0.11755,4.262268 -2.55917,-1.795281 -5.11835,-3.590554 -7.88269,-5.62249 z"
     id="path108"
     style="fill:#000000;fill-opacity:1;stroke:#000000;stroke-opacity:1" /><path
     fill="#A9823B"
     opacity="1"
     stroke="none"
     d="m 320.43857,141.90344 c 0.76928,0.82736 1.18246,1.69028 1.61838,2.93524 -2.76777,1.58193 -5.55823,2.7818 -8.71192,3.97495 -0.35657,-1.02265 -0.34994,-2.03855 -0.34622,-3.43546 2.35928,-1.40039 4.72147,-2.41978 7.43976,-3.47473 z"
     id="path110"
     style="fill:#000000;fill-opacity:1;stroke:#000000;stroke-opacity:1" /><path
     fill="#D1AA4E"
     opacity="1"
     stroke="none"
     d="m 238.89439,132.81494 c 1.0891,0.42072 1.92759,0.98822 2.94365,1.89462 -2.2035,2.82058 -4.58462,5.30227 -7.33772,7.47715 -0.43321,-1.63764 -0.49445,-2.96849 -0.55568,-4.29934 1.56638,-1.64187 3.13277,-3.28375 4.94975,-5.07243 z"
     id="path112"
     style="fill:#000000;fill-opacity:1;stroke:#000000;stroke-opacity:1" /><path
     fill="#ECC476"
     opacity="1"
     stroke="none"
     d="m 345.09967,37.625496 c -0.13461,-1.455212 -0.10995,-2.641373 -0.0712,-4.269264 2.22892,1.396331 4.44364,3.234405 6.76749,5.742462 -0.28278,1.621605 -0.67465,2.573223 -1.06653,3.524849 -1.82352,-1.576332 -3.64703,-3.152664 -5.62979,-4.998047 z"
     id="path114"
     style="fill:#000000;fill-opacity:1;stroke:#000000;stroke-opacity:1" /><path
     fill="#E1B860"
     opacity="1"
     stroke="none"
     d="m 233.66583,138.06586 c 0.34004,1.15236 0.40128,2.48321 0.53186,4.32089 -1.47116,2.17338 -3.01167,3.83992 -4.97363,5.33893 -0.6754,-1.32428 -0.92934,-2.48102 -1.18329,-3.63776 1.78209,-1.94786 3.56418,-3.89572 5.62506,-6.02206 z"
     id="path116"
     style="fill:#000000;fill-opacity:1;stroke:#000000;stroke-opacity:1" /><path
     fill="#F6CE87"
     opacity="1"
     stroke="none"
     d="m 350.83887,42.90123 c 0.28247,-1.229313 0.67434,-2.180931 1.10794,-3.507378 1.7139,1.370373 3.38611,3.115566 5.17532,5.173897 -0.3092,1.214588 -0.73541,2.116039 -1.19415,3.423561 -1.68158,-1.333416 -3.33063,-3.072906 -5.08911,-5.09008 z"
     id="path118"
     style="fill:#000000;fill-opacity:1;stroke:#000000;stroke-opacity:1" /><path
     fill="#ECC476"
     opacity="1"
     stroke="none"
     d="m 227.74641,144.21643 c 0.54831,1.02823 0.80225,2.18497 1.1935,3.68161 -0.97736,1.53647 -2.09199,2.73305 -3.47107,4.08987 -0.78247,-0.71508 -1.3005,-1.59042 -2.04401,-2.67776 1.19208,-1.7964 2.60965,-3.3808 4.32158,-5.09372 z"
     id="path120"
     style="fill:#000000;fill-opacity:1;stroke:#000000;stroke-opacity:1" /></g>








</svg>
