<?xml version="1.0" encoding="UTF-8" standalone="no"?>
<svg
   version="1.1"
   id="Layer_1"
   x="0px"
   y="0px"
   width="576.42151"
   viewBox="0 0 576.42151 685.73676"
   enable-background="new 0 0 539 517"
   xml:space="preserve"
   sodipodi:docname="if.svg"
   inkscape:version="1.1 (c68e22c387, 2021-05-23)"
   height="685.73676"
   xmlns:inkscape="http://www.inkscape.org/namespaces/inkscape"
   xmlns:sodipodi="http://sodipodi.sourceforge.net/DTD/sodipodi-0.dtd"
   xmlns="http://www.w3.org/2000/svg"
   xmlns:svg="http://www.w3.org/2000/svg"><defs
   id="defs45" /><sodipodi:namedview
   id="namedview43"
   pagecolor="#ffffff"
   bordercolor="#666666"
   borderopacity="1.0"
   inkscape:pageshadow="2"
   inkscape:pageopacity="0.0"
   inkscape:pagecheckerboard="0"
   showgrid="false"
   inkscape:zoom="0.49516441"
   inkscape:cx="134.29883"
   inkscape:cy="269.60742"
   inkscape:window-width="1366"
   inkscape:window-height="697"
   inkscape:window-x="-8"
   inkscape:window-y="-8"
   inkscape:window-maximized="1"
   inkscape:current-layer="Layer_1" />




















<g
   id="g1628"
   transform="translate(-812.41354,170.05331)"><g
     id="g1011"
     transform="translate(776.84518,12.852218)"
     style="fill:#000000"><path
       fill="#374656"
       opacity="1"
       stroke="none"
       d="m 123.50199,306.55872 c 7.41992,-6.60346 14.53252,-13.00895 21.8184,-19.57044 -0.12215,-0.15219 0.55313,0.37628 0.81601,1.06271 6.36903,16.63099 19.83317,23.39499 36.22925,25.92658 4.25666,0.65723 8.60984,0.96414 12.91896,0.96661 94.30282,0.0536 188.60571,0.0415 282.90857,0.042 1.79843,0 3.59686,0 6.46905,0 -1.86249,8.86904 -3.09235,17.229 -5.39145,25.28375 C 457.83276,415.37729 409.35199,465.8576 335.81696,489.84558 253.2737,516.77222 176.97716,501.76514 110.43185,445.36609 71.407455,412.29178 48.452286,369.34332 40.565475,318.59863 c -0.151191,-0.97284 -0.186889,-1.96356 -0.337245,-3.61242 1.97002,0 3.744342,3e-5 5.518665,0 15.661606,-2.5e-4 31.324203,-0.10807 46.984482,0.036 10.975673,0.10098 21.030873,-2.85016 30.770613,-8.46353 m 140.18267,145.32739 c 5.81516,1.37042 11.62882,2.74734 17.44608,4.10882 3.46213,0.81028 6.92996,1.59623 10.68924,2.4607 2.30325,-4.19776 10.48523,-6.55164 15.70242,-3.6352 6.52444,-8.83075 14.12463,-7.99359 22.78772,-1.67596 -4.46851,-6.08371 -3.94965,-11.44519 1.01419,-16.9584 -15.46228,11.36898 -28.11941,7.66006 -39.54172,-6.07337 -1.29883,2.05942 -2.20895,3.79379 -3.40622,5.29993 -0.81741,1.02841 -1.91281,2.20373 -3.09433,2.5152 -7.66241,2.01968 -15.36145,3.91433 -23.09384,5.64785 -3.22851,0.72382 -4.76004,2.28305 -4.05115,5.92124 1.50821,0.66665 3.16837,1.40048 5.54761,2.38919 m 82.62668,-58.59738 c -8.81534,2.19101 -17.65588,4.28994 -26.41519,6.68585 -1.13587,0.3107 -2.51834,2.12637 -2.56799,3.29663 -0.0458,1.08072 1.34786,2.923 2.44851,3.23776 7.00983,2.00485 14.11325,3.68268 21.18744,5.46185 3.12003,0.78473 6.24372,1.55466 9.68283,2.41019 2.28885,-4.16244 10.10608,-6.51281 14.79761,-4.39978 3.97131,-2.19739 7.27478,-5.32211 10.82413,-5.63217 3.70626,-0.32376 7.64926,2.06232 12.62628,3.61969 -4.70813,-5.75104 -2.38834,-10.67127 1.06,-15.8129 -15.25309,11.05594 -27.87949,7.61829 -39.28626,-6.19156 -1.46133,2.48969 -2.68667,4.57734 -4.35736,7.32444 M 272.8212,353.29956 c -1.72162,0.61761 -3.42377,1.29807 -5.16922,1.83872 -2.91678,0.90344 -5.60321,1.91464 -4.09445,7.17947 7.39266,1.72671 15.43841,3.60269 23.48229,5.48636 3.17643,0.7438 6.34873,1.50497 9.831,2.33136 2.32065,-4.11737 10.37317,-6.45343 14.50418,-4.31232 4.37701,-2.19217 8.05814,-5.36749 11.90701,-5.58578 3.78403,-0.21463 7.73832,2.57208 12.28357,4.29394 -1.38592,-2.9541 -3.68097,-5.60956 -3.5181,-8.10458 0.17582,-2.69312 2.6503,-5.23618 4.63755,-8.75827 -22.03955,12.33523 -28.64206,5.6474 -39.83228,-5.60736 -1.12045,1.6987 -2.01648,3.46939 -3.3049,4.88226 -1.065,1.16788 -2.47421,2.39807 -3.93823,2.75839 -5.29996,1.30426 -10.68735,2.25351 -16.78842,3.59781 M 167.67625,446.8269 c 5.41858,1.01502 10.83715,2.03006 16.66925,3.12259 1.96679,-3.69104 10.14177,-6.18829 15.70363,-3.60394 6.22774,-8.40344 13.81484,-7.83087 22.43503,-2.02277 -4.2913,-5.63702 -3.27392,-10.42801 0.20061,-15.62637 -15.24535,10.3353 -27.61499,6.34265 -38.37798,-6.81952 -1.22664,1.83841 -2.07867,3.50064 -3.29692,4.82636 -1.08696,1.18283 -2.4447,2.48669 -3.9142,2.88586 -7.35512,1.99805 -14.8491,3.50388 -22.15165,5.66467 -2.12818,0.62977 -3.78638,2.84778 -5.66001,4.33777 0.17822,0.61118 0.35643,1.22235 0.53465,1.8335 5.67691,1.74368 11.35382,3.48736 17.85759,5.40185 m 98.64956,-52.44012 c -8.48288,-0.19675 -13.08199,-6.58466 -18.78792,-11.95667 -1.20293,1.90464 -2.18633,3.81171 -3.51577,5.43549 -0.79772,0.97434 -2.04196,1.86166 -3.24613,2.17944 -7.83561,2.0676 -15.74857,3.84986 -23.54718,6.04224 -1.27535,0.35852 -2.66436,2.16916 -2.94718,3.52795 -0.17886,0.85944 1.40767,2.77991 2.52582,3.10218 6.83134,1.96875 13.75134,3.63205 20.65015,5.36389 3.26182,0.81888 6.54216,1.56399 10.17637,2.42868 2.13187,-4.05621 10.275,-6.56476 14.4758,-4.32529 4.3035,-2.20645 7.97565,-5.47864 11.79443,-5.65982 3.8881,-0.18448 7.92054,2.67371 11.88974,4.19962 -5.531,-5.56186 -2.32373,-10.70935 0.82941,-16.04511 -6.39029,3.55887 -12.03448,7.6745 -20.29754,5.7074 m -46.54194,-30.85196 c 0.62012,0.3862 1.24025,0.77243 1.86037,1.15863 -2.6245,-5.45325 -3.36143,-10.5715 1.11432,-16.01346 -15.42667,10.56735 -27.72221,6.29993 -38.52377,-6.85779 -1.30681,2.06135 -2.25199,3.82462 -3.46866,5.37485 -0.80049,1.01993 -1.86978,2.20636 -3.02884,2.50641 -7.67603,1.98691 -15.40656,3.76416 -23.1245,5.58777 -3.06752,0.72476 -4.78688,2.34619 -3.6801,7.16833 7.75637,1.7175 16.15203,3.51603 24.51346,5.46161 2.83414,0.65949 5.58185,1.69034 8.58798,2.61914 2.40691,-4.33889 9.81261,-6.72543 15.89919,-4.42883 7.99653,-7.49582 10.7412,-7.91797 19.85055,-2.57666 z"
       id="path4"
       style="fill:#000000" /><path
       fill="#3A4959"
       opacity="1"
       stroke="none"
       d="m 180.67299,100.25613 c -6.61192,-3.574024 -12.89757,-6.974758 -19.61809,-10.610767 1.64745,-3.104431 3.16959,-5.972733 5.03743,-9.492485 40.57465,21.993952 80.87785,43.840772 121.97176,66.116192 0,-40.37761 0,-80.037442 0,-120.069554 3.83923,0 7.06225,0 10.82187,0 0,43.407502 0,86.805904 0,130.497844 1.75418,0.19374 3.01916,0.45288 4.2846,0.45497 14.83109,0.0247 29.66318,0.10939 44.4932,-0.0218 13.79895,-0.12206 24.52704,-7.82378 29.58102,-20.64452 2.93112,-7.43554 6.04093,-14.80816 9.35816,-22.07776 0.67617,-1.48189 2.61065,-3.34549 4.01336,-3.38661 9.95911,-0.29191 19.93076,-0.15545 30.41019,-0.15545 0,6.96093 0,13.54103 0,20.87193 12.1814,0 23.88162,0 36.24368,0 -1.30649,13.11131 -2.53296,25.41958 -3.81048,38.24002 9.74173,-0.77358 18.81652,-1.53464 27.89816,-2.20326 8.13879,-0.59922 16.28076,-1.34642 24.43063,-1.48551 2.41925,-0.0413 6.36124,1.21697 6.94455,2.83751 0.8053,2.23747 -0.0977,6.02498 -1.68274,8.03241 -8.7717,11.10982 -18.02115,21.84096 -27.00293,32.78714 -3.69644,4.50494 -7.3883,9.05121 -10.63778,13.87789 -8.14408,12.09695 -19.57657,19.4327 -33.7515,20.89076 -19.34723,1.99005 -38.83032,3.10365 -58.27988,3.57457 -71.29785,1.72627 -142.60591,3.0316 -213.91024,4.49016 -1.62775,0.0333 -3.25679,0.004 -5.55753,0.004 1.45982,-9.44747 2.84012,-18.38019 4.27052,-27.63726 100.82168,0 201.26064,0 302.1653,0 0,-2.73118 0,-5.08094 0,-8.02346 -100.1672,0 -200.20886,0 -300.93535,0 1.32032,-8.66806 2.38726,-16.7071 3.9561,-24.64696 0.19341,-0.9789 3.05548,-2.01195 4.69579,-2.03681 27.32544,-0.41417 54.65301,-0.6985 81.98067,-0.9492 9.80053,-0.0899 19.6026,-0.0144 30.13205,-0.0144 0,-10.43256 0.139,-20.0161 -0.17609,-29.58469 -0.0393,-1.19522 -2.32361,-2.59929 -3.83206,-3.42168 -31.43564,-17.13798 -62.90926,-34.20633 -94.37616,-51.28698 -2.92798,-1.58933 -5.86116,-3.169 -9.11821,-4.92646 m 163.78572,64.91617 c -15.0657,0 -30.13138,0 -45.14337,0 0,8.30625 0,15.72679 0,23.0444 8.60025,0 16.89078,0.26885 25.15841,-0.052 21.9563,-0.85217 43.90332,-1.94499 65.8526,-2.97372 5.70753,-0.26753 10.26957,-2.95708 13.47175,-7.50795 1.9624,-2.78893 4.2843,-3.57997 7.48803,-3.82736 11.22913,-0.86707 22.43503,-2.03514 33.8382,-3.10663 1.06161,-10.4509 2.07645,-20.44123 3.13266,-30.83898 -6.46097,0 -12.1001,0 -17.73926,0 -5.60565,0 -11.2113,0 -17.45782,0 0,-7.29037 0,-13.99947 0,-20.96809 -6.12684,0 -11.61423,-0.18424 -17.07273,0.13165 -1.33752,0.0774 -3.15643,1.51625 -3.76657,2.79888 -2.57135,5.4056 -4.82858,10.96464 -7.09277,16.51162 -7.42432,18.18868 -19.95499,26.66915 -40.66913,26.78821 m 125.34305,25.80432 c 0.94424,0.3006 2.00683,1.04189 2.81222,0.82553 3.49842,-0.93968 7.03345,-1.92872 10.26502,-3.49748 0.552,-0.26796 0.0496,-4.88952 -0.57794,-5.04606 -3.64939,-0.91051 -7.65232,-1.9759 -11.20966,-1.29221 -4.61948,0.88782 -5.12686,4.47366 -1.28964,9.01022 z"
       id="path6"
       style="fill:#000000" /><path
       fill="#3a4958"
       opacity="1"
       stroke="none"
       d="m 44.508812,219.47038 c -2.98756,-9.33145 -5.806095,-18.32054 -8.940456,-28.31686 17.303852,0 33.170536,0 49.679416,0 -0.693771,-2.49555 -1.21714,-4.20078 -1.640846,-5.93042 -3.31501,-13.5324 1.945808,-27.6107 13.136612,-35.20815 11.807712,-8.01626 26.602832,-7.94139 37.953162,0.1921 11.2112,8.03378 16.14664,21.89993 12.71874,35.38871 -0.45087,1.77419 -2.56527,4.06943 0.92611,5.37351 0.36817,0.13751 0.49445,1.50871 0.3826,2.25503 -1.15857,7.73079 -2.38911,15.45078 -3.69658,23.79203 -15.38656,0 -30.6063,0 -46.061445,0 0,2.92096 0,5.17801 0,7.91949 14.786205,0 29.371065,0 44.829915,0 -1.45678,9.6904 -2.8246,18.78923 -4.30681,28.64891 -18.36016,0 -36.43783,0 -55.082064,0 0,-7.75534 0,-15.82738 0,-25.32182 -9.31881,0 -18.150452,-0.56323 -26.871811,0.17551 -7.17294,0.60758 -10.876576,-2.31347 -13.026543,-8.96804 m 50.662216,-56.67969 c -5.067444,7.63111 -5.83683,15.65833 -2.481666,24.19747 1.130523,2.87726 2.769088,4.02592 5.959625,3.95079 10.135493,-0.23868 20.278413,-0.16712 30.418503,-0.20339 8.38573,-0.03 9.55048,-0.93899 10.97719,-9.1828 0.36442,-2.10571 0.56968,-4.32151 0.34408,-6.43289 -1.15551,-10.81419 -6.90759,-18.34199 -17.22184,-21.64972 -11.01056,-3.531 -20.24129,-0.0715 -27.995892,9.32054 z"
       id="path8"
       style="fill:#000000" /><path
       fill="#3e4c5c"
       opacity="1"
       stroke="none"
       d="m 149.29449,230.18761 c 6.01722,-38.73217 11.97312,-77.03212 17.92658,-115.33245 1.33372,-8.58011 1.32976,-8.58072 10.57471,-6.29244 -8.5853,55.55642 -17.18212,111.18745 -25.86046,167.34597 -3.12769,-0.41992 -5.84021,-0.78412 -9.36165,-1.25693 2.25471,-14.90994 4.45668,-29.471 6.72082,-44.46415 z"
       id="path10"
       style="fill:#000000" /><path
       fill="#414f5d"
       opacity="1"
       stroke="none"
       d="m 419.00043,102.96176 c -6.60559,-1e-5 -12.71149,-1e-5 -19.16956,-1e-5 0,-2.81904 0,-5.199306 0,-7.842747 12.92337,0 25.6102,0 38.66797,0 0,2.524597 0,4.883237 0,7.842767 -6.49704,0 -12.74789,0 -19.49841,-1e-5 z"
       id="path12"
       style="fill:#000000" /><path
       fill="#505d6a"
       opacity="1"
       stroke="none"
       d="m 436.70312,159.73358 c -0.77877,5.90512 -4.82464,2.42387 -7.80966,3.71671 0,-4.55655 0,-8.54108 0,-12.51166 7.80533,-1.49394 7.80533,-1.49394 7.80966,8.79495 z"
       id="path36"
       style="fill:#000000" /><path
       fill="#445160"
       opacity="1"
       stroke="none"
       d="m 411.72333,152.41431 c 2.48394,-1.10239 4.93603,-1.75385 8.12839,-2.60196 0,3.16754 0,5.10818 0,7.04884 0,1.80003 0,3.60007 0,5.29124 -7.41672,2.21264 -8.12552,1.71882 -8.13837,-5.30842 -0.002,-1.32628 -0.0143,-2.65253 0.01,-4.4297 z"
       id="path38"
       style="fill:#000000" /><path
       fill="#43505f"
       opacity="1"
       stroke="none"
       d="m 328.85211,170.79071 c 1.30322,0.75378 2.33099,1.38417 2.90341,2.29938 0.37509,0.59976 0.0997,1.61149 0.10126,2.43875 0.004,2.44371 0.002,4.88744 0.002,7.63089 -2.88043,0 -5.26468,0 -8.16797,0 0,-1.98575 -3e-5,-3.61125 -3e-5,-5.23674 0,-2.1248 3e-5,-4.2496 3e-5,-6.77103 1.84821,-0.14323 3.27057,-0.25348 5.16171,-0.36125 z"
       id="path40"
       style="fill:#000000" /><g
       id="g1722"
       transform="matrix(0.16295609,0,0,0.16295609,159.73473,11.915713)"
       style="fill:#000000"><path
         fill="#232122"
         opacity="1"
         stroke="none"
         d="m 1312.8637,356.37588 c -2.0606,0.51743 -3.6969,1.00934 -6.2071,1.76395 8.6112,2.27655 16.2602,3.9668 23.6939,6.33347 15.2591,4.85806 29.2782,12.11331 39.6917,24.60379 2.9187,3.50091 4.0846,8.61285 5.5497,13.14892 5.1966,16.08963 10.1864,32.24619 15.2188,48.38852 0.5215,1.67267 0.8047,3.41956 1.4562,6.25229 -4.6442,-1.73962 -8.3152,-2.99701 -11.8953,-4.47473 -23.4956,-9.698 -47.452,-14.77319 -73.2963,-12.24756 -27.08,2.6464 -51.9089,11.25836 -76.1564,22.72574 -18.9917,8.98166 -38.1329,17.65115 -57.2811,26.29685 -15.9527,7.20288 -33.2171,8.72863 -50.2126,8.62975 -11.0366,-0.0642 -22.1148,-4.04519 -33.056,-6.74987 -14.6599,-3.62387 -29.0438,-8.56775 -43.8454,-11.35724 -14.7644,-2.7825 -29.8957,-3.62793 -44.8707,-5.28055 -15.89856,-1.75455 -31.44888,1.15024 -46.81407,4.41238 -10.15529,2.15604 -19.874,6.29246 -29.90628,9.12366 -11.75302,3.31684 -23.49079,7.03702 -35.49237,9.04477 -19.63136,3.28418 -39.47049,5.32666 -59.22319,7.88352 -0.45807,0.0593 -0.93052,0.007 -2.65092,0.007 0.28365,-5.46795 0.43135,-10.75781 0.8512,-16.02594 3.69132,-46.31854 6.58899,-92.67364 4.76499,-139.16699 -0.84025,-21.41775 -1.34213,-42.9325 -3.86702,-64.18109 -3.87754,-32.6319 -8.33841,-65.26769 -14.46777,-97.5379 -5.95395,-31.34667 -14.30148,-62.23965 -21.66282,-93.31649 -0.66953,-2.82653 -1.81223,-5.54099 -3.0095,-9.129643 4.63339,-0.48352 8.55178,-0.754074 12.42715,-1.319519 23.33385,-3.404556 46.78565,-6.199074 69.93988,-10.566173 15.26066,-2.878304 30.05246,-8.189213 45.12441,-12.143265 7.83296,-2.054939 15.74679,-4.05761 23.75172,-5.140293 11.58197,-1.566475 23.30655,-3.355942 34.92096,-3.066956 13.14398,0.327042 26.38453,2.074879 39.30873,4.605862 16.5793,3.24678 32.8291,8.13771 49.3228,11.87009 21.8715,4.949356 44.1092,7.631646 66.4637,5.410904 19.847,-1.971649 38.7197,-7.919445 54.623,-20.643158 16.3418,-13.074545 34.6893,-22.365892 55.0489,-26.010582 19.1905,-3.435397 38.9493,-6.379586 58.2924,-5.572124 22.1799,0.925877 43.687,8.00473 64.0882,17.346224 1.1791,0.539903 2.3959,2.271673 2.5486,3.57163 0.9706,8.267845 1.9009,16.558544 2.2832,24.867542 0.1352,2.937417 -1.304,5.947278 -1.8368,8.148621 -8.4871,-2.131687 -16.3032,-5.125221 -24.3186,-5.820099 -8.1181,-0.703777 -16.4331,0.865586 -24.6619,1.439285 -0.048,0.546589 -0.095,1.093182 -0.1429,1.639771 5.1026,2.049187 10.3188,3.857635 15.2824,6.201004 8.5778,4.049614 16.9793,8.283199 21.7708,17.353489 2.1663,4.10067 0.5138,4.25592 -2.845,4.71672 -7.9869,1.09572 -15.9286,2.53018 -23.8708,3.92949 -0.8731,0.15384 -1.6297,0.96919 -3.0443,1.85656 1.6402,0.9859 2.7832,1.81968 4.0416,2.40567 8.7154,4.05842 17.4195,8.14464 26.2045,12.04811 3.3256,1.47766 5.3132,3.07385 5.013,7.35863 -0.984,14.03847 -1.522,28.10936 -2.1491,42.17145 -1.1082,24.85036 -3.0935,49.70824 -2.9661,74.55402 0.1286,25.05989 2.0547,50.13218 3.8509,75.15184 0.7765,10.81536 3.2144,21.51065 4.8637,32.26568 0.1381,0.90033 0.018,1.84021 0.018,3.68717 -16.9948,-5.39218 -33.6062,-4.50287 -50.665,-1.46467 M 1202.1925,194.0255 c 2.1792,-0.80966 4.3776,-2.35761 6.5341,-2.30133 9.3966,0.24518 18.802,1.60153 28.1633,1.29719 7.6244,-0.24786 15.4039,-1.55948 22.6504,-6.48611 5.713,-5.75942 5.8094,-12.17656 -0.35,-18.11798 -9.2962,-8.96698 -20.4387,-10.67725 -32.6327,-8.02631 1.0324,-1.33021 2.0648,-2.66042 3.7525,-4.19366 3.6025,-4.32132 6.5167,-8.98291 5.321,-14.91248 -1.4968,-7.42322 -6.8712,-11.16691 -13.6819,-12.93111 -7.1318,-1.84738 -14.3557,-3.04325 -21.0717,3.26074 -1.1068,3.19393 -3.2258,6.43201 -3.0889,9.57171 0.219,5.02025 1.1554,10.33702 3.2492,14.85096 1.907,4.11144 0.862,6.63953 -1.793,9.11661 -4.982,4.64792 -10.2307,9.00898 -15.2443,13.62418 -2.3276,2.14259 -3.762,1.35957 -6.3313,-0.12082 -7.8369,-4.51564 -15.7139,-9.60863 -24.2674,-12.1138 -26.9626,-7.89693 -54.5461,-9.53278 -82.374,-4.99222 -23.3605,3.81165 -45.4379,10.97415 -64.9033,24.96593 -1.2253,0.88075 -3.1115,1.76124 -4.4166,1.45932 -7.25789,-1.67908 -14.5391,-3.40944 -21.57126,-5.82424 -2.26879,-0.77908 -4.35726,-3.40573 -5.52794,-5.69804 -1.23659,-2.42131 -1.1236,-5.49533 -1.87404,-8.20845 -2.0659,-7.46918 -3.59331,-15.19229 -6.63416,-22.25505 -2.63571,-6.1218 -8.50885,-7.75124 -14.28471,-5.25678 -12.63957,5.45874 -22.92481,28.51516 -7.27919,39.77939 -0.13173,0.18312 -0.26345,0.36623 -1.2556,0.51711 -3.82904,-0.0263 -7.71219,-0.47412 -11.47582,0.009 -7.77615,0.99838 -15.30018,3.00429 -18.29307,11.52289 -2.69304,7.66511 -0.65169,14.44143 5.09341,20.02961 5.85846,5.6984 13.28255,6.4193 19.88901,3.00861 6.31784,-3.2617 11.41306,-8.83862 17.239,-13.13579 1.94891,-1.43748 4.72323,-3.24533 6.72566,-2.85574 7.54596,1.46814 14.92943,3.77151 23.05135,5.94333 -9.38288,15.87312 -14.0197,31.76199 -7.45252,48.79686 6.56197,17.02128 20.90462,26.01606 37.34638,33.28056 -1.6716,1.25085 -2.7594,2.21457 -3.9818,2.95636 -12.51111,7.59213 -25.03819,15.15799 -37.57353,22.71011 -5.98729,3.60718 -7.60202,3.15869 -10.54866,-3.3908 -2.74518,-6.10175 -7.02336,-9.91929 -13.85832,-10.70804 -6.78084,-0.78257 -12.95627,0.96216 -18.38422,4.76992 -9.42299,6.61036 -9.75981,17.48255 -0.28775,24.11579 5.04811,3.53512 11.30319,5.33728 16.98755,7.97751 2.66192,1.23642 5.26236,2.60519 7.89065,3.91397 -0.91961,-0.41501 -1.83925,-0.83002 -2.75886,-1.24506 -3.24335,4.43006 -6.60276,8.78079 -9.69989,13.31079 -3.65868,5.35138 -4.52757,11.14411 -1.09986,16.89319 3.58867,6.01898 14.04964,9.03125 22.54752,6.86368 6.74872,-1.72141 12.10742,-7.92133 11.33237,-15.6886 -0.8591,-8.60977 3.37471,-13.67505 9.56135,-17.69507 12.53839,-8.1474 25.30285,-15.95126 38.06655,-23.7453 4.7799,-2.91879 9.8173,-5.41595 14.0734,-7.74246 -3.5158,8.81735 -7.73,17.47922 -10.4054,26.5928 -3.1382,10.6901 0.2233,17.05973 9.4961,18.78296 5.5836,1.03763 11.6156,0.79709 17.2769,-0.0289 5.9518,-0.86834 8.7589,-4.96597 8.474,-11.05957 -0.2263,-4.84292 -1.1698,-9.65231 -1.855,-14.93988 2.0695,0.44907 3.6373,1.04862 5.2174,1.08273 4.4558,0.0962 5.1377,2.18613 4.2127,6.1771 -0.7397,3.1914 -0.6247,6.60913 -0.6614,9.92889 -0.061,5.5282 2.6698,9.76734 7.9885,10.5564 5.9463,0.8822 12.3357,1.30023 18.1349,0.0609 8.714,-1.86212 10.5696,-5.27157 9.7871,-13.95318 -0.2897,-3.21335 -1.3606,-6.35627 -2.1886,-10.03534 3.0492,-0.36899 5.7266,-0.693 8.3869,-1.01496 2.4943,17.93674 7.0137,20.8309 23.0548,17.99436 5.4069,-0.95615 10.8558,-3.25894 13.507,-8.51767 3.6975,-7.33408 -1.8197,-13.15775 -4.6959,-19.48151 3.1021,-1.37106 5.8004,-2.56363 8.7223,-3.85498 0.6667,1.80832 1.2441,3.33704 1.7951,4.87518 3.842,10.72525 8.8601,13.64112 19.8433,10.81012 3.6269,-0.93484 7.2105,-2.67938 10.3423,-4.76263 7.0011,-4.65707 8.6992,-10.92984 3.452,-17.39926 -5.7926,-7.14197 -12.8999,-13.25449 -19.7142,-19.51087 -2.3318,-2.14087 -4.2655,-3.70544 -1.7048,-7.0354 12.1201,5.79404 24.2458,11.52725 36.3119,17.3834 6.9514,3.37374 7.1307,4.43627 2.4355,10.57928 -5.7056,7.46512 -5.7073,13.69836 0.7881,20.56592 2.6501,2.80197 6.117,5.28204 9.6929,6.67526 11.812,4.60223 21.5385,-1.77206 21.8358,-14.18896 0.1062,-4.43458 -1.0058,-8.88706 -1.3481,-13.34775 -0.2173,-2.83106 -0.041,-5.69235 -0.041,-9.12003 1.7124,0.74097 2.6967,1.28513 3.7493,1.60364 8.4661,2.56226 16.9293,4.67041 25.7752,-1.09433 1.3214,-2.94794 3.4529,-5.80322 3.8027,-8.86227 0.8386,-7.33423 -2.0287,-13.51789 -8.6552,-17.07172 -6.8507,-3.67401 -13.6336,-2.59604 -20.4304,2.12119 -0.4635,0.32922 -0.9269,0.65841 -2.191,1.06042 -1.7534,0.30695 -3.8035,1.36236 -5.2138,0.80347 -12.2075,-4.83826 -24.2998,-9.9668 -36.1717,-15.59122 0.7404,-0.74263 1.4808,-1.48526 2.8885,-2.3647 2.3555,-4.06812 6.357,-8.00044 6.7062,-12.2341 0.6281,-7.61199 0.089,-15.6714 -1.8345,-23.05641 -2.5676,-9.85898 -6.9208,-19.25293 -9.9634,-29.25312 0.8073,-0.77468 1.6147,-1.54939 3.0642,-2.46858 1.3973,-1.33954 2.7946,-2.67906 4.854,-4.30685 z"
         id="path1714"
         style="fill:#000000" /><path
         fill="#262424"
         opacity="1"
         stroke="none"
         d="m 1045.5392,257.50005 c -9.4783,2.1273 -17.8749,-3.15839 -20.6686,-13.80588 -4.098,-15.61874 -0.6386,-29.89186 10.7464,-41.42986 10.9992,-11.14695 24.0916,-7.97511 29.9249,6.6218 6.0863,15.2298 -1.2215,37.85664 -15.078,46.49179 -1.3899,0.8662 -3.026,1.33731 -4.9247,2.12215 z"
         id="path1716"
         style="fill:#000000" /><path
         fill="#262424"
         opacity="1"
         stroke="none"
         d="m 1118.5299,244.77676 c -14.5532,-7.84375 -23.5542,-19.20266 -25.3724,-35.59529 -1.5337,-13.82696 8.4969,-22.32026 21.856,-18.57096 16.98,4.76545 31.0474,25.64491 28.9952,43.03565 -1.174,9.94806 -10.3511,15.39673 -21.3841,12.65305 -1.2792,-0.3181 -2.4948,-0.89188 -4.0947,-1.52245 z"
         id="path1718"
         style="fill:#000000" /><path
         fill="#262424"
         opacity="1"
         stroke="none"
         d="m 1084.052,288.21774 c -1.7318,-0.31741 -3.0343,-0.56704 -4.3223,-0.87756 -10.1669,-2.45114 -14.134,-7.939 -12.2688,-18.04535 1.8207,-9.86493 5.4304,-19.1246 11.6008,-27.18195 5.0193,-6.55421 9.3639,-6.75842 14.3862,-0.36999 6.6974,8.51938 10.5377,18.44907 11.9439,29.07581 1.4098,10.65512 -4.2365,16.61056 -15.424,17.39663 -1.8186,0.12781 -3.6529,0.0336 -5.9158,0.002 z"
         id="path1720"
         style="fill:#000000" /></g></g><g
     id="g1261"
     transform="matrix(-0.73870678,0,0,0.73870678,1023.3649,-73.426566)"><path
       fill="#0d0d0d"
       opacity="1"
       stroke="none"
       d="M 77.05733,109.44633 C 68.60385,111.60612 60.56334,113.7 52.10257,111.84353 43.37641,109.92885 39.71445,103.24361 44.0046,95.51502 46.80363,90.47264 50.51657,85.872457 54.25504,81.441106 56.499,78.781263 56.98269,76.841871 55.19275,73.633352 46.54123,58.125181 38.18178,42.454187 29.7036,26.849168 25.59925,19.29465 26.46071,13.89938 33.23781,8.53498 36.98197,5.57131 41.20585,3.21369 46.10138,0 c 0.30352,7.31528 5.89122,9.13498 10.38831,11.93496 17.34586,10.7999 34.75049,21.505399 52.76974,32.63939 -7.35955,5.963326 -14.43892,11.699635 -21.5183,17.43594 0.23514,0.372612 0.47028,0.745216 0.70542,1.117821 2.06945,-0.860543 4.14656,-1.703187 6.20707,-2.584656 10.35286,-4.428932 20.66812,-8.948166 31.06742,-13.265007 4.30075,-1.785282 9.03835,-1.595818 12.10343,1.866607 4.76077,5.377961 11.10627,6.388909 17.33665,7.739983 35.18269,7.629478 70.36041,15.295273 105.64081,22.450821 8.06091,1.634903 16.59796,1.780876 24.76651,-5.112885 -0.86963,3.709412 -0.97842,6.239235 -2.03101,8.28299 -3.40616,6.613606 -6.74655,13.327366 -10.89865,19.471096 -3.85269,5.70078 -10.20245,7.29898 -16.80765,6.83975 -12.62254,-0.87758 -25.22245,-2.07686 -37.835,-3.10282 -19.41309,-1.57917 -38.82996,-3.1118 -58.24307,-4.69063 -8.62842,-0.70174 -17.26639,-1.32779 -25.87391,-2.23582 -15.29085,-1.61304 -30.18454,-0.98301 -44.30631,6.10494 -3.81963,1.91713 -8.0806,2.95499 -12.51551,4.55385 z"
       id="path4-7"
       style="fill:#000000" /><path
       fill="#0fabec"
       opacity="1"
       stroke="none"
       d="m 92.14914,146.2504 c -5.32513,-1.93559 -10.27039,-3.7733 -15.29845,-5.64177 5.79139,-7.49029 8.45962,-8.27159 16.72204,-5.20433 7.60417,2.82291 15.22712,5.59517 23.20288,8.52223 -0.58678,3.41541 -1.13857,6.62711 -1.83025,10.65316 -7.66127,-2.81327 -15.0388,-5.52234 -22.79622,-8.32929 z"
       id="path6-7"
       style="fill:#000000" /><path
       fill="#222222"
       opacity="1"
       stroke="none"
       d="m 135.02144,36.124784 c -3.68368,0.305367 -6.97236,0.670849 -11.58562,1.18354 7.20061,-5.499404 13.83404,-6.834827 20.90371,-3.725883 7.43994,3.271778 11.34939,9.276459 12.07828,17.695404 -3.46346,0.896225 -6.52884,0.687546 -7.68473,-3.052589 -2.09132,-6.767018 -6.8717,-10.248364 -13.71164,-12.100472 z"
       id="path8-0"
       style="fill:#000000" /><path
       fill="#14acec"
       opacity="1"
       stroke="none"
       d="m 156.87549,135.29529 c 6.51868,-3.6659 9.09009,1.76734 13.69885,5.06182 -7.7136,3.08052 -14.62165,5.83932 -22.00337,8.7873 -1.44221,-2.98339 -2.76042,-5.71023 -4.28763,-8.86944 4.33719,-1.72354 8.27727,-3.28929 12.59215,-4.97968 z"
       id="path10-6"
       style="fill:#000000" /><path
       fill="#19adec"
       opacity="1"
       stroke="none"
       d="m 99.01752,122.32943 c 1.99361,-0.16095 3.806,-0.45885 5.38509,0.0172 3.46816,1.0455 6.80889,2.50827 10.21877,3.75378 5.60364,2.04685 5.76328,2.42261 2.92544,8.83213 -7.42896,-2.69022 -14.90867,-5.39881 -23.40162,-8.47431 1.99405,-1.70242 3.28966,-2.80856 4.87232,-4.12878 z"
       id="path12-0"
       style="fill:#000000" /><path
       fill="#1daeec"
       opacity="1"
       stroke="none"
       d="m 148.30133,128.64704 c -2.79144,1.0585 -5.24264,1.97084 -8.0901,3.03065 -0.99129,-2.07426 -1.8855,-3.9454 -2.7465,-5.74705 7.06684,-5.21947 9.03288,-5.14427 14.98266,0.70866 -1.37924,0.67467 -2.59253,1.26813 -4.14606,2.00774 z"
       id="path14-0"
       style="fill:#000000" /><path
       fill="#20aeed"
       opacity="1"
       stroke="none"
       d="m 117.54555,114.0521 c 4.41736,1.0406 4.06957,3.53979 2.49197,6.84093 -3.86828,-1.42514 -7.69458,-2.83484 -11.76389,-4.33407 2.06404,-4.86346 5.29934,-4.38975 9.27192,-2.50686 z"
       id="path16-1"
       style="fill:#000000" /><path
       fill="#2ab0ed"
       opacity="1"
       stroke="none"
       d="m 138.95069,116.65807 c -7.2847,4.95013 -5.67275,-3.33322 -8.67021,-4.73376 0.39466,-0.55717 0.78932,-1.11434 1.18397,-1.67152 2.56386,2.04993 5.12772,4.09985 7.48624,6.40528 z"
       id="path18-0"
       style="fill:#000000" /></g><g
     id="g1267"
     transform="matrix(0.61224304,0,0,0.61224304,212.65551,-350.35476)"><g
       id="g2170"
       transform="matrix(0.3882498,0,0,0.3882498,387.22293,22.042429)"><path
         id="path1487"
         style="fill:#000000;stroke:#000000;stroke-width:3.77953;stop-color:#000000"
         d="m 3647.7422,1229.6699 c -2.4752,0.057 -4.9711,0.6048 -7.4375,1.375 -2.4665,0.7702 -4.9028,1.7645 -7.2559,2.7168 -0.8373,0.339 -1.7366,1.2486 -2.3965,2.2793 -0.6599,1.0307 -1.0819,2.1826 -0.9668,3 0.1026,0.7288 0.8921,1.5871 1.8868,2.2813 0.9946,0.6942 2.1954,1.2239 3.125,1.2949 4.7526,0.3622 9.5743,-0.1704 15.1777,-0.2285 4.4542,-1.1062 8.9082,-2.2136 14.1484,-3.4766 5.6665,-1.9984 11.3334,-3.9976 17,-5.9961 -0.089,-0.7221 -0.1788,-1.4439 -0.2675,-2.166 -5.5032,-0.2155 -11.0078,-0.5472 -16.5118,-0.7949 -5.5039,-0.2478 -11.0066,-0.4117 -16.5019,-0.2852 z" /><path
         id="path1485"
         style="fill:#000000;stroke:#000000;stroke-width:3.77953;stop-color:#000000"
         d="m 3280.1191,996.80469 c -22.1783,2.5057 -44.3645,4.77791 -66.5761,6.68751 -22.2116,1.9096 -44.4474,3.4575 -66.7266,4.5137 -11.1396,0.528 -22.2902,0.9327 -33.4531,1.1992 -11.163,0.2665 -22.3387,0.3944 -33.5293,0.3672 -11.1906,-0.027 -22.3966,-0.2094 -33.6192,-0.5625 -11.2225,-0.3532 -22.4619,-0.8767 -33.7207,-1.5879 4.2299,2.6125 8.3067,5.3224 12.3907,7.9082 4.084,2.5858 8.1756,5.0474 12.4394,7.164 2.9793,1.479 6.1682,2.6379 9.4375,3.5684 3.2693,0.9305 6.6201,1.6315 9.9258,2.1973 3.2574,0.5575 6.5768,0.8584 9.9121,1.0039 3.3353,0.1455 6.6852,0.1368 10.0059,0.072 19.1393,-0.3721 38.2725,-1.0851 57.4082,-1.6523 1.6018,-0.047 3.2064,-0.01 5.3691,-0.01 -0.8,1.2472 -0.9404,1.6893 -1.1113,1.7012 -10.9359,0.7595 -21.8742,1.4837 -32.8067,2.2109 -0.3239,2.2264 -0.4722,4.3619 -0.4472,6.3985 0.025,2.0366 0.2224,3.9747 0.584,5.8047 0.3615,1.8299 0.8882,3.5518 1.5742,5.1582 0.686,1.6063 1.5311,3.0971 2.5293,4.4629 0.9982,1.3657 2.1491,2.6066 3.4472,3.7148 1.2982,1.1082 2.7443,2.0842 4.3301,2.918 1.5859,0.8337 3.3125,1.526 5.1738,2.0683 1.8614,0.5423 3.856,0.9341 5.9805,1.168 1.7576,0.073 3.1882,0.054 4.3477,-0.098 1.1594,-0.1518 2.0475,-0.4364 2.7187,-0.8906 0.6712,-0.4542 1.1272,-1.0783 1.4199,-1.9121 0.2928,-0.8338 0.4231,-1.8773 0.4473,-3.168 0.8685,-0.5493 1.7368,-1.0988 3.2227,-1.5293 -0.4414,1.3389 -0.8829,2.6788 -1.3242,4.0176 0.2687,0.2771 0.538,0.553 0.8066,0.8301 2.2519,-2.1964 4.5034,-4.3913 7.3301,-7.1484 -2.4281,0 -3.7236,0 -4.666,-0.5332 0,0 0,0 0,0 0,0 0,0 0,0 0.7325,-0.7617 1.4644,-1.5232 2.8457,-2.2461 1.4365,-0.6896 2.8738,-1.3801 4.5742,-2.7305 1.6003,-4.7712 3.2018,-9.5408 5.5879,-14.3457 0.8866,0.01 1.6253,-0.082 2.2187,-0.2793 0.5934,-0.1973 1.0413,-0.5007 1.3438,-0.9121 0.3024,-0.4114 0.4588,-0.9305 0.4726,-1.5625 0.014,-0.632 -0.116,-1.3771 -0.3886,-2.2363 -0.1921,-0.6053 -0.2723,-1.2462 -0.2247,-1.9258 0.048,-0.6796 0.2244,-1.3983 0.5469,-2.1602 40.167,-8.4998 80.333,-16.9982 120.5,-25.49803 -0.099,-0.7151 -0.1982,-1.43138 -0.2969,-2.14648 z" /><path
         id="path1483"
         style="fill:#000000;stroke:#000000;stroke-width:3.77953;stop-color:#000000"
         d="m 3280.1191,996.80469 c 0.099,0.7151 0.1979,1.43138 0.2969,2.14648 -40.167,8.49983 -80.333,16.99823 -120.5,25.49803 -0.3225,0.7619 -0.4993,1.4806 -0.5469,2.1602 -0.048,0.6796 0.033,1.3205 0.2247,1.9258 0.2726,0.8592 0.4024,1.6043 0.3886,2.2363 -0.014,0.632 -0.1702,1.1511 -0.4726,1.5625 -0.3025,0.4114 -0.7504,0.7148 -1.3438,0.9121 -0.5934,0.1973 -1.3321,0.2895 -2.2187,0.2793 -2.3861,4.8049 -3.9876,9.5745 -5.5879,14.3457 -1.7004,1.3504 -3.1377,2.0409 -4.5742,2.7305 -1.3813,0.7229 -2.1132,1.4844 -2.8457,2.2461 0.9424,0.5318 2.2379,0.5332 4.666,0.5332 -2.8267,2.7571 -5.0782,4.952 -7.3301,7.1484 -0.2686,-0.2771 -0.5379,-0.553 -0.8066,-0.8301 0.4413,-1.3388 0.8828,-2.6787 1.3242,-4.0176 -1.4859,0.4305 -2.3542,0.98 -3.2227,1.5293 -0.024,1.2907 -0.1545,2.3342 -0.4473,3.168 -0.2927,0.8338 -0.7487,1.4579 -1.4199,1.9121 -0.6712,0.4542 -1.5593,0.7388 -2.7187,0.8906 -1.1595,0.1519 -2.5901,0.171 -4.3477,0.098 -2.1245,-0.2339 -4.1191,-0.6257 -5.9805,-1.168 -1.8613,-0.5423 -3.5879,-1.2346 -5.1738,-2.0683 -1.5858,-0.8338 -3.0319,-1.8098 -4.3301,-2.918 -1.2981,-1.1082 -2.449,-2.3491 -3.4472,-3.7148 -0.9982,-1.3658 -1.8433,-2.8566 -2.5293,-4.4629 -0.686,-1.6064 -1.2127,-3.3283 -1.5742,-5.1582 -0.3616,-1.83 -0.5591,-3.7681 -0.584,-5.8047 -0.025,-2.0366 0.1233,-4.1721 0.4472,-6.3985 10.9325,-0.7272 21.8708,-1.4514 32.8067,-2.2109 0.1709,-0.012 0.3113,-0.454 1.1113,-1.7012 -2.1627,0 -3.7673,-0.037 -5.3691,0.01 -19.1357,0.5672 -38.2689,1.2802 -57.4082,1.6523 -3.3207,0.065 -6.6706,0.073 -10.0059,-0.072 -3.3353,-0.1455 -6.6547,-0.4464 -9.9121,-1.0039 -3.3057,-0.5658 -6.6565,-1.2668 -9.9258,-2.1973 -3.2693,-0.9305 -6.4582,-2.0894 -9.4375,-3.5684 -4.2638,-2.1166 -8.3554,-4.5782 -12.4394,-7.164 -4.084,-2.5858 -8.1608,-5.2957 -12.3907,-7.9082 11.2588,0.7112 22.4982,1.2347 33.7207,1.5879 11.2226,0.3531 22.4286,0.5352 33.6192,0.5625 11.1906,0.027 22.3663,-0.1007 33.5293,-0.3672 11.1629,-0.2665 22.3135,-0.6712 33.4531,-1.1992 22.2792,-1.0562 44.515,-2.6041 66.7266,-4.5137 22.2116,-1.9096 44.3978,-4.18181 66.5761,-6.68751 z" /><path
         id="path1481"
         style="fill:#000000;stroke:#000000;stroke-width:3.77953;stop-color:#000000"
         d="m 3340.4844,990.9707 c -3.1523,0.5282 -6.3694,1.06787 -9.6289,1.71875 -3.2595,0.65089 -6.5609,1.41393 -9.8789,2.38867 -0.1166,2.27071 -0.2331,4.54031 -0.3184,6.20308 -1.8218,0.6923 -3.5147,1.2285 -5.082,1.7891 -1.5674,0.5606 -3.0087,1.1464 -4.3282,1.9356 -0.9062,0.542 -1.6425,1.367 -2.332,2.2714 -0.6894,0.9045 -1.3323,1.8882 -2.0508,2.7442 0.8371,0.6031 1.6327,1.3414 2.4532,2 0.8204,0.6585 1.6657,1.2366 2.5996,1.5156 5.6609,1.6915 11.4598,2.9219 17.5429,4.4141 v 12.4668 h 4.7032 v -12.6973 c 5.2056,-1.1884 9.9703,-2.0074 14.5468,-3.4316 1.1921,-0.371 2.3025,-1.0078 3.3887,-1.7188 1.0862,-0.7109 2.149,-1.4946 3.25,-2.1582 -0.9696,-0.9213 -1.8693,-2.1025 -2.8105,-3.1289 -0.9413,-1.0263 -1.9248,-1.8978 -3.0606,-2.2051 -1.7036,-0.4608 -3.1321,-1.0605 -4.3008,-1.8027 -1.1687,-0.7423 -2.077,-1.6275 -2.7402,-2.6641 -0.6632,-1.03657 -1.0805,-2.22444 -1.2676,-3.56833 -0.187,-1.34389 -0.1444,-2.84369 0.1153,-4.50781 0.039,-0.2492 -0.2688,-0.55266 -0.8008,-1.56446 z" /><path
         id="path1479"
         style="fill:#000000;stroke:#000000;stroke-width:3.77953;stop-color:#000000"
         d="m 3340.4844,990.9707 c 0.532,1.0118 0.8398,1.31526 0.8008,1.56446 -0.2597,1.66412 -0.3023,3.16392 -0.1153,4.50781 0.1871,1.34389 0.6044,2.53176 1.2676,3.56833 0.6632,1.0366 1.5715,1.9218 2.7402,2.6641 1.1687,0.7422 2.5972,1.3419 4.3008,1.8027 1.1358,0.3073 2.1193,1.1788 3.0606,2.2051 0.9412,1.0264 1.8409,2.2076 2.8105,3.1289 -1.101,0.6636 -2.1638,1.4473 -3.25,2.1582 -1.0862,0.711 -2.1966,1.3478 -3.3887,1.7188 -4.5765,1.4242 -9.3412,2.2432 -14.5468,3.4316 v 12.6973 h -4.7032 v -12.4668 c -6.0831,-1.4922 -11.882,-2.7226 -17.5429,-4.4141 -0.9339,-0.279 -1.7792,-0.8571 -2.5996,-1.5156 -0.8205,-0.6586 -1.6161,-1.3969 -2.4532,-2 0.7185,-0.856 1.3614,-1.8397 2.0508,-2.7442 0.6895,-0.9044 1.4258,-1.7294 2.332,-2.2714 1.3195,-0.7892 2.7608,-1.375 4.3282,-1.9356 1.5673,-0.5606 3.2602,-1.0968 5.082,-1.7891 0.085,-1.66277 0.2018,-3.93237 0.3184,-6.20308 3.318,-0.97474 6.6194,-1.73778 9.8789,-2.38867 3.2595,-0.65088 6.4766,-1.19055 9.6289,-1.71875 z" /><path
         id="path1477"
         style="fill:#000000;stroke:#000000;stroke-width:3.77953;stop-color:#000000"
         d="m 3778.0137,965.40234 c -1.2545,-0.111 -2.2182,0.0631 -2.9825,0.56836 -0.7642,0.50524 -1.3298,1.34204 -1.789,2.55469 -4.0614,10.7237 -8.3079,21.37647 -12.8418,32.74221 -0.758,2.0783 -1.5172,4.1571 -2.3047,6.3164 h 24.9512 c 0.5456,-14.21604 1.0779,-28.0958 1.6172,-42.1465 -2.6768,0 -4.6773,0.13944 -6.6504,-0.0352 z" /><path
         id="path1475"
         style="fill:#000000;stroke:#000000;stroke-width:3.77953;stop-color:#000000"
         d="m 3778.0137,965.40234 c 1.9731,0.1746 3.9736,0.0352 6.6504,0.0352 -0.5393,14.0507 -1.0716,27.93046 -1.6172,42.14646 h -24.9512 c 0.7875,-2.1593 1.5467,-4.2381 2.3047,-6.3164 4.5339,-11.3657 8.7804,-22.01847 12.8418,-32.74217 0.4592,-1.21265 1.0248,-2.04945 1.789,-2.55469 0.7643,-0.50523 1.728,-0.67936 2.9825,-0.56836 z" /><path
         id="path1473"
         style="fill:#000000;stroke:#000000;stroke-width:3.77953;stop-color:#000000"
         d="m 3794.7715,965.08789 c -0.637,-0.0718 -1.3974,-0.0311 -2.3145,0.12695 h -5.3808 c -1.0209,25.8938 -2.0139,51.06046 -3.0157,76.46876 6.8004,0 12.9429,0.137 19.0723,-0.072 1.1346,-0.039 2.5916,-0.1083 3.8516,-0.3359 1.2599,-0.2277 2.3221,-0.6117 2.6679,-1.2774 1.0808,-2.0802 2.7087,-3.9597 3.8477,-6.0585 0.5695,-1.0495 1.0173,-2.1528 1.2129,-3.3653 0.1956,-1.2124 0.1384,-2.5326 -0.2988,-4.0137 -5.6851,-19.2577 -11.0399,-38.61552 -16.3672,-57.97652 -0.3777,-1.3727 -0.8587,-2.37301 -1.7031,-2.95117 -0.4223,-0.28908 -0.9354,-0.47316 -1.5723,-0.54492 z" /><path
         id="path1471"
         style="fill:#000000;stroke:#000000;stroke-width:3.77953;stop-color:#000000"
         d="m 3794.7715,965.08789 c 0.6369,0.0718 1.15,0.25584 1.5723,0.54492 0.8444,0.57816 1.3254,1.57847 1.7031,2.95117 5.3273,19.361 10.6821,38.71882 16.3672,57.97652 0.4372,1.4811 0.4944,2.8013 0.2988,4.0137 -0.1956,1.2125 -0.6434,2.3158 -1.2129,3.3653 -1.139,2.0988 -2.7669,3.9783 -3.8477,6.0585 -0.3458,0.6657 -1.408,1.0497 -2.6679,1.2774 -1.26,0.2276 -2.717,0.2974 -3.8516,0.3359 -6.1294,0.2093 -12.2719,0.072 -19.0723,0.072 1.0018,-25.4083 1.9948,-50.57496 3.0157,-76.46876 h 5.3808 c 0.9171,-0.15802 1.6775,-0.19871 2.3145,-0.12695 z" /><path
         id="path1469"
         style="fill:#000000;stroke:#000000;stroke-width:3.77953;stop-color:#000000"
         d="m 3489.3359,953.50391 c -0.733,0.054 -1.4649,0.10827 -3.0839,0.043 -5.7368,0.74099 -11.4743,1.48036 -18.002,2.13476 -4.5383,1.53575 -9.153,2.90489 -13.7168,4.38477 -4.5638,1.47987 -9.0768,3.07133 -13.4102,5.05468 -1.5746,0.7207 -2.7649,1.47752 -3.6035,2.29688 -0.8386,0.81936 -1.3247,1.70154 -1.4922,2.67187 -0.1674,0.97033 -0.015,2.02951 0.4239,3.20313 0.4388,1.17362 1.1642,2.4614 2.1445,3.89062 9.6034,14.0014 19.0089,28.15078 28.9883,41.88088 47.7667,65.7191 95.6865,131.3266 143.5859,196.9492 5.0412,6.9063 10.3029,13.6516 15.0078,19.8711 2.3091,-1.7959 4.6431,-3.2724 6.9981,-4.4766 2.3549,-1.2042 4.7314,-2.1366 7.1269,-2.8437 2.3955,-0.7072 4.8096,-1.1897 7.2403,-1.4942 2.4306,-0.3045 4.8774,-0.4312 7.3379,-0.4277 4.9208,0.01 9.8965,0.5369 14.9043,1.209 5.0077,0.672 10.048,1.4874 15.0996,2.0683 -4.7942,-9.1312 -9.2922,-17.6394 -13.7383,-26.1738 -10.5646,-20.2797 -21.3097,-40.4719 -31.9297,-60.7246 -10.62,-20.2528 -21.115,-40.5661 -31.1738,-61.0938 -6.6486,-13.5681 -12.8906,-27.3603 -18.8067,-41.2949 -5.916,-13.9345 -11.5064,-28.0121 -16.8457,-42.1523 -1.4464,-3.8306 -3.1436,-7.29843 -5.0976,-10.44727 -1.9541,-3.14884 -4.1637,-5.97869 -6.6348,-8.52929 -2.4711,-2.55061 -5.2037,-4.82348 -8.2012,-6.85938 -2.9975,-2.0359 -6.2596,-3.83473 -9.7929,-5.43945 -2.7252,-1.2376 -5.3382,-2.72783 -8.0801,-3.92383 -5.3466,-2.3321 -10.7353,-4.5244 -16.3613,-6.25 -2.8131,-0.8628 -5.6863,-1.60928 -8.6426,-2.19727 -2.9564,-0.58798 -5.9959,-1.01699 -9.1446,-1.24804 -3.4573,0.026 -6.9152,0.052 -11.0996,-0.082 z" /><path
         id="path1467"
         style="fill:#000000;stroke:#000000;stroke-width:3.77953;stop-color:#000000"
         d="m 3489.3359,953.50391 c 4.1844,0.134 7.6423,0.10803 11.0996,0.082 3.1487,0.23105 6.1882,0.66006 9.1446,1.24804 2.9563,0.58799 5.8295,1.33447 8.6426,2.19727 5.626,1.7256 11.0147,3.9179 16.3613,6.25 2.7419,1.196 5.3549,2.68623 8.0801,3.92383 3.5333,1.60472 6.7954,3.40355 9.7929,5.43945 2.9975,2.0359 5.7301,4.30877 8.2012,6.85938 2.4711,2.5506 4.6807,5.38045 6.6348,8.52929 1.954,3.14884 3.6512,6.61667 5.0976,10.44727 5.3393,14.14026 10.9297,28.21786 16.8457,42.15236 5.9161,13.9346 12.1581,27.7268 18.8067,41.2949 10.0588,20.5277 20.5538,40.841 31.1738,61.0938 10.62,20.2527 21.3651,40.4449 31.9297,60.7246 4.4461,8.5344 8.9441,17.0426 13.7383,26.1738 -5.0516,-0.5809 -10.0919,-1.3963 -15.0996,-2.0683 -5.0078,-0.6721 -9.9835,-1.202 -14.9043,-1.209 -2.4605,0 -4.9073,0.1232 -7.3379,0.4277 -2.4307,0.3045 -4.8448,0.787 -7.2403,1.4942 -2.3955,0.7071 -4.772,1.6395 -7.1269,2.8437 -2.355,1.2042 -4.689,2.6807 -6.9981,4.4766 -4.7049,-6.2195 -9.9666,-12.9648 -15.0078,-19.8711 -47.8994,-65.6226 -95.8192,-131.2301 -143.5859,-196.9492 -9.9794,-13.7301 -19.3849,-27.87954 -28.9883,-41.88094 -0.9803,-1.42922 -1.7057,-2.717 -2.1445,-3.89062 -0.4389,-1.17362 -0.5913,-2.2328 -0.4239,-3.20313 0.1675,-0.97033 0.6536,-1.85251 1.4922,-2.67187 0.8386,-0.81936 2.0289,-1.57618 3.6035,-2.29688 4.3334,-1.98335 8.8464,-3.57481 13.4102,-5.05468 4.5638,-1.47988 9.1785,-2.84902 13.7168,-4.38477 6.5277,-0.6544 12.2652,-1.39377 18.002,-2.13476 1.619,0.0653 2.3509,0.011 3.0839,-0.043 z m 158.4063,276.16599 c 5.4953,-0.1265 10.998,0.037 16.5019,0.2852 5.504,0.2477 11.0086,0.5794 16.5118,0.7949 0.089,0.7221 0.1785,1.4439 0.2675,2.166 -5.6666,1.9985 -11.3335,3.9977 -17,5.9961 -5.2402,1.263 -9.6942,2.3704 -14.1484,3.4766 -5.6034,0.058 -10.4251,0.5907 -15.1777,0.2285 -0.9296,-0.071 -2.1304,-0.6007 -3.125,-1.2949 -0.9947,-0.6942 -1.7842,-1.5525 -1.8868,-2.2813 -0.1151,-0.8174 0.3069,-1.9693 0.9668,-3 0.6599,-1.0307 1.5592,-1.9403 2.3965,-2.2793 2.3531,-0.9523 4.7894,-1.9466 7.2559,-2.7168 2.4664,-0.7702 4.9623,-1.318 7.4375,-1.375 z"
         sodipodi:nodetypes="ccsssssssssssscsssssccssssssscccssccccsssssss" /><path
         id="path1465"
         style="fill:#000000;stroke:#000000;stroke-width:3.77953;stop-color:#000000"
         d="m 3865.8164,938.29102 c -23.6573,4.97525 -46.6583,9.8137 -69.8613,14.69336 2.8582,10.0999 5.5111,19.51658 8.1894,28.92578 9.6442,33.88074 19.2974,67.75884 28.8457,102.24214 0.4044,1.1219 0.8085,2.2439 1.3887,4.2051 6.0141,21.3639 12.0277,42.7275 18.1953,64.6367 24.9141,-0.616 49.2956,-1.2198 74.5293,-1.8437 -20.6888,-71.8568 -40.9716,-142.2992 -61.2871,-212.85938 z" /><path
         id="path1463"
         style="fill:#000000;stroke:#000000;stroke-width:3.77953;stop-color:#000000"
         d="m 3865.8164,938.29102 c 20.3155,70.56018 40.5983,141.00258 61.2871,212.85938 -25.2337,0.6239 -49.6152,1.2277 -74.5293,1.8437 -6.1676,-21.9092 -12.1812,-43.2728 -18.1953,-64.6367 -0.5802,-1.9612 -0.9843,-3.0832 -1.3887,-4.2051 -9.5483,-34.4833 -19.2015,-68.3614 -28.8457,-102.24214 -2.6783,-9.4092 -5.3312,-18.82588 -8.1894,-28.92578 23.203,-4.87966 46.204,-9.71811 69.8613,-14.69336 z" /><path
         id="path1461"
         style="fill:#000000;stroke:#000000;stroke-width:3.77953;stop-color:#000000"
         d="m 3920.5859,922.875 c -1.5264,-0.0167 -2.9188,0.19022 -4.1523,0.61523 -1.2336,0.42502 -2.308,1.06948 -3.1953,1.92774 -0.8873,0.85826 -1.5885,1.92983 -2.0762,3.21289 -0.4877,1.28306 -0.7621,2.77714 -0.7969,4.47656 2.9543,18.78329 5.9089,37.56631 8.8633,56.34961 0.4527,-0.055 0.9047,-0.10956 1.3574,-0.16406 z" /><path
         id="path1459"
         style="fill:#000000;stroke:#000000;stroke-width:3.77953;stop-color:#000000"
         d="m 3920.5859,922.875 v 66.41797 c -0.4527,0.0545 -0.9047,0.10906 -1.3574,0.16406 -2.9544,-18.7833 -5.909,-37.56632 -8.8633,-56.34961 0.035,-1.69942 0.3092,-3.1935 0.7969,-4.47656 0.4877,-1.28306 1.1889,-2.35463 2.0762,-3.21289 0.8873,-0.85826 1.9617,-1.50272 3.1953,-1.92774 1.2335,-0.42501 2.6259,-0.6319 4.1523,-0.61523 z" /><path
         id="path1457"
         style="fill:#000000;stroke:#000000;stroke-width:3.77953;stop-color:#000000"
         d="m 3361.0449,888.04297 c -1.5162,0.11289 -2.7321,0.20312 -4.2539,0.31641 0,7.4125 -3e-4,14.5056 0.4981,22.26171 h 3.7558 z" /><path
         id="path1453"
         style="fill:#000000;stroke:#000000;stroke-width:3.77953;stop-color:#000000"
         d="m 3396.6172,703.63477 c -2.5732,0.025 -5.1472,0.27459 -7.7227,0.81054 -2.5754,0.53596 -5.1535,1.35934 -7.7383,2.53125 1.6656,12.93377 3.157,25.64338 4.9668,38.3086 2.9661,20.75806 6.1396,41.48778 9.1153,63.04296 0.7471,3.40809 1.4943,6.8158 2.3164,10.25 0,0 -0.082,0.003 -0.4453,0.99219 1.3379,8.35147 2.5017,16.7367 4.0508,25.04883 3.2507,17.44257 6.6604,34.85599 10.1328,52.25586 0.1998,1.00112 0.2571,2.25845 0.6933,3.27344 0.2181,0.50749 0.5306,0.95371 1.0039,1.27734 0.4733,0.32364 1.1076,0.52418 1.9668,0.53906 -0.2882,0.48666 -0.5774,0.97468 -1.7871,1.62891 -16.3979,0.52362 -32.7956,1.04642 -49.2011,1.57031 -0.1811,3.13934 -0.3209,5.56338 -0.459,7.95703 h -9.293 v -7.18945 c -6.1505,0 -11.7937,0.0988 -17.4297,-0.0527 -1.0462,-0.0281 -2.1386,-0.0957 -3.2012,-0.26563 -1.0625,-0.16993 -2.0947,-0.44075 -3.0214,-0.875 -7.1994,-3.37351 -14.4972,-6.32829 -21.8907,-8.86133 -7.3934,-2.53304 -14.8826,-4.64435 -22.4609,-6.33593 -7.5783,-1.69159 -15.2461,-2.96335 -23,-3.8125 -7.7539,-0.84916 -15.5935,-1.27551 -23.5137,-1.28125 -11.649,-0.008 -23.3142,0.1272 -34.9687,0.49023 -11.6546,0.36303 -23.299,0.95186 -34.9082,1.8457 -4.8907,0.37657 -9.6485,1.21518 -14.2989,2.41211 -4.6503,1.19694 -9.1923,2.75296 -13.6464,4.56446 -4.4542,1.81149 -8.8209,3.87937 -13.1231,6.09961 -4.3022,2.22023 -8.54,4.59245 -12.7344,7.01562 -4.9966,2.88665 -9.9035,5.88448 -14.7304,8.98438 -4.827,3.09989 -9.5732,6.30233 -14.2461,9.5957 -9.3458,6.58674 -18.3993,13.5411 -27.2227,20.7832 -8.8234,7.2421 -17.4177,14.77234 -25.8437,22.51172 -8.426,7.73938 -16.6844,15.68705 -24.8379,23.76562 -2.2022,2.18201 -4.8883,3.87632 -7.6192,6.00782 1.9028,1.2825 3.9094,2.40043 6.0176,3.36133 2.1082,0.9608 4.3177,1.7643 6.625,2.414 2.3073,0.6497 4.7127,1.1471 7.2129,1.4961 2.5002,0.349 5.0965,0.5486 7.7832,0.6074 16.9174,0.3703 33.827,0.5678 50.7285,0.543 16.9015,-0.025 33.7943,-0.2703 50.6797,-0.7851 16.8854,-0.5149 33.7636,-1.2985 50.6328,-2.3985 16.8692,-1.0999 33.7292,-2.5167 50.582,-4.29683 29.8061,-3.14845 59.6435,-6.00847 89.4883,-8.78906 29.8449,-2.78059 59.6978,-5.4821 89.5371,-8.3164 8.6921,-0.82561 17.3749,-1.75115 26.2774,-2.65235 -1.2906,-2.2646 -2.2105,-4.20635 -2.7246,-5.91992 -0.5142,-1.71357 -0.623,-3.19913 -0.2969,-4.55078 0.3261,-1.35166 1.0883,-2.56919 2.3184,-3.74805 1.23,-1.17886 2.9271,-2.3185 5.125,-3.51367 2.5247,-1.37305 5.1691,-2.64082 7.8808,-3.71484 2.7117,-1.07403 5.4905,-1.95398 8.2871,-2.54883 5.1891,-1.1037 10.4302,-1.96499 15.7754,-2.72656 5.3452,-0.76158 10.7953,-1.42356 16.4024,-2.13086 0.739,-0.0768 1.4783,-0.15382 3.0175,-0.041 2.37,0.0381 4.7402,0.0753 7.8809,0.39062 0.8123,0.0185 1.6242,0.0374 3.2129,0.32032 5.393,0.7955 10.6151,1.9904 15.6933,3.52148 5.0783,1.53108 10.0125,3.39863 14.8301,5.54297 4.8177,2.14434 9.5177,4.56589 14.1289,7.20117 4.6113,2.63528 9.1328,5.48438 13.5918,8.48828 0.7889,0.53145 1.9123,0.96586 3.0313,1.17578 1.119,0.20993 2.2354,0.19523 3.0078,-0.16992 3.7709,-1.78255 7.5946,-3.26063 11.4687,-4.48047 3.8742,-1.21983 7.7986,-2.18163 11.7657,-2.93359 3.9671,-0.75196 7.9775,-1.29294 12.0273,-1.67187 4.0498,-0.37894 8.1395,-0.59457 12.2617,-0.69532 51.6258,-1.2617 103.2438,-2.81974 154.8672,-4.18164 8.4088,-0.2219 16.8274,-0.0312 25.7207,-0.0312 -1.2701,-4.6917 -2.2109,-8.17027 -3.2793,-12.11718 24.9134,-5.22889 49.5574,-10.4004 74.3203,-15.59766 1.2955,4.28912 2.4835,8.22034 4.0645,13.45508 7.7721,-2.89279 15.2561,-5.39994 22.4883,-8.4961 0.8328,-0.35653 1.547,-0.79546 2.1426,-1.32226 0.5955,-0.52681 1.0723,-1.14148 1.4335,-1.84571 0.3613,-0.70422 0.6065,-1.49791 0.7364,-2.38671 0.1298,-0.88881 0.1453,-1.87258 0.047,-2.95313 -0.4299,-4.71785 -0.6142,-9.45824 -0.6347,-14.20898 -0.021,-4.75075 0.1221,-9.51175 0.3457,-14.27149 0.3629,-0.004 0.7249,-0.008 1.1133,0.0996 0.3884,0.10748 0.8027,0.32741 1.2675,0.76953 v 24.78711 c 0.679,0.34311 1.3582,0.68619 2.0372,1.0293 3.2344,-2.27322 6.5038,-4.50006 9.6953,-6.83203 1.3813,-1.00934 2.6048,-1.77126 3.7285,-2.28516 1.1236,-0.5139 2.1475,-0.7786 3.1308,-0.79297 0.9834,-0.0144 1.9263,0.22168 2.8868,0.71094 0.9604,0.48926 1.9392,1.23153 2.9941,2.22852 6.7101,-2.22101 13.5328,-4.35075 20.2402,-6.80079 0.7244,-0.26462 1.595,-0.80638 2.291,-1.43164 0.6961,-0.62525 1.2176,-1.33477 1.2442,-1.93554 0.3272,-7.40972 0.1641,-14.84018 0.1641,-22.52735 -8.3941,-0.57664 -16.5725,-0.91284 -24.7422,-0.80859 -4.0849,0.0521 -8.1677,0.21462 -12.2735,0.51172 -4.1058,0.29709 -8.234,0.72842 -12.4121,1.32031 -0.6861,-0.0123 -1.3724,-0.0243 -2.0742,-0.15234 -0.7018,-0.12802 -1.419,-0.37255 -2.168,-0.84766 0.036,-6.33966 0.071,-12.67883 0.7207,-19.1582 -0.174,-0.97507 -0.3485,-1.95062 -0.6347,-3.66211 -0.9187,-0.95263 -1.9025,-1.77142 -2.9395,-2.45117 -1.037,-0.67976 -2.1274,-1.21944 -3.2578,-1.61133 -1.1304,-0.3919 -2.3012,-0.63753 -3.5,-0.72656 -1.1988,-0.089 -2.4257,-0.0218 -3.668,0.20703 -8.7632,1.61407 -17.3964,3.94208 -26.0488,6.11523 -0.8502,0.21356 -1.4501,1.42846 -2.7148,2.22656 -0.6525,0.60941 -1.3044,1.21783 -2.7637,1.69922 -11.2517,-1.41526 -22.4965,-2.52931 -33.7383,-3.26172 -11.2418,-0.73241 -22.4806,-1.0828 -33.7207,-0.96875 -5.62,0.057 -11.2402,0.22998 -16.8613,0.5293 -5.6212,0.29932 -11.2439,0.72504 -16.8672,1.28711 -5.6233,0.56207 -11.2486,1.2602 -16.875,2.10547 -5.6264,0.84526 -11.2542,1.83741 -16.8848,2.98633 v 18.17968 c -1.0175,0.1242 -1.6582,0.25415 -2.3027,0.27344 -25.1517,0.75299 -50.3042,1.46521 -75.4551,2.24805 -23.4792,0.7308 -46.9569,1.53433 -71.334,2.14648 -3.397,0.27643 -6.794,0.55395 -10.9218,0.61914 -0.7552,0.0338 -1.51,0.0667 -2.9258,-0.16406 -5.1506,0.23605 -10.3016,0.47162 -16.3262,0.5332 -28.3268,0.84769 -56.6541,1.69635 -84.9707,1.94336 0,-0.59912 0,-1.19884 0.8867,-2.11132 22.6805,-0.47851 45.36,-0.95613 68.8242,-1.45118 -1.2218,-2.07733 -1.7777,-3.087 -2.3925,-4.05859 -8.8921,-14.05287 -17.4413,-28.2872 -25.6817,-42.68359 -8.2404,-14.3964 -16.1715,-28.95569 -23.8281,-43.65821 -7.6567,-14.70251 -15.0389,-29.5483 -22.1797,-44.51953 -7.1408,-14.97123 -14.0396,-30.06699 -20.7324,-45.26953 -0.755,-1.71505 -1.5767,-3.23634 -2.4903,-4.57812 -0.9135,-1.34179 -1.92,-2.50368 -3.0468,-3.50391 -1.1269,-1.00023 -2.3728,-1.8389 -3.7676,-2.5293 -1.3948,-0.69039 -2.9388,-1.23225 -4.6563,-1.64453 -2.5896,-0.62165 -5.1701,-1.14503 -7.748,-1.50586 -2.5779,-0.36083 -5.1514,-0.56019 -7.7246,-0.53515 z" /></g><path
       fill="#0fabec"
       opacity="1"
       stroke="none"
       d="m 1648.5568,476.51453 c -5.3251,-1.93559 -10.2703,-3.7733 -15.2984,-5.64177 5.7914,-7.49029 8.4596,-8.27159 16.722,-5.20433 7.6042,2.82291 15.2272,5.59517 23.2029,8.52223 -0.5868,3.41541 -1.1386,6.62711 -1.8302,10.65316 -7.6613,-2.81327 -15.0388,-5.52234 -22.7963,-8.32929 z"
       id="path6-7-4"
       style="fill:#000000" /><path
       fill="#14acec"
       opacity="1"
       stroke="none"
       d="m 1713.2832,465.55942 c 6.5187,-3.6659 9.0901,1.76734 13.6988,5.06182 -7.7136,3.08052 -14.6216,5.83932 -22.0033,8.7873 -1.4422,-2.98339 -2.7605,-5.71023 -4.2877,-8.86944 4.3372,-1.72354 8.2773,-3.28929 12.5922,-4.97968 z"
       id="path10-6-5"
       style="fill:#000000" /><path
       fill="#19adec"
       opacity="1"
       stroke="none"
       d="m 1655.4252,452.59356 c 1.9936,-0.16095 3.806,-0.45885 5.3851,0.0172 3.4682,1.0455 6.8089,2.50827 10.2188,3.75378 5.6036,2.04685 5.7633,2.42261 2.9254,8.83213 -7.4289,-2.69022 -14.9086,-5.39881 -23.4016,-8.47431 1.9941,-1.70242 3.2897,-2.80856 4.8723,-4.12878 z"
       id="path12-0-1"
       style="fill:#000000" /><path
       fill="#1daeec"
       opacity="1"
       stroke="none"
       d="m 1704.709,458.91117 c -2.7914,1.0585 -5.2426,1.97084 -8.0901,3.03065 -0.9913,-2.07426 -1.8855,-3.9454 -2.7465,-5.74705 7.0669,-5.21947 9.0329,-5.14427 14.9827,0.70866 -1.3792,0.67467 -2.5925,1.26813 -4.1461,2.00774 z"
       id="path14-0-5"
       style="fill:#000000" /><path
       fill="#20aeed"
       opacity="1"
       stroke="none"
       d="m 1673.9533,444.31623 c 4.4173,1.0406 4.0695,3.53979 2.4919,6.84093 -3.8683,-1.42514 -7.6946,-2.83484 -11.7639,-4.33407 2.0641,-4.86346 5.2994,-4.38975 9.272,-2.50686 z"
       id="path16-1-9"
       style="fill:#000000" /><path
       fill="#2ab0ed"
       opacity="1"
       stroke="none"
       d="m 1695.3584,446.9222 c -7.2847,4.95013 -5.6728,-3.33322 -8.6702,-4.73376 0.3946,-0.55717 0.7893,-1.11434 1.184,-1.67152 2.5638,2.04993 5.1277,4.09985 7.4862,6.40528 z"
       id="path18-0-7"
       style="fill:#000000" /></g></g></svg>
