<?xml version="1.0" encoding="UTF-8" standalone="no"?>
<svg
   version="1.1"
   id="Layer_1"
   x="0px"
   y="0px"
   width="308.34326"
   viewBox="0 0 308.34326 321.91718"
   enable-background="new 0 0 321 380"
   xml:space="preserve"
   sodipodi:docname="mh.svg"
   height="321.91718"
   inkscape:version="1.1 (c68e22c387, 2021-05-23)"
   xmlns:inkscape="http://www.inkscape.org/namespaces/inkscape"
   xmlns:sodipodi="http://sodipodi.sourceforge.net/DTD/sodipodi-0.dtd"
   xmlns="http://www.w3.org/2000/svg"
   xmlns:svg="http://www.w3.org/2000/svg"><defs
   id="defs71" /><sodipodi:namedview
   id="namedview69"
   pagecolor="#ffffff"
   bordercolor="#666666"
   borderopacity="1.0"
   inkscape:pageshadow="2"
   inkscape:pageopacity="0.0"
   inkscape:pagecheckerboard="0"
   showgrid="false"
   inkscape:zoom="1.4923675"
   inkscape:cx="160.48326"
   inkscape:cy="122.28892"
   inkscape:window-width="1920"
   inkscape:window-height="991"
   inkscape:window-x="-9"
   inkscape:window-y="-9"
   inkscape:window-maximized="1"
   inkscape:current-layer="Layer_1" />

































<g
   id="g1377"><g
     id="g1133"
     transform="translate(-12.197186,-49.695759)"><path
       fill="#383838"
       opacity="1"
       stroke="none"
       d="m 30.273945,209.76269 c 93.638675,4e-5 186.805295,-5.9e-4 279.971905,0.003 2.16583,9e-5 4.54925,-0.50647 6.43246,0.23542 1.6738,0.65939 3.84607,2.71528 3.86203,4.17593 0.0161,1.47496 -2.12799,3.3275 -3.74698,4.34293 -1.09436,0.68637 -2.91799,0.24806 -4.41543,0.24815 -95.49994,0.006 -190.99989,0.005 -286.499827,0.003 -1.49992,-3e-5 -3.328096,0.5154 -4.426143,-0.15487 -1.846566,-1.12719 -3.22913,-3.01448 -4.806883,-4.58203 1.552429,-1.40741 2.905081,-3.56656 4.704452,-4.04476 2.65037,-0.70434 5.619177,-0.21046 8.924416,-0.22681 z"
       id="path6" /><path
       fill="#353535"
       opacity="1"
       stroke="none"
       d="m 185.76858,262.89523 c -11.55554,7.46531 -19.9105,18.0398 -27.9111,28.91959 -6.22473,8.46484 -12.19281,17.1033 -21.63641,22.4834 -6.64835,3.78772 -13.67887,5.9736 -21.36992,5.966 -30.153694,-0.0297 -60.307468,-0.0107 -90.461027,-0.0852 -3.441524,-0.009 -8.380453,1.07974 -8.210523,-4.38208 0.146108,-4.69617 4.589315,-4.5488 8.235901,-4.54569 29.987041,0.0256 59.974186,10e-4 89.961099,0.0727 12.37893,0.0295 21.50476,-6.03164 29.01306,-15.16708 8.34226,-10.15012 15.89763,-21.05029 25.01813,-30.43591 18.83008,-19.37746 42.6478,-27.84119 69.36028,-28.28278 19.15341,-0.3166 38.31579,-0.0756 57.47412,-0.11973 3.30011,-0.008 6.41284,0.61029 6.3309,4.57635 -0.0804,3.89198 -3.14209,4.44238 -6.47376,4.46127 -21.81729,0.12366 -43.64833,-0.073 -65.44589,0.67708 -14.52496,0.49982 -28.03657,5.3113 -40.87097,13.52457 -1.35593,0.99389 -2.18491,1.66571 -3.01389,2.33752 z"
       id="path8" /><path
       fill="#373737"
       opacity="1"
       stroke="none"
       d="m 169.91457,344.22653 c 3.74392,1.32691 7.48785,2.65378 11.82977,4.2594 1.43332,0.49976 2.26864,0.7208 3.10396,0.9418 7.80061,3.14985 15.60121,6.29966 24.07058,9.62464 1.80751,0.39541 2.94625,0.61569 4.085,0.83594 6.39979,0.8374 12.78985,2.29666 19.2012,2.39721 20.31178,0.31848 40.63153,0.12729 60.94821,0.14047 1.49716,9.8e-4 3.2999,-0.45333 4.41901,0.21326 1.63269,0.97241 3.81875,2.76221 3.8294,4.21778 0.0106,1.44033 -2.19803,3.18197 -3.79767,4.24087 -0.94033,0.62253 -2.59075,0.19989 -3.92181,0.20041 -15.32077,0.006 -30.66931,-0.58331 -45.95584,0.14004 -22.77959,1.07792 -44.29997,-2.79617 -64.89291,-12.72113 -14.32583,-6.90448 -29.71036,-9.1726 -45.60618,-9.09085 -39.300105,0.20206 -78.601943,0.075 -117.903073,0.0579 -5.596483,-0.002 -8.052818,-2.03543 -6.812036,-5.78476 0.403892,-1.22042 1.891868,-2.40676 3.162822,-2.92535 1.302872,-0.53155 2.947067,-0.27963 4.441893,-0.27988 39.800726,-0.007 79.603098,-0.19516 119.400944,0.14515 9.23913,0.079 18.4628,1.96655 28.38035,3.16339 1.12998,0.16891 1.57318,0.19632 2.01638,0.22375 z"
       id="path10" /><path
       fill="#343434"
       opacity="1"
       stroke="none"
       d="m 265.14642,334.82172 c -15.50839,-2.69672 -30.64785,-4.9155 -45.55433,-8.19376 -8.45942,-1.86041 -16.07314,-6.18353 -22.41791,-12.47064 -9.6142,-9.5268 -9.53423,-30.34387 7.51071,-35.41406 10.59085,-3.15036 21.6351,-5.83912 32.60046,-6.43253 19.09639,-1.03342 38.28917,-0.25659 57.4413,-0.3161 3.44947,-0.0107 6.8812,0.36743 6.83976,4.57107 -0.0423,4.28476 -3.63489,4.39585 -6.98905,4.38883 -18.65262,-0.0391 -37.32684,-0.54944 -55.94908,0.20425 -9.52594,0.38553 -19.0267,2.76511 -28.40581,4.84363 -4.89763,1.08539 -9.31434,3.47623 -10.21823,9.54041 -0.97818,6.56259 1.26352,12.09112 6.6967,14.96289 7.85314,4.15088 16.14884,7.94146 24.70125,10.19446 18.60519,4.90118 37.78961,5.78805 56.97598,6.02169 1.7872,0.0218 3.9711,-0.0388 5.23474,0.91449 1.15632,0.87232 2.24067,3.5701 1.70078,4.56296 -0.8497,1.56253 -3.08026,3.32202 -4.74033,3.33609 -8.31762,0.0707 -16.63983,-0.39935 -25.42694,-0.71368 z"
       id="path12" /><path
       fill="#343434"
       opacity="1"
       stroke="none"
       d="m 238.00153,355.94656 c -6.05921,-0.55966 -12.11841,-1.11935 -18.94098,-1.75299 -1.52747,-0.15728 -2.29157,-0.24063 -3.05567,-0.32394 -0.47957,-0.55094 -0.95915,-1.1019 -1.72433,-2.18646 -0.24292,-1.90131 -0.20021,-3.26899 -0.15752,-4.63666 1.9774,-0.60526 3.98142,-1.80795 5.92801,-1.72125 15.62262,0.69592 31.23152,1.69485 46.85185,2.4515 3.25879,0.15784 5.89286,1.01273 5.68756,4.61679 -0.18658,3.27558 -2.57943,3.86411 -5.76889,3.73264 -7.95349,-0.32782 -15.92814,-0.14279 -24.74723,-0.20288 -1.92623,-0.0184 -2.99952,0.002 -4.0728,0.0232 z"
       id="path24" /><path
       fill="#353535"
       opacity="1"
       stroke="none"
       d="m 170.99335,336.24744 c -2.97719,-0.20182 -6.0998,0.0755 -8.88201,-0.7688 -1.95271,-0.59256 -3.44149,-2.71381 -5.13746,-4.15241 1.59996,-1.55166 3.13043,-4.36548 4.81074,-4.45797 15.32598,-0.84379 29.17415,4.02008 41.89746,12.21929 1.23436,0.79551 2.34426,4.16953 1.73754,4.92887 -1.18125,1.47839 -3.62082,1.95135 -6.09244,2.54339 -1.09847,-0.50979 -1.64371,-0.72226 -2.18897,-0.93472 -7.71565,-3.06335 -15.43132,-6.12674 -23.81338,-9.30942 -1.22142,-0.10229 -1.77646,-0.0853 -2.33148,-0.0682 z"
       id="path26" /><path
       fill="#3a3a3a"
       opacity="1"
       stroke="none"
       d="m 65.786331,335.3356 c -12.262386,0.1391 -24.529255,0.48123 -36.782629,0.21112 -1.969364,-0.0434 -5.353912,-2.70529 -5.482021,-4.35843 -0.211088,-2.72381 2.273931,-4.57486 5.680811,-4.53357 11.110637,0.13468 22.223903,0.0645 33.336128,0.0494 3.694046,-0.005 5.53186,1.75055 5.18222,6.02124 -0.792312,1.23096 -1.36341,1.92062 -1.934509,2.61029 z"
       id="path28" /><path
       fill="#363636"
       opacity="1"
       stroke="none"
       d="m 200.3743,269.80054 c -1.04962,1.56717 -1.82778,3.37292 -3.12078,3.88907 -9.70509,3.87454 -14.82896,11.3294 -17.21815,21.10553 -0.8705,3.56185 -3.23171,5.47784 -6.5222,3.53326 -1.40174,-0.82843 -2.4465,-4.03473 -2.06043,-5.81494 1.9171,-8.83997 6.17018,-16.50824 13.52355,-22.03559 2.76408,-2.07766 5.85141,-3.97753 9.08891,-5.10122 3.15013,-1.09336 6.01675,-0.0793 6.3091,4.42389 z"
       id="path30" /><path
       fill="#353535"
       opacity="1"
       stroke="none"
       d="m 216.83481,261.57965 c -1.17766,-2.06821 -2.85912,-4.25668 -2.41965,-5.86597 0.35437,-1.2976 3.252,-2.63931 5.0517,-2.68208 10.60888,-0.25215 21.22688,-0.0908 31.84126,-0.15724 3.17557,-0.0198 5.79787,0.65738 5.92058,4.379 0.12439,3.77279 -2.4852,4.63632 -5.65895,4.61984 -11.44083,-0.0595 -22.88172,-0.1098 -34.73494,-0.29355 z"
       id="path32" /><path
       fill="#3c3c3c"
       opacity="1"
       stroke="none"
       d="m 71.133957,332.66171 c 0.448044,-4.05566 2.425018,-6.01629 6.783485,-5.74887 4.815094,0.29547 9.699555,-0.27954 14.477654,0.23364 1.968201,0.21134 3.7378,2.27198 5.597717,3.49149 -1.434685,1.70642 -2.869362,3.41284 -4.975006,5.13202 -1.119858,0.0832 -1.568764,0.15369 -2.01767,0.22415 -5.400146,-0.26181 -10.8003,-0.52359 -16.763305,-1.14505 -1.409539,-0.9689 -2.256203,-1.57816 -3.102875,-2.18738 z"
       id="path34" /><path
       fill="#f9f9f9"
       opacity="1"
       stroke="none"
       d="m 71.071945,333.04654 c 0.908684,0.22439 1.755348,0.83365 2.759659,1.72177 -0.702087,1.34656 -1.561798,2.41422 -2.421509,3.48184 -0.437675,-0.30288 -0.875351,-0.60577 -1.313019,-0.90866 0.304284,-1.30337 0.608567,-2.60675 0.974869,-4.29495 z"
       id="path36" /><path
       fill="#f9f9f9"
       opacity="1"
       stroke="none"
       d="m 213.77119,347.06369 c 0.30915,1.35049 0.26644,2.71817 0.26159,4.49823 -3.03017,-0.83933 -4.56965,-2.29446 -0.26159,-4.49823 z"
       id="path38" /><path
       fill="#f9f9f9"
       opacity="1"
       stroke="none"
       d="m 212.99344,359.52524 c -1.12831,0.14282 -2.26705,-0.0775 -3.70073,-0.4906 0.50269,-0.77848 1.24225,-1.6265 2.12616,-1.82209 0.35997,-0.0796 1.03335,1.25724 1.57457,2.31269 z"
       id="path40" /><path
       fill="#f9f9f9"
       opacity="1"
       stroke="none"
       d="m 65.942978,335.67902 c 0.414452,-1.03309 0.98555,-1.72275 1.787826,-2.55237 0.419449,0.97394 0.607727,2.0878 0.796006,3.20169 -0.809067,-0.10196 -1.618126,-0.20392 -2.583832,-0.64932 z"
       id="path42" /><path
       fill="#f9f9f9"
       opacity="1"
       stroke="none"
       d="m 238.05691,356.29352 c 1.0179,-0.3678 2.09119,-0.38861 3.555,-0.30084 -0.55852,2.79663 -1.89673,2.67694 -3.555,0.30084 z"
       id="path44" /><path
       fill="#f9f9f9"
       opacity="1"
       stroke="none"
       d="m 184.85794,349.05905 c -0.84496,0.14768 -1.68028,-0.0734 -2.74045,-0.52969 0.76682,-0.10318 1.75844,0.0289 2.74045,0.52969 z"
       id="path48" /><path
       fill="#f9f9f9"
       opacity="1"
       stroke="none"
       d="m 216.03799,354.19778 c 0.73099,-0.24484 1.49509,-0.16149 2.61643,0.066 -0.62293,0.18351 -1.60314,0.22281 -2.61643,-0.066 z"
       id="path50" /><path
       fill="#ededed"
       opacity="1"
       stroke="none"
       d="m 186.15285,262.92578 c 0.44471,-0.70236 1.27369,-1.37418 2.42607,-2.09888 -0.46501,0.6745 -1.25342,1.40195 -2.42607,2.09888 z"
       id="path52" /><path
       fill="#f9f9f9"
       opacity="1"
       stroke="none"
       d="m 91.037148,336.29315 c 0.411895,-0.36947 0.860801,-0.43994 1.636405,-0.39648 0.09067,0.63022 -0.14537,1.14654 -0.381393,1.66284 -0.406006,-0.32248 -0.812004,-0.64496 -1.255012,-1.26636 z"
       id="path54" /><path
       fill="#f9f9f9"
       opacity="1"
       stroke="none"
       d="m 171.05502,336.54916 c 0.49335,-0.31875 1.04839,-0.33578 1.85309,-0.22006 -0.43069,0.26242 -1.11107,0.39212 -1.85309,0.22006 z"
       id="path56" /><path
       fill="#f9f9f9"
       opacity="1"
       stroke="none"
       d="m 169.91226,343.92053 c -0.44089,0.27857 -0.88409,0.25116 -1.62149,0.0597 -2.7e-4,-0.63743 0.29369,-1.11084 0.58765,-1.58426 0.34384,0.40619 0.6877,0.81234 1.03384,1.52456 z"
       id="path58" /><path
       fill="#f9f9f9"
       opacity="1"
       stroke="none"
       d="m 197.1232,345.9563 c 0.56027,-0.11875 1.10551,0.0937 1.80739,0.55749 -0.50307,0.0921 -1.16274,-0.0671 -1.80739,-0.55749 z"
       id="path60" /><path
       fill="#ededed"
       opacity="1"
       stroke="none"
       d="m 173.46533,281.44824 c 0.0582,-0.0356 -0.0582,0.0356 0,0 z"
       id="path62" /></g><path
     fill="#0d0d0d"
     opacity="1"
     stroke="none"
     d="M 77.05733,109.44633 C 68.60385,111.60612 60.56334,113.7 52.10257,111.84353 43.37641,109.92885 39.71445,103.24361 44.0046,95.51502 46.80363,90.47264 50.51657,85.872457 54.25504,81.441106 56.499,78.781263 56.98269,76.841871 55.19275,73.633352 46.54123,58.125181 38.18178,42.454187 29.7036,26.849168 25.59925,19.29465 26.46071,13.89938 33.23781,8.53498 36.98197,5.57131 41.20585,3.21369 46.10138,0 c 0.30352,7.31528 5.89122,9.13498 10.38831,11.93496 17.34586,10.7999 34.75049,21.505399 52.76974,32.63939 -7.35955,5.963326 -14.43892,11.699635 -21.5183,17.43594 0.23514,0.372612 0.47028,0.745216 0.70542,1.117821 2.06945,-0.860543 4.14656,-1.703187 6.20707,-2.584656 10.35286,-4.428932 20.66812,-8.948166 31.06742,-13.265007 4.30075,-1.785282 9.03835,-1.595818 12.10343,1.866607 4.76077,5.377961 11.10627,6.388909 17.33665,7.739983 35.18269,7.629478 70.36041,15.295273 105.64081,22.450821 8.06091,1.634903 16.59796,1.780876 24.76651,-5.112885 -0.86963,3.709412 -0.97842,6.239235 -2.03101,8.28299 -3.40616,6.613606 -6.74655,13.327366 -10.89865,19.471096 -3.85269,5.70078 -10.20245,7.29898 -16.80765,6.83975 -12.62254,-0.87758 -25.22245,-2.07686 -37.835,-3.10282 -19.41309,-1.57917 -38.82996,-3.1118 -58.24307,-4.69063 -8.62842,-0.70174 -17.26639,-1.32779 -25.87391,-2.23582 -15.29085,-1.61304 -30.18454,-0.98301 -44.30631,6.10494 -3.81963,1.91713 -8.0806,2.95499 -12.51551,4.55385 z"
     id="path4-7"
     style="fill:#000000" /><path
     fill="#0fabec"
     opacity="1"
     stroke="none"
     d="m 92.14914,146.2504 c -5.32513,-1.93559 -10.27039,-3.7733 -15.29845,-5.64177 5.79139,-7.49029 8.45962,-8.27159 16.72204,-5.20433 7.60417,2.82291 15.22712,5.59517 23.20288,8.52223 -0.58678,3.41541 -1.13857,6.62711 -1.83025,10.65316 -7.66127,-2.81327 -15.0388,-5.52234 -22.79622,-8.32929 z"
     id="path6-7"
     style="fill:#000000" /><path
     fill="#222222"
     opacity="1"
     stroke="none"
     d="m 135.02144,36.124784 c -3.68368,0.305367 -6.97236,0.670849 -11.58562,1.18354 7.20061,-5.499404 13.83404,-6.834827 20.90371,-3.725883 7.43994,3.271778 11.34939,9.276459 12.07828,17.695404 -3.46346,0.896225 -6.52884,0.687546 -7.68473,-3.052589 -2.09132,-6.767018 -6.8717,-10.248364 -13.71164,-12.100472 z"
     id="path8-0"
     style="fill:#000000" /><path
     fill="#14acec"
     opacity="1"
     stroke="none"
     d="m 156.87549,135.29529 c 6.51868,-3.6659 9.09009,1.76734 13.69885,5.06182 -7.7136,3.08052 -14.62165,5.83932 -22.00337,8.7873 -1.44221,-2.98339 -2.76042,-5.71023 -4.28763,-8.86944 4.33719,-1.72354 8.27727,-3.28929 12.59215,-4.97968 z"
     id="path10-6"
     style="fill:#000000" /><path
     fill="#19adec"
     opacity="1"
     stroke="none"
     d="m 99.01752,122.32943 c 1.99361,-0.16095 3.806,-0.45885 5.38509,0.0172 3.46816,1.0455 6.80889,2.50827 10.21877,3.75378 5.60364,2.04685 5.76328,2.42261 2.92544,8.83213 -7.42896,-2.69022 -14.90867,-5.39881 -23.40162,-8.47431 1.99405,-1.70242 3.28966,-2.80856 4.87232,-4.12878 z"
     id="path12-0"
     style="fill:#000000" /><path
     fill="#1daeec"
     opacity="1"
     stroke="none"
     d="m 148.30133,128.64704 c -2.79144,1.0585 -5.24264,1.97084 -8.0901,3.03065 -0.99129,-2.07426 -1.8855,-3.9454 -2.7465,-5.74705 7.06684,-5.21947 9.03288,-5.14427 14.98266,0.70866 -1.37924,0.67467 -2.59253,1.26813 -4.14606,2.00774 z"
     id="path14-0"
     style="fill:#000000" /><path
     fill="#20aeed"
     opacity="1"
     stroke="none"
     d="m 117.54555,114.0521 c 4.41736,1.0406 4.06957,3.53979 2.49197,6.84093 -3.86828,-1.42514 -7.69458,-2.83484 -11.76389,-4.33407 2.06404,-4.86346 5.29934,-4.38975 9.27192,-2.50686 z"
     id="path16-1"
     style="fill:#000000" /><path
     fill="#2ab0ed"
     opacity="1"
     stroke="none"
     d="m 138.95069,116.65807 c -7.2847,4.95013 -5.67275,-3.33322 -8.67021,-4.73376 0.39466,-0.55717 0.78932,-1.11434 1.18397,-1.67152 2.56386,2.04993 5.12772,4.09985 7.48624,6.40528 z"
     id="path18-0"
     style="fill:#000000" /></g></svg>
