<?xml version="1.0" encoding="UTF-8" standalone="no"?>
<svg
   version="1.1"
   id="Layer_1"
   x="0px"
   y="0px"
   width="568.06927"
   viewBox="0 0 568.06927 578.7547"
   enable-background="new 0 0 600 436"
   xml:space="preserve"
   sodipodi:docname="sd.svg"
   height="578.7547"
   inkscape:version="1.1 (c68e22c387, 2021-05-23)"
   xmlns:inkscape="http://www.inkscape.org/namespaces/inkscape"
   xmlns:sodipodi="http://sodipodi.sourceforge.net/DTD/sodipodi-0.dtd"
   xmlns="http://www.w3.org/2000/svg"
   xmlns:svg="http://www.w3.org/2000/svg"><defs
   id="defs35" /><sodipodi:namedview
   id="namedview33"
   pagecolor="#ffffff"
   bordercolor="#666666"
   borderopacity="1.0"
   inkscape:pageshadow="2"
   inkscape:pageopacity="0.0"
   inkscape:pagecheckerboard="0"
   showgrid="false"
   inkscape:zoom="0.58715596"
   inkscape:cx="355.10156"
   inkscape:cy="225.66406"
   inkscape:window-width="1366"
   inkscape:window-height="697"
   inkscape:window-x="-8"
   inkscape:window-y="-8"
   inkscape:window-maximized="1"
   inkscape:current-layer="Layer_1" />















<g
   id="g1734"
   transform="translate(-16.867613,165.0863)"><path
     fill="#010101"
     opacity="1"
     stroke="none"
     d="m 169.00034,413.6684 c -6.79667,0 -13.0935,0 -19.82824,0 0,-39.04194 0,-77.60889 0,-116.60266 -7.84582,0 -15.26101,0 -23.04856,0 0,-10.47773 0,-20.5391 0,-30.96882 108.65461,0 217.49285,0 326.57885,0 0,10.08225 0,20.02866 0,30.57563 -7.47461,0 -15.02981,0 -23.03647,0 0,39.15988 0,77.72561 0,116.99588 -87.03299,0 -173.59936,0 -260.66558,-3e-5 z"
     id="path4" /><path
     fill="#020202"
     opacity="1"
     stroke="none"
     d="m 195.24808,29.672501 c 7.23863,5.877353 10.20132,13.213276 10.16299,22.129142 -0.11743,27.320282 -0.017,54.641437 -0.0447,81.962197 -0.0173,17.07823 -10.64342,27.59413 -27.83412,27.64267 -1.96486,0.006 -3.92975,7.6e-4 -6.30385,7.6e-4 0,11.37778 0,22.28734 0,34.22629 -2.34975,-1.5087 -3.96346,-2.51231 -5.54447,-3.56499 -14.13446,-9.41099 -28.20935,-18.91353 -42.45002,-28.16076 -2.20274,-1.43035 -5.15251,-2.38311 -7.76574,-2.40334 -23.654406,-0.18327 -47.310847,-0.0846 -70.966613,-0.11986 -17.093368,-0.0255 -27.610923,-10.63243 -27.62195,-27.82034 -0.01742,-27.1542 -0.01594,-54.308434 0.0052,-81.462635 0.01328,-17.090298 10.65131,-27.73694 27.752539,-27.744486 44.313,-0.01955 88.626054,0.01968 132.939004,-0.03569 6.35845,-0.0079 12.21428,1.305807 17.67179,5.351046 M 140.4877,103.03167 c -1.04417,0.51589 -2.09231,1.02391 -3.13176,1.54915 -3.19612,1.61499 -5.2182,3.9965 -3.42897,7.60649 1.71263,3.45546 4.80972,3.07636 7.78113,1.72171 10.59569,-4.83054 21.22317,-9.59972 31.68764,-14.701836 1.83473,-0.894554 4.16296,-3.349457 4.07209,-4.960129 -0.10992,-1.948715 -2.18074,-4.379257 -4.05963,-5.514313 -4.10733,-2.481315 -8.61558,-4.305816 -12.98565,-6.343773 -6.48336,-3.023475 -12.87476,-6.305542 -19.55886,-8.797386 -1.85452,-0.691368 -5.47818,0.287155 -6.74986,1.796936 -2.14465,2.546166 -0.54057,5.346428 2.19493,7.067414 1.40106,0.881454 2.93286,1.563133 4.43279,2.278022 6.08184,2.898743 12.17425,5.775322 19.125,9.068612 -6.76654,3.247329 -12.7244,6.106567 -19.37885,9.229103 M 64.922966,89.369637 c 4.650253,-2.208825 9.338242,-4.342583 13.936966,-6.653939 2.872864,-1.443931 4.317787,-3.913246 2.96682,-7.014381 -1.40078,-3.215477 -4.194268,-3.385758 -7.183724,-2.255547 -0.621818,0.235092 -1.246223,0.469757 -1.847923,0.750687 -9.78508,4.56868 -19.661755,8.958038 -29.280361,13.854225 -2.322937,1.182457 -5.036614,3.928871 -5.248562,6.175179 -0.163982,1.737976 2.955185,4.501709 5.20594,5.625839 9.062882,4.52641 18.359619,8.58386 27.561463,12.83298 6.134132,2.83256 9.681312,2.67479 10.826667,-0.81829 1.788269,-5.45388 -2.638084,-6.81092 -6.175705,-8.53515 -6.347404,-3.09372 -12.752666,-6.068728 -19.94646,-9.478564 3.508838,-1.690071 6.019828,-2.899513 9.184879,-4.483039 m 49.668324,2.77005 c 3.28826,-7.099717 6.5483,-14.212708 9.87692,-21.293457 1.62852,-3.464249 1.75121,-6.576195 -2.17838,-8.420319 -3.79172,-1.779419 -5.98002,0.456177 -7.46972,3.633186 -7.56221,16.127648 -15.095546,32.26886 -22.627391,48.410733 -1.568383,3.36128 -1.927834,6.58667 2.05088,8.49084 4.087723,1.95633 6.181471,-0.59331 7.734961,-3.91502 4.08994,-8.74524 8.1693,-17.49541 12.61273,-26.905963 z"
     id="path6" /><path
     fill="#010101"
     opacity="1"
     stroke="none"
     d="m 424,257.96088 c -13.8085,0 -27.117,0 -40.79245,0 0,-7.78144 0,-15.32314 0,-23.11597 67.14654,0 134.22922,0 201.72934,0 0,7.41849 0,14.96559 0,22.94693 -7.36914,0 -14.80048,0 -22.75848,0 0,36.46341 0,72.50671 0,108.84262 -41.76789,0 -83.00235,0 -124.57697,0 0,-20.42517 0,-40.82422 0,-61.82864 7.53384,0 15.08575,0 22.89606,0 0,-15.83362 0,-31.06461 0,-46.84494 -12.11109,0 -24.05429,0 -36.4975,0 z"
     id="path8" /><path
     fill="#030303"
     opacity="1"
     stroke="none"
     d="m 310.15442,257.95743 c -2.29047,0 -4.10257,0 -6.19455,0 -1.97757,-15.51534 -3.92908,-30.693 -5.83984,-45.8758 -0.90333,-7.17755 -2.577,-8.66647 -10.03101,-8.66888 -17.16556,-0.006 -34.33113,0.002 -51.49667,-0.0168 -1.58143,-0.002 -3.16266,-0.15193 -5.65989,-0.28024 9.1802,-13.54005 20.32863,-22.35885 36.33368,-23.70981 1.3559,-0.11444 2.90543,0.57987 4.18305,1.24695 18.0285,9.4133 36.01877,9.42835 54.13476,0.17108 1.91678,-0.97947 4.46976,-1.40568 6.61206,-1.1438 18.76365,2.29378 36.21958,18.28241 40.50861,39.22625 2.54355,12.42034 2.24661,25.42239 3.2952,39.0511 -22.55222,0 -43.9596,0 -65.8454,0 z"
     id="path10" /><path
     fill="#030303"
     opacity="1"
     stroke="none"
     d="m 333.85998,121.33772 c 6.98539,23.50115 -5.10525,46.03581 -27.65002,52.13187 -22.01498,5.95279 -44.40921,-7.64421 -49.58612,-30.10697 -4.55223,-19.75244 6.53708,-39.71084 25.88962,-46.595698 19.13693,-6.808159 40.3139,1.792686 49.41592,20.085958 0.66568,1.33792 1.2121,2.73518 1.9306,4.48484 z"
     id="path12" /><path
     fill="#040404"
     opacity="1"
     stroke="none"
     d="m 409.99582,226.83525 c -9.45789,0 -18.4169,0 -27.5733,0 -2.13572,-14.12988 -7.40394,-26.46733 -16.63068,-37.04161 -0.71863,-0.82359 -0.72693,-2.86185 -0.27118,-4.02411 5.01624,-12.79112 13.43448,-22.47673 26.34119,-27.77341 5.85266,-2.40184 11.46066,-2.85731 17.66192,0.25122 14.68433,7.36087 29.53818,6.3539 44.21457,-0.7308 2.25394,-1.08804 5.13886,-1.80386 7.55728,-1.46075 13.20847,1.87405 22.50196,9.57731 30.2703,21.26249 -2.67764,0 -4.42237,-1.5e-4 -6.16709,2e-5 -15.14593,0.002 -30.29196,-0.0204 -45.4378,0.0159 -6.29309,0.0151 -8.27057,1.85565 -9.05289,8.09389 -1.7135,13.66312 -3.44119,27.32445 -5.21606,41.40715 -5.28122,0 -10.23932,0 -15.69626,0 z"
     id="path14" /><path
     fill="#050505"
     opacity="1"
     stroke="none"
     d="m 232,257.95163 c -9.96549,0 -19.43097,0 -29.29498,0 -1.9654,-15.64824 -3.88727,-30.94997 -5.84712,-46.55412 31.23005,0 62.00718,0 93.37138,0 1.92059,15.23243 3.84997,30.53483 5.86975,46.55412 -21.42194,0 -42.51048,0 -64.09903,0 m 18.7713,-27.98088 c -2.3795,-2.88626 -5.60591,-4.20248 -8.85498,-2.53792 -2.09114,1.07137 -4.65997,3.70198 -4.69855,5.67889 -0.0522,2.67707 1.43628,6.53623 3.52121,7.77921 2.08867,1.24522 6.25438,0.81085 8.55745,-0.52683 3.53938,-2.05575 3.80002,-5.95391 1.47487,-10.39335 z"
     id="path16" /><path
     fill="#030303"
     opacity="1"
     stroke="none"
     d="m 446.00961,149.1828 c -21.1762,6.87883 -41.79941,-3.4064 -47.75592,-23.5174 -5.71951,-19.3109 5.60544,-39.665972 25.07752,-45.073336 18.1521,-5.040817 37.18966,4.704376 43.67898,22.358956 6.75748,18.38413 -1.84012,37.60962 -21.00058,46.23178 z"
     id="path18" /><path
     fill="#050505"
     opacity="1"
     stroke="none"
     d="m 513.54431,226.85254 c -26.75101,0.002 -53.04483,0.002 -79.98444,0.002 1.76087,-14.15605 3.45737,-27.79455 5.17155,-41.57527 27.50338,0 54.60906,0 82.46389,0 -0.67554,5.37883 -1.33569,10.56955 -1.97748,15.76253 -0.89898,7.27402 -1.67767,14.5657 -2.76635,21.81097 -0.21381,1.42317 -1.60297,2.66977 -2.90717,3.99979 m -32.46402,-14.75237 c 4.76111,-2.6008 6.32309,-6.13229 4.37686,-9.89575 -1.73456,-3.35412 -6.2969,-5.20726 -9.19867,-2.89068 -1.97778,1.57894 -3.82284,4.80215 -3.70916,7.19424 0.19555,4.11346 3.44329,6.0965 8.53097,5.59219 z"
     id="path20" /><path
     fill="#f5f5f5"
     opacity="1"
     stroke="none"
     d="m 140.836,102.90002 c 6.30615,-2.990886 12.26401,-5.850124 19.03055,-9.097453 -6.95075,-3.29329 -13.04316,-6.169869 -19.125,-9.068612 -1.49993,-0.714889 -3.03173,-1.396568 -4.43279,-2.278022 -2.7355,-1.720986 -4.33958,-4.521248 -2.19493,-7.067414 1.27168,-1.509781 4.89534,-2.488304 6.74986,-1.796936 6.6841,2.491844 13.0755,5.773911 19.55886,8.797386 4.37007,2.037957 8.87832,3.862458 12.98565,6.343773 1.87889,1.135056 3.94971,3.565598 4.05963,5.514313 0.0909,1.610672 -2.23736,4.065575 -4.07209,4.960129 -10.46447,5.102116 -21.09195,9.871296 -31.68764,14.701836 -2.97141,1.35465 -6.0685,1.73375 -7.78113,-1.72171 -1.78923,-3.60999 0.23285,-5.9915 3.42897,-7.60649 1.03945,-0.52524 2.08759,-1.03326 3.48006,-1.6808 z"
     id="path22" /><path
     fill="#f5f5f5"
     opacity="1"
     stroke="none"
     d="m 64.595932,89.556671 c -2.838017,1.396492 -5.349007,2.605934 -8.857845,4.296005 7.193794,3.409836 13.599056,6.384844 19.94646,9.478564 3.537621,1.72423 7.963974,3.08127 6.175705,8.53515 -1.145355,3.49308 -4.692535,3.65085 -10.826667,0.81829 -9.201844,-4.24912 -18.498581,-8.30657 -27.561463,-12.83298 -2.250755,-1.12413 -5.369922,-3.887863 -5.20594,-5.625839 0.211948,-2.246308 2.925625,-4.992722 5.248562,-6.175179 9.618606,-4.896187 19.495281,-9.285545 29.280361,-13.854225 0.6017,-0.28093 1.226105,-0.515595 1.847923,-0.750687 2.989456,-1.130211 5.782944,-0.95993 7.183724,2.255547 1.350967,3.101135 -0.09396,5.57045 -2.96682,7.014381 -4.598724,2.311356 -9.286713,4.445114 -14.264,6.840973 z"
     id="path24" /><path
     fill="#f4f4f4"
     opacity="1"
     stroke="none"
     d="m 114.41136,92.470856 c -4.2635,9.079384 -8.34286,17.829554 -12.4328,26.574794 -1.55349,3.32171 -3.647238,5.87135 -7.734961,3.91502 -3.978714,-1.90417 -3.619263,-5.12956 -2.05088,-8.49084 7.531845,-16.141873 15.065181,-32.283085 22.627391,-48.410733 1.4897,-3.177009 3.678,-5.412605 7.46972,-3.633186 3.92959,1.844124 3.8069,4.95607 2.17838,8.420319 -3.32862,7.080749 -6.58866,14.19374 -10.05685,21.624626 z"
     id="path26" /><path
     fill="#f4f4f4"
     opacity="1"
     stroke="none"
     d="m 250.98248,230.31436 c 2.11397,4.09583 1.85333,7.99399 -1.68605,10.04974 -2.30307,1.33768 -6.46878,1.77205 -8.55745,0.52683 -2.08493,-1.24298 -3.57342,-5.10214 -3.52121,-7.77921 0.0386,-1.97691 2.60741,-4.60752 4.69855,-5.67889 3.24907,-1.66456 6.47548,-0.34834 9.06616,2.88153 z"
     id="path28" /><path
     fill="#f1f0f1"
     opacity="1"
     stroke="none"
     d="m 480.67895,212.1779 c -4.68634,0.42658 -7.93408,-1.55646 -8.12963,-5.66992 -0.11368,-2.39209 1.73138,-5.6153 3.70916,-7.19424 2.90177,-2.31658 7.46411,-0.46344 9.19867,2.89068 1.94623,3.76346 0.38425,7.29495 -4.7782,9.97348 z"
     id="path30" /><g
     id="g1614"
     transform="translate(-8.9903102)"><g
       id="g1164"
       transform="matrix(0.55811372,0,0,0.55811372,-19.375985,-15.042031)"><path
         fill="#020202"
         opacity="1"
         stroke="none"
         d="m 277.94382,-163.26288 c 13.22045,-8.0566 27.54678,-8.19892 41.85285,-7.13469 6.85307,0.5098 13.82687,2.07078 20.29719,4.40156 8.89037,3.20256 13.74393,9.65158 13.28005,19.86808 -0.50557,11.13464 -0.0991,22.31001 -0.11882,33.46757 -0.0251,14.20541 -6.98961,22.21046 -21.252,22.9366 -12.95602,0.65963 -25.96818,0.16566 -38.95371,0.3296 -3.63775,0.0459 -7.39519,0.1352 -10.87888,1.04374 -9.75084,2.543 -15.63899,11.17381 -15.86554,22.75874 -0.1293,6.61199 -0.0234,13.22858 -0.0234,20.00669 -5.60695,0 -10.76256,0.37948 -15.84092,-0.0852 -8.50445,-0.77823 -14.06854,-6.25491 -17.04278,-13.62309 -6.98114,-17.29459 -7.52705,-35.05306 -0.59713,-52.47186 4.11961,-10.35491 12.2383,-15.58876 23.82758,-15.40536 16.98193,0.26875 33.97128,0.0696 50.95747,0.0698 1.62461,2e-5 3.24923,0 5.14477,0 0.0959,-2.03814 0.17142,-3.64341 0.26836,-5.70388 -13.60859,0 -27.01638,0 -40.88461,0 0,-7.68798 -0.511,-14.99579 0.2529,-22.16781 0.30322,-2.84686 3.43406,-5.39254 5.57662,-8.29046 m 6.71786,18.29219 c 3.1543,2.61304 6.74682,2.89906 9.40181,-0.0261 1.63002,-1.79591 2.88039,-5.23072 2.29402,-7.38266 -0.59527,-2.18463 -3.47004,-4.8168 -5.69202,-5.1887 -2.21809,-0.37127 -5.50627,1.22159 -7.1727,3.02088 -2.50376,2.70339 -1.89949,6.1665 1.16889,9.5766 z"
         id="path4-1" /><path
         fill="#010101"
         opacity="1"
         stroke="none"
         d="m 323.60178,-3.30466 c -11.79334,0.74929 -23.19878,0.99474 -34.03896,-2.78657 -4.85581,-1.69382 -9.67519,-4.56793 -13.38383,-8.09256 -2.43242,-2.31171 -3.85494,-6.71079 -3.98277,-10.23833 -0.45805,-12.64067 -0.23202,-25.3087 -0.15019,-37.96564 0.0844,-13.05707 8.32899,-21.4674 21.55511,-21.69284 12.82034,-0.21851 25.64704,-0.0592 38.47093,-0.0757 18.33849,-0.0236 26.92139,-8.56951 26.93135,-26.80502 0.003,-5.62088 4.8e-4,-11.24175 4.8e-4,-17.07872 5.86793,0 11.36987,-0.48942 16.74713,0.12056 7.15494,0.81162 12.02189,5.47632 15.21841,11.65292 6.10318,11.79312 7.12944,24.57074 5.53134,37.40883 -0.84428,6.78233 -2.72287,13.73808 -5.6638,19.8837 -4.02512,8.41122 -11.48163,12.41875 -21.13191,12.31447 -17.31868,-0.18712 -34.64078,-0.0603 -51.96144,-0.0646 -1.628,-4e-4 -3.25601,-6e-5 -5.16817,-6e-5 -0.11041,2.04409 -0.19679,3.64323 -0.31187,5.77365 13.58059,0 26.97485,0 40.88966,0 0,7.76204 0.93352,15.19119 -0.37984,22.19928 -0.69363,3.70132 -4.68236,8.04237 -8.27951,9.66572 -6.37239,2.87577 -13.58089,3.89884 -20.89212,5.7809 m 8.53966,-26.34651 c -2.88103,2.15085 -4.65038,4.77858 -3.44934,8.54672 1.30426,4.09204 5.58336,6.29018 9.53337,4.97016 3.44694,-1.15192 5.6656,-5.20652 4.82445,-8.81668 -0.99932,-4.28899 -4.93584,-6.21837 -10.90848,-4.7002 z"
         id="path6-8" /></g><g
       id="g1589"
       transform="matrix(0.38330155,0,0,0.38330155,205.88465,116.00345)"><path
         fill="#0082C8"
         opacity="1"
         stroke="none"
         d="m 922.24119,-380.49623 c 0,0 -0.20001,0.31591 -0.56805,0.0148 -1.02625,-1.04803 -1.64576,-1.83378 -2.34827,-2.53649 -50.44721,-50.45755 -100.8999,-100.90954 -151.36398,-151.35021 -0.81199,-0.81157 -1.76947,-1.47755 -2.83011,-2.5413 -1.38574,-1.18945 -2.60047,-2.04906 -3.81519,-2.90866 0.0681,-0.17889 0.13614,-0.35779 0.94476,-0.65632 38.04536,-0.12896 75.35023,-0.1792 112.65479,-0.10254 5.45618,0.0112 10.91119,0.62693 16.3667,0.96294 0.28448,0.0841 0.53711,0.22519 0.87817,1.01587 2.96869,9.08622 5.71259,17.61667 8.68409,26.06712 11.46014,32.59136 23.01,65.1512 34.44122,97.75267 0.49841,1.42148 0.68542,3.36539 0.12042,4.68062 -4.26166,9.92151 -8.74823,19.74639 -13.16455,29.60147 z"
         id="path4-2"
         style="fill:#000000;fill-opacity:1;stroke:none;stroke-opacity:1" /><path
         fill="#00D2B8"
         opacity="1"
         stroke="none"
         d="m 765.3018,-536.57956 c 0.88962,0.73391 1.8471,1.39989 2.65909,2.21146 50.46408,50.44067 100.91677,100.89266 151.36398,151.35021 0.70251,0.70271 1.32202,1.48846 2.16504,2.57367 0.18481,0.33824 0.21661,0.72381 -0.26642,0.85015 -8.38757,3.59414 -16.32764,6.98392 -24.18231,10.56116 -4.21893,1.9214 -8.15772,2.91966 -12.77088,0.73009 -4.62359,-2.19449 -9.65374,-3.53208 -14.50494,-5.24744 -22.40595,-7.92271 -44.79327,-15.8985 -67.22433,-23.74933 -13.00867,-4.55302 -26.0875,-8.90554 -39.13477,-13.34829 -0.31323,-0.0942 -0.58456,-0.25789 -0.81259,-1.0457 -0.41333,-4.9562 -1.18146,-9.35729 -1.18707,-13.75936 -0.0475,-37.0341 0.0447,-74.06839 0.47052,-111.10613 1.39193,-0.009 2.40832,-0.0148 3.42468,-0.0205 z"
         id="path6-3"
         style="fill:#000000;fill-opacity:1;stroke:none;stroke-opacity:1" /><path
         fill="#56DDCA"
         opacity="1"
         stroke="none"
         d="m 763.42936,-410.27348 c 13.02417,4.06835 26.103,8.42087 39.11167,12.97389 22.43106,7.85083 44.81838,15.82662 67.22433,23.74933 4.8512,1.71536 9.88135,3.05295 14.50494,5.24744 4.61316,2.18957 8.55195,1.19131 12.77088,-0.73009 7.85467,-3.57724 15.79474,-6.96702 24.08002,-10.39697 -2.98133,10.9868 -6.26594,21.96112 -9.82978,32.84398 -0.3421,1.04475 -2.4201,2.16096 -3.69641,2.16592 -28.9516,0.1126 -57.90411,0.11702 -86.85541,-0.0411 -1.72436,-0.009 -3.8139,-1.16778 -5.10254,-2.43382 -13.17468,-12.94321 -26.30142,-25.93794 -39.26452,-39.09273 -6.57129,-6.66848 -10.20914,-15.07705 -12.94318,-24.28581 z"
         id="path12-9"
         style="fill:#000000;fill-opacity:1;stroke:none;stroke-opacity:1" /><path
         fill="#04A4E3"
         opacity="1"
         stroke="none"
         d="m 922.6334,-380.51347 c 4.02411,-9.83784 8.51068,-19.66272 12.77234,-29.58423 0.565,-1.31523 0.37799,-3.25914 -0.12042,-4.68062 -11.43122,-32.60147 -22.98108,-65.16131 -34.44122,-97.75267 -2.9715,-8.45045 -5.7154,-16.9809 -8.56141,-25.8862 9.72535,1.58331 18.13892,6.18801 25.15747,13.06565 12.24665,12.00071 24.34699,24.15641 36.2425,36.50355 1.82171,1.89096 3.11957,5.14701 3.13836,7.78255 0.20191,28.30052 0.0423,56.60345 0.14875,84.90507 0.0131,3.48833 -0.77295,5.33806 -4.42548,6.38256 -9.91058,2.83413 -19.68829,6.13269 -29.91089,9.26434 z"
         id="path14-4"
         style="fill:#000000;fill-opacity:1;stroke:none;stroke-opacity:1" /><path
         fill="#03D2B9"
         opacity="1"
         stroke="none"
         d="m 891.23936,-539.984 c -5.41303,0.034 -10.86804,-0.5817 -16.32422,-0.59292 -37.30456,-0.0767 -74.60943,-0.0264 -112.40442,-0.0381 0.77942,-1.05977 1.97043,-2.21708 3.33045,-3.1197 22.62286,-15.01399 45.27017,-29.99114 67.90441,-44.98796 7.65784,-5.07387 13.1272,-4.96503 20.37586,0.92997 3.34698,2.72194 6.28784,5.94663 9.38293,8.97397 2.97736,2.91221 5.69666,6.13396 8.91291,8.74771 9.63116,7.82689 16.06451,17.5706 18.82208,30.087 z"
         id="path16-4"
         style="fill:#000000;fill-opacity:1;stroke:none;stroke-opacity:1" /><path
         fill="#0383C7"
         opacity="1"
         stroke="none"
         d="m 761.5015,-536.55558 c -0.0502,37.03425 -0.14236,74.06854 -0.0949,111.10264 0.006,4.40207 0.77374,8.80316 1.06994,13.55049 -9.82339,-2.18286 -18.88385,-5.45671 -25.73102,-13.68019 -5.93362,-7.12626 -13.18564,-13.13893 -19.45572,-20.00821 -2.72592,-2.98642 -5.25259,-6.64894 -6.37469,-10.44618 -0.87305,-2.95434 -0.49594,-7.28377 1.14844,-9.82039 16.00103,-24.68308 32.38632,-49.11708 48.94729,-73.39338 0.35367,1.05086 0.42215,1.87304 0.49066,2.69522 z"
         id="path18-0"
         style="fill:#000000;fill-opacity:1;stroke:none;stroke-opacity:1" /><path
         fill="#01CFB9"
         opacity="1"
         stroke="none"
         d="m 761.87712,-536.55907 c -0.44413,-0.81869 -0.51261,-1.64087 -0.56812,-2.87922 0.0129,-0.41616 0.0366,-0.37112 0.0216,-0.37544 1.1997,0.85527 2.41443,1.71488 3.80017,2.90433 -0.84534,0.3355 -1.86173,0.34116 -3.25366,0.35033 z"
         id="path40"
         style="fill:#000000;fill-opacity:1;stroke:none;stroke-opacity:1" /></g><g
       id="g1580"
       transform="matrix(0.47839243,0,0,0.47839243,146.16529,117.58027)"><path
         fill="#56C6F8"
         opacity="1"
         stroke="none"
         d="m 416.54702,-503.292 c -24.25705,24.2702 -48.26408,48.29043 -71.8106,71.84991 -12.73329,-12.74093 -25.05543,-25.07049 -37.79442,-37.81714 0.47253,-0.51182 1.62692,-1.8522 2.874,-3.09995 38.1679,-38.18859 76.36618,-76.34689 114.47447,-114.59485 2.6499,-2.65961 5.27611,-3.94276 9.13752,-3.91302 22.98274,0.17703 45.96753,0.0875 70.60191,0.0875 -29.72011,29.72171 -58.47647,58.47964 -87.48288,87.48754 z"
         id="path8-5"
         style="fill:#000000;fill-opacity:1;stroke:none;stroke-opacity:1" /><path
         fill="#56C5F8"
         opacity="1"
         stroke="none"
         d="m 401.21107,-449.76464 c 8.62104,-8.77857 17.19287,-17.60675 25.92924,-26.26901 1.02073,-1.01205 2.94799,-1.55566 4.45798,-1.56167 23.14711,-0.0922 46.29476,-0.0607 69.44225,-0.043 0.46377,3.6e-4 0.92741,0.18054 2.20749,0.44636 -1.48797,1.613 -2.60715,2.9136 -3.8165,4.12414 -18.83139,18.84988 -37.68068,37.68191 -56.50215,56.54167 -1.40036,1.40318 -2.62069,2.98603 -4.10958,4.95712 -0.18486,0.47176 -0.45721,0.48944 -0.58584,0.1395 -5.776,-6.14049 -11.43338,-11.92133 -17.06815,-17.72413 -6.66178,-6.86044 -13.30403,-13.73985 -19.95474,-20.61103 z"
         id="path20-1"
         style="fill:#000000;fill-opacity:1;stroke:none;stroke-opacity:1" /><path
         fill="#055A9C"
         opacity="1"
         stroke="none"
         d="m 438.36259,-411.07954 c 0,0 0.27235,-0.0177 0.33206,-0.14075 21.64845,21.32573 43.23721,42.77452 65.75923,65.15052 -2.74379,0.20871 -3.97336,0.3829 -5.20305,0.38382 -22.16098,0.0163 -44.32277,0.0957 -66.48181,-0.11248 -2.33323,-0.0219 -5.19133,-1.19534 -6.88292,-2.8047 -8.08357,-7.69064 -15.84871,-15.71596 -23.64131,-24.30615 5.09226,-2.97667 10.09876,-5.26947 15.4474,-7.58334 1.42343,-0.36928 2.50471,-0.7175 3.93573,-1.06754 1.44615,-0.33849 2.54257,-0.67517 4.00448,-1.04718 3.40462,-1.38985 6.91583,-1.93176 6.746,-6.75893 -0.1659,-4.71577 0.56401,-9.46307 1.04461,-14.49298 1.69031,-2.32266 3.23664,-4.34888 4.82724,-6.58546 0.0443,-0.21034 0.11234,-0.63483 0.11234,-0.63483 z"
         id="path22-6"
         style="fill:#000000;fill-opacity:1;stroke:none;stroke-opacity:1" /><path
         fill="#2AB6F5"
         opacity="1"
         stroke="none"
         d="m 438.23396,-411.42948 c 0.12863,0.34994 0.0606,0.77443 -0.30419,0.84381 -4.54272,4.15802 -8.72071,8.24664 -13.20986,12.50085 -3.08346,2.90144 -5.85576,5.63728 -8.92969,8.51418 -4.99623,4.86326 -9.69084,9.58549 -14.76256,14.32112 -0.62644,0.0469 -0.87576,0.0804 -1.12509,0.11389 -5.61988,-5.37553 -11.28724,-10.70252 -16.84742,-16.1391 -6.74806,-6.59807 -13.40565,-13.28864 -20.24993,-20.08574 12.84963,-12.9872 25.30946,-25.58043 38.08757,-38.28892 6.96899,6.75593 13.61124,13.63534 20.27302,20.49578 5.63477,5.8028 11.29215,11.58364 17.06815,17.72413 z"
         id="path24-0"
         style="fill:#000000;fill-opacity:1;stroke:none;stroke-opacity:1" /><path
         fill="#023257"
         opacity="1"
         stroke="none"
         d="m 401.40477,-375.26292 c 4.69461,-4.72223 9.38922,-9.44446 14.70237,-14.02827 0.82667,3.03215 1.03478,5.92588 1.2429,8.81962 -5.00649,2.29282 -10.01299,4.58562 -15.1849,7.25611 -0.32751,0.31059 -0.48961,0.24348 -0.72587,-0.35189 -0.0609,-0.91737 -0.0477,-1.30647 -0.0345,-1.69557 z"
         id="path26-1"
         style="fill:#000000;fill-opacity:1;stroke:none;stroke-opacity:1" /><path
         fill="#055A9C"
         opacity="1"
         stroke="none"
         d="m 401.02766,-375.24952 c 0.36389,0.3757 0.35068,0.7648 0.29822,1.44468 -0.43684,-0.0759 -0.83445,-0.4425 -1.32769,-1.06996 0.15371,-0.29432 0.40303,-0.32783 1.02947,-0.37472 z"
         id="path56"
         style="fill:#000000;fill-opacity:1;stroke:none;stroke-opacity:1" /><path
         fill="#01508E"
         opacity="1"
         stroke="none"
         d="m 433.27903,-403.56282 c -0.33662,4.73348 -1.06653,9.48078 -0.90063,14.19655 0.16983,4.82717 -3.34138,5.36908 -6.70003,6.37627 -0.3549,-4.09685 -0.39026,-7.84637 -0.42047,-11.92398 0.0151,-0.76552 0.0251,-1.20294 0.37718,-1.68021 2.77604,-2.34944 5.20999,-4.65903 7.64395,-6.96863 z"
         id="path78"
         style="fill:#000000;fill-opacity:1;stroke:none;stroke-opacity:1" /><path
         fill="#03406F"
         opacity="1"
         stroke="none"
         d="m 425.29299,-396.55433 c -0.01,0.43741 -0.0199,0.87483 -0.40367,1.69049 -5.751,3.61095 -2.85411,8.91574 -3.61113,13.30549 -1.08129,0.34823 -2.16257,0.69645 -3.586,1.06573 -0.55027,-2.87269 -0.75838,-5.76642 -1.28343,-8.93963 2.45539,-3.01529 5.22769,-5.75113 8.3849,-8.22793 0.42306,0.54132 0.4612,0.82359 0.49933,1.10585 z"
         id="path80"
         style="fill:#000000;fill-opacity:1;stroke:none;stroke-opacity:1" /><path
         fill="#024A81"
         opacity="1"
         stroke="none"
         d="m 421.62792,-381.56016 c 0.40729,-4.38794 -2.4896,-9.69273 3.25625,-12.97559 0.40394,3.69938 0.4393,7.4489 0.42869,11.58107 -1.14237,0.71935 -2.23879,1.05603 -3.68494,1.39452 z"
         id="path82"
         style="fill:#000000;fill-opacity:1;stroke:none;stroke-opacity:1" /><path
         fill="#024A81"
         opacity="1"
         stroke="none"
         d="m 425.63508,-396.59419 c -0.38022,-0.2424 -0.41836,-0.52467 -0.53026,-1.2316 4.10424,-4.51324 8.28223,-8.60186 12.78069,-12.54953 -1.22586,2.16719 -2.77219,4.19341 -4.4625,6.51606 -2.57794,2.60604 -5.01189,4.91563 -7.78793,7.26507 z"
         id="path84"
         style="fill:#000000;fill-opacity:1;stroke:none;stroke-opacity:1" /><path
         style="fill:#000000;fill-opacity:1;stroke:none;stroke-width:1px;stroke-linecap:butt;stroke-linejoin:miter;stroke-opacity:1"
         d="m 401.88902,-375.05549 36.36123,-35.38922 2.27158,2.2525 -8.75,36.8125 -27.6875,-0.9375 z"
         id="path1448" /></g></g></g></svg>
