<?xml version="1.0" encoding="UTF-8" standalone="no"?>
<svg
   version="1.1"
   id="Layer_1"
   x="0px"
   y="0px"
   width="560"
   viewBox="0 0 560 608"
   enable-background="new 0 0 560 608"
   xml:space="preserve"
   sodipodi:docname="sf.svg"
   height="608"
   inkscape:version="1.1 (c68e22c387, 2021-05-23)"
   xmlns:inkscape="http://www.inkscape.org/namespaces/inkscape"
   xmlns:sodipodi="http://sodipodi.sourceforge.net/DTD/sodipodi-0.dtd"
   xmlns="http://www.w3.org/2000/svg"
   xmlns:svg="http://www.w3.org/2000/svg"><defs
   id="defs47" /><sodipodi:namedview
   id="namedview45"
   pagecolor="#ffffff"
   bordercolor="#666666"
   borderopacity="1.0"
   inkscape:pageshadow="2"
   inkscape:pageopacity="0.0"
   inkscape:pagecheckerboard="0"
   showgrid="false"
   inkscape:zoom="0.59545834"
   inkscape:cx="96.56427"
   inkscape:cy="351.82982"
   inkscape:window-width="1366"
   inkscape:window-height="697"
   inkscape:window-x="-8"
   inkscape:window-y="-8"
   inkscape:window-maximized="1"
   inkscape:current-layer="Layer_1" />





















<g
   id="g2488"
   transform="translate(-1,-1)"><path
     fill="#000000"
     opacity="1"
     stroke="none"
     d="m 269,1 c 8.35422,0 16.70847,0 25.87176,0.136846 2.74509,0.615607 4.67954,1.100643 6.61728,1.572208 39.07517,9.509171 65.46,49.360373 58.45841,88.908088 -0.92011,5.196922 0.61105,7.553184 4.76031,9.900348 18.26364,10.33133 36.51874,20.68977 54.50736,31.48747 5.07416,3.04576 8.08154,2.49458 12.3963,-1.43628 28.45102,-25.9193 72.22092,-27.04199 102.30991,-3.06011 C 547.26605,139.14473 555.77734,152.9594 561,169 c 0,13.68756 0,27.37512 -0.13062,41.86119 -9.30847,28.68352 -27.3479,47.53981 -55.99554,55.53981 -3.08295,0.86093 -3.5199,3.00903 -3.51511,5.73728 0.0407,23.13064 0.0722,46.26162 -0.0303,69.39187 -0.0159,3.5716 1.18491,5.42685 4.75168,6.37119 7.09802,1.87921 13.80182,4.81616 20.06201,8.7149 C 543.74982,367.58206 554.96521,383.34195 561,403 c 0,13.68756 0,27.37512 -0.13147,41.85919 -2.01337,5.40933 -3.60114,10.16916 -5.82233,14.61234 -23.45721,46.92227 -87.02185,57.90384 -125.02383,21.61938 -2.32098,-2.21609 -4.15033,-3.91098 -7.66519,-1.84909 -19.66129,11.53354 -39.40375,22.92993 -59.19171,34.24512 -3.28174,1.87658 -4.00135,4.04291 -3.40873,7.75317 4.54349,28.4444 -4.07269,52.43286 -24.95489,72.15186 C 327.55237,600.23761 318.79953,604.6438 310,609 c -18.35422,0 -36.70847,0 -55.80307,-0.20984 -1.62488,-0.66443 -2.48935,-1.16412 -3.39679,-1.56708 -33.57945,-14.91021 -52.30783,-48.42675 -46.81847,-84.73626 0.77613,-5.13349 -0.53236,-7.56769 -4.71353,-9.92994 -18.70015,-10.56515 -37.345,-21.23388 -55.83429,-32.16214 -4.14967,-2.45269 -6.64798,-2.25137 -10.21943,1.18699 C 102.75795,510.90308 51.625343,509.34219 22.489407,478.65198 10.977524,466.52597 4.439194,452.09277 1,436 c 0,-8.35422 0,-16.70847 0.093133,-25.88538 0.524342,-1.8984 1.085397,-2.94113 1.367797,-4.05456 7.389198,-29.13379 25.552191,-48.36127 53.910835,-57.741 4.977535,-1.6463 6.397339,-3.79559 6.347397,-8.7164 -0.219467,-21.62418 -0.292927,-43.25497 0.0445,-64.87616 0.08633,-5.53158 -1.708634,-7.95453 -6.948262,-9.44229 C 37.429234,260.06354 23.557056,248.69154 13.001475,232.91638 6.870012,223.75301 3.997352,213.37289 1,203 c 0,-8.35423 0,-16.70847 0.051239,-25.89496 0.560614,-2.40465 1.205169,-3.94723 1.559381,-5.55382 6.902145,-31.30568 36.235564,-57.23824 67.878088,-59.82726 24.468674,-2.00205 46.150532,4.48184 64.056992,21.76356 2.47317,2.38688 4.38562,2.67456 7.3597,0.94011 19.41514,-11.32274 38.8955,-22.53491 58.4309,-33.64899 3.34354,-1.90219 4.4758,-3.885421 3.82053,-7.981963 C 199.74034,65.186493 207.76254,41.53513 227.6955,21.958313 239.23463,10.625331 253.48833,4.550706 269,1 m -30.86394,305.0369 c 2.14908,0.22076 4.29431,0.49286 6.44786,0.65386 13.39258,1.00135 24.80246,4.90091 28.73477,19.86826 -0.19027,-4.87872 -0.71926,-9.49142 -0.96212,-14.11911 -0.27503,-5.24048 -2.83219,-8.46109 -7.60126,-10.62143 -9.12761,-4.13479 -15.07283,-11.30743 -18.29822,-20.74686 -3.27441,-9.58291 -5.78409,-19.46383 -11.09186,-28.25164 -0.0779,-0.12893 0.27394,-0.51738 0.73005,-1.32337 9.27597,3.78273 18.64822,7.5539 27.98016,11.42237 13.50491,5.59826 18.97519,16.36331 16.56851,30.89431 -1.32483,7.99906 -6.76419,14.83808 -4.56726,23.99115 2.52344,10.51352 2.97135,21.52524 4.48376,33.62412 1.96277,-6.70438 4.92368,-11.71695 3.09195,-17.70481 -1.69744,-5.54867 -0.83547,-11.2178 0.0722,-16.82586 2.1788,-13.46277 11.73669,-23.76648 24.89133,-26.01755 8.66946,-1.48358 17.45669,-2.37073 26.22424,-3.15567 5.36151,-0.48004 10.70709,-1.7504 16.36731,-1.22406 -0.20282,0.78616 -0.16663,1.43729 -0.45761,1.6589 -9.12171,6.94776 -14.42984,16.87595 -20.55649,26.17032 -7.58164,11.50153 -17.60172,19.51999 -31.65653,21.33197 -6.90359,0.89005 -10.42532,4.62986 -11.97485,11.30246 -1.65939,7.14582 -1.36737,7.97437 6.09219,8.60993 21.43601,1.82651 40.72388,9.34445 58.08844,21.93829 5.43113,3.93897 5.61551,4.0615 10.05542,-1.12961 21.32874,-24.93725 30.38303,-53.6557 24.92713,-86.1636 C 374.8671,225.524 310.30646,186.77496 248.15895,207.50272 c -43.21106,14.41195 -74.57561,57.62609 -71.03433,106.57482 1.75134,24.20762 10.97755,44.98511 26.80456,63.10718 2.37079,2.71457 4.41835,4.12 7.92525,1.43106 15.63391,-11.98724 33.28525,-19.32266 52.72888,-22.50488 2.13163,-0.34888 5.87793,0.52023 5.79541,-3.19101 -0.0769,-3.45523 -1.09112,-7.03195 -4.97424,-8.52307 -1.38269,-0.53094 -2.86175,-0.8338 -4.31647,-1.15051 -6.80159,-1.48096 -13.05475,-4.08921 -17.95657,-9.1955 -8.29103,-8.63684 -12.40917,-20.42871 -23.16977,-28.70041 6.94701,-1.43722 12.08606,0.7656 18.17439,0.6865 M 128.1234,142.37646 c -16.09407,-15.98823 -35.642161,-22.57308 -57.906153,-19.75791 -38.593763,4.87998 -64.819158,41.53652 -57.816332,79.95753 9.325163,51.16254 71.296236,73.37234 111.016715,39.85112 29.61585,-24.99367 33.3306,-70.38521 4.70577,-100.05074 m 415.82271,81.11829 c 18.281,-32.81532 6.85253,-74.40794 -25.38691,-92.39307 -33.36309,-18.61195 -74.84799,-7.40712 -93.3348,25.2092 -18.72461,33.03586 -7.38535,74.29024 25.59375,93.11498 32.68023,18.65416 73.92593,7.41557 93.12796,-25.93111 M 435.84845,471.64822 c 13.79504,13.2836 29.99557,20.3974 49.41876,20.19336 34.25647,-0.35992 63.32123,-26.28228 67.29071,-60.41717 5.51184,-47.39841 -39.50671,-86.08142 -85.66031,-73.51419 -49.69708,13.53204 -67.92666,74.58407 -31.04916,113.738 M 332.12302,125.62668 c 14.48993,-16.61628 21.07055,-35.811021 17.15847,-57.672327 -6.81601,-38.088682 -41.61963,-62.07225 -79.82162,-55.603778 -36.56653,6.191553 -62.58858,44.240314 -54.51676,80.060512 6.04116,26.808653 22.28576,44.867993 48.63865,52.499723 26.12887,7.56687 48.84509,0.0732 68.54126,-19.28413 m 64.43234,164.56482 c 0.97986,7.91778 1.90091,15.78921 1.26666,23.84726 -1.05508,13.405 -4.12326,26.25137 -9.24951,38.6354 -1.02206,2.46921 -0.42911,3.89908 1.95087,5.2345 9.15207,5.13516 18.22982,10.40643 27.25207,15.76706 2.62879,1.56195 4.32889,1.24008 6.38654,-1.08078 13.80545,-15.5715 30.81497,-25.13711 51.78055,-27.08258 3.85848,-0.35809 5.80737,-1.98169 5.76727,-6.3793 -0.19623,-21.49512 -0.1677,-42.99353 -0.0199,-64.48941 0.0276,-4.0181 -1.50293,-5.77207 -5.36407,-6.15122 -20.87146,-2.04956 -38.11887,-11.20431 -51.86216,-26.93426 -2.40451,-2.75206 -4.39633,-2.60386 -7.26376,-0.8868 -8.42993,5.04793 -16.90976,10.02841 -25.55237,14.69782 -3.61386,1.95247 -4.04101,3.98341 -2.51233,7.59318 3.57474,8.44144 6.21634,17.19669 7.42014,27.22913 M 165.23914,251.32021 c -6.21399,-3.56594 -12.50992,-6.99883 -18.60703,-10.75451 -3.00169,-1.84896 -4.86388,-1.45574 -7.20015,1.19699 -13.54975,15.38498 -30.49131,24.47815 -50.973952,26.6554 -4.394402,0.4671 -6.242417,2.32544 -6.188439,7.08716 0.237992,20.9971 0.235428,41.99988 -6.4e-4,62.99701 -0.05315,4.72741 1.692794,6.64639 6.14537,7.06704 20.376931,1.92515 37.180951,10.94608 50.572781,26.23517 2.83387,3.23539 4.96739,3.36908 8.42092,1.23914 7.51256,-4.63333 15.22773,-8.94226 22.91275,-13.29062 6.40047,-3.62149 6.41739,-3.55643 3.71904,-10.64862 -10.08812,-26.51498 -10.69883,-53.21167 -1.47216,-80.08017 3.86381,-11.25153 3.88404,-11.24457 -7.32849,-17.70399 M 266.7962,421.66074 c -2.13397,-0.31772 -4.28586,-0.54551 -6.3992,-0.96665 -28.55967,-5.69119 -51.93437,-19.92056 -69.91241,-42.83105 -2.55805,-3.25986 -4.70973,-3.86783 -8.32459,-1.65109 -8.36604,5.13031 -16.90805,9.98028 -25.47014,14.78082 -3.04634,1.70801 -3.59024,3.63369 -2.48938,6.94842 6.38579,19.22794 5.73945,38.38361 -2.22828,56.9523 -2.19374,5.11252 -0.71546,6.80277 3.3828,9.11078 16.52783,9.30795 32.89662,18.89874 49.30491,28.41825 7.37712,4.27993 7.35301,4.31292 12.04785,-2.54191 0.65802,-0.96075 1.34561,-1.90371 2.06217,-2.82162 12.02209,-15.39917 27.42947,-25.56116 46.63812,-29.46872 4.87323,-0.99133 6.60779,-3.0563 6.33395,-8.0278 -0.41134,-7.4678 -0.19396,-14.97601 -0.0756,-22.46439 0.0475,-3.00757 -1.09476,-4.74725 -4.87015,-5.43734 m 132.42115,-35.3021 c -5.76966,-3.32574 -11.64365,-6.4862 -17.27063,-10.03796 -3.49494,-2.206 -5.79139,-1.99942 -8.32694,1.49939 -4.40054,6.07226 -9.57953,11.49695 -15.32632,16.36468 -17.5698,14.88221 -37.53382,24.43885 -60.50711,27.34455 -3.83481,0.48504 -5.88981,2.13778 -5.724,6.48636 0.29162,7.64984 0.18573,15.3204 0.0465,22.97866 -0.0647,3.55643 1.09014,5.32914 4.85064,6.09687 22.49723,4.59301 40.06388,16.5375 52.2984,36.05362 1.71686,2.73874 3.3454,3.0801 6.08792,1.48541 18.13428,-10.5448 36.29554,-21.04465 54.53986,-31.39737 3.50543,-1.98911 4.02304,-4.02826 2.43713,-7.67023 -7.12835,-16.36978 -8.50436,-33.3118 -4.57498,-50.74371 0.86374,-3.83164 4.28165,-7.83475 2.3678,-11.3342 -1.89694,-3.46866 -6.70294,-4.63516 -10.89828,-7.12607 M 235.95903,143.62813 c -8.48668,-6.09015 -15.65578,-13.44168 -20.97104,-22.46021 -1.83687,-3.11661 -3.60983,-3.56307 -6.79393,-1.69119 -17.92732,10.53915 -35.92725,20.95686 -53.99701,31.24989 -3.25151,1.85213 -4.05676,3.73401 -2.52887,7.19666 8.42371,19.0905 9.04959,38.60422 2.4959,58.32397 -1.1416,3.43502 -0.18668,5.248 2.71362,6.88724 8.40033,4.74776 16.83627,9.45087 25.02548,14.54561 3.73998,2.32677 5.86849,1.84755 8.54985,-1.62122 10.95444,-14.17126 24.51328,-25.2294 40.6836,-33.07489 10.70779,-5.19517 21.84384,-8.94577 33.66824,-10.39267 4.89709,-0.59922 7.35309,-2.41572 6.94855,-7.92318 -0.49857,-6.7878 -0.42813,-13.6594 -0.01,-20.45823 0.29545,-4.79896 -1.41924,-6.8852 -6.07366,-7.6936 -10.64954,-1.84964 -20.2782,-6.28985 -29.71114,-12.88818 m 173.57921,21.63211 c 1.0888,-2.78613 2.00326,-5.65795 3.31796,-8.33307 1.19009,-2.42166 0.87601,-3.9731 -1.51559,-5.34023 -18.79016,-10.74118 -37.5611,-21.51628 -56.30118,-32.34453 -2.57785,-1.48953 -4.14081,-0.96314 -5.70789,1.51658 -12.38791,19.60261 -30.03094,31.71318 -52.72873,36.2841 -3.66851,0.73877 -4.54709,2.56935 -4.48532,5.83144 0.10718,5.66061 0.005,11.32495 0.0136,16.9877 0.0171,11.05386 0.009,11.12729 10.99045,13.27701 28.77573,5.63331 52.41083,19.73661 70.44495,42.90727 2.7684,3.55691 5.08072,3.75538 8.72973,1.49957 7.50324,-4.63852 15.11753,-9.13089 22.91977,-13.23973 4.63388,-2.44031 5.8869,-5.02335 4.12543,-10.27332 -5.33545,-15.9018 -5.1673,-32.00544 0.19684,-48.77279 M 119.16543,368.35333 c -30.734896,-21.71396 -73.28908,-14.9396 -94.708239,15.077 -22.13523,31.02005 -15.763781,73.18887 14.377606,95.15698 30.698406,22.37408 73.435243,15.93338 95.587643,-14.4057 22.45174,-30.74905 15.98111,-72.84219 -15.25701,-95.82828 m 94.79123,159.91779 c -1.04008,4.98602 -0.28518,9.90063 0.28147,14.88629 4.14526,36.4715 39.70572,64.25061 75.99838,59.34772 42.2338,-5.70551 68.10318,-47.1709 57.84342,-85.0766 -8.44898,-31.21552 -38.16388,-53.15564 -70.68396,-51.00916 -32.71474,2.15936 -60.08011,28.51923 -63.43931,61.85175 m 54.92817,-161.87174 c -19.27816,2.79297 -36.6977,9.80173 -52.42696,22.58298 8.59868,6.75125 17.11559,11.92664 27.00096,15.59155 0.5791,-4.18054 1.49439,-8.31604 6.33916,-6.40295 4.65051,1.83646 2.10429,5.58203 0.61513,8.52444 27.07141,11.95426 82.02108,1.58622 96.46609,-18.43457 -22.96063,-17.16885 -48.35638,-25.25937 -77.99438,-21.86145 z"
     id="path2" /><path
     fill="#000000"
     opacity="1"
     stroke="none"
     d="m 289.27801,554.76602 c -0.0464,-2.86221 -1.04376,-4.84759 -2.80609,-6.57434 -3.5652,-3.49321 -6.9844,-7.13753 -10.5976,-10.57908 -3.54494,-3.37655 -7.94942,-3.39802 -11.52647,0.0171 -4.45147,4.24998 -8.69275,8.71926 -13.08323,13.03437 -1.65301,1.62464 -2.22683,3.4888 -2.36882,5.78199 -0.27407,4.42633 -3.23796,6.47839 -7.31775,6.65841 -3.78474,0.16696 -6.3926,-2.02958 -7.24735,-5.63614 -0.95286,-4.0206 0.35478,-7.88877 4.50558,-8.79063 10.4462,-2.26965 14.94635,-11.55069 22.10196,-17.67535 1.39601,-1.19487 1.1375,-3.05837 1.62113,-4.61988 1.09427,-3.53306 3.24053,-5.71121 7.15932,-5.77864 3.89522,-0.067 6.20925,1.89508 7.34219,5.48665 2.67665,8.48528 10.28018,12.78183 16.12081,18.48982 2.09816,2.05053 5.43851,0.90117 7.65925,-1.2913 6.1563,-6.07794 12.23496,-12.23445 18.37522,-18.32877 1.4183,-1.40767 1.78467,-3.10853 1.83312,-4.99533 0.11938,-4.64917 3.12459,-6.44237 7.18297,-6.63176 3.9747,-0.18547 6.76123,1.79692 7.43988,5.8698 0.68212,4.0936 -0.72926,8.01211 -4.92143,8.49667 -5.27846,0.61015 -8.2024,3.89418 -11.46985,7.13291 -4.13575,4.09944 -8.27874,8.19192 -12.37509,12.33049 -1.38595,1.40026 -2.66495,2.73881 -2.62009,5.10348 0.0731,3.85358 -1.75055,6.8402 -5.70059,7.75574 -4.32472,1.00236 -7.44794,-0.78586 -9.30707,-5.25626 z"
     id="path4" /><path
     fill="#000000"
     opacity="1"
     stroke="none"
     d="m 538.88611,418.02362 c -6.45801,1.9531 -12.59015,0.32559 -18.71655,0.35403 -3.12226,0.0145 -6.29981,-0.53195 -9.31763,0.42331 -0.90741,1.65143 0.15899,2.82563 0.94934,3.70035 6.22955,6.89475 4.41595,15.28488 4.48492,23.32059 0.0137,1.59228 -0.43774,3.11758 -2.40844,3.15137 -1.89539,0.0325 -2.63544,-1.53235 -2.77121,-2.99936 -0.29078,-3.14099 -0.4773,-6.32669 -0.28928,-9.46909 0.31662,-5.29254 -2.24103,-9.09225 -5.73236,-12.84885 -2.30145,10.79853 -2.30154,10.77448 -13.79453,10.82395 -6.16262,0.0265 -12.32983,0.34387 -18.48593,0.1831 -7.02115,-0.18338 -7.98669,-1.3374 -8.17022,-8.28811 -0.026,-0.98468 -0.004,-1.97061 -0.004,-3.45636 -5.64969,5.25592 -6.99662,11.34283 -6.70609,18.26105 0.11478,2.73312 1.57001,7.67367 -2.94058,7.52835 -4.03525,-0.12995 -1.86563,-4.81729 -2.32663,-7.48697 -1.40817,-8.1554 1.46521,-15.26132 6.99151,-22.46329 -6.16012,-0.60376 -11.05487,-0.50241 -15.97589,-0.13922 -3.14941,0.23242 -6.3186,0.42819 -9.47067,0.34122 -5.24109,-0.14454 -6.53113,-2.4635 -4.84317,-7.54569 0.89645,-2.69922 3.53299,-3.89923 4.77951,-6.25525 -1.15799,-3.10119 -3.91937,-1.96664 -6.00296,-2.41315 -1.5545,-0.33312 -3.08307,-0.6351 -2.92935,-2.64837 0.13248,-1.7349 1.62427,-2.04175 2.95148,-2.06021 5.82818,-0.0812 11.65817,-0.0895 17.48681,-0.0394 1.62372,0.014 3.02668,0.6517 2.94776,2.61972 -0.0721,1.79974 -1.60135,1.9089 -2.89603,2.12649 -1.14633,0.19263 -2.34448,0.11905 -3.47162,0.375 -2.29107,0.52024 -3.35733,1.57859 -1.35486,3.74573 2.77549,3.00373 5.62159,5.23627 10.27851,4.79221 6.28454,-0.59924 12.64578,-0.4682 18.97479,-0.49634 3.23657,-0.0144 5.24795,-0.80209 5.81775,-4.54837 0.68631,-4.51224 3.41214,-7.66589 8.35541,-7.78281 4.79708,-0.11349 7.61361,3.11081 8.36694,7.19059 0.8999,4.8735 3.59412,5.68408 7.72464,5.56399 5.82687,-0.1694 11.67194,-0.2637 17.49036,0.01 4.24713,0.19971 7.35669,-1.36246 9.96051,-4.51416 0.74383,-0.90039 1.84283,-1.57517 1.36279,-2.94153 -0.46063,-1.31113 -1.67804,-1.51505 -2.85932,-1.59939 -1.16113,-0.0829 -2.33197,-0.0226 -3.49511,-0.0874 -1.31073,-0.0729 -2.26966,-0.62201 -2.24433,-2.10727 0.02,-1.17218 0.78333,-1.94647 1.83228,-2.04882 6.47443,-0.63184 12.96271,-0.6196 19.43866,-0.0341 1.22461,0.11071 2.1875,0.86853 2.01965,2.36059 -0.13342,1.18613 -0.94696,1.69818 -2.01648,1.85257 -0.6557,0.0946 -1.34356,-0.008 -1.99041,0.11655 -1.72467,0.33188 -4.04053,-0.5791 -5.02069,1.35742 -1.18427,2.33966 1.50628,2.93863 2.59179,4.21051 2.46307,2.8862 3.50067,5.97452 1.42847,9.86496 m -55.27997,0.32498 c -2.51999,0.43906 -6.05222,-1.3764 -6.98199,2.71015 -0.85175,3.74356 3.05499,8.26178 7.13897,8.6134 4.28833,0.36926 7.90622,-2.61453 8.08969,-6.82861 0.25363,-5.82505 -4.19339,-4.14698 -8.24667,-4.49494 m 2.85394,-14.15353 c -1.25729,-2.10245 -2.80041,-2.21057 -4.26391,-0.35462 -1.12824,1.43085 -0.74759,2.98102 0.9534,3.58548 2.14669,0.76291 3.49588,-0.14065 3.31051,-3.23086 z"
     id="path8" /><path
     fill="#000000"
     opacity="1"
     stroke="none"
     d="m 51.714874,156.47166 c 2.074188,-3.25016 3.876038,-6.24784 5.867432,-9.11384 4.537018,-6.52962 9.618072,-6.62237 14.281219,-0.31329 1.862061,2.51932 3.640808,5.10026 5.251099,7.36313 2.151917,0.19622 2.729462,-1.24718 3.740295,-2.02689 3.827362,-2.9523 8.34665,-3.07144 11.110383,0.74805 10.342868,14.29402 20.605678,28.77451 25.146058,46.16241 2.9523,11.30613 -1.01911,21.09172 -9.30081,28.8744 -8.953769,8.41423 -19.655826,10.82017 -31.440616,7.03177 -11.824341,-3.80113 -18.788635,-12.20144 -21.418396,-24.13992 -0.632324,-2.87063 -1.92923,-4.66459 -4.198135,-6.32587 -10.087845,-7.3863 -13.238282,-17.75148 -8.965424,-29.43108 2.411789,-6.59249 5.996613,-12.6054 9.926895,-18.82887 m 30.077637,13.48767 c -5.634552,8.83901 -11.038116,17.79669 -14.968201,27.56929 -1.271515,3.16177 -2.106659,6.40745 -1.522278,9.73041 2.180512,12.39913 7.668122,15.41729 17.740387,12.46586 8.963349,-2.62648 14.785553,-8.81292 17.420651,-17.70044 2.98169,-10.0565 -5.07745,-30.28342 -14.527615,-37.14723 -1.943725,0.90751 -2.542114,2.95796 -4.142944,5.08211 m -12.569519,-7.13437 c -1.335114,-1.81596 -1.868683,-4.31272 -5.048767,-5.4955 -5.711548,8.434 -11.595734,16.90555 -13.543961,27.19154 -0.642578,3.39253 1.139542,7.11156 4.904099,9.32897 0.634308,-0.71304 1.352447,-1.22103 1.660034,-1.91183 3.531006,-7.93036 7.778168,-15.47308 12.303619,-22.86378 1.171479,-1.91315 1.236939,-3.73455 -0.275024,-6.2494 z"
     id="path10" /><path
     fill="#000000"
     opacity="1"
     stroke="none"
     d="m 95.270477,378.07013 c 10.233083,1.09879 18.367433,4.70734 22.422003,14.5975 0.78545,1.91593 2.67495,2.32825 4.35088,3.05338 8.63756,3.73724 13.43381,11.80047 12.06,20.19797 -1.48031,9.04846 -8.75994,16.03918 -18.28129,16.17376 -22.647815,0.32007 -45.308497,0.41715 -67.95309,0.005 -12.519901,-0.22769 -21.775751,-9.42453 -23.099315,-21.45016 -1.255781,-11.40976 6.218504,-21.60718 18.455696,-24.9733 1.734119,-0.47696 2.930817,-1.22833 3.924694,-2.72162 13.631706,-20.48117 29.788315,-22.18066 48.120422,-4.88293 m -32.377445,2.21936 c -2.811386,2.19623 -5.390869,4.75107 -6.092857,8.29141 -1.047573,5.2833 -3.79847,7.4707 -9.262326,7.56531 -5.987907,0.10367 -10.240764,4.10266 -11.784061,9.78537 -1.325069,4.87915 0.708214,7.91965 5.695576,7.93777 21.473098,0.078 42.946647,0.0372 64.420036,0.0283 4.96708,-0.002 7.72012,-2.38253 8.04432,-7.37259 -4.6138,-2.86438 -4.61379,-2.86438 -6.31734,-8.85354 -1.53056,-5.38104 -6.78232,-8.90525 -12.213934,-7.72046 -4.065498,0.88684 -6.515495,-0.45255 -8.715057,-3.85336 -5.880097,-9.09153 -13.253311,-10.956 -23.774357,-5.80817 z"
     id="path12" /><path
     fill="#000000"
     opacity="1"
     stroke="none"
     d="m 111.68098,445.64499 c -2.51214,-0.25726 -3.58371,1.22262 -4.6594,2.75644 -0.72536,1.03421 -1.72083,1.67297 -2.99008,0.9967 -1.67061,-0.8901 -1.02968,-2.24454 -0.46633,-3.44958 1.7983,-3.84668 4.96343,-5.3125 8.99368,-4.55841 4.38352,0.82025 6.61017,3.90796 6.60479,8.16311 -0.005,4.18763 -2.66207,6.81614 -6.647,7.57801 -2.57639,0.49261 -5.30467,0.23443 -7.96497,0.23715 -12.480465,0.0126 -24.961193,0.0345 -37.441196,-0.0451 -1.782471,-0.0114 -4.175072,0.78653 -4.833985,-2.14297 1.064183,-2.26276 3.132836,-1.52735 4.804215,-1.53726 12.812568,-0.0762 25.625679,-0.0547 38.438536,-0.0929 1.659,-0.005 3.3389,-0.0452 4.9706,-0.3081 1.86123,-0.2999 3.60071,-1.03895 4.03576,-3.17075 0.43282,-2.12082 -0.61802,-3.4989 -2.84462,-4.42633 z"
     id="path14" /><path
     fill="#000000"
     opacity="1"
     stroke="none"
     d="m 72.133911,462.15857 c 0.491097,-0.86102 0.930481,-1.6228 1.444885,-1.67734 7.115342,-0.75479 14.281502,-1.35507 21.321389,0.26145 3.625785,0.83251 5.397895,3.67666 5.411095,7.4559 0.0132,3.79489 -1.885186,6.29245 -5.370644,7.57977 -3.557984,1.31412 -6.536209,0.25708 -8.967087,-2.51004 -1.288895,-1.46719 -2.28064,-3.4628 -0.726959,-4.8967 1.804855,-1.66565 2.755363,0.52594 3.815605,1.73071 1.343086,1.52607 3.005073,2.11692 4.899635,1.02442 1.379219,-0.79535 2.382706,-1.96164 1.957947,-3.67438 -0.508926,-2.05212 -2.082909,-3.00332 -4.077187,-3.04181 -4.826484,-0.0932 -9.657386,0.0115 -14.482254,-0.11981 -1.853058,-0.0505 -4.129219,0.78287 -5.226425,-2.13217 z"
     id="path16" /><path
     fill="#000000"
     opacity="1"
     stroke="none"
     d="m 100.28249,441.25662 c -0.495518,6.7944 -2.76672,9.02851 -9.003987,9.10523 -5.155204,0.0634 -10.312629,0.0484 -15.467529,-0.0313 -1.386513,-0.0214 -3.487045,0.39254 -3.574173,-1.67469 -0.108391,-2.57196 2.265137,-1.92337 3.740441,-1.96881 4.154388,-0.12799 8.315902,-0.007 12.472526,-0.0898 1.472611,-0.0292 2.995422,-0.17682 4.394211,-0.6026 1.71508,-0.52203 2.742561,-1.8526 2.824562,-3.71881 0.07513,-1.70993 -0.85276,-2.83954 -2.356583,-3.46448 -1.857093,-0.77176 -3.219337,0.13257 -4.325691,1.52863 -1.070846,1.35122 -1.956886,3.92788 -4.049576,2.0354 -1.880104,-1.70029 -0.09344,-3.75019 1.101967,-5.24918 4.262062,-5.34442 11.362961,-3.45453 14.243832,4.1304 z"
     id="path18" /><path
     fill="#000000"
     opacity="1"
     stroke="none"
     d="m 56.611019,468.29596 c 5.638706,-0.40164 10.912464,-0.55139 16.187191,-0.60318 1.265953,-0.0125 2.925942,-0.0843 3.012665,1.74802 0.08928,1.88647 -1.556839,1.89761 -2.845444,1.91296 -4.624214,0.0551 -9.250316,0.0647 -13.874031,-0.011 -1.679115,-0.0275 -3.523437,-0.16891 -2.480381,-3.04678 z"
     id="path20" /><path
     fill="#000000"
     opacity="1"
     stroke="none"
     d="m 63.47953,443.4758 c -1.82817,-0.29758 -4.196335,0.71689 -4.344715,-1.72223 -0.147987,-2.43268 2.151531,-2.04574 3.720574,-2.08392 2.987301,-0.0727 5.978664,-0.0324 8.967144,0.024 1.158439,0.0219 2.54544,0.0832 2.66233,1.61026 0.139763,1.82596 -1.31163,2.09369 -2.701851,2.12452 -2.651405,0.0588 -5.304542,0.0395 -8.303482,0.0473 z"
     id="path22" /><path
     fill="#000000"
     opacity="1"
     stroke="none"
     d="m 45.184044,453.6217 c 3.269741,0.0212 6.077045,0.0175 8.882938,0.0787 1.043209,0.0228 2.063507,0.34961 2.003239,1.63522 -0.02593,0.55319 -0.429977,1.25964 -0.884758,1.59165 -1.792431,1.3085 -12.891769,0.20037 -14.957256,-1.43699 0.713592,-2.50164 2.848629,-1.60995 4.955837,-1.86853 z"
     id="path24" /><path
     fill="#000000"
     opacity="1"
     stroke="none"
     d="m 267.73932,387.60342 c 3.8114,-1.37808 6.30762,-0.17996 7.36035,3.17987 0.7887,2.51706 0.16763,4.95014 -2.46155,6.34186 -2.7709,1.46686 -5.20892,0.90152 -6.89001,-1.67251 -1.94205,-2.97376 -1.27616,-5.62162 1.99121,-7.84922 z"
     id="path28" /><path
     fill="#000000"
     opacity="1"
     stroke="none"
     d="m 300.41321,381.83194 c 1.50409,3.25064 1.33389,5.98926 -1.50736,7.7742 -2.12787,1.33682 -4.5906,1.18381 -6.41433,-0.68503 -2.06604,-2.11722 -2.64225,-4.79007 -0.59171,-7.17645 2.49942,-2.90891 5.41431,-2.79498 8.5134,0.0873 z"
     id="path30" /><path
     fill="#000000"
     opacity="1"
     stroke="none"
     d="m 291.4549,409.69623 c -3.72437,0.80926 -5.40101,-0.86719 -5.66395,-4.01605 -0.19448,-2.32907 1.13871,-3.73145 3.44428,-4.06226 2.28287,-0.32758 3.87341,0.69183 4.64206,2.82684 0.81085,2.25241 -0.34107,3.80069 -2.42239,5.25147 z"
     id="path32" /><path
     fill="#000000"
     opacity="1"
     stroke="none"
     d="m 331.75812,389.99255 c 0.41556,-3.25073 2.14758,-4.4981 4.87732,-4.05368 2.00943,0.32718 3.24517,1.8396 3.34774,3.82001 0.11457,2.21091 -1.04858,3.93933 -3.31088,4.31152 -2.72699,0.4487 -4.43097,-0.88842 -4.91418,-4.07785 z"
     id="path34" /><path
     fill="#000000"
     opacity="1"
     stroke="none"
     d="m 319.58896,389.97494 c -3.38739,0.66199 -5.27503,-0.59414 -5.72824,-3.56979 -0.31769,-2.08554 0.92377,-3.45642 2.80957,-4.1795 2.01773,-0.77365 3.65353,0.0663 4.76297,1.66232 1.67459,2.40915 0.72732,4.3674 -1.8443,6.08697 z"
     id="path36" /><path
     fill="#000000"
     opacity="1"
     stroke="none"
     d="m 258.81,372.9191 c 0.50067,-3.0838 2.04907,-4.51493 4.82416,-4.13056 2.01831,0.27957 3.17724,1.69593 3.50683,3.63047 0.35086,2.05941 -0.70999,3.62985 -2.52359,4.32632 -3.19144,1.22562 -4.96231,-0.41086 -5.8074,-3.82623 z"
     id="path38" /><path
     fill="#000000"
     opacity="1"
     stroke="none"
     d="m 233.17001,379.90057 c 2.63286,0.15854 4.81197,0.74378 4.76317,3.51221 -0.0374,2.12155 -1.29272,3.71616 -3.63701,3.93707 -2.02119,0.19043 -3.61198,-0.63595 -4.22296,-2.60629 -0.76126,-2.45495 0.17648,-4.14914 3.0968,-4.84299 z"
     id="path40" /><path
     fill="#000000"
     opacity="1"
     stroke="none"
     d="m 483.32541,421.72732 c 2.78229,-0.32446 4.26456,0.611 3.76178,3.21708 -0.32428,1.68094 -1.80521,2.60589 -3.32584,1.92978 -2.49768,-1.11063 -2.75592,-2.98215 -0.43594,-5.14686 z"
     id="path42" /><g
     id="g1261"
     transform="matrix(-0.44949013,0,0,0.44949013,552.18932,150.90546)"><path
       fill="#0d0d0d"
       opacity="1"
       stroke="none"
       d="M 77.05733,109.44633 C 68.60385,111.60612 60.56334,113.7 52.10257,111.84353 43.37641,109.92885 39.71445,103.24361 44.0046,95.51502 46.80363,90.47264 50.51657,85.872457 54.25504,81.441106 56.499,78.781263 56.98269,76.841871 55.19275,73.633352 46.54123,58.125181 38.18178,42.454187 29.7036,26.849168 25.59925,19.29465 26.46071,13.89938 33.23781,8.53498 36.98197,5.57131 41.20585,3.21369 46.10138,0 c 0.30352,7.31528 5.89122,9.13498 10.38831,11.93496 17.34586,10.7999 34.75049,21.505399 52.76974,32.63939 -7.35955,5.963326 -14.43892,11.699635 -21.5183,17.43594 0.23514,0.372612 0.47028,0.745216 0.70542,1.117821 2.06945,-0.860543 4.14656,-1.703187 6.20707,-2.584656 10.35286,-4.428932 20.66812,-8.948166 31.06742,-13.265007 4.30075,-1.785282 9.03835,-1.595818 12.10343,1.866607 4.76077,5.377961 11.10627,6.388909 17.33665,7.739983 35.18269,7.629478 70.36041,15.295273 105.64081,22.450821 8.06091,1.634903 16.59796,1.780876 24.76651,-5.112885 -0.86963,3.709412 -0.97842,6.239235 -2.03101,8.28299 -3.40616,6.613606 -6.74655,13.327366 -10.89865,19.471096 -3.85269,5.70078 -10.20245,7.29898 -16.80765,6.83975 -12.62254,-0.87758 -25.22245,-2.07686 -37.835,-3.10282 -19.41309,-1.57917 -38.82996,-3.1118 -58.24307,-4.69063 -8.62842,-0.70174 -17.26639,-1.32779 -25.87391,-2.23582 -15.29085,-1.61304 -30.18454,-0.98301 -44.30631,6.10494 -3.81963,1.91713 -8.0806,2.95499 -12.51551,4.55385 z"
       id="path4-7"
       style="fill:#000000" /><path
       fill="#0fabec"
       opacity="1"
       stroke="none"
       d="m 92.14914,146.2504 c -5.32513,-1.93559 -10.27039,-3.7733 -15.29845,-5.64177 5.79139,-7.49029 8.45962,-8.27159 16.72204,-5.20433 7.60417,2.82291 15.22712,5.59517 23.20288,8.52223 -0.58678,3.41541 -1.13857,6.62711 -1.83025,10.65316 -7.66127,-2.81327 -15.0388,-5.52234 -22.79622,-8.32929 z"
       id="path6-7"
       style="fill:#000000" /><path
       fill="#222222"
       opacity="1"
       stroke="none"
       d="m 135.02144,36.124784 c -3.68368,0.305367 -6.97236,0.670849 -11.58562,1.18354 7.20061,-5.499404 13.83404,-6.834827 20.90371,-3.725883 7.43994,3.271778 11.34939,9.276459 12.07828,17.695404 -3.46346,0.896225 -6.52884,0.687546 -7.68473,-3.052589 -2.09132,-6.767018 -6.8717,-10.248364 -13.71164,-12.100472 z"
       id="path8-0"
       style="fill:#000000" /><path
       fill="#14acec"
       opacity="1"
       stroke="none"
       d="m 156.87549,135.29529 c 6.51868,-3.6659 9.09009,1.76734 13.69885,5.06182 -7.7136,3.08052 -14.62165,5.83932 -22.00337,8.7873 -1.44221,-2.98339 -2.76042,-5.71023 -4.28763,-8.86944 4.33719,-1.72354 8.27727,-3.28929 12.59215,-4.97968 z"
       id="path10-6"
       style="fill:#000000" /><path
       fill="#19adec"
       opacity="1"
       stroke="none"
       d="m 99.01752,122.32943 c 1.99361,-0.16095 3.806,-0.45885 5.38509,0.0172 3.46816,1.0455 6.80889,2.50827 10.21877,3.75378 5.60364,2.04685 5.76328,2.42261 2.92544,8.83213 -7.42896,-2.69022 -14.90867,-5.39881 -23.40162,-8.47431 1.99405,-1.70242 3.28966,-2.80856 4.87232,-4.12878 z"
       id="path12-0"
       style="fill:#000000" /><path
       fill="#1daeec"
       opacity="1"
       stroke="none"
       d="m 148.30133,128.64704 c -2.79144,1.0585 -5.24264,1.97084 -8.0901,3.03065 -0.99129,-2.07426 -1.8855,-3.9454 -2.7465,-5.74705 7.06684,-5.21947 9.03288,-5.14427 14.98266,0.70866 -1.37924,0.67467 -2.59253,1.26813 -4.14606,2.00774 z"
       id="path14-0"
       style="fill:#000000" /><path
       fill="#20aeed"
       opacity="1"
       stroke="none"
       d="m 117.54555,114.0521 c 4.41736,1.0406 4.06957,3.53979 2.49197,6.84093 -3.86828,-1.42514 -7.69458,-2.83484 -11.76389,-4.33407 2.06404,-4.86346 5.29934,-4.38975 9.27192,-2.50686 z"
       id="path16-1"
       style="fill:#000000" /><path
       fill="#2ab0ed"
       opacity="1"
       stroke="none"
       d="m 138.95069,116.65807 c -7.2847,4.95013 -5.67275,-3.33322 -8.67021,-4.73376 0.39466,-0.55717 0.78932,-1.11434 1.18397,-1.67152 2.56386,2.04993 5.12772,4.09985 7.48624,6.40528 z"
       id="path18-0"
       style="fill:#000000" /></g><g
     id="g2351"
     transform="matrix(0.20951124,0,0,0.20951124,23.58775,4.154804)"><path
       fill="#000000"
       opacity="1"
       stroke="none"
       d="m 1066.5479,614.17369 c -0.4687,-9.8075 -0.4687,-19.61499 -0.4687,-29.92163 47.0543,0 93.898,0 141.5837,0 -5.2267,-7.00879 -9.8431,-13.3533 -14.6218,-19.57321 -8.2114,-10.68796 -16.5423,-21.284 -24.7895,-31.94458 -10.0238,-12.95697 -20.0067,-25.94562 -30.0187,-38.91165 -10.3161,-13.35975 -20.7203,-26.6522 -30.9487,-40.07868 -10.0079,-13.13696 -20.1366,-26.19821 -29.6611,-39.68201 -7.6977,-10.89764 -14.8398,-22.21456 -21.7462,-33.63705 -7.5014,-12.40659 -13.3727,-25.63066 -16.0257,-39.97655 -1.6817,-9.09318 -3.3224,-18.3157 -3.587,-27.52028 -0.3847,-13.38833 -0.3742,-26.90518 1.0511,-40.19743 1.627,-15.17319 5.4314,-30.02205 11.0628,-44.34833 7.955,-20.23779 18.5954,-38.77274 32.4608,-55.61285 18.8173,-22.85446 41.6045,-40.47225 68.2644,-52.9994 14.9879,-7.0426 30.6492,-12.39905 47.2093,-14.59925 5.4848,-0.72871 10.9688,-1.46302 16.6099,-2.59593 12.511,-0.40117 24.8652,-0.40117 37.6881,-0.40117 5.4372,0.99931 10.4716,1.75055 15.3614,3.04712 11.9181,3.16023 23.9212,6.11451 35.6139,9.98608 20.2929,6.71925 38.0522,18.30728 54.3981,31.6874 12.9196,10.57552 24.3643,22.90858 33.9368,36.75761 11.7469,16.99487 21.1416,35.13621 27.3152,54.9476 3.8113,12.2307 6.9742,24.59357 7.735,37.35593 0.8178,13.7195 1.6321,27.53502 0.9176,41.22879 -1.2295,23.56671 -8.4464,45.62582 -21.0646,65.5744 -10.5086,16.61334 -21.4924,32.96426 -33.0284,48.87866 -11.3395,15.6435 -23.6895,30.55222 -35.5022,45.85587 -9.5092,12.31933 -18.838,24.77771 -28.3195,37.11859 -11.4764,14.93729 -23.0397,29.80768 -34.5445,44.72311 -6.1344,7.95307 -12.225,15.93997 -18.8034,24.52231 47.3109,0 94.1167,0 141.4532,0 0,10.17169 0,19.77545 0,29.8479 -109.6875,0.46863 -219.3751,0.46863 -329.5313,0.46863 m 170.0158,-481 c -8.0806,0.33236 -16.1774,0.44422 -24.2384,1.04087 -19.5645,1.4481 -37.8853,7.65971 -55.1045,16.5491 -18.4451,9.5222 -34.5875,22.17073 -48.4627,37.95772 -15.5116,17.64893 -26.9763,37.38366 -34.1538,59.57243 -4.6005,14.2222 -7.9019,28.85653 -7.4635,43.96185 0.3676,12.66792 0.2442,25.48421 2.2289,37.9334 1.989,12.47682 6.5287,24.55389 13.7732,35.18089 12.908,18.93475 25.7791,37.90857 39.2498,56.44134 10.407,14.31769 21.7524,27.95121 32.596,41.95441 8.5354,11.02252 16.928,22.15555 25.4089,33.22043 11.5476,15.06604 23.1211,30.1123 34.6792,45.17035 5.2029,6.77838 10.3954,13.56473 15.9232,20.7789 7.94,-10.1239 15.5212,-19.61649 22.9118,-29.25528 10.3532,-13.50266 20.4694,-27.18747 30.8624,-40.65909 10.9182,-14.15246 22.142,-28.06937 33.0495,-42.22995 10.2821,-13.34866 20.4155,-26.81439 30.4535,-40.3479 13.3402,-17.98563 26.8223,-35.85037 36.4536,-56.29707 5.7964,-12.3055 9.3461,-25.21152 10.1619,-38.54486 1.5052,-24.60396 -0.171,-48.984 -8.7923,-72.49427 -7.119,-19.41365 -17.0695,-37.26248 -30.6031,-52.75313 -11.2161,-12.83807 -23.8966,-24.23903 -38.7454,-33.14703 -24.4561,-14.67158 -50.5878,-23.2999 -80.1882,-24.03311 z"
       id="path6" /><path
       fill="#000000"
       opacity="1"
       stroke="none"
       d="m 1145.3286,193.42795 c 18.0763,-14.80009 38.1556,-24.80123 60.9535,-28.05194 12.6635,-1.80565 25.7257,-2.87324 38.4253,-1.89622 20.4053,1.56985 39.6235,8.22842 57.1613,19.06769 11.4905,7.10171 21.9521,15.60467 30.7705,25.80744 14.9703,17.32034 25.2573,37.10634 30.5417,59.55765 3.4116,14.4944 3.8903,29.19224 2.6389,43.70774 -1.7859,20.71471 -8.3728,40.20473 -19.6026,57.9809 -7.0549,11.16751 -15.2781,21.38315 -25.1971,29.99536 -17.4122,15.11807 -37.3299,25.45148 -59.9899,30.7128 -14.5237,3.37219 -29.2385,4.00147 -43.7096,2.5824 -27.0125,-2.6489 -51.3276,-12.73355 -72.4605,-30.30216 -16.0935,-13.37912 -28.4325,-29.48205 -37.1421,-48.34939 -5.5481,-12.01865 -9.5773,-24.64302 -10.5542,-37.93202 -0.7633,-10.38315 -1.8209,-20.92305 -0.86,-31.21711 1.9501,-20.89221 7.8527,-40.88659 19.9253,-58.30876 6.943,-10.01937 15.3437,-19.03711 23.2251,-28.39032 1.5502,-1.83967 3.7282,-3.15036 5.8744,-4.96405 m 57.751,132.24188 c 0.9931,0.83455 1.962,2.35547 2.9833,2.39158 6.314,0.22317 12.6398,0.11225 18.9617,0.11227 11.2658,3e-5 22.5316,0 34.3641,0 0,-20.18881 0,-39.90431 0,-59.67001 -19.2092,0 -37.7262,0 -56.3095,0 0,18.96266 0,37.59544 4e-4,57.16616 m -32.0004,-39.98121 c 0,-5.69641 0,-11.39282 0,-17.51413 -12.0864,0 -24.8758,-0.0699 -37.6612,0.12266 -1.1148,0.0168 -2.9121,1.58347 -3.1984,2.72872 -4.5191,18.07591 -4.5211,36.212 -7e-4,54.2881 0.2869,1.14711 2.0791,2.71915 3.1915,2.73593 12.7858,0.19293 25.5756,0.12296 37.6688,0.12296 0,-14.09906 0,-27.79381 0,-42.48424 m 162.0468,-8.14011 c -0.4656,-2.37672 -0.733,-4.81944 -1.4923,-7.09836 -0.313,-0.93971 -1.6757,-2.16899 -2.5728,-2.17874 -12.9506,-0.14091 -25.9031,-0.0965 -38.4812,-0.0965 0,20.25336 0,39.99237 0,59.99825 12.6505,0 25.2949,0.0976 37.9323,-0.157 1.2107,-0.0244 3.0652,-2.05249 3.4585,-3.4724 4.232,-15.27614 4.0424,-30.7606 1.1555,-46.99527 m -117.6232,-63.31564 c -2.5852,7.82148 -5.1704,15.64295 -7.8557,23.76712 15.9883,0 31.1108,0 46.3523,0 -0.6704,-2.83291 -1.105,-5.53985 -1.9541,-8.10984 -4.0469,-12.2488 -7.6029,-24.74027 -17.6243,-33.94229 -2.4853,-2.28206 -4.1644,-2.28117 -6.6819,-0.0256 -5.4919,4.92052 -8.9634,11.05247 -12.2363,18.3106 m -5.464,150.6297 c 3.2573,12.92411 7.4599,25.33899 17.2368,35.11811 2.9605,2.96115 4.982,2.65362 7.7772,-0.16199 11.4226,-11.50589 14.885,-26.49353 19.0751,-41.44754 -15.6493,0 -30.7545,0 -46.01,0 0.5181,2.07455 0.9822,3.93246 1.9209,6.49142 m -38.6891,-126.68887 c 3.3978,0.46431 5.1023,-0.45183 5.8972,-4.37486 1.3924,-6.87229 3.822,-13.53292 5.7808,-20.29272 0.7771,-2.68187 1.4577,-5.39171 2.4587,-9.11795 -16.2639,8.59646 -29.51,18.79487 -39.1795,33.78553 8.2369,0 16.1626,0 25.0428,0 m 111.2428,-13.98956 c 0.8352,3.59956 1.4946,7.25442 2.5998,10.76904 0.3926,1.24846 1.846,3.05308 2.8546,3.07924 9.1964,0.23836 18.4015,0.13997 28.0439,0.13997 -15.9851,-19.12845 -29.2077,-30.21826 -39.0912,-32.73511 1.7395,6.1318 3.4293,12.08811 5.5929,18.74686 m -97.545,166.2142 c -2.6983,-9.88644 -5.3486,-19.78665 -8.1679,-29.63849 -0.2883,-1.00738 -1.5762,-2.44958 -2.4234,-2.46564 -9.3355,-0.17694 -18.6756,-0.11114 -28.6535,-0.11114 2.716,3.20389 4.9398,5.59128 6.8989,8.17914 8.4237,11.12729 19.5077,18.78073 32.3459,24.03613 m 104.5438,-6.23084 c 10.6462,-6.591 19.131,-15.35104 26.3385,-25.99371 -9.2194,0 -18.0155,0.12616 -26.8043,-0.0715 -2.8979,-0.0652 -3.4648,1.52591 -4.0628,3.67847 -2.4456,8.80273 -4.9785,17.5812 -7.4379,26.38015 -0.2583,0.92426 -0.2435,1.9249 -0.4627,3.81531 4.5423,-2.7785 8.223,-5.02997 12.4292,-7.80869 z"
       id="path10-8" /></g></g></svg>
