<?xml version="1.0" encoding="UTF-8" standalone="no"?>
<svg
   version="1.1"
   id="Layer_1"
   x="0px"
   y="0px"
   width="573.69421"
   viewBox="0 0 573.69421 675.49023"
   enable-background="new 0 0 944 1024"
   xml:space="preserve"
   sodipodi:docname="vv.svg"
   inkscape:version="1.1 (c68e22c387, 2021-05-23)"
   height="675.49023"
   xmlns:inkscape="http://www.inkscape.org/namespaces/inkscape"
   xmlns:sodipodi="http://sodipodi.sourceforge.net/DTD/sodipodi-0.dtd"
   xmlns="http://www.w3.org/2000/svg"
   xmlns:svg="http://www.w3.org/2000/svg"><defs
   id="defs13" /><sodipodi:namedview
   id="namedview11"
   pagecolor="#ffffff"
   bordercolor="#666666"
   borderopacity="1.0"
   inkscape:pageshadow="2"
   inkscape:pageopacity="0.0"
   inkscape:pagecheckerboard="0"
   showgrid="false"
   inkscape:zoom="0.25"
   inkscape:cx="74"
   inkscape:cy="238"
   inkscape:window-width="1366"
   inkscape:window-height="697"
   inkscape:window-x="-8"
   inkscape:window-y="-8"
   inkscape:window-maximized="1"
   inkscape:current-layer="Layer_1" />




<g
   id="g1295"
   transform="translate(-1347.4049,-294.49326)"><path
     fill="#000000"
     opacity="1"
     stroke="none"
     d="m 1493.6814,799.48334 c 3.3936,-2.16724 6.422,-4.2453 9.5912,-6.0802 8.4521,-4.89362 16.116,-10.29557 19.5608,-20.24002 3.038,-8.7703 11.171,-9.45288 18.6782,-9.32001 5.9925,0.10605 9.6603,-2.19562 12.6548,-6.92658 2.3126,-3.65371 5.2071,-6.93841 7.5312,-10.58572 7.1849,-11.27518 17.3455,-18.68457 29.6406,-23.49158 2.5521,-0.99771 5.4052,-1.68777 5.6536,-5.45276 0.3358,-5.08963 -0.5889,-6.08892 -5.73,-5.51782 -1.9685,0.21869 -4.3424,0.73026 -5.9096,-0.0858 -5.7334,-2.98536 -10.7271,-1.47922 -16.41,0.59149 -6.8583,2.49908 -13.5786,0.58768 -18.5452,-5.16211 -1.8545,-2.14697 -3.2827,-2.44901 -5.9004,-1.27399 -7.4314,3.33573 -14.4014,2.03327 -20.3089,-3.49447 -2.2263,-2.08307 -4.4776,-2.41227 -7.2566,-2.22995 -14.4993,0.95114 -22.6365,-4.10212 -28.4232,-17.66416 -0.9602,-2.25036 -2.1909,-3.36813 -4.7841,-3.47287 -8.3515,-0.33749 -14.2235,-4.52591 -17.008,-12.39337 -2.708,-7.65109 -0.8605,-14.51532 5.0721,-20.0181 2.1629,-2.00613 1.7201,-3.91684 1.2597,-6.30023 -2.7792,-14.38531 3.8271,-27.90478 17.3332,-30.44003 8.8707,-1.66516 14.7398,-4.74906 19.3426,-12.17121 2.388,-3.85055 7.1098,-5.3511 11.4239,-6.76065 1.8042,-0.5895 3.0662,-1.26715 3.7774,-3.39877 5.8829,-17.63138 19.7992,-21.207 34.1794,-8.38977 10.4317,-7.83154 21.6787,-8.9205 32.9115,-2.07877 2.1966,-0.97146 2.5574,-2.73544 3.2855,-4.1661 10.6287,-20.88205 37.0808,-23.29624 50.9126,-4.54862 1.5844,2.1474 2.9419,3.07059 5.7498,2.3403 7.5531,-1.96423 14.5022,-0.0591 20.9033,4.14643 1.1242,0.73861 1.9855,1.41958 3.5793,0.76889 14.9571,-6.10633 17.9414,-5.50415 28.4188,5.43176 2.037,0.30875 3.2779,-1.29916 4.8056,-2.18228 15.9296,-9.20746 35.9873,0.26776 38.565,18.38782 0.3874,2.72323 1.3791,4.13931 3.8928,5.01446 6.5927,2.29532 11.538,6.60724 14.5637,12.91467 1.1795,2.4589 2.9007,3.18805 5.5133,3.33823 7.7903,0.44772 13.1093,4.68942 15.8398,11.81329 2.7785,7.24958 0.9762,13.93851 -4.3899,19.29313 -2.2965,2.29153 -2.8142,4.21252 -2.4992,7.34149 1.932,19.1828 -11.5072,32.06967 -30.558,29.50274 -1.7639,-0.23761 -3.2303,-0.0316 -4.7596,0.83258 -1.8772,1.06077 -3.7807,2.22181 -5.8251,2.80896 -4.0976,1.17679 -7.1887,2.94846 -9.761,6.84174 -4.7269,7.15421 -13.7011,9.2016 -21.8241,5.67499 -2.9823,-1.29474 -4.5618,-1.02939 -6.6283,1.60263 -5.1811,6.59866 -12.1689,8.23904 -20.1579,6.15094 -1.4224,-0.37177 -2.7839,-1.23691 -4.3502,-0.62189 -9.0041,3.53516 -16.5831,0.98303 -23.9116,-6.64139 0,4.7439 0.2327,8.3436 -0.066,11.89875 -0.2963,3.53045 2.8632,1.43264 4.0927,2.87243 5.9431,6.95899 12.6386,13.29315 18.3778,20.40537 24.3811,30.21438 54.4705,54.28985 84.5471,78.25824 13.5057,10.76282 28.6366,19.4815 42.9874,29.19055 8.3802,5.66962 13.6635,13.58374 15.8511,23.39868 0.5768,2.58789 1.8296,4.15656 3.8515,5.44824 12.4902,7.97919 24.5604,16.60511 37.4925,23.90686 13.1919,7.44867 24.6363,17.07471 34.1261,28.90516 3.7859,4.71978 8.1731,8.73315 12.8129,12.55236 4.9163,4.04688 9.4271,8.52924 12.2564,14.33246 3.4995,7.17792 0.1909,13.56555 -7.7056,14.72193 -3.9364,0.57647 -7.9683,0.69317 -11.957,0.69378 -180.1322,0.0257 -360.2644,0.0226 -540.3966,-0.0371 -4.0241,-0.001 -8.206,0.98652 -12.2456,-0.84369 1.0544,-2.45556 3.3324,-2.44494 5.0606,-3.20086 10.6583,-4.66174 21.8409,-8.20838 31.097,-15.71796 8.3039,-6.73712 14.8752,-14.81799 19.4737,-24.41376 10.3247,-21.5448 25.6168,-38.8413 44.8879,-52.69836 3.4495,-2.48041 4.8915,-5.11072 5.0389,-9.43701 0.3837,-11.26154 3.9096,-21.56159 11.3595,-30.27521 1.2006,-1.4043 2.2671,-2.81872 2.5784,-4.74664 1.5813,-9.7934 7.6909,-16.36615 15.5829,-21.61969 3.6057,-2.40021 7.2626,-4.72357 11.1973,-7.28186 m -49.714,162.13325 c 4.1525,-5.76032 8.3049,-11.52063 13.0867,-18.15381 -5.0798,0.42486 -9.0873,0.76007 -13.251,1.10828 0.1488,-2.89094 2.231,-3.70087 3.5892,-5.01166 11.0494,-10.66492 20.2115,-22.60773 25.108,-37.37671 2.4804,-7.48151 1.9026,-8.35748 -5.8127,-8.92603 -2.7745,-0.20446 -4.3016,-1.07965 -4.6497,-3.98303 -0.9923,-8.27368 8.6978,-22.59088 16.8212,-24.77173 6.0447,-1.62292 11.6453,-4.46741 13.5073,-10.72259 2.9397,-9.87561 5.1938,-19.9834 3.6836,-30.49073 -0.3671,-2.55413 -0.9312,-5.20666 0.1,-8.05542 6.566,-0.4104 12.5062,-2.4281 17.8406,-6.03002 2.5095,-1.69452 4.6591,-2.83338 7.5075,-0.28412 2.8123,2.51696 5.5941,4.43512 4.1358,9.07293 -2.3174,7.37043 -7.0081,12.74964 -12.9506,17.28382 -5.0613,3.86187 -8.978,8.49572 -9.8738,15.04083 -0.4719,3.44781 0.1814,6.74359 3.0656,9.01569 2.9161,2.29724 5.7345,0.48291 8.4017,-0.78205 4.2129,-1.99811 7.5667,-5.3739 9.5487,-9.28845 9.9526,-19.65662 19.1526,-39.6369 18.8353,-62.40665 -0.04,-2.88873 0.7406,-5.09808 2.8571,-7.08078 7.1772,-6.72369 15.3416,-11.59585 24.8218,-14.41714 3.9708,-1.1817 5.7738,0.0102 7.0874,3.70962 6.1268,17.25528 -1.4319,39.36957 -23.1773,43.90149 -1.9418,0.40467 -4.1821,0.30402 -5.1471,2.47107 -2.8756,6.45722 -5.4055,13.12171 -2.9445,20.2171 1.0228,2.94898 0.294,4.5716 -1.6688,6.51014 -8.6543,8.54718 -17.0431,17.36981 -25.8596,25.74359 -5.599,5.31799 -10.5576,10.58569 -9.7296,19.11603 0.168,1.73059 -0.7039,3.57159 -1.1426,5.35028 -4.9952,20.2503 -14.5508,38.57214 -24.0798,56.9046 -2.3419,4.50543 -4.6933,9.00592 -7.5764,14.53705 3.2459,0 5.1992,-4.3e-4 7.1525,1.2e-4 28.4982,0.008 56.9964,0.0159 85.4946,0.0218 1.1662,2.4e-4 2.3325,-0.0204 3.4987,-0.0346 2.5834,-0.0314 3.42,-1.17779 3.036,-3.82818 -2.1935,-15.13819 -4.1339,-30.31342 -6.3831,-45.443 -1.6935,-11.39105 -2.9539,-22.73517 -1.6546,-34.29272 2.1842,-19.42859 9.0245,-37.49372 16.0164,-55.48603 5.2807,-13.58886 9.9929,-27.08514 8.5305,-42.08859 -1.0025,-10.28549 -3.5918,-19.77804 -11.0722,-27.12915 -3.3445,-3.28668 -2.9263,-5.36893 -0.2233,-8.63 4.4685,-5.39103 8.447,-11.18805 12.632,-16.814 -10.179,2.20902 -17.6913,7.70459 -23.5377,15.51468 -4.2922,5.73392 -8.6832,11.41245 -12.631,17.3797 -3.0684,4.63785 -6.7743,6.77136 -12.4622,6.27789 -9.864,-0.85568 -17.1593,2.78784 -20.1516,12.9422 -1.4617,4.96018 -5.2149,7.81665 -9.4059,10.4827 -10.9614,6.97296 -21.8073,14.13092 -32.608,21.35174 -5.5383,3.70264 -8.8245,9.05634 -9.794,15.62848 -0.3379,2.29004 -1.1455,4.11518 -2.667,5.72992 -8.3814,8.89496 -11.4663,19.76679 -11.2713,31.63288 0.063,3.83996 -1.1918,6.03265 -4.2812,8.1535 -17.2632,11.8512 -31.6876,26.43298 -41.948,44.85907 -2.5115,4.51025 -4.7465,9.17944 -7.369,13.62183 -7.5246,12.74621 -18.1011,22.3742 -31.6004,29.6488 1.1595,0.22583 1.6122,0.39032 2.0654,0.39136 21.1645,0.0464 42.329,0.0799 63.4936,0.10992 1.6927,0.002 3.3545,-0.11853 5.0069,-2.2019 m 235.3301,-175.2402 c 1.9748,14.68848 0.3084,29.20807 -1.7989,43.7428 -0.8289,5.71716 -2.2547,11.40363 -1.6911,17.2876 1.3177,13.75867 7.7282,25.01477 17.3099,34.54559 3.3709,3.35309 5.206,7.10224 6.194,11.62537 4.089,18.71789 5.1227,37.49731 2.2625,56.51977 -0.6463,4.29847 -2.1631,8.68091 -1.2117,13.13605 12.1131,0 23.9296,0 37.4115,0 -13.4948,-20.5376 -17.2356,-41.75458 -11.7903,-65.5932 6.2828,7.63422 11.8047,14.61908 15.2497,23.01453 1.0683,2.60345 2.2001,5.2926 2.0446,8.18365 -0.7575,14.08771 6.4518,23.96741 16.7773,32.30084 2.3352,1.88477 4.8071,2.71509 7.7966,2.69184 10.4966,-0.0816 20.9943,0.0121 31.4913,-0.0372 1.7258,-0.008 3.7485,0.59186 5.1081,-1.70429 -0.6976,-3.67413 -3.1295,-6.27124 -6.1681,-8.47674 -5.3163,-3.85877 -11.3482,-6.26587 -17.3914,-8.65912 -1.8531,-0.73389 -3.6051,-1.39838 -4.3822,-3.65973 -3.249,-9.45429 -9.9135,-16.43469 -17.045,-23.05652 -16.1097,-14.95843 -31.8267,-30.33704 -48.778,-44.38556 -8.3195,-6.89483 -14.1132,-15.55176 -14.8893,-26.77167 -0.471,-6.80767 -0.9437,-13.62622 -1.055,-20.44574 -0.3353,-20.55261 -5.8448,-39.72714 -15.0563,-57.94784 -2.8085,-5.55536 -9.0567,-12.49344 -13.4701,-14.05451 6.961,10.00739 12.1883,19.59366 13.0819,31.74405 m 227.7283,171.09974 c -2.9804,-3.39026 -7.0717,-4.88416 -11.082,-6.53547 -1.5283,-0.62945 -3.471,-1.02233 -4.412,-2.18243 -5.8162,-7.17108 -14.104,-9.77789 -22.3625,-12.3443 -2.6953,-0.83765 -4.1814,-2.14435 -5.1158,-4.76587 -2.0351,-5.70898 -5.3628,-10.68701 -9.3237,-15.26929 -7.7667,-8.9851 -16.5646,-16.92749 -25.674,-24.45275 -7.1359,-5.89496 -15.5814,-10.20502 -24.8509,-10.88587 -12.8389,-0.94299 -23.8764,-5.46393 -33.7975,-13.32922 -13.831,-10.96497 -28.4628,-20.98194 -40.5367,-34.02881 -3.8674,-4.17883 -7.5282,-8.54865 -11.2835,-12.83112 1.9714,7.67902 5.7575,14.26081 10.5521,20.2898 6.7658,8.50757 14.5681,15.94586 22.9234,22.89679 17.9348,14.9201 35.6233,30.1709 57.342,39.56689 11.252,4.86798 18.8337,13.17694 24.4365,23.93488 5.7641,11.06756 12.3449,21.70746 18.4265,32.61371 1.3729,2.46197 3,3.68518 5.8835,3.67126 15.3315,-0.0741 30.6636,0.0225 45.995,-0.0511 4.9553,-0.0237 5.3753,-0.89953 2.8796,-6.29711 M 1627.2492,827.11865 c -2.9241,-17.18713 -9.5862,-33.42819 -13.0209,-50.61404 6.8117,10.54111 13.2438,21.14212 24.358,27.96884 -10.4834,-18.00385 -21.2182,-35.72626 -21.9455,-57.57309 -4.4901,9.42111 -8.5821,18.44226 -14.3855,26.56238 -1.097,1.53482 -0.1007,3.28125 0.2382,4.84411 1.7262,7.95871 3.6921,15.86591 5.3843,23.83146 3.2115,15.117 7.0338,30.17504 4.4424,45.87847 -1.5245,9.23859 -4.3812,18.09729 -7.156,26.99683 -1.8777,6.02197 -4.6878,11.77881 -5.4431,18.18695 7.6706,-10.15784 14.3374,-20.85815 20.8194,-31.69452 6.2323,-10.41894 8.7602,-21.48736 6.7087,-34.38739 m 99.4303,35.31702 c 6.3308,13.86859 13.5181,26.99469 26.1878,36.44934 12.0617,9.00092 22.4164,19.99158 33.2992,30.39508 -3.0868,-9.7182 -9.3381,-17.17944 -16.6547,-23.79608 -13.9841,-12.64624 -27.0202,-26.17346 -38.8629,-40.84912 -1.3235,-1.64008 -2.7906,-3.16437 -4.1911,-4.74231 -0.1924,0.20764 -0.3847,0.41522 -0.5771,0.6228 0.1855,0.46234 0.371,0.92462 0.7988,1.92029 M 1618.2394,736.47845 c 0.439,1.07599 0.8013,2.19138 1.3298,3.22147 2.9985,5.84387 5.8786,6.12705 9.8833,0.89056 1.4958,-1.95596 2.7337,-4.10916 3.8158,-5.75637 1.911,-1.14438 3.473,1.36532 5.0644,-0.47196 -0.8912,-2.733 -3.5196,-3.64725 -5.0729,-5.55053 -8.4182,6.50173 -8.7408,6.52548 -15.4252,1.16476 -1.4513,0.62054 -3.0479,2.96356 -4.6299,1.79324 -3.4475,-2.55029 -6.4331,-0.53872 -9.7858,-0.36581 -5.1845,0.2673 -6.0415,3.43451 -7.9844,6.68472 4.1312,2.84696 7.126,0.79147 9.4658,-1.78894 2.662,-2.9357 4.5381,-1.48773 6.6555,0.32999 2.4475,2.10116 3.7552,-4.939 6.6836,-0.15113 m 58.4502,-107.81652 c 1.241,-10.29001 7.259,-17.44016 16.1296,-23.31229 -10.0895,0.5575 -17.9567,7.05011 -20.8633,16.79648 -2.1765,7.29825 -0.5988,19.30978 7.3586,24.25152 -2.3578,-5.56976 -3.0222,-11.12191 -2.6249,-17.73571 m -117.2389,25.02938 c 2.3582,6.42682 3.6932,8.38718 7.5533,11.20267 -6.3981,-16.2995 -2.2813,-29.70209 12.4148,-40.47986 -3.4311,-0.84124 -5.6327,0.37448 -7.767,1.46085 -9.6513,4.91284 -13.9584,14.44019 -12.2011,27.81634 m -44.7662,27.2808 c 0.5579,0.70025 0.2327,2.09442 1.9304,2.15875 -0.5444,-8.05942 1.995,-14.7139 10.5975,-19.61722 -10.2295,2.52561 -13.5942,7.46942 -12.5279,17.45847 m 120.9204,-92.66739 c 1.1325,-2.84738 3.123,-5.14566 6.3072,-8.15598 -10.3696,3.9827 -13.5792,14.10916 -7.1547,20.34571 -1.7116,-4.23993 -0.8322,-7.88083 0.8475,-12.18973 m 0.2547,107.79895 c -1.7672,5.93759 0.8159,11.68667 0.8968,17.61011 1.2385,-4.58606 2.1572,-9.21131 2.9284,-13.86103 0.3973,-2.39554 -0.7683,-3.78723 -3.8252,-3.74908 m -131.4657,-65.19498 c -4.9395,6.39624 -5.2781,10.71811 -1.2838,16.38245 -0.558,-8.02027 -0.1781,-9.3136 5.5256,-18.74216 -1.8006,-0.4042 -2.581,1.13931 -4.2418,2.35971 m 117.15,26.72736 c 0.2813,0.12469 0.5563,0.27194 0.8494,0.35479 0.057,0.0163 0.2713,-0.21847 0.2687,-0.33413 -0.1501,-6.63135 2.114,-12.33832 7.8396,-17.80554 -8.9492,4.12509 -11.54,9.55584 -8.9577,17.78488 m -26.5271,-25.33292 c 0.3789,1.40833 0.4472,2.96018 2.1081,4.17441 -0.5794,-6.84485 0.902,-12.86124 6.1732,-18.14871 -6.2001,1.94787 -8.7707,6.30914 -8.2813,13.9743 m -54.4401,-32.05566 c 1.1585,-2.44321 2.317,-4.88642 3.6098,-7.6131 -6.3328,3.56354 -8.3085,8.90103 -5.6688,14.81833 1.9236,-1.83353 0.6299,-4.51712 2.059,-7.20523 m 120.466,130.77899 c -1.1264,-1.13483 -1.8664,-2.7128 -3.851,-3.23276 -1.2643,0.97858 -2.6379,2.04187 -3.9853,3.08484 0.7126,1.70947 1.9955,2.88998 3.2537,3.06662 1.9325,0.27133 4.8946,1.4722 4.5826,-2.9187 m -43.4852,-30.11896 c -0.2206,-1.58273 0.9503,-3.69174 -1.8893,-4.52634 -2.2469,3.10639 -0.3446,5.92164 0.784,8.86548 0.3393,-1.21008 0.6786,-2.42016 1.1053,-4.33914 m 97.4844,-77.21188 c 0.868,-1.59842 1.7361,-3.19684 3.0163,-5.55435 -4.2833,2.99728 -5.2866,6.3493 -4.6082,11.35546 0.6214,-2.32894 0.9966,-3.73513 1.5919,-5.80111 m -167.9488,56.77426 c 0.2623,-0.55313 0.9379,-1.00693 0.2839,-1.95383 -2.9522,2.62845 -4.1159,5.67407 -3.2568,9.37473 0.7455,-2.34864 1.334,-4.7486 2.9729,-7.4209 z"
     id="path4" /><g
     id="g1267"
     transform="translate(-101.9546)"><g
       id="g2170"
       transform="matrix(0.3882498,0,0,0.3882498,387.22293,22.042429)"><path
         id="path1487"
         style="fill:#000000;stroke:#000000;stroke-width:3.77953;stop-color:#000000"
         d="m 3647.7422,1229.6699 c -2.4752,0.057 -4.9711,0.6048 -7.4375,1.375 -2.4665,0.7702 -4.9028,1.7645 -7.2559,2.7168 -0.8373,0.339 -1.7366,1.2486 -2.3965,2.2793 -0.6599,1.0307 -1.0819,2.1826 -0.9668,3 0.1026,0.7288 0.8921,1.5871 1.8868,2.2813 0.9946,0.6942 2.1954,1.2239 3.125,1.2949 4.7526,0.3622 9.5743,-0.1704 15.1777,-0.2285 4.4542,-1.1062 8.9082,-2.2136 14.1484,-3.4766 5.6665,-1.9984 11.3334,-3.9976 17,-5.9961 -0.089,-0.7221 -0.1788,-1.4439 -0.2675,-2.166 -5.5032,-0.2155 -11.0078,-0.5472 -16.5118,-0.7949 -5.5039,-0.2478 -11.0066,-0.4117 -16.5019,-0.2852 z" /><path
         id="path1485"
         style="fill:#000000;stroke:#000000;stroke-width:3.77953;stop-color:#000000"
         d="m 3280.1191,996.80469 c -22.1783,2.5057 -44.3645,4.77791 -66.5761,6.68751 -22.2116,1.9096 -44.4474,3.4575 -66.7266,4.5137 -11.1396,0.528 -22.2902,0.9327 -33.4531,1.1992 -11.163,0.2665 -22.3387,0.3944 -33.5293,0.3672 -11.1906,-0.027 -22.3966,-0.2094 -33.6192,-0.5625 -11.2225,-0.3532 -22.4619,-0.8767 -33.7207,-1.5879 4.2299,2.6125 8.3067,5.3224 12.3907,7.9082 4.084,2.5858 8.1756,5.0474 12.4394,7.164 2.9793,1.479 6.1682,2.6379 9.4375,3.5684 3.2693,0.9305 6.6201,1.6315 9.9258,2.1973 3.2574,0.5575 6.5768,0.8584 9.9121,1.0039 3.3353,0.1455 6.6852,0.1368 10.0059,0.072 19.1393,-0.3721 38.2725,-1.0851 57.4082,-1.6523 1.6018,-0.047 3.2064,-0.01 5.3691,-0.01 -0.8,1.2472 -0.9404,1.6893 -1.1113,1.7012 -10.9359,0.7595 -21.8742,1.4837 -32.8067,2.2109 -0.3239,2.2264 -0.4722,4.3619 -0.4472,6.3985 0.025,2.0366 0.2224,3.9747 0.584,5.8047 0.3615,1.8299 0.8882,3.5518 1.5742,5.1582 0.686,1.6063 1.5311,3.0971 2.5293,4.4629 0.9982,1.3657 2.1491,2.6066 3.4472,3.7148 1.2982,1.1082 2.7443,2.0842 4.3301,2.918 1.5859,0.8337 3.3125,1.526 5.1738,2.0683 1.8614,0.5423 3.856,0.9341 5.9805,1.168 1.7576,0.073 3.1882,0.054 4.3477,-0.098 1.1594,-0.1518 2.0475,-0.4364 2.7187,-0.8906 0.6712,-0.4542 1.1272,-1.0783 1.4199,-1.9121 0.2928,-0.8338 0.4231,-1.8773 0.4473,-3.168 0.8685,-0.5493 1.7368,-1.0988 3.2227,-1.5293 -0.4414,1.3389 -0.8829,2.6788 -1.3242,4.0176 0.2687,0.2771 0.538,0.553 0.8066,0.8301 2.2519,-2.1964 4.5034,-4.3913 7.3301,-7.1484 -2.4281,0 -3.7236,0 -4.666,-0.5332 0,0 0,0 0,0 0,0 0,0 0,0 0.7325,-0.7617 1.4644,-1.5232 2.8457,-2.2461 1.4365,-0.6896 2.8738,-1.3801 4.5742,-2.7305 1.6003,-4.7712 3.2018,-9.5408 5.5879,-14.3457 0.8866,0.01 1.6253,-0.082 2.2187,-0.2793 0.5934,-0.1973 1.0413,-0.5007 1.3438,-0.9121 0.3024,-0.4114 0.4588,-0.9305 0.4726,-1.5625 0.014,-0.632 -0.116,-1.3771 -0.3886,-2.2363 -0.1921,-0.6053 -0.2723,-1.2462 -0.2247,-1.9258 0.048,-0.6796 0.2244,-1.3983 0.5469,-2.1602 40.167,-8.4998 80.333,-16.9982 120.5,-25.49803 -0.099,-0.7151 -0.1982,-1.43138 -0.2969,-2.14648 z" /><path
         id="path1483"
         style="fill:#000000;stroke:#000000;stroke-width:3.77953;stop-color:#000000"
         d="m 3280.1191,996.80469 c 0.099,0.7151 0.1979,1.43138 0.2969,2.14648 -40.167,8.49983 -80.333,16.99823 -120.5,25.49803 -0.3225,0.7619 -0.4993,1.4806 -0.5469,2.1602 -0.048,0.6796 0.033,1.3205 0.2247,1.9258 0.2726,0.8592 0.4024,1.6043 0.3886,2.2363 -0.014,0.632 -0.1702,1.1511 -0.4726,1.5625 -0.3025,0.4114 -0.7504,0.7148 -1.3438,0.9121 -0.5934,0.1973 -1.3321,0.2895 -2.2187,0.2793 -2.3861,4.8049 -3.9876,9.5745 -5.5879,14.3457 -1.7004,1.3504 -3.1377,2.0409 -4.5742,2.7305 -1.3813,0.7229 -2.1132,1.4844 -2.8457,2.2461 0.9424,0.5318 2.2379,0.5332 4.666,0.5332 -2.8267,2.7571 -5.0782,4.952 -7.3301,7.1484 -0.2686,-0.2771 -0.5379,-0.553 -0.8066,-0.8301 0.4413,-1.3388 0.8828,-2.6787 1.3242,-4.0176 -1.4859,0.4305 -2.3542,0.98 -3.2227,1.5293 -0.024,1.2907 -0.1545,2.3342 -0.4473,3.168 -0.2927,0.8338 -0.7487,1.4579 -1.4199,1.9121 -0.6712,0.4542 -1.5593,0.7388 -2.7187,0.8906 -1.1595,0.1519 -2.5901,0.171 -4.3477,0.098 -2.1245,-0.2339 -4.1191,-0.6257 -5.9805,-1.168 -1.8613,-0.5423 -3.5879,-1.2346 -5.1738,-2.0683 -1.5858,-0.8338 -3.0319,-1.8098 -4.3301,-2.918 -1.2981,-1.1082 -2.449,-2.3491 -3.4472,-3.7148 -0.9982,-1.3658 -1.8433,-2.8566 -2.5293,-4.4629 -0.686,-1.6064 -1.2127,-3.3283 -1.5742,-5.1582 -0.3616,-1.83 -0.5591,-3.7681 -0.584,-5.8047 -0.025,-2.0366 0.1233,-4.1721 0.4472,-6.3985 10.9325,-0.7272 21.8708,-1.4514 32.8067,-2.2109 0.1709,-0.012 0.3113,-0.454 1.1113,-1.7012 -2.1627,0 -3.7673,-0.037 -5.3691,0.01 -19.1357,0.5672 -38.2689,1.2802 -57.4082,1.6523 -3.3207,0.065 -6.6706,0.073 -10.0059,-0.072 -3.3353,-0.1455 -6.6547,-0.4464 -9.9121,-1.0039 -3.3057,-0.5658 -6.6565,-1.2668 -9.9258,-2.1973 -3.2693,-0.9305 -6.4582,-2.0894 -9.4375,-3.5684 -4.2638,-2.1166 -8.3554,-4.5782 -12.4394,-7.164 -4.084,-2.5858 -8.1608,-5.2957 -12.3907,-7.9082 11.2588,0.7112 22.4982,1.2347 33.7207,1.5879 11.2226,0.3531 22.4286,0.5352 33.6192,0.5625 11.1906,0.027 22.3663,-0.1007 33.5293,-0.3672 11.1629,-0.2665 22.3135,-0.6712 33.4531,-1.1992 22.2792,-1.0562 44.515,-2.6041 66.7266,-4.5137 22.2116,-1.9096 44.3978,-4.18181 66.5761,-6.68751 z" /><path
         id="path1481"
         style="fill:#000000;stroke:#000000;stroke-width:3.77953;stop-color:#000000"
         d="m 3340.4844,990.9707 c -3.1523,0.5282 -6.3694,1.06787 -9.6289,1.71875 -3.2595,0.65089 -6.5609,1.41393 -9.8789,2.38867 -0.1166,2.27071 -0.2331,4.54031 -0.3184,6.20308 -1.8218,0.6923 -3.5147,1.2285 -5.082,1.7891 -1.5674,0.5606 -3.0087,1.1464 -4.3282,1.9356 -0.9062,0.542 -1.6425,1.367 -2.332,2.2714 -0.6894,0.9045 -1.3323,1.8882 -2.0508,2.7442 0.8371,0.6031 1.6327,1.3414 2.4532,2 0.8204,0.6585 1.6657,1.2366 2.5996,1.5156 5.6609,1.6915 11.4598,2.9219 17.5429,4.4141 v 12.4668 h 4.7032 v -12.6973 c 5.2056,-1.1884 9.9703,-2.0074 14.5468,-3.4316 1.1921,-0.371 2.3025,-1.0078 3.3887,-1.7188 1.0862,-0.7109 2.149,-1.4946 3.25,-2.1582 -0.9696,-0.9213 -1.8693,-2.1025 -2.8105,-3.1289 -0.9413,-1.0263 -1.9248,-1.8978 -3.0606,-2.2051 -1.7036,-0.4608 -3.1321,-1.0605 -4.3008,-1.8027 -1.1687,-0.7423 -2.077,-1.6275 -2.7402,-2.6641 -0.6632,-1.03657 -1.0805,-2.22444 -1.2676,-3.56833 -0.187,-1.34389 -0.1444,-2.84369 0.1153,-4.50781 0.039,-0.2492 -0.2688,-0.55266 -0.8008,-1.56446 z" /><path
         id="path1479"
         style="fill:#000000;stroke:#000000;stroke-width:3.77953;stop-color:#000000"
         d="m 3340.4844,990.9707 c 0.532,1.0118 0.8398,1.31526 0.8008,1.56446 -0.2597,1.66412 -0.3023,3.16392 -0.1153,4.50781 0.1871,1.34389 0.6044,2.53176 1.2676,3.56833 0.6632,1.0366 1.5715,1.9218 2.7402,2.6641 1.1687,0.7422 2.5972,1.3419 4.3008,1.8027 1.1358,0.3073 2.1193,1.1788 3.0606,2.2051 0.9412,1.0264 1.8409,2.2076 2.8105,3.1289 -1.101,0.6636 -2.1638,1.4473 -3.25,2.1582 -1.0862,0.711 -2.1966,1.3478 -3.3887,1.7188 -4.5765,1.4242 -9.3412,2.2432 -14.5468,3.4316 v 12.6973 h -4.7032 v -12.4668 c -6.0831,-1.4922 -11.882,-2.7226 -17.5429,-4.4141 -0.9339,-0.279 -1.7792,-0.8571 -2.5996,-1.5156 -0.8205,-0.6586 -1.6161,-1.3969 -2.4532,-2 0.7185,-0.856 1.3614,-1.8397 2.0508,-2.7442 0.6895,-0.9044 1.4258,-1.7294 2.332,-2.2714 1.3195,-0.7892 2.7608,-1.375 4.3282,-1.9356 1.5673,-0.5606 3.2602,-1.0968 5.082,-1.7891 0.085,-1.66277 0.2018,-3.93237 0.3184,-6.20308 3.318,-0.97474 6.6194,-1.73778 9.8789,-2.38867 3.2595,-0.65088 6.4766,-1.19055 9.6289,-1.71875 z" /><path
         id="path1477"
         style="fill:#000000;stroke:#000000;stroke-width:3.77953;stop-color:#000000"
         d="m 3778.0137,965.40234 c -1.2545,-0.111 -2.2182,0.0631 -2.9825,0.56836 -0.7642,0.50524 -1.3298,1.34204 -1.789,2.55469 -4.0614,10.7237 -8.3079,21.37647 -12.8418,32.74221 -0.758,2.0783 -1.5172,4.1571 -2.3047,6.3164 h 24.9512 c 0.5456,-14.21604 1.0779,-28.0958 1.6172,-42.1465 -2.6768,0 -4.6773,0.13944 -6.6504,-0.0352 z" /><path
         id="path1475"
         style="fill:#000000;stroke:#000000;stroke-width:3.77953;stop-color:#000000"
         d="m 3778.0137,965.40234 c 1.9731,0.1746 3.9736,0.0352 6.6504,0.0352 -0.5393,14.0507 -1.0716,27.93046 -1.6172,42.14646 h -24.9512 c 0.7875,-2.1593 1.5467,-4.2381 2.3047,-6.3164 4.5339,-11.3657 8.7804,-22.01847 12.8418,-32.74217 0.4592,-1.21265 1.0248,-2.04945 1.789,-2.55469 0.7643,-0.50523 1.728,-0.67936 2.9825,-0.56836 z" /><path
         id="path1473"
         style="fill:#000000;stroke:#000000;stroke-width:3.77953;stop-color:#000000"
         d="m 3794.7715,965.08789 c -0.637,-0.0718 -1.3974,-0.0311 -2.3145,0.12695 h -5.3808 c -1.0209,25.8938 -2.0139,51.06046 -3.0157,76.46876 6.8004,0 12.9429,0.137 19.0723,-0.072 1.1346,-0.039 2.5916,-0.1083 3.8516,-0.3359 1.2599,-0.2277 2.3221,-0.6117 2.6679,-1.2774 1.0808,-2.0802 2.7087,-3.9597 3.8477,-6.0585 0.5695,-1.0495 1.0173,-2.1528 1.2129,-3.3653 0.1956,-1.2124 0.1384,-2.5326 -0.2988,-4.0137 -5.6851,-19.2577 -11.0399,-38.61552 -16.3672,-57.97652 -0.3777,-1.3727 -0.8587,-2.37301 -1.7031,-2.95117 -0.4223,-0.28908 -0.9354,-0.47316 -1.5723,-0.54492 z" /><path
         id="path1471"
         style="fill:#000000;stroke:#000000;stroke-width:3.77953;stop-color:#000000"
         d="m 3794.7715,965.08789 c 0.6369,0.0718 1.15,0.25584 1.5723,0.54492 0.8444,0.57816 1.3254,1.57847 1.7031,2.95117 5.3273,19.361 10.6821,38.71882 16.3672,57.97652 0.4372,1.4811 0.4944,2.8013 0.2988,4.0137 -0.1956,1.2125 -0.6434,2.3158 -1.2129,3.3653 -1.139,2.0988 -2.7669,3.9783 -3.8477,6.0585 -0.3458,0.6657 -1.408,1.0497 -2.6679,1.2774 -1.26,0.2276 -2.717,0.2974 -3.8516,0.3359 -6.1294,0.2093 -12.2719,0.072 -19.0723,0.072 1.0018,-25.4083 1.9948,-50.57496 3.0157,-76.46876 h 5.3808 c 0.9171,-0.15802 1.6775,-0.19871 2.3145,-0.12695 z" /><path
         id="path1469"
         style="fill:#000000;stroke:#000000;stroke-width:3.77953;stop-color:#000000"
         d="m 3489.3359,953.50391 c -0.733,0.054 -1.4649,0.10827 -3.0839,0.043 -5.7368,0.74099 -11.4743,1.48036 -18.002,2.13476 -4.5383,1.53575 -9.153,2.90489 -13.7168,4.38477 -4.5638,1.47987 -9.0768,3.07133 -13.4102,5.05468 -1.5746,0.7207 -2.7649,1.47752 -3.6035,2.29688 -0.8386,0.81936 -1.3247,1.70154 -1.4922,2.67187 -0.1674,0.97033 -0.015,2.02951 0.4239,3.20313 0.4388,1.17362 1.1642,2.4614 2.1445,3.89062 9.6034,14.0014 19.0089,28.15078 28.9883,41.88088 47.7667,65.7191 95.6865,131.3266 143.5859,196.9492 5.0412,6.9063 10.3029,13.6516 15.0078,19.8711 2.3091,-1.7959 4.6431,-3.2724 6.9981,-4.4766 2.3549,-1.2042 4.7314,-2.1366 7.1269,-2.8437 2.3955,-0.7072 4.8096,-1.1897 7.2403,-1.4942 2.4306,-0.3045 4.8774,-0.4312 7.3379,-0.4277 4.9208,0.01 9.8965,0.5369 14.9043,1.209 5.0077,0.672 10.048,1.4874 15.0996,2.0683 -4.7942,-9.1312 -9.2922,-17.6394 -13.7383,-26.1738 -10.5646,-20.2797 -21.3097,-40.4719 -31.9297,-60.7246 -10.62,-20.2528 -21.115,-40.5661 -31.1738,-61.0938 -6.6486,-13.5681 -12.8906,-27.3603 -18.8067,-41.2949 -5.916,-13.9345 -11.5064,-28.0121 -16.8457,-42.1523 -1.4464,-3.8306 -3.1436,-7.29843 -5.0976,-10.44727 -1.9541,-3.14884 -4.1637,-5.97869 -6.6348,-8.52929 -2.4711,-2.55061 -5.2037,-4.82348 -8.2012,-6.85938 -2.9975,-2.0359 -6.2596,-3.83473 -9.7929,-5.43945 -2.7252,-1.2376 -5.3382,-2.72783 -8.0801,-3.92383 -5.3466,-2.3321 -10.7353,-4.5244 -16.3613,-6.25 -2.8131,-0.8628 -5.6863,-1.60928 -8.6426,-2.19727 -2.9564,-0.58798 -5.9959,-1.01699 -9.1446,-1.24804 -3.4573,0.026 -6.9152,0.052 -11.0996,-0.082 z" /><path
         id="path1467"
         style="fill:#000000;stroke:#000000;stroke-width:3.77953;stop-color:#000000"
         d="m 3489.3359,953.50391 c 4.1844,0.134 7.6423,0.10803 11.0996,0.082 3.1487,0.23105 6.1882,0.66006 9.1446,1.24804 2.9563,0.58799 5.8295,1.33447 8.6426,2.19727 5.626,1.7256 11.0147,3.9179 16.3613,6.25 2.7419,1.196 5.3549,2.68623 8.0801,3.92383 3.5333,1.60472 6.7954,3.40355 9.7929,5.43945 2.9975,2.0359 5.7301,4.30877 8.2012,6.85938 2.4711,2.5506 4.6807,5.38045 6.6348,8.52929 1.954,3.14884 3.6512,6.61667 5.0976,10.44727 5.3393,14.14026 10.9297,28.21786 16.8457,42.15236 5.9161,13.9346 12.1581,27.7268 18.8067,41.2949 10.0588,20.5277 20.5538,40.841 31.1738,61.0938 10.62,20.2527 21.3651,40.4449 31.9297,60.7246 4.4461,8.5344 8.9441,17.0426 13.7383,26.1738 -5.0516,-0.5809 -10.0919,-1.3963 -15.0996,-2.0683 -5.0078,-0.6721 -9.9835,-1.202 -14.9043,-1.209 -2.4605,0 -4.9073,0.1232 -7.3379,0.4277 -2.4307,0.3045 -4.8448,0.787 -7.2403,1.4942 -2.3955,0.7071 -4.772,1.6395 -7.1269,2.8437 -2.355,1.2042 -4.689,2.6807 -6.9981,4.4766 -4.7049,-6.2195 -9.9666,-12.9648 -15.0078,-19.8711 -47.8994,-65.6226 -95.8192,-131.2301 -143.5859,-196.9492 -9.9794,-13.7301 -19.3849,-27.87954 -28.9883,-41.88094 -0.9803,-1.42922 -1.7057,-2.717 -2.1445,-3.89062 -0.4389,-1.17362 -0.5913,-2.2328 -0.4239,-3.20313 0.1675,-0.97033 0.6536,-1.85251 1.4922,-2.67187 0.8386,-0.81936 2.0289,-1.57618 3.6035,-2.29688 4.3334,-1.98335 8.8464,-3.57481 13.4102,-5.05468 4.5638,-1.47988 9.1785,-2.84902 13.7168,-4.38477 6.5277,-0.6544 12.2652,-1.39377 18.002,-2.13476 1.619,0.0653 2.3509,0.011 3.0839,-0.043 z m 158.4063,276.16599 c 5.4953,-0.1265 10.998,0.037 16.5019,0.2852 5.504,0.2477 11.0086,0.5794 16.5118,0.7949 0.089,0.7221 0.1785,1.4439 0.2675,2.166 -5.6666,1.9985 -11.3335,3.9977 -17,5.9961 -5.2402,1.263 -9.6942,2.3704 -14.1484,3.4766 -5.6034,0.058 -10.4251,0.5907 -15.1777,0.2285 -0.9296,-0.071 -2.1304,-0.6007 -3.125,-1.2949 -0.9947,-0.6942 -1.7842,-1.5525 -1.8868,-2.2813 -0.1151,-0.8174 0.3069,-1.9693 0.9668,-3 0.6599,-1.0307 1.5592,-1.9403 2.3965,-2.2793 2.3531,-0.9523 4.7894,-1.9466 7.2559,-2.7168 2.4664,-0.7702 4.9623,-1.318 7.4375,-1.375 z"
         sodipodi:nodetypes="ccsssssssssssscsssssccssssssscccssccccsssssss" /><path
         id="path1465"
         style="fill:#000000;stroke:#000000;stroke-width:3.77953;stop-color:#000000"
         d="m 3865.8164,938.29102 c -23.6573,4.97525 -46.6583,9.8137 -69.8613,14.69336 2.8582,10.0999 5.5111,19.51658 8.1894,28.92578 9.6442,33.88074 19.2974,67.75884 28.8457,102.24214 0.4044,1.1219 0.8085,2.2439 1.3887,4.2051 6.0141,21.3639 12.0277,42.7275 18.1953,64.6367 24.9141,-0.616 49.2956,-1.2198 74.5293,-1.8437 -20.6888,-71.8568 -40.9716,-142.2992 -61.2871,-212.85938 z" /><path
         id="path1463"
         style="fill:#000000;stroke:#000000;stroke-width:3.77953;stop-color:#000000"
         d="m 3865.8164,938.29102 c 20.3155,70.56018 40.5983,141.00258 61.2871,212.85938 -25.2337,0.6239 -49.6152,1.2277 -74.5293,1.8437 -6.1676,-21.9092 -12.1812,-43.2728 -18.1953,-64.6367 -0.5802,-1.9612 -0.9843,-3.0832 -1.3887,-4.2051 -9.5483,-34.4833 -19.2015,-68.3614 -28.8457,-102.24214 -2.6783,-9.4092 -5.3312,-18.82588 -8.1894,-28.92578 23.203,-4.87966 46.204,-9.71811 69.8613,-14.69336 z" /><path
         id="path1461"
         style="fill:#000000;stroke:#000000;stroke-width:3.77953;stop-color:#000000"
         d="m 3920.5859,922.875 c -1.5264,-0.0167 -2.9188,0.19022 -4.1523,0.61523 -1.2336,0.42502 -2.308,1.06948 -3.1953,1.92774 -0.8873,0.85826 -1.5885,1.92983 -2.0762,3.21289 -0.4877,1.28306 -0.7621,2.77714 -0.7969,4.47656 2.9543,18.78329 5.9089,37.56631 8.8633,56.34961 0.4527,-0.055 0.9047,-0.10956 1.3574,-0.16406 z" /><path
         id="path1459"
         style="fill:#000000;stroke:#000000;stroke-width:3.77953;stop-color:#000000"
         d="m 3920.5859,922.875 v 66.41797 c -0.4527,0.0545 -0.9047,0.10906 -1.3574,0.16406 -2.9544,-18.7833 -5.909,-37.56632 -8.8633,-56.34961 0.035,-1.69942 0.3092,-3.1935 0.7969,-4.47656 0.4877,-1.28306 1.1889,-2.35463 2.0762,-3.21289 0.8873,-0.85826 1.9617,-1.50272 3.1953,-1.92774 1.2335,-0.42501 2.6259,-0.6319 4.1523,-0.61523 z" /><path
         id="path1457"
         style="fill:#000000;stroke:#000000;stroke-width:3.77953;stop-color:#000000"
         d="m 3361.0449,888.04297 c -1.5162,0.11289 -2.7321,0.20312 -4.2539,0.31641 0,7.4125 -3e-4,14.5056 0.4981,22.26171 h 3.7558 z" /><path
         id="path1453"
         style="fill:#000000;stroke:#000000;stroke-width:3.77953;stop-color:#000000"
         d="m 3396.6172,703.63477 c -2.5732,0.025 -5.1472,0.27459 -7.7227,0.81054 -2.5754,0.53596 -5.1535,1.35934 -7.7383,2.53125 1.6656,12.93377 3.157,25.64338 4.9668,38.3086 2.9661,20.75806 6.1396,41.48778 9.1153,63.04296 0.7471,3.40809 1.4943,6.8158 2.3164,10.25 0,0 -0.082,0.003 -0.4453,0.99219 1.3379,8.35147 2.5017,16.7367 4.0508,25.04883 3.2507,17.44257 6.6604,34.85599 10.1328,52.25586 0.1998,1.00112 0.2571,2.25845 0.6933,3.27344 0.2181,0.50749 0.5306,0.95371 1.0039,1.27734 0.4733,0.32364 1.1076,0.52418 1.9668,0.53906 -0.2882,0.48666 -0.5774,0.97468 -1.7871,1.62891 -16.3979,0.52362 -32.7956,1.04642 -49.2011,1.57031 -0.1811,3.13934 -0.3209,5.56338 -0.459,7.95703 h -9.293 v -7.18945 c -6.1505,0 -11.7937,0.0988 -17.4297,-0.0527 -1.0462,-0.0281 -2.1386,-0.0957 -3.2012,-0.26563 -1.0625,-0.16993 -2.0947,-0.44075 -3.0214,-0.875 -7.1994,-3.37351 -14.4972,-6.32829 -21.8907,-8.86133 -7.3934,-2.53304 -14.8826,-4.64435 -22.4609,-6.33593 -7.5783,-1.69159 -15.2461,-2.96335 -23,-3.8125 -7.7539,-0.84916 -15.5935,-1.27551 -23.5137,-1.28125 -11.649,-0.008 -23.3142,0.1272 -34.9687,0.49023 -11.6546,0.36303 -23.299,0.95186 -34.9082,1.8457 -4.8907,0.37657 -9.6485,1.21518 -14.2989,2.41211 -4.6503,1.19694 -9.1923,2.75296 -13.6464,4.56446 -4.4542,1.81149 -8.8209,3.87937 -13.1231,6.09961 -4.3022,2.22023 -8.54,4.59245 -12.7344,7.01562 -4.9966,2.88665 -9.9035,5.88448 -14.7304,8.98438 -4.827,3.09989 -9.5732,6.30233 -14.2461,9.5957 -9.3458,6.58674 -18.3993,13.5411 -27.2227,20.7832 -8.8234,7.2421 -17.4177,14.77234 -25.8437,22.51172 -8.426,7.73938 -16.6844,15.68705 -24.8379,23.76562 -2.2022,2.18201 -4.8883,3.87632 -7.6192,6.00782 1.9028,1.2825 3.9094,2.40043 6.0176,3.36133 2.1082,0.9608 4.3177,1.7643 6.625,2.414 2.3073,0.6497 4.7127,1.1471 7.2129,1.4961 2.5002,0.349 5.0965,0.5486 7.7832,0.6074 16.9174,0.3703 33.827,0.5678 50.7285,0.543 16.9015,-0.025 33.7943,-0.2703 50.6797,-0.7851 16.8854,-0.5149 33.7636,-1.2985 50.6328,-2.3985 16.8692,-1.0999 33.7292,-2.5167 50.582,-4.29683 29.8061,-3.14845 59.6435,-6.00847 89.4883,-8.78906 29.8449,-2.78059 59.6978,-5.4821 89.5371,-8.3164 8.6921,-0.82561 17.3749,-1.75115 26.2774,-2.65235 -1.2906,-2.2646 -2.2105,-4.20635 -2.7246,-5.91992 -0.5142,-1.71357 -0.623,-3.19913 -0.2969,-4.55078 0.3261,-1.35166 1.0883,-2.56919 2.3184,-3.74805 1.23,-1.17886 2.9271,-2.3185 5.125,-3.51367 2.5247,-1.37305 5.1691,-2.64082 7.8808,-3.71484 2.7117,-1.07403 5.4905,-1.95398 8.2871,-2.54883 5.1891,-1.1037 10.4302,-1.96499 15.7754,-2.72656 5.3452,-0.76158 10.7953,-1.42356 16.4024,-2.13086 0.739,-0.0768 1.4783,-0.15382 3.0175,-0.041 2.37,0.0381 4.7402,0.0753 7.8809,0.39062 0.8123,0.0185 1.6242,0.0374 3.2129,0.32032 5.393,0.7955 10.6151,1.9904 15.6933,3.52148 5.0783,1.53108 10.0125,3.39863 14.8301,5.54297 4.8177,2.14434 9.5177,4.56589 14.1289,7.20117 4.6113,2.63528 9.1328,5.48438 13.5918,8.48828 0.7889,0.53145 1.9123,0.96586 3.0313,1.17578 1.119,0.20993 2.2354,0.19523 3.0078,-0.16992 3.7709,-1.78255 7.5946,-3.26063 11.4687,-4.48047 3.8742,-1.21983 7.7986,-2.18163 11.7657,-2.93359 3.9671,-0.75196 7.9775,-1.29294 12.0273,-1.67187 4.0498,-0.37894 8.1395,-0.59457 12.2617,-0.69532 51.6258,-1.2617 103.2438,-2.81974 154.8672,-4.18164 8.4088,-0.2219 16.8274,-0.0312 25.7207,-0.0312 -1.2701,-4.6917 -2.2109,-8.17027 -3.2793,-12.11718 24.9134,-5.22889 49.5574,-10.4004 74.3203,-15.59766 1.2955,4.28912 2.4835,8.22034 4.0645,13.45508 7.7721,-2.89279 15.2561,-5.39994 22.4883,-8.4961 0.8328,-0.35653 1.547,-0.79546 2.1426,-1.32226 0.5955,-0.52681 1.0723,-1.14148 1.4335,-1.84571 0.3613,-0.70422 0.6065,-1.49791 0.7364,-2.38671 0.1298,-0.88881 0.1453,-1.87258 0.047,-2.95313 -0.4299,-4.71785 -0.6142,-9.45824 -0.6347,-14.20898 -0.021,-4.75075 0.1221,-9.51175 0.3457,-14.27149 0.3629,-0.004 0.7249,-0.008 1.1133,0.0996 0.3884,0.10748 0.8027,0.32741 1.2675,0.76953 v 24.78711 c 0.679,0.34311 1.3582,0.68619 2.0372,1.0293 3.2344,-2.27322 6.5038,-4.50006 9.6953,-6.83203 1.3813,-1.00934 2.6048,-1.77126 3.7285,-2.28516 1.1236,-0.5139 2.1475,-0.7786 3.1308,-0.79297 0.9834,-0.0144 1.9263,0.22168 2.8868,0.71094 0.9604,0.48926 1.9392,1.23153 2.9941,2.22852 6.7101,-2.22101 13.5328,-4.35075 20.2402,-6.80079 0.7244,-0.26462 1.595,-0.80638 2.291,-1.43164 0.6961,-0.62525 1.2176,-1.33477 1.2442,-1.93554 0.3272,-7.40972 0.1641,-14.84018 0.1641,-22.52735 -8.3941,-0.57664 -16.5725,-0.91284 -24.7422,-0.80859 -4.0849,0.0521 -8.1677,0.21462 -12.2735,0.51172 -4.1058,0.29709 -8.234,0.72842 -12.4121,1.32031 -0.6861,-0.0123 -1.3724,-0.0243 -2.0742,-0.15234 -0.7018,-0.12802 -1.419,-0.37255 -2.168,-0.84766 0.036,-6.33966 0.071,-12.67883 0.7207,-19.1582 -0.174,-0.97507 -0.3485,-1.95062 -0.6347,-3.66211 -0.9187,-0.95263 -1.9025,-1.77142 -2.9395,-2.45117 -1.037,-0.67976 -2.1274,-1.21944 -3.2578,-1.61133 -1.1304,-0.3919 -2.3012,-0.63753 -3.5,-0.72656 -1.1988,-0.089 -2.4257,-0.0218 -3.668,0.20703 -8.7632,1.61407 -17.3964,3.94208 -26.0488,6.11523 -0.8502,0.21356 -1.4501,1.42846 -2.7148,2.22656 -0.6525,0.60941 -1.3044,1.21783 -2.7637,1.69922 -11.2517,-1.41526 -22.4965,-2.52931 -33.7383,-3.26172 -11.2418,-0.73241 -22.4806,-1.0828 -33.7207,-0.96875 -5.62,0.057 -11.2402,0.22998 -16.8613,0.5293 -5.6212,0.29932 -11.2439,0.72504 -16.8672,1.28711 -5.6233,0.56207 -11.2486,1.2602 -16.875,2.10547 -5.6264,0.84526 -11.2542,1.83741 -16.8848,2.98633 v 18.17968 c -1.0175,0.1242 -1.6582,0.25415 -2.3027,0.27344 -25.1517,0.75299 -50.3042,1.46521 -75.4551,2.24805 -23.4792,0.7308 -46.9569,1.53433 -71.334,2.14648 -3.397,0.27643 -6.794,0.55395 -10.9218,0.61914 -0.7552,0.0338 -1.51,0.0667 -2.9258,-0.16406 -5.1506,0.23605 -10.3016,0.47162 -16.3262,0.5332 -28.3268,0.84769 -56.6541,1.69635 -84.9707,1.94336 0,-0.59912 0,-1.19884 0.8867,-2.11132 22.6805,-0.47851 45.36,-0.95613 68.8242,-1.45118 -1.2218,-2.07733 -1.7777,-3.087 -2.3925,-4.05859 -8.8921,-14.05287 -17.4413,-28.2872 -25.6817,-42.68359 -8.2404,-14.3964 -16.1715,-28.95569 -23.8281,-43.65821 -7.6567,-14.70251 -15.0389,-29.5483 -22.1797,-44.51953 -7.1408,-14.97123 -14.0396,-30.06699 -20.7324,-45.26953 -0.755,-1.71505 -1.5767,-3.23634 -2.4903,-4.57812 -0.9135,-1.34179 -1.92,-2.50368 -3.0468,-3.50391 -1.1269,-1.00023 -2.3728,-1.8389 -3.7676,-2.5293 -1.3948,-0.69039 -2.9388,-1.23225 -4.6563,-1.64453 -2.5896,-0.62165 -5.1701,-1.14503 -7.748,-1.50586 -2.5779,-0.36083 -5.1514,-0.56019 -7.7246,-0.53515 z" /></g><path
       fill="#0fabec"
       opacity="1"
       stroke="none"
       d="m 1648.5568,476.51453 c -5.3251,-1.93559 -10.2703,-3.7733 -15.2984,-5.64177 5.7914,-7.49029 8.4596,-8.27159 16.722,-5.20433 7.6042,2.82291 15.2272,5.59517 23.2029,8.52223 -0.5868,3.41541 -1.1386,6.62711 -1.8302,10.65316 -7.6613,-2.81327 -15.0388,-5.52234 -22.7963,-8.32929 z"
       id="path6-7"
       style="fill:#000000" /><path
       fill="#14acec"
       opacity="1"
       stroke="none"
       d="m 1713.2832,465.55942 c 6.5187,-3.6659 9.0901,1.76734 13.6988,5.06182 -7.7136,3.08052 -14.6216,5.83932 -22.0033,8.7873 -1.4422,-2.98339 -2.7605,-5.71023 -4.2877,-8.86944 4.3372,-1.72354 8.2773,-3.28929 12.5922,-4.97968 z"
       id="path10-6"
       style="fill:#000000" /><path
       fill="#19adec"
       opacity="1"
       stroke="none"
       d="m 1655.4252,452.59356 c 1.9936,-0.16095 3.806,-0.45885 5.3851,0.0172 3.4682,1.0455 6.8089,2.50827 10.2188,3.75378 5.6036,2.04685 5.7633,2.42261 2.9254,8.83213 -7.4289,-2.69022 -14.9086,-5.39881 -23.4016,-8.47431 1.9941,-1.70242 3.2897,-2.80856 4.8723,-4.12878 z"
       id="path12-0"
       style="fill:#000000" /><path
       fill="#1daeec"
       opacity="1"
       stroke="none"
       d="m 1704.709,458.91117 c -2.7914,1.0585 -5.2426,1.97084 -8.0901,3.03065 -0.9913,-2.07426 -1.8855,-3.9454 -2.7465,-5.74705 7.0669,-5.21947 9.0329,-5.14427 14.9827,0.70866 -1.3792,0.67467 -2.5925,1.26813 -4.1461,2.00774 z"
       id="path14-0"
       style="fill:#000000" /><path
       fill="#20aeed"
       opacity="1"
       stroke="none"
       d="m 1673.9533,444.31623 c 4.4173,1.0406 4.0695,3.53979 2.4919,6.84093 -3.8683,-1.42514 -7.6946,-2.83484 -11.7639,-4.33407 2.0641,-4.86346 5.2994,-4.38975 9.272,-2.50686 z"
       id="path16-1"
       style="fill:#000000" /><path
       fill="#2ab0ed"
       opacity="1"
       stroke="none"
       d="m 1695.3584,446.9222 c -7.2847,4.95013 -5.6728,-3.33322 -8.6702,-4.73376 0.3946,-0.55717 0.7893,-1.11434 1.184,-1.67152 2.5638,2.04993 5.1277,4.09985 7.4862,6.40528 z"
       id="path18-0"
       style="fill:#000000" /></g></g></svg>
